%TF.GenerationSoftware,KiCad,Pcbnew,10.0.0*%
%TF.CreationDate,2026-04-07T03:52:21+10:00*%
%TF.ProjectId,SensorBoard,53656e73-6f72-4426-9f61-72642e6b6963,rev?*%
%TF.SameCoordinates,Original*%
%TF.FileFunction,Drillmap*%
%TF.FilePolarity,Positive*%
%FSLAX45Y45*%
G04 Gerber Fmt 4.5, Leading zero omitted, Abs format (unit mm)*
G04 Created by KiCad (PCBNEW 10.0.0) date 2026-04-07 03:52:21*
%MOMM*%
%LPD*%
G01*
G04 APERTURE LIST*
%ADD10C,0.050000*%
%ADD11C,0.200000*%
%ADD12C,0.330200*%
G04 APERTURE END LIST*
D10*
X13127810Y-12876000D02*
X13127810Y-12926000D01*
X13127810Y-12926000D02*
X16567608Y-12926000D01*
X11484610Y-11232801D02*
G75*
G02*
X13127810Y-12876000I0J-1643200D01*
G01*
X16567608Y-12926000D02*
X16567608Y-12863999D01*
X9859010Y-10204101D02*
X9859010Y-11067701D01*
X10024110Y-11232800D02*
G75*
G02*
X9859010Y-11067701I0J165100D01*
G01*
X10024110Y-11232800D02*
X10024110Y-11232800D01*
X10024110Y-11232800D02*
X11484610Y-11232801D01*
X16567608Y-12863999D02*
G75*
G02*
X18190210Y-11232798I1626902J4299D01*
G01*
X18190210Y-11232801D02*
X18190210Y-11232800D01*
X18190210Y-11232800D02*
X19676110Y-11232800D01*
X19841210Y-11067700D02*
G75*
G02*
X19676110Y-11232800I-165100J0D01*
G01*
X19841210Y-11067700D02*
X19841210Y-11067701D01*
X19841210Y-11067701D02*
X19841210Y-10204101D01*
X9859010Y-10204101D02*
G75*
G02*
X19841210Y-10204101I4991100J-4991099D01*
G01*
X9859010Y-10204101D02*
X9859010Y-10204101D01*
D11*
D12*
X12551410Y-11169301D02*
X12881610Y-11499500D01*
X12881610Y-11169301D02*
X12551410Y-11499500D01*
X16793210Y-11169301D02*
X17123410Y-11499500D01*
X17123410Y-11169301D02*
X16793210Y-11499500D01*
D11*
X10117287Y-13239984D02*
X10117287Y-13039984D01*
X10117287Y-13039984D02*
X10164906Y-13039984D01*
X10164906Y-13039984D02*
X10193477Y-13049508D01*
X10193477Y-13049508D02*
X10212525Y-13068556D01*
X10212525Y-13068556D02*
X10222049Y-13087603D01*
X10222049Y-13087603D02*
X10231572Y-13125698D01*
X10231572Y-13125698D02*
X10231572Y-13154270D01*
X10231572Y-13154270D02*
X10222049Y-13192365D01*
X10222049Y-13192365D02*
X10212525Y-13211413D01*
X10212525Y-13211413D02*
X10193477Y-13230460D01*
X10193477Y-13230460D02*
X10164906Y-13239984D01*
X10164906Y-13239984D02*
X10117287Y-13239984D01*
X10317287Y-13239984D02*
X10317287Y-13106651D01*
X10317287Y-13144746D02*
X10326811Y-13125698D01*
X10326811Y-13125698D02*
X10336334Y-13116175D01*
X10336334Y-13116175D02*
X10355382Y-13106651D01*
X10355382Y-13106651D02*
X10374430Y-13106651D01*
X10441096Y-13239984D02*
X10441096Y-13106651D01*
X10441096Y-13039984D02*
X10431572Y-13049508D01*
X10431572Y-13049508D02*
X10441096Y-13059032D01*
X10441096Y-13059032D02*
X10450620Y-13049508D01*
X10450620Y-13049508D02*
X10441096Y-13039984D01*
X10441096Y-13039984D02*
X10441096Y-13059032D01*
X10564906Y-13239984D02*
X10545858Y-13230460D01*
X10545858Y-13230460D02*
X10536334Y-13211413D01*
X10536334Y-13211413D02*
X10536334Y-13039984D01*
X10669668Y-13239984D02*
X10650620Y-13230460D01*
X10650620Y-13230460D02*
X10641096Y-13211413D01*
X10641096Y-13211413D02*
X10641096Y-13039984D01*
X10898239Y-13239984D02*
X10898239Y-13039984D01*
X10898239Y-13039984D02*
X10964906Y-13182841D01*
X10964906Y-13182841D02*
X11031572Y-13039984D01*
X11031572Y-13039984D02*
X11031572Y-13239984D01*
X11212525Y-13239984D02*
X11212525Y-13135222D01*
X11212525Y-13135222D02*
X11203001Y-13116175D01*
X11203001Y-13116175D02*
X11183953Y-13106651D01*
X11183953Y-13106651D02*
X11145858Y-13106651D01*
X11145858Y-13106651D02*
X11126811Y-13116175D01*
X11212525Y-13230460D02*
X11193477Y-13239984D01*
X11193477Y-13239984D02*
X11145858Y-13239984D01*
X11145858Y-13239984D02*
X11126811Y-13230460D01*
X11126811Y-13230460D02*
X11117287Y-13211413D01*
X11117287Y-13211413D02*
X11117287Y-13192365D01*
X11117287Y-13192365D02*
X11126811Y-13173318D01*
X11126811Y-13173318D02*
X11145858Y-13163794D01*
X11145858Y-13163794D02*
X11193477Y-13163794D01*
X11193477Y-13163794D02*
X11212525Y-13154270D01*
X11307763Y-13106651D02*
X11307763Y-13306651D01*
X11307763Y-13116175D02*
X11326810Y-13106651D01*
X11326810Y-13106651D02*
X11364906Y-13106651D01*
X11364906Y-13106651D02*
X11383953Y-13116175D01*
X11383953Y-13116175D02*
X11393477Y-13125698D01*
X11393477Y-13125698D02*
X11403001Y-13144746D01*
X11403001Y-13144746D02*
X11403001Y-13201889D01*
X11403001Y-13201889D02*
X11393477Y-13220937D01*
X11393477Y-13220937D02*
X11383953Y-13230460D01*
X11383953Y-13230460D02*
X11364906Y-13239984D01*
X11364906Y-13239984D02*
X11326810Y-13239984D01*
X11326810Y-13239984D02*
X11307763Y-13230460D01*
X11488715Y-13220937D02*
X11498239Y-13230460D01*
X11498239Y-13230460D02*
X11488715Y-13239984D01*
X11488715Y-13239984D02*
X11479191Y-13230460D01*
X11479191Y-13230460D02*
X11488715Y-13220937D01*
X11488715Y-13220937D02*
X11488715Y-13239984D01*
X11488715Y-13116175D02*
X11498239Y-13125698D01*
X11498239Y-13125698D02*
X11488715Y-13135222D01*
X11488715Y-13135222D02*
X11479191Y-13125698D01*
X11479191Y-13125698D02*
X11488715Y-13116175D01*
X11488715Y-13116175D02*
X11488715Y-13135222D01*
X9656510Y-13468500D02*
X9856510Y-13668500D01*
X9856510Y-13468500D02*
X9656510Y-13668500D01*
X10098239Y-13459984D02*
X10222049Y-13459984D01*
X10222049Y-13459984D02*
X10155382Y-13536175D01*
X10155382Y-13536175D02*
X10183953Y-13536175D01*
X10183953Y-13536175D02*
X10203001Y-13545698D01*
X10203001Y-13545698D02*
X10212525Y-13555222D01*
X10212525Y-13555222D02*
X10222049Y-13574270D01*
X10222049Y-13574270D02*
X10222049Y-13621889D01*
X10222049Y-13621889D02*
X10212525Y-13640937D01*
X10212525Y-13640937D02*
X10203001Y-13650460D01*
X10203001Y-13650460D02*
X10183953Y-13659984D01*
X10183953Y-13659984D02*
X10126811Y-13659984D01*
X10126811Y-13659984D02*
X10107763Y-13650460D01*
X10107763Y-13650460D02*
X10098239Y-13640937D01*
X10307763Y-13640937D02*
X10317287Y-13650460D01*
X10317287Y-13650460D02*
X10307763Y-13659984D01*
X10307763Y-13659984D02*
X10298239Y-13650460D01*
X10298239Y-13650460D02*
X10307763Y-13640937D01*
X10307763Y-13640937D02*
X10307763Y-13659984D01*
X10383953Y-13459984D02*
X10507763Y-13459984D01*
X10507763Y-13459984D02*
X10441096Y-13536175D01*
X10441096Y-13536175D02*
X10469668Y-13536175D01*
X10469668Y-13536175D02*
X10488715Y-13545698D01*
X10488715Y-13545698D02*
X10498239Y-13555222D01*
X10498239Y-13555222D02*
X10507763Y-13574270D01*
X10507763Y-13574270D02*
X10507763Y-13621889D01*
X10507763Y-13621889D02*
X10498239Y-13640937D01*
X10498239Y-13640937D02*
X10488715Y-13650460D01*
X10488715Y-13650460D02*
X10469668Y-13659984D01*
X10469668Y-13659984D02*
X10412525Y-13659984D01*
X10412525Y-13659984D02*
X10393477Y-13650460D01*
X10393477Y-13650460D02*
X10383953Y-13640937D01*
X10631572Y-13459984D02*
X10650620Y-13459984D01*
X10650620Y-13459984D02*
X10669668Y-13469508D01*
X10669668Y-13469508D02*
X10679192Y-13479032D01*
X10679192Y-13479032D02*
X10688715Y-13498079D01*
X10688715Y-13498079D02*
X10698239Y-13536175D01*
X10698239Y-13536175D02*
X10698239Y-13583794D01*
X10698239Y-13583794D02*
X10688715Y-13621889D01*
X10688715Y-13621889D02*
X10679192Y-13640937D01*
X10679192Y-13640937D02*
X10669668Y-13650460D01*
X10669668Y-13650460D02*
X10650620Y-13659984D01*
X10650620Y-13659984D02*
X10631572Y-13659984D01*
X10631572Y-13659984D02*
X10612525Y-13650460D01*
X10612525Y-13650460D02*
X10603001Y-13640937D01*
X10603001Y-13640937D02*
X10593477Y-13621889D01*
X10593477Y-13621889D02*
X10583953Y-13583794D01*
X10583953Y-13583794D02*
X10583953Y-13536175D01*
X10583953Y-13536175D02*
X10593477Y-13498079D01*
X10593477Y-13498079D02*
X10603001Y-13479032D01*
X10603001Y-13479032D02*
X10612525Y-13469508D01*
X10612525Y-13469508D02*
X10631572Y-13459984D01*
X10774430Y-13479032D02*
X10783953Y-13469508D01*
X10783953Y-13469508D02*
X10803001Y-13459984D01*
X10803001Y-13459984D02*
X10850620Y-13459984D01*
X10850620Y-13459984D02*
X10869668Y-13469508D01*
X10869668Y-13469508D02*
X10879192Y-13479032D01*
X10879192Y-13479032D02*
X10888715Y-13498079D01*
X10888715Y-13498079D02*
X10888715Y-13517127D01*
X10888715Y-13517127D02*
X10879192Y-13545698D01*
X10879192Y-13545698D02*
X10764906Y-13659984D01*
X10764906Y-13659984D02*
X10888715Y-13659984D01*
X10974430Y-13659984D02*
X10974430Y-13526651D01*
X10974430Y-13545698D02*
X10983953Y-13536175D01*
X10983953Y-13536175D02*
X11003001Y-13526651D01*
X11003001Y-13526651D02*
X11031573Y-13526651D01*
X11031573Y-13526651D02*
X11050620Y-13536175D01*
X11050620Y-13536175D02*
X11060144Y-13555222D01*
X11060144Y-13555222D02*
X11060144Y-13659984D01*
X11060144Y-13555222D02*
X11069668Y-13536175D01*
X11069668Y-13536175D02*
X11088715Y-13526651D01*
X11088715Y-13526651D02*
X11117287Y-13526651D01*
X11117287Y-13526651D02*
X11136334Y-13536175D01*
X11136334Y-13536175D02*
X11145858Y-13555222D01*
X11145858Y-13555222D02*
X11145858Y-13659984D01*
X11241096Y-13659984D02*
X11241096Y-13526651D01*
X11241096Y-13545698D02*
X11250620Y-13536175D01*
X11250620Y-13536175D02*
X11269668Y-13526651D01*
X11269668Y-13526651D02*
X11298239Y-13526651D01*
X11298239Y-13526651D02*
X11317287Y-13536175D01*
X11317287Y-13536175D02*
X11326811Y-13555222D01*
X11326811Y-13555222D02*
X11326811Y-13659984D01*
X11326811Y-13555222D02*
X11336334Y-13536175D01*
X11336334Y-13536175D02*
X11355382Y-13526651D01*
X11355382Y-13526651D02*
X11383953Y-13526651D01*
X11383953Y-13526651D02*
X11403001Y-13536175D01*
X11403001Y-13536175D02*
X11412525Y-13555222D01*
X11412525Y-13555222D02*
X11412525Y-13659984D01*
X11803001Y-13450460D02*
X11631573Y-13707603D01*
X12060144Y-13459984D02*
X12079192Y-13459984D01*
X12079192Y-13459984D02*
X12098239Y-13469508D01*
X12098239Y-13469508D02*
X12107763Y-13479032D01*
X12107763Y-13479032D02*
X12117287Y-13498079D01*
X12117287Y-13498079D02*
X12126811Y-13536175D01*
X12126811Y-13536175D02*
X12126811Y-13583794D01*
X12126811Y-13583794D02*
X12117287Y-13621889D01*
X12117287Y-13621889D02*
X12107763Y-13640937D01*
X12107763Y-13640937D02*
X12098239Y-13650460D01*
X12098239Y-13650460D02*
X12079192Y-13659984D01*
X12079192Y-13659984D02*
X12060144Y-13659984D01*
X12060144Y-13659984D02*
X12041096Y-13650460D01*
X12041096Y-13650460D02*
X12031573Y-13640937D01*
X12031573Y-13640937D02*
X12022049Y-13621889D01*
X12022049Y-13621889D02*
X12012525Y-13583794D01*
X12012525Y-13583794D02*
X12012525Y-13536175D01*
X12012525Y-13536175D02*
X12022049Y-13498079D01*
X12022049Y-13498079D02*
X12031573Y-13479032D01*
X12031573Y-13479032D02*
X12041096Y-13469508D01*
X12041096Y-13469508D02*
X12060144Y-13459984D01*
X12212525Y-13640937D02*
X12222049Y-13650460D01*
X12222049Y-13650460D02*
X12212525Y-13659984D01*
X12212525Y-13659984D02*
X12203001Y-13650460D01*
X12203001Y-13650460D02*
X12212525Y-13640937D01*
X12212525Y-13640937D02*
X12212525Y-13659984D01*
X12412525Y-13659984D02*
X12298239Y-13659984D01*
X12355382Y-13659984D02*
X12355382Y-13459984D01*
X12355382Y-13459984D02*
X12336334Y-13488556D01*
X12336334Y-13488556D02*
X12317287Y-13507603D01*
X12317287Y-13507603D02*
X12298239Y-13517127D01*
X12479192Y-13459984D02*
X12603001Y-13459984D01*
X12603001Y-13459984D02*
X12536334Y-13536175D01*
X12536334Y-13536175D02*
X12564906Y-13536175D01*
X12564906Y-13536175D02*
X12583954Y-13545698D01*
X12583954Y-13545698D02*
X12593477Y-13555222D01*
X12593477Y-13555222D02*
X12603001Y-13574270D01*
X12603001Y-13574270D02*
X12603001Y-13621889D01*
X12603001Y-13621889D02*
X12593477Y-13640937D01*
X12593477Y-13640937D02*
X12583954Y-13650460D01*
X12583954Y-13650460D02*
X12564906Y-13659984D01*
X12564906Y-13659984D02*
X12507763Y-13659984D01*
X12507763Y-13659984D02*
X12488715Y-13650460D01*
X12488715Y-13650460D02*
X12479192Y-13640937D01*
X12726811Y-13459984D02*
X12745858Y-13459984D01*
X12745858Y-13459984D02*
X12764906Y-13469508D01*
X12764906Y-13469508D02*
X12774430Y-13479032D01*
X12774430Y-13479032D02*
X12783954Y-13498079D01*
X12783954Y-13498079D02*
X12793477Y-13536175D01*
X12793477Y-13536175D02*
X12793477Y-13583794D01*
X12793477Y-13583794D02*
X12783954Y-13621889D01*
X12783954Y-13621889D02*
X12774430Y-13640937D01*
X12774430Y-13640937D02*
X12764906Y-13650460D01*
X12764906Y-13650460D02*
X12745858Y-13659984D01*
X12745858Y-13659984D02*
X12726811Y-13659984D01*
X12726811Y-13659984D02*
X12707763Y-13650460D01*
X12707763Y-13650460D02*
X12698239Y-13640937D01*
X12698239Y-13640937D02*
X12688715Y-13621889D01*
X12688715Y-13621889D02*
X12679192Y-13583794D01*
X12679192Y-13583794D02*
X12679192Y-13536175D01*
X12679192Y-13536175D02*
X12688715Y-13498079D01*
X12688715Y-13498079D02*
X12698239Y-13479032D01*
X12698239Y-13479032D02*
X12707763Y-13469508D01*
X12707763Y-13469508D02*
X12726811Y-13459984D01*
X12917287Y-13459984D02*
X12936335Y-13459984D01*
X12936335Y-13459984D02*
X12955382Y-13469508D01*
X12955382Y-13469508D02*
X12964906Y-13479032D01*
X12964906Y-13479032D02*
X12974430Y-13498079D01*
X12974430Y-13498079D02*
X12983954Y-13536175D01*
X12983954Y-13536175D02*
X12983954Y-13583794D01*
X12983954Y-13583794D02*
X12974430Y-13621889D01*
X12974430Y-13621889D02*
X12964906Y-13640937D01*
X12964906Y-13640937D02*
X12955382Y-13650460D01*
X12955382Y-13650460D02*
X12936335Y-13659984D01*
X12936335Y-13659984D02*
X12917287Y-13659984D01*
X12917287Y-13659984D02*
X12898239Y-13650460D01*
X12898239Y-13650460D02*
X12888715Y-13640937D01*
X12888715Y-13640937D02*
X12879192Y-13621889D01*
X12879192Y-13621889D02*
X12869668Y-13583794D01*
X12869668Y-13583794D02*
X12869668Y-13536175D01*
X12869668Y-13536175D02*
X12879192Y-13498079D01*
X12879192Y-13498079D02*
X12888715Y-13479032D01*
X12888715Y-13479032D02*
X12898239Y-13469508D01*
X12898239Y-13469508D02*
X12917287Y-13459984D01*
X13060144Y-13459984D02*
X13060144Y-13498079D01*
X13136335Y-13459984D02*
X13136335Y-13498079D01*
X13431573Y-13736175D02*
X13422049Y-13726651D01*
X13422049Y-13726651D02*
X13403001Y-13698079D01*
X13403001Y-13698079D02*
X13393477Y-13679032D01*
X13393477Y-13679032D02*
X13383954Y-13650460D01*
X13383954Y-13650460D02*
X13374430Y-13602841D01*
X13374430Y-13602841D02*
X13374430Y-13564746D01*
X13374430Y-13564746D02*
X13383954Y-13517127D01*
X13383954Y-13517127D02*
X13393477Y-13488556D01*
X13393477Y-13488556D02*
X13403001Y-13469508D01*
X13403001Y-13469508D02*
X13422049Y-13440937D01*
X13422049Y-13440937D02*
X13431573Y-13431413D01*
X13498239Y-13479032D02*
X13507763Y-13469508D01*
X13507763Y-13469508D02*
X13526811Y-13459984D01*
X13526811Y-13459984D02*
X13574430Y-13459984D01*
X13574430Y-13459984D02*
X13593477Y-13469508D01*
X13593477Y-13469508D02*
X13603001Y-13479032D01*
X13603001Y-13479032D02*
X13612525Y-13498079D01*
X13612525Y-13498079D02*
X13612525Y-13517127D01*
X13612525Y-13517127D02*
X13603001Y-13545698D01*
X13603001Y-13545698D02*
X13488716Y-13659984D01*
X13488716Y-13659984D02*
X13612525Y-13659984D01*
X13850620Y-13659984D02*
X13850620Y-13459984D01*
X13936335Y-13659984D02*
X13936335Y-13555222D01*
X13936335Y-13555222D02*
X13926811Y-13536175D01*
X13926811Y-13536175D02*
X13907763Y-13526651D01*
X13907763Y-13526651D02*
X13879192Y-13526651D01*
X13879192Y-13526651D02*
X13860144Y-13536175D01*
X13860144Y-13536175D02*
X13850620Y-13545698D01*
X14060144Y-13659984D02*
X14041097Y-13650460D01*
X14041097Y-13650460D02*
X14031573Y-13640937D01*
X14031573Y-13640937D02*
X14022049Y-13621889D01*
X14022049Y-13621889D02*
X14022049Y-13564746D01*
X14022049Y-13564746D02*
X14031573Y-13545698D01*
X14031573Y-13545698D02*
X14041097Y-13536175D01*
X14041097Y-13536175D02*
X14060144Y-13526651D01*
X14060144Y-13526651D02*
X14088716Y-13526651D01*
X14088716Y-13526651D02*
X14107763Y-13536175D01*
X14107763Y-13536175D02*
X14117287Y-13545698D01*
X14117287Y-13545698D02*
X14126811Y-13564746D01*
X14126811Y-13564746D02*
X14126811Y-13621889D01*
X14126811Y-13621889D02*
X14117287Y-13640937D01*
X14117287Y-13640937D02*
X14107763Y-13650460D01*
X14107763Y-13650460D02*
X14088716Y-13659984D01*
X14088716Y-13659984D02*
X14060144Y-13659984D01*
X14241097Y-13659984D02*
X14222049Y-13650460D01*
X14222049Y-13650460D02*
X14212525Y-13631413D01*
X14212525Y-13631413D02*
X14212525Y-13459984D01*
X14393478Y-13650460D02*
X14374430Y-13659984D01*
X14374430Y-13659984D02*
X14336335Y-13659984D01*
X14336335Y-13659984D02*
X14317287Y-13650460D01*
X14317287Y-13650460D02*
X14307763Y-13631413D01*
X14307763Y-13631413D02*
X14307763Y-13555222D01*
X14307763Y-13555222D02*
X14317287Y-13536175D01*
X14317287Y-13536175D02*
X14336335Y-13526651D01*
X14336335Y-13526651D02*
X14374430Y-13526651D01*
X14374430Y-13526651D02*
X14393478Y-13536175D01*
X14393478Y-13536175D02*
X14403001Y-13555222D01*
X14403001Y-13555222D02*
X14403001Y-13574270D01*
X14403001Y-13574270D02*
X14307763Y-13593318D01*
X14479192Y-13650460D02*
X14498239Y-13659984D01*
X14498239Y-13659984D02*
X14536335Y-13659984D01*
X14536335Y-13659984D02*
X14555382Y-13650460D01*
X14555382Y-13650460D02*
X14564906Y-13631413D01*
X14564906Y-13631413D02*
X14564906Y-13621889D01*
X14564906Y-13621889D02*
X14555382Y-13602841D01*
X14555382Y-13602841D02*
X14536335Y-13593318D01*
X14536335Y-13593318D02*
X14507763Y-13593318D01*
X14507763Y-13593318D02*
X14488716Y-13583794D01*
X14488716Y-13583794D02*
X14479192Y-13564746D01*
X14479192Y-13564746D02*
X14479192Y-13555222D01*
X14479192Y-13555222D02*
X14488716Y-13536175D01*
X14488716Y-13536175D02*
X14507763Y-13526651D01*
X14507763Y-13526651D02*
X14536335Y-13526651D01*
X14536335Y-13526651D02*
X14555382Y-13536175D01*
X14631573Y-13736175D02*
X14641097Y-13726651D01*
X14641097Y-13726651D02*
X14660144Y-13698079D01*
X14660144Y-13698079D02*
X14669668Y-13679032D01*
X14669668Y-13679032D02*
X14679192Y-13650460D01*
X14679192Y-13650460D02*
X14688716Y-13602841D01*
X14688716Y-13602841D02*
X14688716Y-13564746D01*
X14688716Y-13564746D02*
X14679192Y-13517127D01*
X14679192Y-13517127D02*
X14669668Y-13488556D01*
X14669668Y-13488556D02*
X14660144Y-13469508D01*
X14660144Y-13469508D02*
X14641097Y-13440937D01*
X14641097Y-13440937D02*
X14631573Y-13431413D01*
X14993478Y-13736175D02*
X14983954Y-13726651D01*
X14983954Y-13726651D02*
X14964906Y-13698079D01*
X14964906Y-13698079D02*
X14955382Y-13679032D01*
X14955382Y-13679032D02*
X14945859Y-13650460D01*
X14945859Y-13650460D02*
X14936335Y-13602841D01*
X14936335Y-13602841D02*
X14936335Y-13564746D01*
X14936335Y-13564746D02*
X14945859Y-13517127D01*
X14945859Y-13517127D02*
X14955382Y-13488556D01*
X14955382Y-13488556D02*
X14964906Y-13469508D01*
X14964906Y-13469508D02*
X14983954Y-13440937D01*
X14983954Y-13440937D02*
X14993478Y-13431413D01*
X15069668Y-13526651D02*
X15069668Y-13659984D01*
X15069668Y-13545698D02*
X15079192Y-13536175D01*
X15079192Y-13536175D02*
X15098239Y-13526651D01*
X15098239Y-13526651D02*
X15126811Y-13526651D01*
X15126811Y-13526651D02*
X15145859Y-13536175D01*
X15145859Y-13536175D02*
X15155382Y-13555222D01*
X15155382Y-13555222D02*
X15155382Y-13659984D01*
X15279192Y-13659984D02*
X15260144Y-13650460D01*
X15260144Y-13650460D02*
X15250620Y-13640937D01*
X15250620Y-13640937D02*
X15241097Y-13621889D01*
X15241097Y-13621889D02*
X15241097Y-13564746D01*
X15241097Y-13564746D02*
X15250620Y-13545698D01*
X15250620Y-13545698D02*
X15260144Y-13536175D01*
X15260144Y-13536175D02*
X15279192Y-13526651D01*
X15279192Y-13526651D02*
X15307763Y-13526651D01*
X15307763Y-13526651D02*
X15326811Y-13536175D01*
X15326811Y-13536175D02*
X15336335Y-13545698D01*
X15336335Y-13545698D02*
X15345859Y-13564746D01*
X15345859Y-13564746D02*
X15345859Y-13621889D01*
X15345859Y-13621889D02*
X15336335Y-13640937D01*
X15336335Y-13640937D02*
X15326811Y-13650460D01*
X15326811Y-13650460D02*
X15307763Y-13659984D01*
X15307763Y-13659984D02*
X15279192Y-13659984D01*
X15403001Y-13526651D02*
X15479192Y-13526651D01*
X15431573Y-13459984D02*
X15431573Y-13631413D01*
X15431573Y-13631413D02*
X15441097Y-13650460D01*
X15441097Y-13650460D02*
X15460144Y-13659984D01*
X15460144Y-13659984D02*
X15479192Y-13659984D01*
X15698240Y-13526651D02*
X15698240Y-13726651D01*
X15698240Y-13536175D02*
X15717287Y-13526651D01*
X15717287Y-13526651D02*
X15755382Y-13526651D01*
X15755382Y-13526651D02*
X15774430Y-13536175D01*
X15774430Y-13536175D02*
X15783954Y-13545698D01*
X15783954Y-13545698D02*
X15793478Y-13564746D01*
X15793478Y-13564746D02*
X15793478Y-13621889D01*
X15793478Y-13621889D02*
X15783954Y-13640937D01*
X15783954Y-13640937D02*
X15774430Y-13650460D01*
X15774430Y-13650460D02*
X15755382Y-13659984D01*
X15755382Y-13659984D02*
X15717287Y-13659984D01*
X15717287Y-13659984D02*
X15698240Y-13650460D01*
X15907763Y-13659984D02*
X15888716Y-13650460D01*
X15888716Y-13650460D02*
X15879192Y-13631413D01*
X15879192Y-13631413D02*
X15879192Y-13459984D01*
X16069668Y-13659984D02*
X16069668Y-13555222D01*
X16069668Y-13555222D02*
X16060144Y-13536175D01*
X16060144Y-13536175D02*
X16041097Y-13526651D01*
X16041097Y-13526651D02*
X16003001Y-13526651D01*
X16003001Y-13526651D02*
X15983954Y-13536175D01*
X16069668Y-13650460D02*
X16050621Y-13659984D01*
X16050621Y-13659984D02*
X16003001Y-13659984D01*
X16003001Y-13659984D02*
X15983954Y-13650460D01*
X15983954Y-13650460D02*
X15974430Y-13631413D01*
X15974430Y-13631413D02*
X15974430Y-13612365D01*
X15974430Y-13612365D02*
X15983954Y-13593318D01*
X15983954Y-13593318D02*
X16003001Y-13583794D01*
X16003001Y-13583794D02*
X16050621Y-13583794D01*
X16050621Y-13583794D02*
X16069668Y-13574270D01*
X16136335Y-13526651D02*
X16212525Y-13526651D01*
X16164906Y-13459984D02*
X16164906Y-13631413D01*
X16164906Y-13631413D02*
X16174430Y-13650460D01*
X16174430Y-13650460D02*
X16193478Y-13659984D01*
X16193478Y-13659984D02*
X16212525Y-13659984D01*
X16355382Y-13650460D02*
X16336335Y-13659984D01*
X16336335Y-13659984D02*
X16298240Y-13659984D01*
X16298240Y-13659984D02*
X16279192Y-13650460D01*
X16279192Y-13650460D02*
X16269668Y-13631413D01*
X16269668Y-13631413D02*
X16269668Y-13555222D01*
X16269668Y-13555222D02*
X16279192Y-13536175D01*
X16279192Y-13536175D02*
X16298240Y-13526651D01*
X16298240Y-13526651D02*
X16336335Y-13526651D01*
X16336335Y-13526651D02*
X16355382Y-13536175D01*
X16355382Y-13536175D02*
X16364906Y-13555222D01*
X16364906Y-13555222D02*
X16364906Y-13574270D01*
X16364906Y-13574270D02*
X16269668Y-13593318D01*
X16536335Y-13659984D02*
X16536335Y-13459984D01*
X16536335Y-13650460D02*
X16517287Y-13659984D01*
X16517287Y-13659984D02*
X16479192Y-13659984D01*
X16479192Y-13659984D02*
X16460144Y-13650460D01*
X16460144Y-13650460D02*
X16450621Y-13640937D01*
X16450621Y-13640937D02*
X16441097Y-13621889D01*
X16441097Y-13621889D02*
X16441097Y-13564746D01*
X16441097Y-13564746D02*
X16450621Y-13545698D01*
X16450621Y-13545698D02*
X16460144Y-13536175D01*
X16460144Y-13536175D02*
X16479192Y-13526651D01*
X16479192Y-13526651D02*
X16517287Y-13526651D01*
X16517287Y-13526651D02*
X16536335Y-13536175D01*
X16612525Y-13736175D02*
X16622049Y-13726651D01*
X16622049Y-13726651D02*
X16641097Y-13698079D01*
X16641097Y-13698079D02*
X16650621Y-13679032D01*
X16650621Y-13679032D02*
X16660144Y-13650460D01*
X16660144Y-13650460D02*
X16669668Y-13602841D01*
X16669668Y-13602841D02*
X16669668Y-13564746D01*
X16669668Y-13564746D02*
X16660144Y-13517127D01*
X16660144Y-13517127D02*
X16650621Y-13488556D01*
X16650621Y-13488556D02*
X16641097Y-13469508D01*
X16641097Y-13469508D02*
X16622049Y-13440937D01*
X16622049Y-13440937D02*
X16612525Y-13431413D01*
M02*
