M48
; DRILL file KiCad 10.0.0 date 2026-04-07T03:52:21
; FORMAT={-:-/ absolute / metric / decimal}
; #@! TF.CreationDate,2026-04-07T03:52:21+10:00
; #@! TF.GenerationSoftware,Kicad,Pcbnew,10.0.0
; #@! TF.FileFunction,Plated,1,2,PTH
FMAT,2
METRIC
; #@! TA.AperFunction,Plated,PTH,ViaDrill
T1C0.508
; #@! TA.AperFunction,Plated,PTH,ComponentDrill
T2C1.020
%
G90
G05
T1
X99.901Y-109.407
X105.575Y-109.407
X106.222Y-103.442
X112.445Y-103.442
X113.322Y-98.993
X119.545Y-98.993
X120.307Y-95.564
X126.53Y-95.564
X127.292Y-92.77
X133.515Y-92.77
X134.531Y-90.992
X139.738Y-106.105
X139.738Y-123.123
X140.119Y-90.992
X141.897Y-89.976
X147.231Y-89.976
X149.263Y-89.976
X153.708Y-104.708
X155.105Y-89.976
X156.401Y-120.26
X156.606Y-91.123
X162.448Y-91.123
X163.468Y-92.77
X169.691Y-92.77
X170.337Y-95.568
X176.56Y-95.568
X177.103Y-98.235
X183.545Y-98.997
X184.307Y-103.442
X190.53Y-103.442
X191.154Y-109.28
X197.377Y-109.28
T2
X141.897Y-126.171
X144.437Y-126.171
X146.977Y-126.171
X149.517Y-126.171
X152.057Y-126.171
X154.597Y-126.171
X157.137Y-126.171
X159.677Y-126.171
M30
