%TF.GenerationSoftware,KiCad,Pcbnew,10.0.0*%
%TF.CreationDate,2026-04-07T03:52:14+10:00*%
%TF.ProjectId,SensorBoard,53656e73-6f72-4426-9f61-72642e6b6963,rev?*%
%TF.SameCoordinates,Original*%
%TF.FileFunction,Legend,Top*%
%TF.FilePolarity,Positive*%
%FSLAX46Y46*%
G04 Gerber Fmt 4.6, Leading zero omitted, Abs format (unit mm)*
G04 Created by KiCad (PCBNEW 10.0.0) date 2026-04-07 03:52:14*
%MOMM*%
%LPD*%
G01*
G04 APERTURE LIST*
G04 Aperture macros list*
%AMRoundRect*
0 Rectangle with rounded corners*
0 $1 Rounding radius*
0 $2 $3 $4 $5 $6 $7 $8 $9 X,Y pos of 4 corners*
0 Add a 4 corners polygon primitive as box body*
4,1,4,$2,$3,$4,$5,$6,$7,$8,$9,$2,$3,0*
0 Add four circle primitives for the rounded corners*
1,1,$1+$1,$2,$3*
1,1,$1+$1,$4,$5*
1,1,$1+$1,$6,$7*
1,1,$1+$1,$8,$9*
0 Add four rect primitives between the rounded corners*
20,1,$1+$1,$2,$3,$4,$5,0*
20,1,$1+$1,$4,$5,$6,$7,0*
20,1,$1+$1,$6,$7,$8,$9,0*
20,1,$1+$1,$8,$9,$2,$3,0*%
G04 Aperture macros list end*
%ADD10C,0.254000*%
%ADD11C,0.127000*%
%ADD12C,0.101600*%
%ADD13C,0.158750*%
%ADD14C,0.200000*%
%ADD15C,0.250000*%
%ADD16RoundRect,0.101600X0.575000X-0.900000X0.575000X0.900000X-0.575000X0.900000X-0.575000X-0.900000X0*%
%ADD17R,2.000000X0.600000*%
%ADD18RoundRect,0.101600X-0.450000X-0.350000X0.450000X-0.350000X0.450000X0.350000X-0.450000X0.350000X0*%
%ADD19RoundRect,0.101600X-0.400000X0.400000X-0.400000X-0.400000X0.400000X-0.400000X0.400000X0.400000X0*%
%ADD20C,1.570000*%
%ADD21R,1.570000X1.570000*%
%ADD22C,5.203200*%
G04 APERTURE END LIST*
D10*
X133528127Y-119244252D02*
X133528127Y-120115110D01*
X132004127Y-119679681D02*
X133528127Y-119679681D01*
X132802413Y-120623110D02*
X132802413Y-121131110D01*
X132004127Y-121348824D02*
X132004127Y-120623110D01*
X132004127Y-120623110D02*
X133528127Y-120623110D01*
X133528127Y-120623110D02*
X133528127Y-121348824D01*
X132439556Y-121929395D02*
X132439556Y-122655110D01*
X132004127Y-121784252D02*
X133528127Y-122292252D01*
X133528127Y-122292252D02*
X132004127Y-122800252D01*
X132004127Y-123308253D02*
X133528127Y-123308253D01*
X133528127Y-123308253D02*
X132439556Y-123816253D01*
X132439556Y-123816253D02*
X133528127Y-124324253D01*
X133528127Y-124324253D02*
X132004127Y-124324253D01*
X132802413Y-126719110D02*
X132729841Y-126936824D01*
X132729841Y-126936824D02*
X132657270Y-127009395D01*
X132657270Y-127009395D02*
X132512127Y-127081967D01*
X132512127Y-127081967D02*
X132294413Y-127081967D01*
X132294413Y-127081967D02*
X132149270Y-127009395D01*
X132149270Y-127009395D02*
X132076699Y-126936824D01*
X132076699Y-126936824D02*
X132004127Y-126791681D01*
X132004127Y-126791681D02*
X132004127Y-126211110D01*
X132004127Y-126211110D02*
X133528127Y-126211110D01*
X133528127Y-126211110D02*
X133528127Y-126719110D01*
X133528127Y-126719110D02*
X133455556Y-126864253D01*
X133455556Y-126864253D02*
X133382984Y-126936824D01*
X133382984Y-126936824D02*
X133237841Y-127009395D01*
X133237841Y-127009395D02*
X133092699Y-127009395D01*
X133092699Y-127009395D02*
X132947556Y-126936824D01*
X132947556Y-126936824D02*
X132874984Y-126864253D01*
X132874984Y-126864253D02*
X132802413Y-126719110D01*
X132802413Y-126719110D02*
X132802413Y-126211110D01*
X133528127Y-128388253D02*
X133528127Y-128097967D01*
X133528127Y-128097967D02*
X133455556Y-127952824D01*
X133455556Y-127952824D02*
X133382984Y-127880253D01*
X133382984Y-127880253D02*
X133165270Y-127735110D01*
X133165270Y-127735110D02*
X132874984Y-127662538D01*
X132874984Y-127662538D02*
X132294413Y-127662538D01*
X132294413Y-127662538D02*
X132149270Y-127735110D01*
X132149270Y-127735110D02*
X132076699Y-127807681D01*
X132076699Y-127807681D02*
X132004127Y-127952824D01*
X132004127Y-127952824D02*
X132004127Y-128243110D01*
X132004127Y-128243110D02*
X132076699Y-128388253D01*
X132076699Y-128388253D02*
X132149270Y-128460824D01*
X132149270Y-128460824D02*
X132294413Y-128533395D01*
X132294413Y-128533395D02*
X132657270Y-128533395D01*
X132657270Y-128533395D02*
X132802413Y-128460824D01*
X132802413Y-128460824D02*
X132874984Y-128388253D01*
X132874984Y-128388253D02*
X132947556Y-128243110D01*
X132947556Y-128243110D02*
X132947556Y-127952824D01*
X132947556Y-127952824D02*
X132874984Y-127807681D01*
X132874984Y-127807681D02*
X132802413Y-127735110D01*
X132802413Y-127735110D02*
X132657270Y-127662538D01*
D11*
X149033106Y-103230266D02*
X148996820Y-103266552D01*
X148996820Y-103266552D02*
X148887963Y-103302837D01*
X148887963Y-103302837D02*
X148815391Y-103302837D01*
X148815391Y-103302837D02*
X148706534Y-103266552D01*
X148706534Y-103266552D02*
X148633963Y-103193980D01*
X148633963Y-103193980D02*
X148597677Y-103121409D01*
X148597677Y-103121409D02*
X148561391Y-102976266D01*
X148561391Y-102976266D02*
X148561391Y-102867409D01*
X148561391Y-102867409D02*
X148597677Y-102722266D01*
X148597677Y-102722266D02*
X148633963Y-102649694D01*
X148633963Y-102649694D02*
X148706534Y-102577123D01*
X148706534Y-102577123D02*
X148815391Y-102540837D01*
X148815391Y-102540837D02*
X148887963Y-102540837D01*
X148887963Y-102540837D02*
X148996820Y-102577123D01*
X148996820Y-102577123D02*
X149033106Y-102613409D01*
X149758820Y-103302837D02*
X149323391Y-103302837D01*
X149541106Y-103302837D02*
X149541106Y-102540837D01*
X149541106Y-102540837D02*
X149468534Y-102649694D01*
X149468534Y-102649694D02*
X149395963Y-102722266D01*
X149395963Y-102722266D02*
X149323391Y-102758552D01*
X140191672Y-103937847D02*
X140191672Y-104554704D01*
X140191672Y-104554704D02*
X140227958Y-104627276D01*
X140227958Y-104627276D02*
X140264244Y-104663562D01*
X140264244Y-104663562D02*
X140336815Y-104699847D01*
X140336815Y-104699847D02*
X140481958Y-104699847D01*
X140481958Y-104699847D02*
X140554529Y-104663562D01*
X140554529Y-104663562D02*
X140590815Y-104627276D01*
X140590815Y-104627276D02*
X140627101Y-104554704D01*
X140627101Y-104554704D02*
X140627101Y-103937847D01*
X141389101Y-104699847D02*
X140953672Y-104699847D01*
X141171387Y-104699847D02*
X141171387Y-103937847D01*
X141171387Y-103937847D02*
X141098815Y-104046704D01*
X141098815Y-104046704D02*
X141026244Y-104119276D01*
X141026244Y-104119276D02*
X140953672Y-104155562D01*
X142078529Y-103937847D02*
X141715672Y-103937847D01*
X141715672Y-103937847D02*
X141679386Y-104300704D01*
X141679386Y-104300704D02*
X141715672Y-104264419D01*
X141715672Y-104264419D02*
X141788244Y-104228133D01*
X141788244Y-104228133D02*
X141969672Y-104228133D01*
X141969672Y-104228133D02*
X142042244Y-104264419D01*
X142042244Y-104264419D02*
X142078529Y-104300704D01*
X142078529Y-104300704D02*
X142114815Y-104373276D01*
X142114815Y-104373276D02*
X142114815Y-104554704D01*
X142114815Y-104554704D02*
X142078529Y-104627276D01*
X142078529Y-104627276D02*
X142042244Y-104663562D01*
X142042244Y-104663562D02*
X141969672Y-104699847D01*
X141969672Y-104699847D02*
X141788244Y-104699847D01*
X141788244Y-104699847D02*
X141715672Y-104663562D01*
X141715672Y-104663562D02*
X141679386Y-104627276D01*
D12*
X153447771Y-121569971D02*
X153205866Y-121739305D01*
X153447771Y-121860257D02*
X152939771Y-121860257D01*
X152939771Y-121860257D02*
X152939771Y-121666733D01*
X152939771Y-121666733D02*
X152963961Y-121618352D01*
X152963961Y-121618352D02*
X152988152Y-121594162D01*
X152988152Y-121594162D02*
X153036533Y-121569971D01*
X153036533Y-121569971D02*
X153109104Y-121569971D01*
X153109104Y-121569971D02*
X153157485Y-121594162D01*
X153157485Y-121594162D02*
X153181676Y-121618352D01*
X153181676Y-121618352D02*
X153205866Y-121666733D01*
X153205866Y-121666733D02*
X153205866Y-121860257D01*
X152988152Y-121376448D02*
X152963961Y-121352257D01*
X152963961Y-121352257D02*
X152939771Y-121303876D01*
X152939771Y-121303876D02*
X152939771Y-121182924D01*
X152939771Y-121182924D02*
X152963961Y-121134543D01*
X152963961Y-121134543D02*
X152988152Y-121110352D01*
X152988152Y-121110352D02*
X153036533Y-121086162D01*
X153036533Y-121086162D02*
X153084914Y-121086162D01*
X153084914Y-121086162D02*
X153157485Y-121110352D01*
X153157485Y-121110352D02*
X153447771Y-121400638D01*
X153447771Y-121400638D02*
X153447771Y-121086162D01*
X153447771Y-120844257D02*
X153447771Y-120747495D01*
X153447771Y-120747495D02*
X153423581Y-120699114D01*
X153423581Y-120699114D02*
X153399390Y-120674923D01*
X153399390Y-120674923D02*
X153326819Y-120626542D01*
X153326819Y-120626542D02*
X153230057Y-120602352D01*
X153230057Y-120602352D02*
X153036533Y-120602352D01*
X153036533Y-120602352D02*
X152988152Y-120626542D01*
X152988152Y-120626542D02*
X152963961Y-120650733D01*
X152963961Y-120650733D02*
X152939771Y-120699114D01*
X152939771Y-120699114D02*
X152939771Y-120795876D01*
X152939771Y-120795876D02*
X152963961Y-120844257D01*
X152963961Y-120844257D02*
X152988152Y-120868447D01*
X152988152Y-120868447D02*
X153036533Y-120892638D01*
X153036533Y-120892638D02*
X153157485Y-120892638D01*
X153157485Y-120892638D02*
X153205866Y-120868447D01*
X153205866Y-120868447D02*
X153230057Y-120844257D01*
X153230057Y-120844257D02*
X153254247Y-120795876D01*
X153254247Y-120795876D02*
X153254247Y-120699114D01*
X153254247Y-120699114D02*
X153230057Y-120650733D01*
X153230057Y-120650733D02*
X153205866Y-120626542D01*
X153205866Y-120626542D02*
X153157485Y-120602352D01*
D13*
X102188434Y-109986276D02*
X101765100Y-109381514D01*
X101462719Y-109986276D02*
X101462719Y-108716276D01*
X101462719Y-108716276D02*
X101946529Y-108716276D01*
X101946529Y-108716276D02*
X102067481Y-108776752D01*
X102067481Y-108776752D02*
X102127958Y-108837228D01*
X102127958Y-108837228D02*
X102188434Y-108958180D01*
X102188434Y-108958180D02*
X102188434Y-109139609D01*
X102188434Y-109139609D02*
X102127958Y-109260561D01*
X102127958Y-109260561D02*
X102067481Y-109321038D01*
X102067481Y-109321038D02*
X101946529Y-109381514D01*
X101946529Y-109381514D02*
X101462719Y-109381514D01*
X103337481Y-108716276D02*
X102732719Y-108716276D01*
X102732719Y-108716276D02*
X102672243Y-109321038D01*
X102672243Y-109321038D02*
X102732719Y-109260561D01*
X102732719Y-109260561D02*
X102853672Y-109200085D01*
X102853672Y-109200085D02*
X103156053Y-109200085D01*
X103156053Y-109200085D02*
X103277005Y-109260561D01*
X103277005Y-109260561D02*
X103337481Y-109321038D01*
X103337481Y-109321038D02*
X103397958Y-109441990D01*
X103397958Y-109441990D02*
X103397958Y-109744371D01*
X103397958Y-109744371D02*
X103337481Y-109865323D01*
X103337481Y-109865323D02*
X103277005Y-109925800D01*
X103277005Y-109925800D02*
X103156053Y-109986276D01*
X103156053Y-109986276D02*
X102853672Y-109986276D01*
X102853672Y-109986276D02*
X102732719Y-109925800D01*
X102732719Y-109925800D02*
X102672243Y-109865323D01*
D11*
X157526258Y-120111290D02*
X157526258Y-119748433D01*
X157526258Y-119748433D02*
X158288258Y-119748433D01*
X157925401Y-120365290D02*
X157925401Y-120619290D01*
X157526258Y-120728147D02*
X157526258Y-120365290D01*
X157526258Y-120365290D02*
X158288258Y-120365290D01*
X158288258Y-120365290D02*
X158288258Y-120728147D01*
X157526258Y-121054719D02*
X158288258Y-121054719D01*
X158288258Y-121054719D02*
X158288258Y-121236148D01*
X158288258Y-121236148D02*
X158251972Y-121345005D01*
X158251972Y-121345005D02*
X158179401Y-121417576D01*
X158179401Y-121417576D02*
X158106829Y-121453862D01*
X158106829Y-121453862D02*
X157961686Y-121490148D01*
X157961686Y-121490148D02*
X157852829Y-121490148D01*
X157852829Y-121490148D02*
X157707686Y-121453862D01*
X157707686Y-121453862D02*
X157635115Y-121417576D01*
X157635115Y-121417576D02*
X157562544Y-121345005D01*
X157562544Y-121345005D02*
X157526258Y-121236148D01*
X157526258Y-121236148D02*
X157526258Y-121054719D01*
X157526258Y-122215862D02*
X157526258Y-121780433D01*
X157526258Y-121998148D02*
X158288258Y-121998148D01*
X158288258Y-121998148D02*
X158179401Y-121925576D01*
X158179401Y-121925576D02*
X158106829Y-121853005D01*
X158106829Y-121853005D02*
X158070544Y-121780433D01*
D10*
X162598100Y-125519680D02*
X162598100Y-126608251D01*
X162598100Y-126608251D02*
X162525529Y-126825966D01*
X162525529Y-126825966D02*
X162380386Y-126971109D01*
X162380386Y-126971109D02*
X162162672Y-127043680D01*
X162162672Y-127043680D02*
X162017529Y-127043680D01*
X164122100Y-127043680D02*
X163251243Y-127043680D01*
X163686672Y-127043680D02*
X163686672Y-125519680D01*
X163686672Y-125519680D02*
X163541529Y-125737394D01*
X163541529Y-125737394D02*
X163396386Y-125882537D01*
X163396386Y-125882537D02*
X163251243Y-125955109D01*
%TO.C,C1*%
D14*
X150237101Y-103908005D02*
X151337101Y-103908005D01*
X150237101Y-105508005D02*
X151337101Y-105508005D01*
%TO.C,U15*%
D15*
X138114101Y-107756005D02*
G75*
G02*
X137864101Y-107756005I-125000J0D01*
G01*
X137864101Y-107756005D02*
G75*
G02*
X138114101Y-107756005I125000J0D01*
G01*
D14*
X140764111Y-107081025D02*
X140764111Y-106941025D01*
X140764111Y-122540985D02*
X140764111Y-122400985D01*
X140764111Y-122540985D02*
X148364091Y-122540985D01*
X148364091Y-107081025D02*
X148364091Y-106941025D01*
X148364091Y-122540985D02*
X148364091Y-122400985D01*
X140764111Y-106941025D02*
X148364091Y-106941025D01*
%TO.C,R29*%
X155009091Y-120821965D02*
X155009091Y-120721995D01*
X154309061Y-120821965D02*
X154309061Y-120721995D01*
%TO.C,LED1*%
X156986121Y-119105025D02*
X156986121Y-118504975D01*
%TO.C,J1*%
D15*
X139962101Y-126171005D02*
G75*
G02*
X139712101Y-126171005I-125000J0D01*
G01*
X139712101Y-126171005D02*
G75*
G02*
X139962101Y-126171005I125000J0D01*
G01*
D14*
X140437111Y-124835985D02*
X161137091Y-124835985D01*
X161137091Y-127506025D02*
X161137091Y-124835985D01*
X140437111Y-127506025D02*
X161137091Y-127506025D01*
X140437111Y-127506025D02*
X140437111Y-124835985D01*
%TD*%
%LPC*%
D16*
%TO.C,C1*%
X149287101Y-104708005D03*
X152287101Y-104708005D03*
%TD*%
D17*
%TO.C,U15*%
X149264121Y-107756005D03*
X149264121Y-116646005D03*
X149264121Y-117916005D03*
X149264121Y-119186005D03*
X139864081Y-121726005D03*
X149264121Y-115376005D03*
X139864081Y-110296005D03*
X139864081Y-111566005D03*
X149264121Y-109026005D03*
X149264121Y-110296005D03*
X149264121Y-111566005D03*
X149264121Y-112836005D03*
X149264121Y-114106005D03*
X149264121Y-120456005D03*
X149264121Y-121726005D03*
X139864081Y-120456005D03*
X139864081Y-119186005D03*
X139864081Y-117916005D03*
X139864081Y-116646005D03*
X139864081Y-115376005D03*
X139864081Y-114106005D03*
X139864081Y-112836005D03*
X139864081Y-109026005D03*
X139864081Y-107756005D03*
%TD*%
D18*
%TO.C,R29*%
X154659081Y-121472005D03*
X154659081Y-120071955D03*
%TD*%
D19*
%TO.C,LED1*%
X156286101Y-118805005D03*
X154686101Y-118805005D03*
%TD*%
D20*
%TO.C,J1*%
X154597101Y-126171005D03*
X159677101Y-126171005D03*
X157137101Y-126171005D03*
D21*
X141897101Y-126171005D03*
D20*
X144437101Y-126171005D03*
X146977101Y-126171005D03*
X149517101Y-126171005D03*
X152057101Y-126171005D03*
%TD*%
D22*
%TO.C,*%
X127165101Y-113344005D03*
%TD*%
%TO.C,*%
X169583101Y-113344005D03*
%TD*%
%LPD*%
M02*
