G04*
G04 #@! TF.GenerationSoftware,Altium Limited,Altium Designer,26.3.0 (6)*
G04*
G04 Layer_Color=32896*
%FSLAX44Y44*%
%MOMM*%
G71*
G04*
G04 #@! TF.SameCoordinates,CDA66699-1944-4C2D-AFC1-0E8F45F5DD26*
G04*
G04*
G04 #@! TF.FilePolarity,Positive*
G04*
G01*
G75*
%ADD36C,0.1000*%
D36*
X875110Y650240D02*
X885110D01*
X880110Y645240D02*
Y655240D01*
X877684Y612179D02*
Y622179D01*
X872684Y617179D02*
X882684D01*
X871414Y684489D02*
X881414D01*
X876414Y679489D02*
Y689489D01*
X1301830Y784860D02*
X1311830D01*
X1306830Y779860D02*
Y789860D01*
X808990Y552530D02*
Y562530D01*
X803990Y557530D02*
X813990D01*
X1725849Y552489D02*
Y562489D01*
X1720849Y557489D02*
X1730849D01*
X1724660Y619840D02*
Y629840D01*
X1719660Y624840D02*
X1729660D01*
X1723389Y590509D02*
X1733389D01*
X1728389Y585509D02*
Y595509D01*
X1225744Y751799D02*
X1235744D01*
X1230744Y746799D02*
Y756799D01*
X1233284Y779819D02*
Y789819D01*
X1228284Y784819D02*
X1238284D01*
X1224474Y819109D02*
X1234474D01*
X1229474Y814109D02*
Y824109D01*
X1150700Y808990D02*
X1160700D01*
X1155700Y803990D02*
Y813990D01*
X1159624Y769659D02*
Y779659D01*
X1154624Y774659D02*
X1164624D01*
X1151970Y741680D02*
X1161970D01*
X1156970Y736680D02*
Y746680D01*
X807720Y619840D02*
Y629840D01*
X802720Y624840D02*
X812720D01*
X811530Y585550D02*
Y595550D01*
X806530Y590550D02*
X816530D01*
X1011114Y695919D02*
X1021114D01*
X1016114Y690919D02*
Y700919D01*
X948804Y689649D02*
Y699649D01*
X943804Y694649D02*
X953804D01*
X1088504Y751879D02*
Y761879D01*
X1083504Y756879D02*
X1093504D01*
X1080850Y723900D02*
X1090850D01*
X1085850Y718900D02*
Y728900D01*
X1018540Y723980D02*
Y733980D01*
X1013540Y728980D02*
X1023540D01*
X1014844Y758229D02*
Y768229D01*
X1009844Y763229D02*
X1019844D01*
X944994Y723939D02*
Y733939D01*
X939994Y728939D02*
X949994D01*
X941264Y661629D02*
X951264D01*
X946264Y656629D02*
Y666629D01*
X1079580Y791210D02*
X1089580D01*
X1084580Y786210D02*
Y796210D01*
X1304290Y746840D02*
Y756840D01*
X1299290Y751840D02*
X1309290D01*
X1658539Y612179D02*
Y622179D01*
X1653539Y617179D02*
X1663539D01*
X1516378Y728939D02*
X1526378D01*
X1521379Y723939D02*
Y733939D01*
X1583770Y661670D02*
X1593770D01*
X1588770Y656670D02*
Y666670D01*
X1518920Y758270D02*
Y768270D01*
X1513920Y763270D02*
X1523920D01*
X1446530Y786210D02*
Y796210D01*
X1441530Y791210D02*
X1451530D01*
X1449070Y718900D02*
Y728900D01*
X1444070Y723900D02*
X1454070D01*
X1446528Y756879D02*
X1456528D01*
X1451529Y751879D02*
Y761879D01*
X1375410Y803990D02*
Y813990D01*
X1370410Y808990D02*
X1380410D01*
X1375259Y774659D02*
X1385259D01*
X1380258Y769659D02*
Y779659D01*
X1656078Y650199D02*
X1666078D01*
X1661079Y645199D02*
Y655199D01*
X1586115Y694690D02*
X1596115D01*
X1591114Y689690D02*
Y699690D01*
X1379220Y736680D02*
Y746680D01*
X1374220Y741680D02*
X1384220D01*
X1587500Y723980D02*
Y733980D01*
X1582500Y728980D02*
X1592500D01*
X1303020Y814150D02*
Y824150D01*
X1298020Y819150D02*
X1308020D01*
X1518920Y692230D02*
Y702230D01*
X1513920Y697230D02*
X1523920D01*
X1657350Y679530D02*
Y689530D01*
X1652350Y684530D02*
X1662350D01*
M02*
