G04*
G04 #@! TF.GenerationSoftware,Altium Limited,Altium Designer,26.3.0 (6)*
G04*
G04 Layer_Color=2752767*
%FSLAX44Y44*%
%MOMM*%
G71*
G04*
G04 #@! TF.SameCoordinates,FA9D4396-B619-4209-A632-F04B903D7AEB*
G04*
G04*
G04 #@! TF.FilePolarity,Positive*
G04*
G01*
G75*
%ADD13C,0.1270*%
%ADD38C,0.1693*%
D13*
X1325880Y384810D02*
Y394970D01*
X1336040D01*
Y384810D01*
X1325880D01*
X1376680D02*
Y394970D01*
X1386840D01*
Y384810D01*
X1376680D01*
X1351280D02*
Y394970D01*
X1361440D01*
Y384810D01*
X1351280D01*
X1056640Y513080D02*
X1051560Y523240D01*
X1061720D01*
X1056640Y513080D01*
X1480820D02*
X1475740Y523240D01*
X1485900D01*
X1480820Y513080D01*
X1198880Y384810D02*
Y394970D01*
X1209040D01*
Y384810D01*
X1198880D01*
X1224280D02*
Y394970D01*
X1234440D01*
Y384810D01*
X1224280D01*
X1249680D02*
Y394970D01*
X1259840D01*
Y384810D01*
X1249680D01*
X1275080D02*
Y394970D01*
X1285240D01*
Y384810D01*
X1275080D01*
X1300480D02*
Y394970D01*
X1310640D01*
Y384810D01*
X1300480D01*
D38*
X914514Y617179D02*
G03*
X914514Y617179I-5080J0D01*
G01*
X852284D02*
G03*
X852284Y617179I-5080J0D01*
G01*
X1282700Y751840D02*
G03*
X1282700Y751840I-5080J0D01*
G01*
X1356128Y740369D02*
G03*
X1356128Y740369I-5080J0D01*
G01*
X1062990Y723900D02*
G03*
X1062990Y723900I-5080J0D01*
G01*
X1424744D02*
G03*
X1424744Y723900I-5080J0D01*
G01*
X783590Y557530D02*
G03*
X783590Y557530I-5080J0D01*
G01*
X1135380Y741680D02*
G03*
X1135380Y741680I-5080J0D01*
G01*
X993140Y695960D02*
G03*
X993140Y695960I-5080J0D01*
G01*
X923290Y661670D02*
G03*
X923290Y661670I-5080J0D01*
G01*
X1701604Y558800D02*
G03*
X1701604Y558800I-5080J0D01*
G01*
X1209040Y751840D02*
G03*
X1209040Y751840I-5080J0D01*
G01*
X1493439Y695919D02*
G03*
X1493439Y695919I-5080J0D01*
G01*
X1561096Y669249D02*
G03*
X1561096Y669249I-5080J0D01*
G01*
X1633139Y617179D02*
G03*
X1633139Y617179I-5080J0D01*
G01*
X1187450Y420370D02*
G03*
X1187450Y420370I-5080J0D01*
G01*
X1327150Y604520D02*
G03*
X1327150Y604520I-5080J0D01*
G01*
X1191260Y741680D02*
G03*
X1191260Y741680I-5080J0D01*
G01*
X1763834Y558800D02*
G03*
X1763834Y558800I-5080J0D01*
G01*
X1262380Y751840D02*
G03*
X1262380Y751840I-5080J0D01*
G01*
X845820Y557530D02*
G03*
X845820Y557530I-5080J0D01*
G01*
X1055370Y695960D02*
G03*
X1055370Y695960I-5080J0D01*
G01*
X985520Y661670D02*
G03*
X985520Y661670I-5080J0D01*
G01*
X1125220Y723900D02*
G03*
X1125220Y723900I-5080J0D01*
G01*
X1187450Y590550D02*
G03*
X1187450Y590550I-5080J0D01*
G01*
X1414548Y740369D02*
G03*
X1414548Y740369I-5080J0D01*
G01*
X1555669Y695919D02*
G03*
X1555669Y695919I-5080J0D01*
G01*
X1625519Y661629D02*
G03*
X1625519Y661629I-5080J0D01*
G01*
X1695369Y617179D02*
G03*
X1695369Y617179I-5080J0D01*
G01*
X1486974Y723900D02*
G03*
X1486974Y723900I-5080J0D01*
G01*
X1341120Y751840D02*
G03*
X1341120Y751840I-5080J0D01*
G01*
M02*
