G04*
G04 #@! TF.GenerationSoftware,Altium Limited,Altium Designer,26.3.0 (6)*
G04*
G04 Layer_Physical_Order=1*
G04 Layer_Color=255*
%FSLAX44Y44*%
%MOMM*%
G71*
G04*
G04 #@! TF.SameCoordinates,CDA66699-1944-4C2D-AFC1-0E8F45F5DD26*
G04*
G04*
G04 #@! TF.FilePolarity,Positive*
G04*
G01*
G75*
%ADD12C,0.2540*%
%ADD16R,0.9000X0.7000*%
%ADD17R,1.1500X1.8000*%
%ADD18R,0.8000X0.8000*%
%ADD19R,2.0000X0.6000*%
%ADD23C,1.5700*%
%ADD25R,1.5700X1.5700*%
%ADD28C,0.5080*%
%ADD29C,5.0000*%
%ADD30C,0.7620*%
%ADD31C,1.0160*%
G36*
X1307786Y837029D02*
X1332923Y835231D01*
X1357980Y832537D01*
X1382925Y828950D01*
X1407726Y824476D01*
X1432352Y819119D01*
X1456770Y812886D01*
X1480951Y805786D01*
X1504862Y797828D01*
X1528475Y789021D01*
X1551758Y779377D01*
X1574682Y768907D01*
X1597218Y757627D01*
X1619336Y745549D01*
X1641010Y732690D01*
X1662211Y719065D01*
X1682912Y704692D01*
X1703086Y689589D01*
X1722709Y673776D01*
X1741755Y657273D01*
X1760200Y640100D01*
X1769110Y631190D01*
X1769110Y544830D01*
X1769110Y544830D01*
X1769110Y543204D01*
X1768475Y540014D01*
X1767231Y537010D01*
X1765424Y534305D01*
X1763125Y532006D01*
X1760420Y530199D01*
X1757416Y528954D01*
X1754226Y528320D01*
X1752600Y528320D01*
X1604010Y528320D01*
X1604010Y528320D01*
X1597623Y528178D01*
X1584891Y527142D01*
X1572279Y525110D01*
X1559865Y522095D01*
X1547727Y518116D01*
X1535938Y513196D01*
X1524571Y507366D01*
X1513697Y500663D01*
X1503382Y493127D01*
X1493690Y484805D01*
X1484681Y475748D01*
X1476410Y466013D01*
X1468929Y455658D01*
X1462283Y444749D01*
X1456514Y433351D01*
X1451657Y421536D01*
X1447741Y409377D01*
X1444792Y396948D01*
X1442827Y384325D01*
X1441858Y371588D01*
X1441750Y365200D01*
X1095300Y365200D01*
X1095300Y365200D01*
X1095200Y371580D01*
X1094248Y384302D01*
X1092302Y396912D01*
X1089372Y409329D01*
X1085477Y421478D01*
X1080640Y433284D01*
X1074893Y444675D01*
X1068269Y455579D01*
X1060810Y465930D01*
X1052562Y475664D01*
X1043576Y484720D01*
X1033907Y493044D01*
X1023615Y500583D01*
X1012763Y507292D01*
X1001417Y513129D01*
X989650Y518057D01*
X977531Y522047D01*
X965137Y525074D01*
X952544Y527119D01*
X939829Y528170D01*
X933450Y528320D01*
X787400Y528320D01*
X785774Y528320D01*
X782584Y528954D01*
X779580Y530199D01*
X776876Y532006D01*
X774576Y534305D01*
X772769Y537010D01*
X771524Y540014D01*
X770890Y543204D01*
Y552851D01*
X772001Y553388D01*
X773430Y553630D01*
X774913Y552147D01*
X777240Y551183D01*
Y557530D01*
Y563877D01*
X774913Y562913D01*
X773430Y561430D01*
X772001Y561671D01*
X770890Y562209D01*
Y631190D01*
X779800Y640100D01*
X798245Y657273D01*
X817291Y673776D01*
X836914Y689589D01*
X857088Y704692D01*
X877789Y719065D01*
X898990Y732690D01*
X920664Y745549D01*
X942782Y757627D01*
X965318Y768907D01*
X988242Y779377D01*
X1011525Y789021D01*
X1035137Y797828D01*
X1059049Y805786D01*
X1083230Y812886D01*
X1107648Y819119D01*
X1132274Y824476D01*
X1157075Y828950D01*
X1182020Y832537D01*
X1207077Y835231D01*
X1232214Y837029D01*
X1257399Y837928D01*
X1282601Y837928D01*
X1307786Y837029D01*
D02*
G37*
%LPC*%
G36*
X1278890Y758187D02*
Y753110D01*
X1283967D01*
X1283003Y755437D01*
X1281217Y757223D01*
X1278890Y758187D01*
D02*
G37*
G36*
X1276350D02*
X1274023Y757223D01*
X1272237Y755437D01*
X1271273Y753110D01*
X1276350D01*
Y758187D01*
D02*
G37*
G36*
X1205230D02*
Y753110D01*
X1210307D01*
X1209343Y755437D01*
X1207557Y757223D01*
X1205230Y758187D01*
D02*
G37*
G36*
X1202690D02*
X1200363Y757223D01*
X1198577Y755437D01*
X1197613Y753110D01*
X1202690D01*
Y758187D01*
D02*
G37*
G36*
X1283967Y750570D02*
X1278890D01*
Y745493D01*
X1281217Y746457D01*
X1283003Y748243D01*
X1283967Y750570D01*
D02*
G37*
G36*
X1276350D02*
X1271273D01*
X1272237Y748243D01*
X1274023Y746457D01*
X1276350Y745493D01*
Y750570D01*
D02*
G37*
G36*
X1210307D02*
X1205230D01*
Y745493D01*
X1207557Y746457D01*
X1209343Y748243D01*
X1210307Y750570D01*
D02*
G37*
G36*
X1202690D02*
X1197613D01*
X1198577Y748243D01*
X1200363Y746457D01*
X1202690Y745493D01*
Y750570D01*
D02*
G37*
G36*
X1131570Y748027D02*
Y742950D01*
X1136647D01*
X1135683Y745277D01*
X1133897Y747063D01*
X1131570Y748027D01*
D02*
G37*
G36*
X1129030D02*
X1126703Y747063D01*
X1124917Y745277D01*
X1123953Y742950D01*
X1129030D01*
Y748027D01*
D02*
G37*
G36*
X1352318Y746716D02*
Y741639D01*
X1357395D01*
X1356432Y743966D01*
X1354645Y745752D01*
X1352318Y746716D01*
D02*
G37*
G36*
X1349778D02*
X1347451Y745752D01*
X1345665Y743966D01*
X1344701Y741639D01*
X1349778D01*
Y746716D01*
D02*
G37*
G36*
X1136647Y740410D02*
X1131570D01*
Y735333D01*
X1133897Y736297D01*
X1135683Y738083D01*
X1136647Y740410D01*
D02*
G37*
G36*
X1129030D02*
X1123953D01*
X1124917Y738083D01*
X1126703Y736297D01*
X1129030Y735333D01*
Y740410D01*
D02*
G37*
G36*
X1357395Y739099D02*
X1352318D01*
Y734022D01*
X1354645Y734986D01*
X1356432Y736772D01*
X1357395Y739099D01*
D02*
G37*
G36*
X1349778D02*
X1344701D01*
X1345665Y736772D01*
X1347451Y734986D01*
X1349778Y734022D01*
Y739099D01*
D02*
G37*
G36*
X1420934Y730247D02*
Y725170D01*
X1426012D01*
X1425048Y727497D01*
X1423261Y729283D01*
X1420934Y730247D01*
D02*
G37*
G36*
X1059180D02*
Y725170D01*
X1064257D01*
X1063293Y727497D01*
X1061507Y729283D01*
X1059180Y730247D01*
D02*
G37*
G36*
X1056640D02*
X1054313Y729283D01*
X1052527Y727497D01*
X1051563Y725170D01*
X1056640D01*
Y730247D01*
D02*
G37*
G36*
X1426012Y722630D02*
X1420934D01*
Y717553D01*
X1423261Y718517D01*
X1425048Y720303D01*
X1426012Y722630D01*
D02*
G37*
G36*
X1064257D02*
X1059180D01*
Y717553D01*
X1061507Y718517D01*
X1063293Y720303D01*
X1064257Y722630D01*
D02*
G37*
G36*
X1056640D02*
X1051563D01*
X1052527Y720303D01*
X1054313Y718517D01*
X1056640Y717553D01*
Y722630D01*
D02*
G37*
G36*
X989330Y702307D02*
Y697230D01*
X994407D01*
X993443Y699557D01*
X991657Y701343D01*
X989330Y702307D01*
D02*
G37*
G36*
X986790D02*
X984463Y701343D01*
X982677Y699557D01*
X981713Y697230D01*
X986790D01*
Y702307D01*
D02*
G37*
G36*
X1489629Y702266D02*
Y697189D01*
X1494706D01*
X1493742Y699516D01*
X1491956Y701302D01*
X1489629Y702266D01*
D02*
G37*
G36*
X1487089D02*
X1484762Y701302D01*
X1482975Y699516D01*
X1482012Y697189D01*
X1487089D01*
Y702266D01*
D02*
G37*
G36*
X994407Y694690D02*
X989330D01*
Y689613D01*
X991657Y690577D01*
X993443Y692363D01*
X994407Y694690D01*
D02*
G37*
G36*
X986790D02*
X981713D01*
X982677Y692363D01*
X984463Y690577D01*
X986790Y689613D01*
Y694690D01*
D02*
G37*
G36*
X1494706Y694649D02*
X1489629D01*
Y689572D01*
X1491956Y690536D01*
X1493742Y692322D01*
X1494706Y694649D01*
D02*
G37*
G36*
X1487089D02*
X1482012D01*
X1482975Y692322D01*
X1484762Y690536D01*
X1487089Y689572D01*
Y694649D01*
D02*
G37*
G36*
X1557286Y675596D02*
Y670519D01*
X1562363D01*
X1561399Y672846D01*
X1559613Y674632D01*
X1557286Y675596D01*
D02*
G37*
G36*
X1554746D02*
X1552419Y674632D01*
X1550632Y672846D01*
X1549668Y670519D01*
X1554746D01*
Y675596D01*
D02*
G37*
G36*
X919480Y668017D02*
Y662940D01*
X924557D01*
X923593Y665267D01*
X921807Y667053D01*
X919480Y668017D01*
D02*
G37*
G36*
X916940D02*
X914613Y667053D01*
X912827Y665267D01*
X911863Y662940D01*
X916940D01*
Y668017D01*
D02*
G37*
G36*
X1562363Y667979D02*
X1557286D01*
Y662902D01*
X1559613Y663866D01*
X1561399Y665652D01*
X1562363Y667979D01*
D02*
G37*
G36*
X1554746D02*
X1549668D01*
X1550632Y665652D01*
X1552419Y663866D01*
X1554746Y662902D01*
Y667979D01*
D02*
G37*
G36*
X924557Y660400D02*
X919480D01*
Y655323D01*
X921807Y656287D01*
X923593Y658073D01*
X924557Y660400D01*
D02*
G37*
G36*
X916940D02*
X911863D01*
X912827Y658073D01*
X914613Y656287D01*
X916940Y655323D01*
Y660400D01*
D02*
G37*
G36*
X1410731Y746719D02*
X1408205D01*
X1405871Y745752D01*
X1404085Y743966D01*
X1403118Y741632D01*
Y739106D01*
X1404085Y736772D01*
X1405584Y735273D01*
Y665587D01*
X1305221Y565225D01*
X1291966D01*
X1290170Y567021D01*
Y568500D01*
X1290170Y569420D01*
Y572770D01*
X1265090D01*
Y569420D01*
X1265090Y566880D01*
X1265090Y565960D01*
Y556720D01*
X1265090Y554180D01*
X1265090Y553260D01*
Y544020D01*
X1265090Y541480D01*
X1265090Y540560D01*
Y531320D01*
X1265090Y528780D01*
X1265090Y527860D01*
Y517700D01*
X1265090D01*
Y516080D01*
X1265090D01*
Y505000D01*
X1265090D01*
Y503380D01*
X1265090D01*
Y493220D01*
X1265090Y490680D01*
X1265090Y489760D01*
Y479600D01*
X1265090D01*
Y477980D01*
X1265090D01*
Y466900D01*
X1265090D01*
Y465280D01*
X1265090D01*
Y455120D01*
X1265090Y452580D01*
X1265090Y451660D01*
Y446994D01*
X1261073Y442977D01*
X1260231Y441717D01*
X1259936Y440230D01*
Y406230D01*
X1260231Y404743D01*
X1261073Y403483D01*
X1270543Y394013D01*
X1270478Y393900D01*
X1269770Y391258D01*
Y388522D01*
X1270478Y385880D01*
X1271846Y383510D01*
X1273780Y381576D01*
X1276150Y380208D01*
X1278792Y379500D01*
X1281528D01*
X1284170Y380208D01*
X1286540Y381576D01*
X1288474Y383510D01*
X1289842Y385880D01*
X1290550Y388522D01*
Y391258D01*
X1289842Y393900D01*
X1288474Y396270D01*
X1286540Y398204D01*
X1284170Y399572D01*
X1281528Y400280D01*
X1278792D01*
X1276150Y399572D01*
X1276037Y399507D01*
X1267705Y407839D01*
Y428800D01*
X1284677D01*
X1301675Y411801D01*
Y399606D01*
X1301550Y399572D01*
X1299180Y398204D01*
X1297246Y396270D01*
X1295878Y393900D01*
X1295170Y391258D01*
Y388522D01*
X1295878Y385880D01*
X1297246Y383510D01*
X1299180Y381576D01*
X1301550Y380208D01*
X1304192Y379500D01*
X1306928D01*
X1309570Y380208D01*
X1311940Y381576D01*
X1313874Y383510D01*
X1315242Y385880D01*
X1315950Y388522D01*
Y391258D01*
X1315242Y393900D01*
X1313874Y396270D01*
X1311940Y398204D01*
X1309570Y399572D01*
X1309445Y399606D01*
Y413410D01*
X1309149Y414897D01*
X1308307Y416157D01*
X1290170Y434294D01*
Y439880D01*
X1290170D01*
Y441500D01*
X1290170D01*
Y451660D01*
X1290170Y454200D01*
X1290170Y455120D01*
Y465280D01*
X1290170D01*
Y466015D01*
X1292025Y468555D01*
X1325310D01*
Y462590D01*
X1325211Y462090D01*
Y456921D01*
X1324540D01*
Y452267D01*
X1324510Y452120D01*
X1324540Y451973D01*
Y445460D01*
X1324540Y444841D01*
Y442920D01*
X1324540Y442300D01*
Y438150D01*
X1338620D01*
Y442300D01*
X1338620Y442920D01*
Y444841D01*
X1338620Y445460D01*
Y456921D01*
X1338390Y457010D01*
Y461554D01*
X1340930Y462912D01*
X1341310Y462658D01*
Y457010D01*
X1343965D01*
Y398400D01*
X1344261Y396913D01*
X1345103Y395653D01*
X1346743Y394013D01*
X1346678Y393900D01*
X1345970Y391258D01*
Y388522D01*
X1346678Y385880D01*
X1348046Y383510D01*
X1349980Y381576D01*
X1352350Y380208D01*
X1354992Y379500D01*
X1357728D01*
X1360370Y380208D01*
X1362740Y381576D01*
X1364674Y383510D01*
X1366042Y385880D01*
X1366750Y388522D01*
Y391258D01*
X1366042Y393900D01*
X1364674Y396270D01*
X1362740Y398204D01*
X1360370Y399572D01*
X1357728Y400280D01*
X1354992D01*
X1354275Y400088D01*
X1351735Y402037D01*
Y457010D01*
X1354390D01*
Y470090D01*
X1346804D01*
X1341707Y475187D01*
X1340447Y476029D01*
X1338960Y476325D01*
X1292025D01*
X1290170Y477980D01*
Y479600D01*
X1290170D01*
Y489760D01*
X1290170Y492300D01*
X1290170Y493220D01*
Y497886D01*
X1293859Y501575D01*
X1427377D01*
X1428863Y501871D01*
X1430123Y502713D01*
X1451267Y523857D01*
X1453647Y522645D01*
X1453280Y520327D01*
Y515993D01*
X1453958Y511711D01*
X1455298Y507588D01*
X1457266Y503726D01*
X1459814Y500219D01*
X1462879Y497154D01*
X1466386Y494606D01*
X1470248Y492638D01*
X1474371Y491298D01*
X1478652Y490620D01*
X1482988D01*
X1487269Y491298D01*
X1491392Y492638D01*
X1495254Y494606D01*
X1498761Y497154D01*
X1501826Y500219D01*
X1504374Y503726D01*
X1506342Y507588D01*
X1507682Y511711D01*
X1508360Y515993D01*
Y520327D01*
X1507682Y524609D01*
X1506342Y528732D01*
X1504374Y532594D01*
X1501826Y536101D01*
X1498761Y539166D01*
X1495254Y541714D01*
X1491392Y543682D01*
X1487269Y545022D01*
X1482988Y545700D01*
X1478652D01*
X1476335Y545333D01*
X1475123Y547713D01*
X1489946Y562535D01*
X1688449D01*
X1690170Y560070D01*
X1702879D01*
X1704600Y562535D01*
X1749525D01*
X1752404Y559656D01*
Y557537D01*
X1753371Y555203D01*
X1755157Y553417D01*
X1757491Y552450D01*
X1760018D01*
X1762351Y553417D01*
X1764138Y555203D01*
X1765104Y557537D01*
Y560063D01*
X1764138Y562397D01*
X1762351Y564183D01*
X1760018Y565150D01*
X1757898D01*
X1753881Y569167D01*
X1752621Y570009D01*
X1751134Y570305D01*
X1493517D01*
X1492545Y572651D01*
X1517989Y598095D01*
X1675090D01*
X1676577Y598391D01*
X1677837Y599233D01*
X1689432Y610829D01*
X1691552D01*
X1693886Y611796D01*
X1695672Y613582D01*
X1696639Y615916D01*
Y618442D01*
X1695672Y620776D01*
X1693886Y622562D01*
X1691552Y623529D01*
X1689026D01*
X1686692Y622562D01*
X1684905Y620776D01*
X1683939Y618442D01*
Y616323D01*
X1673481Y605865D01*
X1521457D01*
X1520485Y608211D01*
X1570018Y657744D01*
X1615343D01*
X1616842Y656246D01*
X1619176Y655279D01*
X1621702D01*
X1624036Y656246D01*
X1625822Y658032D01*
X1626789Y660366D01*
Y662892D01*
X1625822Y665226D01*
X1624036Y667012D01*
X1621702Y667979D01*
X1619176D01*
X1616842Y667012D01*
X1615343Y665514D01*
X1568409D01*
X1566922Y665218D01*
X1565662Y664376D01*
X1428411Y527125D01*
X1291966D01*
X1290170Y528921D01*
Y530259D01*
X1291966Y532055D01*
X1390610D01*
X1392097Y532351D01*
X1393357Y533193D01*
X1549732Y689569D01*
X1551852D01*
X1554186Y690536D01*
X1555972Y692322D01*
X1556939Y694656D01*
Y697182D01*
X1555972Y699516D01*
X1554186Y701302D01*
X1551852Y702269D01*
X1549326D01*
X1546992Y701302D01*
X1545205Y699516D01*
X1544239Y697182D01*
Y695063D01*
X1389001Y539825D01*
X1291966D01*
X1290170Y541621D01*
Y542959D01*
X1291966Y544755D01*
X1306634D01*
X1308121Y545051D01*
X1309381Y545893D01*
X1481038Y717550D01*
X1483158D01*
X1485491Y718517D01*
X1487278Y720303D01*
X1488244Y722637D01*
Y725163D01*
X1487278Y727497D01*
X1485491Y729283D01*
X1483158Y730250D01*
X1480631D01*
X1478297Y729283D01*
X1476511Y727497D01*
X1475544Y725163D01*
Y723044D01*
X1415810Y663309D01*
X1414470Y663674D01*
X1413353Y664444D01*
Y717639D01*
X1415893Y718691D01*
X1416067Y718517D01*
X1418394Y717553D01*
Y723900D01*
Y730247D01*
X1416067Y729283D01*
X1415893Y729109D01*
X1413353Y730161D01*
Y735273D01*
X1414852Y736772D01*
X1415818Y739106D01*
Y741632D01*
X1414852Y743966D01*
X1413065Y745752D01*
X1410731Y746719D01*
D02*
G37*
G36*
X1629329Y623526D02*
Y618449D01*
X1634406D01*
X1633442Y620776D01*
X1631656Y622562D01*
X1629329Y623526D01*
D02*
G37*
G36*
X1626789D02*
X1624462Y622562D01*
X1622675Y620776D01*
X1621712Y618449D01*
X1626789D01*
Y623526D01*
D02*
G37*
G36*
X848474D02*
Y618449D01*
X853551D01*
X852588Y620776D01*
X850801Y622562D01*
X848474Y623526D01*
D02*
G37*
G36*
X845934D02*
X843607Y622562D01*
X841821Y620776D01*
X840857Y618449D01*
X845934D01*
Y623526D01*
D02*
G37*
G36*
X1634406Y615909D02*
X1629329D01*
Y610832D01*
X1631656Y611796D01*
X1633442Y613582D01*
X1634406Y615909D01*
D02*
G37*
G36*
X1626789D02*
X1621712D01*
X1622675Y613582D01*
X1624462Y611796D01*
X1626789Y610832D01*
Y615909D01*
D02*
G37*
G36*
X853551D02*
X848474D01*
Y610832D01*
X850801Y611796D01*
X852588Y613582D01*
X853551Y615909D01*
D02*
G37*
G36*
X845934D02*
X840857D01*
X841821Y613582D01*
X843607Y611796D01*
X845934Y610832D01*
Y615909D01*
D02*
G37*
G36*
X1286150Y616060D02*
X1279130D01*
Y605790D01*
X1286150D01*
Y616060D01*
D02*
G37*
G36*
X1276590D02*
X1269570D01*
Y605790D01*
X1276590D01*
Y616060D01*
D02*
G37*
G36*
X1316150D02*
X1299570D01*
Y592980D01*
X1316150D01*
Y596206D01*
X1318690Y597673D01*
X1319129Y597419D01*
X1321067Y596900D01*
X1323073D01*
X1325011Y597419D01*
X1326749Y598423D01*
X1328168Y599841D01*
X1329171Y601579D01*
X1329690Y603517D01*
Y605523D01*
X1329171Y607461D01*
X1328168Y609199D01*
X1326749Y610617D01*
X1325011Y611621D01*
X1323073Y612140D01*
X1321067D01*
X1319129Y611621D01*
X1318690Y611367D01*
X1316150Y612834D01*
Y616060D01*
D02*
G37*
G36*
X1286150Y603250D02*
X1279130D01*
Y592980D01*
X1286150D01*
Y603250D01*
D02*
G37*
G36*
X1276590D02*
X1269570D01*
Y592980D01*
X1276590D01*
Y603250D01*
D02*
G37*
G36*
X1290170Y579580D02*
X1278900D01*
Y575310D01*
X1290170D01*
Y579580D01*
D02*
G37*
G36*
X1276360D02*
X1265090D01*
Y575310D01*
X1276360D01*
Y579580D01*
D02*
G37*
G36*
X1337303Y758190D02*
X1334777D01*
X1332443Y757223D01*
X1330657Y755437D01*
X1329690Y753103D01*
Y750577D01*
X1330657Y748243D01*
X1332155Y746744D01*
Y708359D01*
X1198516Y574720D01*
X1196170Y575692D01*
Y579580D01*
X1187550D01*
Y584953D01*
X1188467Y585871D01*
X1189471Y587609D01*
X1189990Y589547D01*
Y591553D01*
X1189471Y593491D01*
X1188467Y595229D01*
X1187049Y596647D01*
X1185311Y597651D01*
X1183373Y598170D01*
X1181367D01*
X1179429Y597651D01*
X1177691Y596647D01*
X1176273Y595229D01*
X1175269Y593491D01*
X1174750Y591553D01*
Y589547D01*
X1175269Y587609D01*
X1176273Y585871D01*
X1177190Y584953D01*
Y579580D01*
X1171090D01*
Y568500D01*
X1171090Y568500D01*
Y566880D01*
X1171090D01*
X1171090Y565960D01*
Y558846D01*
X1168550Y557794D01*
X1165935Y560409D01*
Y654981D01*
X1256444Y745490D01*
X1258563D01*
X1260897Y746457D01*
X1262683Y748243D01*
X1263650Y750577D01*
Y753103D01*
X1262683Y755437D01*
X1260897Y757223D01*
X1258563Y758190D01*
X1256037D01*
X1253703Y757223D01*
X1251917Y755437D01*
X1250950Y753103D01*
Y750984D01*
X1161931Y661965D01*
X1159585Y662937D01*
Y709591D01*
X1185324Y735330D01*
X1187443D01*
X1189777Y736297D01*
X1191563Y738083D01*
X1192530Y740417D01*
Y742943D01*
X1191563Y745277D01*
X1189777Y747063D01*
X1187443Y748030D01*
X1184917D01*
X1182583Y747063D01*
X1180797Y745277D01*
X1179830Y742943D01*
Y740824D01*
X1152953Y713947D01*
X1152111Y712687D01*
X1151815Y711200D01*
Y552720D01*
X1149275Y551668D01*
X1124025Y576919D01*
Y718804D01*
X1125523Y720303D01*
X1126490Y722637D01*
Y725163D01*
X1125523Y727497D01*
X1123737Y729283D01*
X1121403Y730250D01*
X1118877D01*
X1116543Y729283D01*
X1114757Y727497D01*
X1113790Y725163D01*
Y722637D01*
X1114757Y720303D01*
X1116255Y718804D01*
Y575310D01*
X1116551Y573823D01*
X1117393Y572563D01*
X1168561Y521395D01*
X1169821Y520553D01*
X1171090Y520301D01*
X1171090Y516221D01*
X1169294Y514425D01*
X1163659D01*
X1054175Y623909D01*
Y690864D01*
X1055673Y692363D01*
X1056640Y694697D01*
Y697223D01*
X1055673Y699557D01*
X1053887Y701343D01*
X1051553Y702310D01*
X1049027D01*
X1046693Y701343D01*
X1044907Y699557D01*
X1043940Y697223D01*
Y694697D01*
X1044907Y692363D01*
X1046405Y690864D01*
Y626107D01*
X1044059Y625135D01*
X1004777Y664417D01*
X1003517Y665259D01*
X1002030Y665555D01*
X985536D01*
X984037Y667053D01*
X981703Y668020D01*
X979177D01*
X976843Y667053D01*
X975057Y665267D01*
X974090Y662933D01*
Y660407D01*
X975057Y658073D01*
X976843Y656287D01*
X979177Y655320D01*
X981703D01*
X984037Y656287D01*
X985536Y657785D01*
X1000421D01*
X1034796Y623410D01*
X1033824Y621063D01*
X914530D01*
X913031Y622562D01*
X910697Y623529D01*
X908171D01*
X905837Y622562D01*
X904051Y620776D01*
X903084Y618442D01*
Y615916D01*
X904051Y613582D01*
X905837Y611796D01*
X908171Y610829D01*
X910697D01*
X913031Y611796D01*
X914530Y613294D01*
X1037466D01*
X1086999Y563761D01*
X1086027Y561415D01*
X845836D01*
X844337Y562913D01*
X842003Y563880D01*
X839477D01*
X837143Y562913D01*
X835357Y561127D01*
X834390Y558793D01*
Y556267D01*
X835357Y553933D01*
X837143Y552147D01*
X839477Y551180D01*
X842003D01*
X844337Y552147D01*
X845836Y553645D01*
X1089931D01*
X1171090Y472486D01*
X1171090Y465280D01*
X1171090Y464360D01*
Y459694D01*
X1161843Y450447D01*
X1161001Y449187D01*
X1160705Y447700D01*
Y426720D01*
X1161001Y425233D01*
X1161843Y423973D01*
X1179623Y406193D01*
X1180883Y405351D01*
X1182370Y405055D01*
X1206161D01*
X1208590Y402627D01*
X1207618Y400280D01*
X1193570D01*
Y379500D01*
X1214350D01*
Y393548D01*
X1216697Y394520D01*
X1219179Y392037D01*
X1218970Y391258D01*
Y388522D01*
X1219678Y385880D01*
X1221046Y383510D01*
X1222980Y381576D01*
X1225350Y380208D01*
X1227992Y379500D01*
X1230728D01*
X1233370Y380208D01*
X1235740Y381576D01*
X1237674Y383510D01*
X1239042Y385880D01*
X1239750Y388522D01*
Y390734D01*
X1241043Y391585D01*
X1242198Y391878D01*
X1244370Y389706D01*
Y388522D01*
X1245078Y385880D01*
X1246446Y383510D01*
X1248380Y381576D01*
X1250750Y380208D01*
X1253392Y379500D01*
X1256128D01*
X1258770Y380208D01*
X1261140Y381576D01*
X1263074Y383510D01*
X1264442Y385880D01*
X1265150Y388522D01*
Y391258D01*
X1264442Y393900D01*
X1263074Y396270D01*
X1261140Y398204D01*
X1258770Y399572D01*
X1256128Y400280D01*
X1253392D01*
X1250750Y399572D01*
X1248380Y398204D01*
X1247620Y397444D01*
X1197007Y448057D01*
X1196170Y448616D01*
Y452580D01*
X1196170D01*
Y454200D01*
X1196170D01*
Y464360D01*
X1196170Y466900D01*
X1196170Y467820D01*
Y477060D01*
X1196170Y477980D01*
X1196170D01*
Y479600D01*
X1196170D01*
Y490680D01*
X1196170D01*
Y492300D01*
X1196170D01*
Y503380D01*
X1196170D01*
Y505000D01*
X1196170D01*
Y515160D01*
X1196170Y517700D01*
X1196170Y518620D01*
Y527860D01*
X1196170Y530400D01*
X1196170Y531320D01*
Y541480D01*
X1196170D01*
Y543100D01*
X1196170D01*
Y553260D01*
X1196170Y555800D01*
X1196170Y556720D01*
Y561386D01*
X1338787Y704003D01*
X1339629Y705264D01*
X1339925Y706750D01*
Y746744D01*
X1341423Y748243D01*
X1342390Y750577D01*
Y753103D01*
X1341423Y755437D01*
X1339637Y757223D01*
X1337303Y758190D01*
D02*
G37*
G36*
X779780Y563877D02*
Y558800D01*
X784857D01*
X783893Y561127D01*
X782107Y562913D01*
X779780Y563877D01*
D02*
G37*
G36*
X1702872Y557530D02*
X1697794D01*
Y552453D01*
X1700121Y553417D01*
X1701908Y555203D01*
X1702872Y557530D01*
D02*
G37*
G36*
X1695254D02*
X1690177D01*
X1691141Y555203D01*
X1692927Y553417D01*
X1695254Y552453D01*
Y557530D01*
D02*
G37*
G36*
X784857Y556260D02*
X779780D01*
Y551183D01*
X782107Y552147D01*
X783893Y553933D01*
X784857Y556260D01*
D02*
G37*
G36*
X1058808Y545700D02*
X1054473D01*
X1050191Y545022D01*
X1046068Y543682D01*
X1042206Y541714D01*
X1038699Y539166D01*
X1035634Y536101D01*
X1033086Y532594D01*
X1031118Y528732D01*
X1029778Y524609D01*
X1029100Y520327D01*
Y515993D01*
X1029778Y511711D01*
X1031118Y507588D01*
X1033086Y503726D01*
X1035634Y500219D01*
X1038699Y497154D01*
X1042206Y494606D01*
X1046068Y492638D01*
X1050191Y491298D01*
X1054473Y490620D01*
X1058808D01*
X1063089Y491298D01*
X1067212Y492638D01*
X1071074Y494606D01*
X1074581Y497154D01*
X1077646Y500219D01*
X1080194Y503726D01*
X1082162Y507588D01*
X1083502Y511711D01*
X1084180Y515993D01*
Y520327D01*
X1083502Y524609D01*
X1082162Y528732D01*
X1080194Y532594D01*
X1077646Y536101D01*
X1074581Y539166D01*
X1071074Y541714D01*
X1067212Y543682D01*
X1063089Y545022D01*
X1058808Y545700D01*
D02*
G37*
G36*
X1338620Y435610D02*
X1324540D01*
Y430840D01*
X1326400D01*
Y399255D01*
X1324580Y398204D01*
X1322646Y396270D01*
X1321278Y393900D01*
X1320570Y391258D01*
Y391160D01*
X1341350D01*
Y391258D01*
X1340642Y393900D01*
X1339274Y396270D01*
X1337340Y398204D01*
X1336759Y398539D01*
Y430840D01*
X1338620D01*
Y435610D01*
D02*
G37*
G36*
X1383128Y400280D02*
X1380392D01*
X1377750Y399572D01*
X1375380Y398204D01*
X1373446Y396270D01*
X1372078Y393900D01*
X1371370Y391258D01*
Y388522D01*
X1372078Y385880D01*
X1373446Y383510D01*
X1375380Y381576D01*
X1377750Y380208D01*
X1380392Y379500D01*
X1383128D01*
X1385770Y380208D01*
X1388140Y381576D01*
X1390074Y383510D01*
X1391442Y385880D01*
X1392150Y388522D01*
Y391258D01*
X1391442Y393900D01*
X1390074Y396270D01*
X1388140Y398204D01*
X1385770Y399572D01*
X1383128Y400280D01*
D02*
G37*
G36*
X1341350Y388620D02*
X1332230D01*
Y379500D01*
X1332328D01*
X1334970Y380208D01*
X1337340Y381576D01*
X1339274Y383510D01*
X1340642Y385880D01*
X1341350Y388522D01*
Y388620D01*
D02*
G37*
G36*
X1329690D02*
X1320570D01*
Y388522D01*
X1321278Y385880D01*
X1322646Y383510D01*
X1324580Y381576D01*
X1326950Y380208D01*
X1329592Y379500D01*
X1329690D01*
Y388620D01*
D02*
G37*
%LPD*%
G36*
X1425915Y517009D02*
X1423331Y514425D01*
X1292025D01*
X1290170Y516080D01*
Y516815D01*
X1292025Y519355D01*
X1424943D01*
X1425915Y517009D01*
D02*
G37*
G36*
X1231348Y402729D02*
X1231055Y401573D01*
X1230204Y400280D01*
X1227992D01*
X1225350Y399572D01*
X1223627Y398577D01*
X1210517Y411687D01*
X1209257Y412529D01*
X1207770Y412825D01*
X1187124D01*
X1186721Y413577D01*
X1186345Y415365D01*
X1187753Y416773D01*
X1188720Y419107D01*
Y421633D01*
X1187753Y423967D01*
X1186255Y425466D01*
Y428800D01*
X1196170D01*
Y434588D01*
X1198516Y435560D01*
X1231348Y402729D01*
D02*
G37*
D12*
X1182370Y420370D02*
Y433080D01*
X1183630Y434340D01*
X1347850Y398400D02*
Y463550D01*
Y398400D02*
X1356360Y389890D01*
X1338960Y472440D02*
X1347850Y463550D01*
X1277630Y472440D02*
X1338960D01*
X1307860Y604520D02*
X1318260D01*
X1318260Y604520D01*
X1182370Y408940D02*
X1207770D01*
X1226820Y389890D01*
X1164590Y426720D02*
X1182370Y408940D01*
X1226820Y389890D02*
X1229360D01*
X1252242Y392408D02*
X1254760Y389890D01*
X1183630Y447040D02*
X1185360Y445310D01*
X1194260D01*
X1247162Y392408D02*
X1252242D01*
X1194260Y445310D02*
X1247162Y392408D01*
X1277630Y535940D02*
X1390610D01*
X1550589Y695919D01*
X1430020Y523240D02*
X1568409Y661629D01*
X1620439D01*
X1277630Y523240D02*
X1430020D01*
X1751134Y566420D02*
X1758754Y558800D01*
X1292250Y505460D02*
X1427377D01*
X1516380Y601980D02*
X1675090D01*
X1488336Y566420D02*
X1751134D01*
X1675090Y601980D02*
X1690289Y617179D01*
X1277630Y510540D02*
X1424940D01*
X1516380Y601980D01*
X1427377Y505460D02*
X1488336Y566420D01*
X1162050Y656590D02*
X1257300Y751840D01*
X1162050Y558800D02*
Y656590D01*
Y558800D02*
X1171308Y549542D01*
X1182728D01*
X1183630Y548640D01*
X1155700Y551180D02*
X1170940Y535940D01*
X1155700Y551180D02*
Y711200D01*
X1170940Y535940D02*
X1183630D01*
X1171308Y524142D02*
X1182728D01*
X1120140Y575310D02*
X1171308Y524142D01*
X1182728D02*
X1183630Y523240D01*
X1120140Y575310D02*
Y723900D01*
X1050290Y622300D02*
X1162050Y510540D01*
X1183630D01*
X1050290Y622300D02*
Y695960D01*
X1164995Y498705D02*
X1182765D01*
X840740Y557530D02*
X1091540D01*
X1176630Y472440D01*
X980440Y661670D02*
X1002030D01*
X909434Y617179D02*
X1039075D01*
X1002030Y661670D02*
X1164995Y498705D01*
X1039075Y617179D02*
X1171114Y485140D01*
X1182765Y498705D02*
X1183630Y497840D01*
Y497840D02*
Y497840D01*
X1409468Y663978D02*
Y740369D01*
X1277630Y561340D02*
X1306830D01*
X1409468Y663978D01*
X1285900Y499110D02*
X1292250Y505460D01*
X1282700Y499110D02*
X1285900D01*
X1281430Y497840D02*
X1282700Y499110D01*
X1277630Y497840D02*
X1281430D01*
X1306634Y548640D02*
X1481894Y723900D01*
X1278890Y548640D02*
X1306634D01*
X1277620Y547370D02*
X1278890Y548640D01*
X1277630Y547380D02*
Y548640D01*
X1336040Y706750D02*
Y751840D01*
X1190630Y561340D02*
X1336040Y706750D01*
X1183630Y561340D02*
X1190630D01*
X1155700Y711200D02*
X1186180Y741680D01*
X1171114Y485140D02*
X1183630D01*
X1176630Y472440D02*
X1183630D01*
X1263820Y406230D02*
Y440230D01*
Y406230D02*
X1280160Y389890D01*
X1263820Y440230D02*
X1270630Y447040D01*
X1277630Y434340D02*
X1284630D01*
X1305560Y413410D01*
Y389890D02*
Y413410D01*
X1270630Y447040D02*
X1277630D01*
X1164590Y447700D02*
X1176630Y459740D01*
X1164590Y426720D02*
Y447700D01*
X1176630Y459740D02*
X1183630D01*
D16*
X1331580Y436880D02*
D03*
Y450881D02*
D03*
D17*
X1277860Y604520D02*
D03*
X1307860D02*
D03*
D18*
X1347850Y463550D02*
D03*
X1331850D02*
D03*
D19*
X1277630Y574040D02*
D03*
Y485140D02*
D03*
Y472440D02*
D03*
Y459740D02*
D03*
X1183630Y434340D02*
D03*
X1277630Y497840D02*
D03*
X1183630Y548640D02*
D03*
Y535940D02*
D03*
X1277630Y561340D02*
D03*
Y548640D02*
D03*
Y535940D02*
D03*
Y523240D02*
D03*
Y510540D02*
D03*
Y447040D02*
D03*
Y434340D02*
D03*
X1183630Y447040D02*
D03*
Y459740D02*
D03*
Y472440D02*
D03*
Y485140D02*
D03*
Y497840D02*
D03*
Y510540D02*
D03*
Y523240D02*
D03*
Y561340D02*
D03*
Y574040D02*
D03*
D23*
X1330960Y389890D02*
D03*
X1381760D02*
D03*
X1356360D02*
D03*
X1229360D02*
D03*
X1254760D02*
D03*
X1280160D02*
D03*
X1305560D02*
D03*
D25*
X1203960D02*
D03*
D28*
X1330960D02*
X1331580Y390510D01*
Y436880D01*
X1277630Y459740D02*
Y472440D01*
Y485140D01*
X1330390Y462090D02*
X1331850Y463550D01*
X1330390Y452820D02*
Y462090D01*
X1329690Y452120D02*
X1330390Y452820D01*
X1329690Y452120D02*
X1330930Y450881D01*
X1331580D01*
X1182370Y574500D02*
Y590550D01*
Y574500D02*
X1182830Y574040D01*
X1183630D01*
D29*
X1056640Y518160D02*
D03*
X1480820D02*
D03*
D30*
X909434Y617179D02*
D03*
X847204D02*
D03*
X1277620Y751840D02*
D03*
X1351048Y740369D02*
D03*
X1057910Y723900D02*
D03*
X1419664D02*
D03*
X778510Y557530D02*
D03*
X1130300Y741680D02*
D03*
X988060Y695960D02*
D03*
X918210Y661670D02*
D03*
X1696524Y558800D02*
D03*
X1203960Y751840D02*
D03*
X1488359Y695919D02*
D03*
X1556016Y669249D02*
D03*
X1628059Y617179D02*
D03*
X1182370Y420370D02*
D03*
X1186180Y741680D02*
D03*
X1758754Y558800D02*
D03*
X1257300Y751840D02*
D03*
X840740Y557530D02*
D03*
X1050290Y695960D02*
D03*
X980440Y661670D02*
D03*
X1120140Y723900D02*
D03*
X1409468Y740369D02*
D03*
X1550589Y695919D02*
D03*
X1620439Y661629D02*
D03*
X1690289Y617179D02*
D03*
X1481894Y723900D02*
D03*
X1336040Y751840D02*
D03*
D31*
X1322070Y604520D02*
D03*
X1182370Y590550D02*
D03*
M02*
