G04*
G04 #@! TF.GenerationSoftware,Altium Limited,Altium Designer,26.3.0 (6)*
G04*
G04 Layer_Physical_Order=2*
G04 Layer_Color=16711680*
%FSLAX44Y44*%
%MOMM*%
G71*
G04*
G04 #@! TF.SameCoordinates,CDA66699-1944-4C2D-AFC1-0E8F45F5DD26*
G04*
G04*
G04 #@! TF.FilePolarity,Positive*
G04*
G01*
G75*
%ADD23C,1.5700*%
%ADD25R,1.5700X1.5700*%
%ADD28C,0.5080*%
%ADD29C,5.0000*%
%ADD30C,0.7620*%
%ADD31C,1.0160*%
%ADD32R,1.6600X0.7900*%
%ADD33R,0.9561X1.6098*%
%ADD34R,1.4544X1.7062*%
G36*
X1307786Y837029D02*
X1332923Y835231D01*
X1357980Y832537D01*
X1382925Y828950D01*
X1407726Y824476D01*
X1432352Y819119D01*
X1456770Y812886D01*
X1480951Y805786D01*
X1504862Y797828D01*
X1528475Y789021D01*
X1551758Y779377D01*
X1574682Y768907D01*
X1597218Y757627D01*
X1619336Y745549D01*
X1641010Y732690D01*
X1662211Y719065D01*
X1682912Y704692D01*
X1703086Y689589D01*
X1722709Y673776D01*
X1741755Y657273D01*
X1760200Y640100D01*
X1769110Y631190D01*
X1769110Y544830D01*
X1769110Y544830D01*
X1769110Y543204D01*
X1768475Y540014D01*
X1767231Y537010D01*
X1765424Y534305D01*
X1763125Y532006D01*
X1760420Y530199D01*
X1757416Y528954D01*
X1754226Y528320D01*
X1752600Y528320D01*
X1604010Y528320D01*
X1604010Y528320D01*
X1597623Y528178D01*
X1584891Y527142D01*
X1572279Y525110D01*
X1559865Y522095D01*
X1547727Y518116D01*
X1535938Y513196D01*
X1524571Y507366D01*
X1513697Y500663D01*
X1503382Y493127D01*
X1493690Y484805D01*
X1484681Y475748D01*
X1476410Y466013D01*
X1468929Y455658D01*
X1462283Y444749D01*
X1456514Y433351D01*
X1451657Y421536D01*
X1447741Y409377D01*
X1444792Y396948D01*
X1442827Y384325D01*
X1441858Y371588D01*
X1441750Y365200D01*
X1095300Y365200D01*
X1095300Y365200D01*
X1095200Y371580D01*
X1094248Y384302D01*
X1092302Y396912D01*
X1089372Y409329D01*
X1085477Y421478D01*
X1080640Y433284D01*
X1074893Y444675D01*
X1068269Y455579D01*
X1060810Y465930D01*
X1052562Y475664D01*
X1043576Y484720D01*
X1033907Y493044D01*
X1023615Y500583D01*
X1012763Y507292D01*
X1001417Y513129D01*
X989650Y518057D01*
X977531Y522047D01*
X965137Y525074D01*
X952544Y527119D01*
X939829Y528170D01*
X933450Y528320D01*
X787400Y528320D01*
X785774Y528320D01*
X782584Y528954D01*
X779580Y530199D01*
X776876Y532006D01*
X774576Y534305D01*
X772769Y537010D01*
X771524Y540014D01*
X770890Y543204D01*
Y552851D01*
X772001Y553388D01*
X773430Y553630D01*
X774913Y552147D01*
X777247Y551180D01*
X779773D01*
X782107Y552147D01*
X782311Y552351D01*
X788659D01*
Y546941D01*
X803299D01*
Y560794D01*
X810877Y568371D01*
X812040Y569149D01*
X818754Y575862D01*
X820690Y575060D01*
Y575060D01*
X832256D01*
X832505Y573808D01*
X833628Y572128D01*
X835561Y570195D01*
Y562710D01*
X829321D01*
Y568119D01*
X814681D01*
Y546941D01*
X829321D01*
Y552351D01*
X836939D01*
X837143Y552147D01*
X838746Y551483D01*
X838758Y551475D01*
X838772Y551472D01*
X839477Y551180D01*
X840240D01*
X840740Y551081D01*
X841240Y551180D01*
X842003D01*
X842708Y551472D01*
X842722Y551475D01*
X842734Y551483D01*
X844337Y552147D01*
X846123Y553933D01*
X847090Y556267D01*
Y558793D01*
X846123Y561127D01*
X845919Y561331D01*
Y572340D01*
X845525Y574322D01*
X844402Y576003D01*
X844402Y576003D01*
X842470Y577935D01*
Y580140D01*
X842470Y580140D01*
X842470Y580141D01*
X842370Y580642D01*
Y588040D01*
X823330D01*
Y593060D01*
X830260D01*
Y599550D01*
Y606040D01*
X823330D01*
Y613769D01*
X830291D01*
Y635911D01*
X810667D01*
Y613769D01*
X812971D01*
Y584729D01*
X805493Y577251D01*
X804910Y576862D01*
X803084Y577511D01*
X802370Y578106D01*
Y580280D01*
X792800D01*
Y575060D01*
X799323D01*
X800375Y572520D01*
X795975Y568119D01*
X788659D01*
Y562710D01*
X782311D01*
X782107Y562913D01*
X779773Y563880D01*
X777247D01*
X774913Y562913D01*
X773430Y561430D01*
X772001Y561671D01*
X770890Y562209D01*
Y631190D01*
X779800Y640100D01*
X798245Y657273D01*
X817291Y673776D01*
X836914Y689589D01*
X857088Y704692D01*
X877789Y719065D01*
X898990Y732690D01*
X920664Y745549D01*
X942782Y757627D01*
X965318Y768907D01*
X988242Y779377D01*
X1011525Y789021D01*
X1035137Y797828D01*
X1059049Y805786D01*
X1083230Y812886D01*
X1107648Y819119D01*
X1132274Y824476D01*
X1157075Y828950D01*
X1182020Y832537D01*
X1207077Y835231D01*
X1232214Y837029D01*
X1257399Y837928D01*
X1282601Y837928D01*
X1307786Y837029D01*
D02*
G37*
%LPC*%
G36*
X1337670Y800350D02*
X1328100D01*
Y795130D01*
X1337670D01*
Y800350D01*
D02*
G37*
G36*
X1264124Y800309D02*
X1254554D01*
Y795089D01*
X1264124D01*
Y800309D01*
D02*
G37*
G36*
X1252045Y830180D02*
X1232421D01*
Y808038D01*
X1237053D01*
Y804347D01*
X1227440Y794734D01*
X1226664Y793572D01*
X1224124Y794053D01*
Y800309D01*
X1221895D01*
Y808038D01*
X1226527D01*
Y830180D01*
X1206903D01*
Y808038D01*
X1211536D01*
Y800309D01*
X1202444D01*
Y787329D01*
X1223383D01*
X1224124Y787328D01*
X1225146Y786313D01*
Y784119D01*
X1223026Y782309D01*
X1214554D01*
Y775819D01*
Y769329D01*
X1221077D01*
X1222129Y766789D01*
X1217729Y762388D01*
X1210413D01*
Y757020D01*
X1207761D01*
X1207557Y757223D01*
X1205223Y758190D01*
X1202697D01*
X1200363Y757223D01*
X1198577Y755437D01*
X1197610Y753103D01*
Y750577D01*
X1198577Y748243D01*
X1200363Y746457D01*
X1202697Y745490D01*
X1205223D01*
X1207557Y746457D01*
X1207761Y746661D01*
X1210413D01*
Y741210D01*
X1225054D01*
Y755063D01*
X1234765Y764775D01*
X1234765Y764775D01*
X1235888Y766455D01*
X1236283Y768437D01*
Y788926D01*
X1240098Y792741D01*
X1242444Y791769D01*
Y787329D01*
X1252014D01*
Y793819D01*
Y800309D01*
X1248966D01*
X1247412Y802202D01*
Y808038D01*
X1252045D01*
Y830180D01*
D02*
G37*
G36*
X1337670Y792590D02*
X1328100D01*
Y787370D01*
X1337670D01*
Y792590D01*
D02*
G37*
G36*
X1300073Y830221D02*
X1280449D01*
Y808079D01*
X1285082D01*
Y800350D01*
X1275990D01*
Y787370D01*
X1297670D01*
Y800350D01*
X1295441D01*
Y808079D01*
X1300073D01*
Y830221D01*
D02*
G37*
G36*
X1264124Y792549D02*
X1254554D01*
Y787329D01*
X1264124D01*
Y792549D01*
D02*
G37*
G36*
X1411099Y790149D02*
X1401529D01*
Y784929D01*
X1411099D01*
Y790149D01*
D02*
G37*
G36*
X1190464D02*
X1180894D01*
Y784929D01*
X1190464D01*
Y790149D01*
D02*
G37*
G36*
X1411099Y782389D02*
X1401529D01*
Y777169D01*
X1411099D01*
Y782389D01*
D02*
G37*
G36*
X1372463Y820061D02*
X1352839D01*
Y797919D01*
X1357472D01*
Y790149D01*
X1349418D01*
Y777169D01*
X1371098D01*
Y790149D01*
X1367831D01*
Y797919D01*
X1372463D01*
Y820061D01*
D02*
G37*
G36*
X1190464Y782389D02*
X1180894D01*
Y777169D01*
X1190464D01*
Y782389D01*
D02*
G37*
G36*
X1152753Y820061D02*
X1133129D01*
Y797919D01*
X1137762D01*
Y790149D01*
X1128784D01*
Y777169D01*
X1150464D01*
Y790149D01*
X1148121D01*
Y797919D01*
X1152753D01*
Y820061D01*
D02*
G37*
G36*
X1297670Y782350D02*
X1288100D01*
Y777130D01*
X1297670D01*
Y782350D01*
D02*
G37*
G36*
X1285560D02*
X1275990D01*
Y777130D01*
X1285560D01*
Y782350D01*
D02*
G37*
G36*
X1212014Y782309D02*
X1202444D01*
Y777089D01*
X1212014D01*
Y782309D01*
D02*
G37*
G36*
X1325591Y830221D02*
X1305967D01*
Y808079D01*
X1308271D01*
Y779425D01*
X1300210Y771365D01*
X1297670Y772417D01*
Y774590D01*
X1288100D01*
Y769370D01*
X1294623D01*
X1295675Y766830D01*
X1291274Y762429D01*
X1283959D01*
Y757024D01*
X1281419Y757021D01*
X1281217Y757223D01*
X1278883Y758190D01*
X1276357D01*
X1274023Y757223D01*
X1272237Y755437D01*
X1271270Y753103D01*
Y750577D01*
X1272237Y748243D01*
X1274023Y746457D01*
X1276357Y745490D01*
X1278883D01*
X1281217Y746457D01*
X1281419Y746659D01*
X1283959Y746656D01*
Y741251D01*
X1298599D01*
Y755104D01*
X1313781Y770285D01*
X1315990Y769370D01*
Y769370D01*
X1327556D01*
X1327805Y768118D01*
X1328928Y766438D01*
X1330860Y764505D01*
Y757020D01*
X1324621D01*
Y762429D01*
X1309981D01*
Y741251D01*
X1324621D01*
Y746661D01*
X1332239D01*
X1332443Y746457D01*
X1334777Y745490D01*
X1337303D01*
X1339637Y746457D01*
X1341423Y748243D01*
X1342390Y750577D01*
Y753103D01*
X1341423Y755437D01*
X1341219Y755641D01*
Y766650D01*
X1340825Y768632D01*
X1339702Y770313D01*
X1339702Y770313D01*
X1337770Y772245D01*
Y774450D01*
X1337770Y774451D01*
X1337770Y774451D01*
X1337670Y774952D01*
Y782350D01*
X1318630D01*
Y787370D01*
X1325560D01*
Y793860D01*
Y800350D01*
X1318630D01*
Y808079D01*
X1325591D01*
Y830221D01*
D02*
G37*
G36*
X1285560Y774590D02*
X1275990D01*
Y769370D01*
X1285560D01*
Y774590D01*
D02*
G37*
G36*
X1212014Y774549D02*
X1202444D01*
Y769329D01*
X1212014D01*
Y774549D01*
D02*
G37*
G36*
X1482369Y772369D02*
X1472799D01*
Y767149D01*
X1482369D01*
Y772369D01*
D02*
G37*
G36*
X1119344D02*
X1109774D01*
Y767149D01*
X1119344D01*
Y772369D01*
D02*
G37*
G36*
X1371098Y772149D02*
X1361528D01*
Y766929D01*
X1371098D01*
Y772149D01*
D02*
G37*
G36*
X1358988D02*
X1349418D01*
Y766929D01*
X1358988D01*
Y772149D01*
D02*
G37*
G36*
X1150464D02*
X1140894D01*
Y766929D01*
X1150464D01*
Y772149D01*
D02*
G37*
G36*
X1138354D02*
X1128784D01*
Y766929D01*
X1138354D01*
Y772149D01*
D02*
G37*
G36*
X1469101Y802281D02*
X1449477D01*
Y780139D01*
X1454109D01*
Y775218D01*
X1445132Y766241D01*
X1444909Y765907D01*
X1442369Y766677D01*
Y772369D01*
X1438951D01*
Y780139D01*
X1443583D01*
Y802281D01*
X1423959D01*
Y780139D01*
X1428592D01*
Y772369D01*
X1420689D01*
Y759389D01*
X1441075D01*
X1442369Y759389D01*
X1443615Y757365D01*
Y756393D01*
X1442369Y754369D01*
X1441075Y754369D01*
X1432799D01*
Y747879D01*
Y741389D01*
X1439362D01*
X1440414Y738849D01*
X1436054Y734489D01*
X1428739D01*
Y729080D01*
X1423465D01*
X1423261Y729283D01*
X1420927Y730250D01*
X1418401D01*
X1416067Y729283D01*
X1414281Y727497D01*
X1413314Y725163D01*
Y722637D01*
X1414281Y720303D01*
X1416067Y718517D01*
X1418401Y717550D01*
X1420927D01*
X1423261Y718517D01*
X1423465Y718720D01*
X1428739D01*
Y713311D01*
X1443379D01*
Y727164D01*
X1452457Y736241D01*
X1453579Y737921D01*
X1453579Y737921D01*
X1453974Y739903D01*
Y760433D01*
X1458342Y764801D01*
X1460689Y763829D01*
Y759389D01*
X1470259D01*
Y765879D01*
Y772369D01*
X1465046D01*
X1464468Y773073D01*
Y780139D01*
X1469101D01*
Y802281D01*
D02*
G37*
G36*
X1178271Y820061D02*
X1158647D01*
Y797919D01*
X1161065D01*
Y769379D01*
X1153004Y761318D01*
X1150464Y762371D01*
Y764389D01*
X1140894D01*
Y759169D01*
X1147262D01*
X1148314Y756629D01*
X1143954Y752269D01*
X1136639D01*
Y746864D01*
X1134099Y746861D01*
X1133897Y747063D01*
X1131563Y748030D01*
X1129037D01*
X1126703Y747063D01*
X1124917Y745277D01*
X1123978Y743010D01*
X1123622Y742858D01*
X1121410Y742281D01*
X1121377Y742331D01*
X1121377Y742331D01*
X1121376Y742331D01*
X1119444Y744264D01*
Y746468D01*
X1119344Y746967D01*
Y754369D01*
X1100304D01*
Y759389D01*
X1107234D01*
Y765879D01*
Y772369D01*
X1100304D01*
Y780139D01*
X1107151D01*
Y802281D01*
X1087527D01*
Y780139D01*
X1089945D01*
Y751599D01*
X1081884Y743538D01*
X1079344Y744591D01*
Y746609D01*
X1069774D01*
Y741389D01*
X1076142D01*
X1077194Y738849D01*
X1072834Y734489D01*
X1065519D01*
Y729080D01*
X1061711D01*
X1061507Y729283D01*
X1059173Y730250D01*
X1056647D01*
X1054313Y729283D01*
X1052527Y727497D01*
X1051920Y726032D01*
X1049380Y726470D01*
Y726470D01*
X1030340D01*
Y731490D01*
X1037270D01*
Y737980D01*
Y744470D01*
X1030340D01*
Y752158D01*
X1037415D01*
Y774300D01*
X1017791D01*
Y752158D01*
X1019981D01*
Y723390D01*
X1011920Y715329D01*
X1009380Y716381D01*
Y718710D01*
X999810D01*
Y713490D01*
X1006489D01*
X1007541Y710950D01*
X1003099Y706508D01*
X995783D01*
Y701098D01*
X991902D01*
X991657Y701343D01*
X989323Y702310D01*
X986797D01*
X984463Y701343D01*
X982677Y699557D01*
X982184Y698368D01*
X979697Y698863D01*
X979644Y699502D01*
X979644Y699698D01*
Y702379D01*
X970074D01*
Y697159D01*
X979170D01*
X979644Y697159D01*
X981710Y696014D01*
X981710Y695881D01*
Y694697D01*
X982677Y692363D01*
X984463Y690577D01*
X986797Y689610D01*
X989323D01*
X991657Y690577D01*
X991820Y690739D01*
X995783D01*
Y685330D01*
X1010424D01*
Y699183D01*
X1025600Y714359D01*
X1027700Y713490D01*
Y713490D01*
X1039266D01*
X1039515Y712238D01*
X1040638Y710558D01*
X1045110Y706085D01*
Y701140D01*
X1036445D01*
Y706508D01*
X1021804D01*
Y685330D01*
X1036445D01*
Y690780D01*
X1046489D01*
X1046693Y690577D01*
X1049027Y689610D01*
X1051553D01*
X1053887Y690577D01*
X1055673Y692363D01*
X1056640Y694697D01*
Y697223D01*
X1055673Y699557D01*
X1055470Y699761D01*
Y708230D01*
X1055075Y710212D01*
X1053952Y711893D01*
X1049480Y716366D01*
Y718570D01*
X1049380Y719070D01*
Y721263D01*
X1051920Y721768D01*
X1052527Y720303D01*
X1054313Y718517D01*
X1056647Y717550D01*
X1059173D01*
X1061507Y718517D01*
X1061711Y718720D01*
X1065519D01*
Y713311D01*
X1080159D01*
Y727164D01*
X1095345Y742349D01*
X1097664Y741389D01*
Y741389D01*
X1109230D01*
X1109274Y741164D01*
X1109479Y740136D01*
X1109479Y740136D01*
X1109479Y740136D01*
X1109970Y739401D01*
X1110602Y738456D01*
X1110602Y738456D01*
X1110602Y738456D01*
X1112535Y736523D01*
Y729038D01*
X1106181D01*
Y734489D01*
X1091541D01*
Y713311D01*
X1106181D01*
Y718679D01*
X1116380D01*
X1116543Y718517D01*
X1118877Y717550D01*
X1121403D01*
X1123737Y718517D01*
X1125523Y720303D01*
X1126490Y722637D01*
Y725163D01*
X1125523Y727497D01*
X1123737Y729283D01*
X1122894Y729632D01*
Y736787D01*
X1123028Y736873D01*
X1125434Y737566D01*
X1126703Y736297D01*
X1129037Y735330D01*
X1131563D01*
X1133897Y736297D01*
X1134099Y736499D01*
X1136639Y736496D01*
Y731091D01*
X1151279D01*
Y744944D01*
X1166465Y760129D01*
X1168784Y759169D01*
Y759169D01*
X1180205D01*
Y746860D01*
X1177301D01*
Y752269D01*
X1162661D01*
Y731091D01*
X1177301D01*
Y736500D01*
X1182379D01*
X1182583Y736297D01*
X1184917Y735330D01*
X1187443D01*
X1189777Y736297D01*
X1191563Y738083D01*
X1192530Y740417D01*
Y742943D01*
X1191563Y745277D01*
X1190564Y746276D01*
Y764249D01*
X1190464Y764749D01*
Y772149D01*
X1171424D01*
Y777169D01*
X1178354D01*
Y783659D01*
Y790149D01*
X1171424D01*
Y797919D01*
X1178271D01*
Y820061D01*
D02*
G37*
G36*
X1397981D02*
X1378357D01*
Y797919D01*
X1381699D01*
Y767763D01*
X1373638Y759703D01*
X1371098Y760755D01*
X1371098Y760901D01*
X1371098D01*
X1371098Y761051D01*
Y764389D01*
X1361528D01*
Y759169D01*
X1369216Y759169D01*
X1369366D01*
D01*
X1369512Y759169D01*
X1369660Y758811D01*
X1370564Y756629D01*
X1366204Y752269D01*
X1358889D01*
Y745548D01*
X1354849D01*
X1354645Y745752D01*
X1352311Y746719D01*
X1349785D01*
X1347451Y745752D01*
X1347248Y745548D01*
X1347238D01*
X1345256Y745154D01*
X1343576Y744031D01*
X1342453Y742351D01*
X1342059Y740369D01*
X1342453Y738387D01*
X1343576Y736706D01*
X1345256Y735584D01*
X1347238Y735189D01*
X1347248D01*
X1347451Y734986D01*
X1349785Y734019D01*
X1352311D01*
X1354645Y734986D01*
X1354849Y735189D01*
X1358889D01*
Y731091D01*
X1373529D01*
Y744944D01*
X1388242Y759656D01*
X1389419Y759169D01*
Y759169D01*
X1400984D01*
X1401233Y757916D01*
X1402356Y756236D01*
X1405791Y752802D01*
Y746860D01*
X1399551D01*
Y752269D01*
X1384911D01*
Y731091D01*
X1399551D01*
Y736500D01*
X1404356D01*
X1405871Y734986D01*
X1408205Y734019D01*
X1410731D01*
X1413065Y734986D01*
X1414852Y736772D01*
X1415818Y739106D01*
Y740892D01*
X1415948Y741542D01*
X1416149Y742556D01*
X1416149Y742557D01*
X1416149Y742557D01*
Y754947D01*
X1415755Y756929D01*
X1414633Y758609D01*
X1411198Y762044D01*
Y764248D01*
X1411099Y764747D01*
Y772149D01*
X1392058D01*
Y777169D01*
X1398989D01*
Y783659D01*
Y790149D01*
X1392058D01*
Y797919D01*
X1397981D01*
Y820061D01*
D02*
G37*
G36*
X1482369Y764609D02*
X1472799D01*
Y759389D01*
X1482369D01*
Y764609D01*
D02*
G37*
G36*
X1119344D02*
X1109774D01*
Y759389D01*
X1119344D01*
Y764609D01*
D02*
G37*
G36*
X1081633Y802281D02*
X1062009D01*
Y780139D01*
X1066642D01*
Y772369D01*
X1057664D01*
Y759389D01*
X1079344D01*
Y772369D01*
X1077001D01*
Y780139D01*
X1081633D01*
Y802281D01*
D02*
G37*
G36*
X1138354Y764389D02*
X1128784D01*
Y759169D01*
X1138354D01*
Y764389D01*
D02*
G37*
G36*
X1358988D02*
X1349418D01*
Y759169D01*
X1358988D01*
Y764389D01*
D02*
G37*
G36*
X1430259Y754369D02*
X1420689D01*
Y749149D01*
X1430259D01*
Y754369D01*
D02*
G37*
G36*
X1079344D02*
X1069774D01*
Y749149D01*
X1079344D01*
Y754369D01*
D02*
G37*
G36*
X1067234D02*
X1057664D01*
Y749149D01*
X1067234D01*
Y754369D01*
D02*
G37*
G36*
X1264124Y782309D02*
X1242444D01*
Y769329D01*
X1252121D01*
Y764495D01*
X1251075Y762388D01*
X1236434D01*
Y741210D01*
X1251075D01*
Y746439D01*
X1253615Y746545D01*
X1253703Y746457D01*
X1256037Y745490D01*
X1258563D01*
X1260897Y746457D01*
X1262683Y748243D01*
X1263650Y750577D01*
Y753103D01*
X1262683Y755437D01*
X1262479Y755641D01*
Y769329D01*
X1264124D01*
Y782309D01*
D02*
G37*
G36*
X1430259Y746609D02*
X1420689D01*
Y741389D01*
X1430259D01*
Y746609D01*
D02*
G37*
G36*
X1067234D02*
X1057664D01*
Y741389D01*
X1067234D01*
Y746609D01*
D02*
G37*
G36*
X1049380Y744470D02*
X1039810D01*
Y739250D01*
X1049380D01*
Y744470D01*
D02*
G37*
G36*
X1552219Y744429D02*
X1542649D01*
Y739209D01*
X1552219D01*
Y744429D01*
D02*
G37*
G36*
X1541491Y774341D02*
X1521867D01*
Y752199D01*
X1526115D01*
X1526340Y749659D01*
X1516252Y739571D01*
X1515129Y737890D01*
X1514735Y735908D01*
X1512219Y735966D01*
Y744429D01*
X1511341D01*
Y752199D01*
X1515973D01*
Y774341D01*
X1496349D01*
Y752199D01*
X1500982D01*
Y744429D01*
X1490539D01*
Y731449D01*
X1512195D01*
X1512219Y731449D01*
X1514735Y731390D01*
Y726487D01*
X1512219Y726429D01*
Y726429D01*
X1502649D01*
Y719939D01*
Y713449D01*
X1508216D01*
X1509188Y711102D01*
X1505905Y707819D01*
X1498589D01*
Y701098D01*
X1492159D01*
X1491956Y701302D01*
X1489622Y702269D01*
X1487096D01*
X1484762Y701302D01*
X1482975Y699516D01*
X1482009Y697182D01*
Y694656D01*
X1482975Y692322D01*
X1484762Y690536D01*
X1487096Y689569D01*
X1489622D01*
X1491956Y690536D01*
X1492159Y690739D01*
X1498589D01*
Y686641D01*
X1513229D01*
Y700494D01*
X1523577Y710841D01*
X1524699Y712521D01*
X1525094Y714503D01*
Y733763D01*
X1528192Y736861D01*
X1530539Y735889D01*
Y731449D01*
X1540109D01*
Y737939D01*
Y744429D01*
X1538606D01*
X1538335Y744588D01*
X1536718Y746969D01*
X1536858Y747673D01*
Y752199D01*
X1541491D01*
Y774341D01*
D02*
G37*
G36*
X1049380Y736710D02*
X1039810D01*
Y731490D01*
X1049380D01*
Y736710D01*
D02*
G37*
G36*
X1011898Y774300D02*
X992273D01*
Y752158D01*
X996906D01*
Y744470D01*
X987700D01*
Y731490D01*
X1009380D01*
Y744470D01*
X1007265D01*
Y752158D01*
X1011898D01*
Y774300D01*
D02*
G37*
G36*
X1552219Y736669D02*
X1542649D01*
Y731449D01*
X1552219D01*
Y736669D01*
D02*
G37*
G36*
X1482369Y754369D02*
X1460689D01*
Y741389D01*
X1472254D01*
X1472504Y740136D01*
X1473626Y738456D01*
X1476715Y735367D01*
Y729080D01*
X1469401D01*
Y734489D01*
X1454761D01*
Y713311D01*
X1469401D01*
Y718720D01*
X1478094D01*
X1478297Y718517D01*
X1480631Y717550D01*
X1483158D01*
X1485491Y718517D01*
X1487278Y720303D01*
X1487999Y722044D01*
X1490539Y721539D01*
Y721209D01*
X1500109D01*
Y726429D01*
X1490539D01*
Y726429D01*
X1488138Y726766D01*
X1487074Y727961D01*
Y737513D01*
X1486680Y739495D01*
X1485557Y741175D01*
X1482468Y744264D01*
Y746468D01*
X1482369Y746970D01*
Y754369D01*
D02*
G37*
G36*
X1009380Y726470D02*
X999810D01*
Y721250D01*
X1009380D01*
Y726470D01*
D02*
G37*
G36*
X997270D02*
X987700D01*
Y721250D01*
X997270D01*
Y726470D01*
D02*
G37*
G36*
Y718710D02*
X987700D01*
Y713490D01*
X997270D01*
Y718710D01*
D02*
G37*
G36*
X1500109Y718669D02*
X1490539D01*
Y713449D01*
X1500109D01*
Y718669D01*
D02*
G37*
G36*
X1621955Y710180D02*
X1612385D01*
Y704960D01*
X1621955D01*
Y710180D01*
D02*
G37*
G36*
X979644Y710139D02*
X970074D01*
Y704919D01*
X979644D01*
Y710139D01*
D02*
G37*
G36*
X1552219Y726429D02*
X1530539D01*
Y713449D01*
X1542104D01*
X1542354Y712196D01*
X1543476Y710516D01*
X1545409Y708583D01*
Y702410D01*
X1539251D01*
Y707819D01*
X1524611D01*
Y686641D01*
X1539251D01*
Y692050D01*
X1545477D01*
X1546992Y690536D01*
X1549326Y689569D01*
X1551852D01*
X1554186Y690536D01*
X1555972Y692322D01*
X1556939Y694656D01*
Y697182D01*
X1555972Y699516D01*
X1555768Y699720D01*
Y710729D01*
X1555374Y712711D01*
X1554251Y714391D01*
X1554251Y714391D01*
X1552318Y716324D01*
Y718528D01*
X1552219Y719030D01*
Y726429D01*
D02*
G37*
G36*
X1621955Y702420D02*
X1612385D01*
Y697200D01*
X1621955D01*
Y702420D01*
D02*
G37*
G36*
X1584553Y740051D02*
X1564929D01*
Y717909D01*
X1569562D01*
Y710180D01*
X1560275D01*
Y697200D01*
X1581954D01*
Y710180D01*
X1579921D01*
Y717909D01*
X1584553D01*
Y740051D01*
D02*
G37*
G36*
X942048Y740010D02*
X922423D01*
Y717868D01*
X927056D01*
Y710139D01*
X917964D01*
Y697159D01*
X939644D01*
Y710139D01*
X937415D01*
Y717868D01*
X942048D01*
Y740010D01*
D02*
G37*
G36*
X967565D02*
X947941D01*
Y717868D01*
X950245D01*
Y689213D01*
X942184Y681153D01*
X939644Y682205D01*
Y684379D01*
X930074D01*
Y679159D01*
X936598D01*
X937650Y676619D01*
X933249Y672218D01*
X925933D01*
Y666808D01*
X922052D01*
X921807Y667053D01*
X919473Y668020D01*
X916947D01*
X914613Y667053D01*
X913431Y665872D01*
X910950Y665730D01*
X910269Y665730D01*
X901380D01*
Y659240D01*
Y652750D01*
X910950D01*
Y656472D01*
X913490Y657410D01*
X914613Y656287D01*
X916947Y655320D01*
X919473D01*
X921807Y656287D01*
X921970Y656449D01*
X925933D01*
Y651040D01*
X940574D01*
Y659639D01*
X940579Y659647D01*
X940714Y660327D01*
X940933Y660984D01*
X940909Y661309D01*
X940973Y661629D01*
X940838Y662309D01*
X940788Y663000D01*
X940642Y663291D01*
X940579Y663611D01*
X940574Y663618D01*
Y664893D01*
X955755Y680074D01*
X957964Y679159D01*
Y679159D01*
X969530D01*
X969779Y677907D01*
X970902Y676227D01*
X975260Y671868D01*
Y666850D01*
X966595D01*
Y672218D01*
X951954D01*
Y651040D01*
X966595D01*
Y656490D01*
X976639D01*
X976843Y656287D01*
X979177Y655320D01*
X981703D01*
X984037Y656287D01*
X985823Y658073D01*
X986790Y660407D01*
Y662933D01*
X985823Y665267D01*
X985620Y665471D01*
Y674013D01*
X985225Y675995D01*
X984102Y677676D01*
X979744Y682034D01*
Y684239D01*
X979644Y684739D01*
Y692139D01*
X960604D01*
Y697159D01*
X967534D01*
Y703649D01*
Y710139D01*
X960604D01*
Y717868D01*
X967565D01*
Y740010D01*
D02*
G37*
G36*
X1581954Y692180D02*
X1572384D01*
Y686960D01*
X1581954D01*
Y692180D01*
D02*
G37*
G36*
X1569845D02*
X1560275D01*
Y686960D01*
X1569845D01*
Y692180D01*
D02*
G37*
G36*
X939644Y692139D02*
X930074D01*
Y686919D01*
X939644D01*
Y692139D01*
D02*
G37*
G36*
X927534D02*
X917964D01*
Y686919D01*
X927534D01*
Y692139D01*
D02*
G37*
G36*
X1610071Y740051D02*
X1590447D01*
Y717909D01*
X1592555D01*
Y689060D01*
X1584494Y680999D01*
X1581954Y682051D01*
Y684420D01*
X1572384D01*
Y679200D01*
X1579103D01*
X1580155Y676660D01*
X1575754Y672259D01*
X1568439D01*
Y666808D01*
X1565504D01*
X1562366Y669947D01*
Y670512D01*
X1561399Y672846D01*
X1559613Y674632D01*
X1557279Y675599D01*
X1554753D01*
X1552419Y674632D01*
X1550632Y672846D01*
X1549666Y670512D01*
Y667986D01*
X1550632Y665652D01*
X1552419Y663866D01*
X1554753Y662899D01*
X1554764D01*
X1559696Y657966D01*
X1561377Y656844D01*
X1563359Y656449D01*
X1568439D01*
Y651081D01*
X1583079D01*
Y664934D01*
X1598203Y680058D01*
X1600275Y679200D01*
Y679200D01*
X1611840D01*
X1612089Y677948D01*
X1613212Y676268D01*
X1615259Y674221D01*
Y666808D01*
X1609101D01*
Y672259D01*
X1594461D01*
Y651081D01*
X1609101D01*
Y656449D01*
X1616638D01*
X1616842Y656246D01*
X1619176Y655279D01*
X1621702D01*
X1624036Y656246D01*
X1625822Y658032D01*
X1626789Y660366D01*
Y662892D01*
X1625822Y665226D01*
X1625618Y665430D01*
Y676366D01*
X1625224Y678348D01*
X1624101Y680028D01*
X1624101Y680029D01*
X1622054Y682076D01*
Y684280D01*
X1621955Y684779D01*
Y692180D01*
X1602914D01*
Y697200D01*
X1609845D01*
Y703690D01*
Y710180D01*
X1602914D01*
Y717909D01*
X1610071D01*
Y740051D01*
D02*
G37*
G36*
X1569845Y684420D02*
X1560275D01*
Y679200D01*
X1569845D01*
Y684420D01*
D02*
G37*
G36*
X927534Y684379D02*
X917964D01*
Y679159D01*
X927534D01*
Y684379D01*
D02*
G37*
G36*
X1691919Y665689D02*
X1682349D01*
Y660469D01*
X1691919D01*
Y665689D01*
D02*
G37*
G36*
X898985Y695560D02*
X879361D01*
Y673418D01*
X883993D01*
Y669882D01*
X874381Y660270D01*
X873490Y658936D01*
X872089Y658979D01*
X870950Y659359D01*
Y665730D01*
X868835D01*
Y673418D01*
X873467D01*
Y695560D01*
X853843D01*
Y673418D01*
X858476D01*
Y665730D01*
X849270D01*
Y652750D01*
X870324D01*
X870950Y652750D01*
X872452Y651564D01*
Y648916D01*
X870950Y647730D01*
X870324Y647730D01*
X861380D01*
Y641240D01*
Y634750D01*
X868059D01*
X869111Y632210D01*
X864669Y627768D01*
X857353D01*
Y622358D01*
X851005D01*
X850801Y622562D01*
X848467Y623529D01*
X845941D01*
X843607Y622562D01*
X841821Y620776D01*
X840854Y618442D01*
Y615916D01*
X841821Y613582D01*
X843607Y611796D01*
X845941Y610829D01*
X848467D01*
X850801Y611796D01*
X851005Y611999D01*
X857353D01*
Y606590D01*
X871994D01*
Y620443D01*
X881706Y630155D01*
X882829Y631835D01*
X883223Y633817D01*
Y654462D01*
X886923Y658162D01*
X889270Y657190D01*
Y652750D01*
X898840D01*
Y659240D01*
Y665730D01*
X896543D01*
X896024Y665974D01*
X894352Y667737D01*
Y673418D01*
X898985D01*
Y695560D01*
D02*
G37*
G36*
X1691919Y657929D02*
X1682349D01*
Y652709D01*
X1691919D01*
Y657929D01*
D02*
G37*
G36*
X1654403Y695601D02*
X1634779D01*
Y673459D01*
X1639412D01*
Y665689D01*
X1630239D01*
Y652709D01*
X1651919D01*
Y665689D01*
X1649771D01*
Y673459D01*
X1654403D01*
Y695601D01*
D02*
G37*
G36*
X858840Y647730D02*
X849270D01*
Y642510D01*
X858840D01*
Y647730D01*
D02*
G37*
G36*
X1651919Y647689D02*
X1642349D01*
Y642469D01*
X1651919D01*
Y647689D01*
D02*
G37*
G36*
X1639809D02*
X1630239D01*
Y642469D01*
X1639809D01*
Y647689D01*
D02*
G37*
G36*
X1679921Y695601D02*
X1660297D01*
Y673459D01*
X1662519D01*
Y644763D01*
X1654459Y636703D01*
X1651919Y637755D01*
Y639929D01*
X1642349D01*
Y634709D01*
X1648872D01*
X1649924Y632169D01*
X1645523Y627768D01*
X1638208D01*
Y622358D01*
X1631859D01*
X1631656Y622562D01*
X1629322Y623529D01*
X1626796D01*
X1624462Y622562D01*
X1622675Y620776D01*
X1621709Y618442D01*
Y615916D01*
X1622675Y613582D01*
X1624462Y611796D01*
X1626796Y610829D01*
X1629322D01*
X1631656Y611796D01*
X1631859Y611999D01*
X1638208D01*
Y606590D01*
X1652848D01*
Y620443D01*
X1668029Y635624D01*
X1670239Y634709D01*
Y634709D01*
X1683336D01*
X1686766Y631279D01*
Y622593D01*
X1686692Y622562D01*
X1686488Y622358D01*
X1678870D01*
Y627768D01*
X1664229D01*
Y606590D01*
X1678870D01*
Y611999D01*
X1686488D01*
X1686692Y611796D01*
X1689026Y610829D01*
X1691552D01*
X1693886Y611796D01*
X1695672Y613582D01*
X1696639Y615916D01*
Y617403D01*
X1696731Y617541D01*
X1697125Y619523D01*
Y633424D01*
X1696731Y635406D01*
X1695608Y637087D01*
X1691919Y640776D01*
Y647689D01*
X1672878D01*
Y652709D01*
X1679809D01*
Y659199D01*
Y665689D01*
X1672878D01*
Y673459D01*
X1679921D01*
Y695601D01*
D02*
G37*
G36*
X858840Y639970D02*
X849270D01*
Y634750D01*
X858840D01*
Y639970D01*
D02*
G37*
G36*
X1639809Y639929D02*
X1630239D01*
Y634709D01*
X1639809D01*
Y639929D01*
D02*
G37*
G36*
X910950Y647730D02*
X889270D01*
Y634750D01*
X900836D01*
X901085Y633498D01*
X902208Y631818D01*
X904255Y629771D01*
Y622358D01*
X898015D01*
Y627768D01*
X883374D01*
Y606590D01*
X898015D01*
Y611999D01*
X905633D01*
X905837Y611796D01*
X908171Y610829D01*
X910697D01*
X913031Y611796D01*
X914818Y613582D01*
X915784Y615916D01*
Y618442D01*
X914818Y620776D01*
X914614Y620980D01*
Y631916D01*
X914220Y633898D01*
X913097Y635578D01*
X913097Y635578D01*
X911050Y637626D01*
Y639830D01*
X911050Y639831D01*
X911050Y639831D01*
X910950Y640332D01*
Y647730D01*
D02*
G37*
G36*
X842370Y606040D02*
X832800D01*
Y600820D01*
X842370D01*
Y606040D01*
D02*
G37*
G36*
X1759229Y605999D02*
X1749659D01*
Y600779D01*
X1759229D01*
Y605999D01*
D02*
G37*
G36*
X842370Y598280D02*
X832800D01*
Y593060D01*
X842370D01*
Y598280D01*
D02*
G37*
G36*
X804773Y635911D02*
X785149D01*
Y613769D01*
X786350D01*
Y606040D01*
X780690D01*
Y593060D01*
X802370D01*
Y606040D01*
X796710D01*
Y613769D01*
X804773D01*
Y635911D01*
D02*
G37*
G36*
X1759229Y598239D02*
X1749659D01*
Y593019D01*
X1759229D01*
Y598239D01*
D02*
G37*
G36*
X1721713Y635911D02*
X1702089D01*
Y613769D01*
X1706722D01*
Y605999D01*
X1697549D01*
Y593019D01*
X1719229D01*
Y605999D01*
X1717081D01*
Y613769D01*
X1721713D01*
Y635911D01*
D02*
G37*
G36*
X802370Y588040D02*
X792800D01*
Y582820D01*
X802370D01*
Y588040D01*
D02*
G37*
G36*
X790260D02*
X780690D01*
Y582820D01*
X790260D01*
Y588040D01*
D02*
G37*
G36*
X1719229Y587999D02*
X1709659D01*
Y582779D01*
X1719229D01*
Y587999D01*
D02*
G37*
G36*
X1707119D02*
X1697549D01*
Y582779D01*
X1707119D01*
Y587999D01*
D02*
G37*
G36*
X1747231Y635911D02*
X1727607D01*
Y613769D01*
X1729829D01*
Y585074D01*
X1721769Y577013D01*
X1719229Y578065D01*
Y580239D01*
X1709659D01*
Y575019D01*
X1716182D01*
X1717234Y572479D01*
X1712833Y568078D01*
X1705517D01*
Y563979D01*
X1700325D01*
X1700121Y564183D01*
X1697787Y565150D01*
X1695261D01*
X1692927Y564183D01*
X1691141Y562397D01*
X1690174Y560063D01*
Y557537D01*
X1691141Y555203D01*
X1692927Y553417D01*
X1695261Y552450D01*
X1697787D01*
X1700121Y553417D01*
X1700325Y553620D01*
X1705517D01*
Y546900D01*
X1720158D01*
Y560753D01*
X1735339Y575934D01*
X1737549Y575019D01*
Y575019D01*
X1749115D01*
X1749364Y573766D01*
X1750486Y572086D01*
X1753575Y568997D01*
Y562668D01*
X1746180D01*
Y568078D01*
X1731539D01*
Y546900D01*
X1746180D01*
Y552309D01*
X1756756D01*
X1757482Y552454D01*
X1757491Y552450D01*
X1760018D01*
X1762351Y553417D01*
X1764138Y555203D01*
X1765104Y557537D01*
Y560063D01*
X1764138Y562397D01*
X1763934Y562601D01*
Y571143D01*
X1763540Y573125D01*
X1762417Y574805D01*
X1759328Y577894D01*
Y580098D01*
X1759229Y580600D01*
Y587999D01*
X1740188D01*
Y593019D01*
X1747119D01*
Y599509D01*
Y605999D01*
X1740188D01*
Y613769D01*
X1747231D01*
Y635911D01*
D02*
G37*
G36*
X790260Y580280D02*
X780690D01*
Y575060D01*
X790260D01*
Y580280D01*
D02*
G37*
G36*
X1707119Y580239D02*
X1697549D01*
Y575019D01*
X1707119D01*
Y580239D01*
D02*
G37*
G36*
X1482988Y545700D02*
X1478652D01*
X1474371Y545022D01*
X1470248Y543682D01*
X1466386Y541714D01*
X1462879Y539166D01*
X1459814Y536101D01*
X1457266Y532594D01*
X1455298Y528732D01*
X1453958Y524609D01*
X1453280Y520327D01*
Y515993D01*
X1453958Y511711D01*
X1455298Y507588D01*
X1457266Y503726D01*
X1459814Y500219D01*
X1462879Y497154D01*
X1466386Y494606D01*
X1470248Y492638D01*
X1474371Y491298D01*
X1478652Y490620D01*
X1482988D01*
X1487269Y491298D01*
X1491392Y492638D01*
X1495254Y494606D01*
X1498761Y497154D01*
X1501826Y500219D01*
X1504374Y503726D01*
X1506342Y507588D01*
X1507682Y511711D01*
X1508360Y515993D01*
Y520327D01*
X1507682Y524609D01*
X1506342Y528732D01*
X1504374Y532594D01*
X1501826Y536101D01*
X1498761Y539166D01*
X1495254Y541714D01*
X1491392Y543682D01*
X1487269Y545022D01*
X1482988Y545700D01*
D02*
G37*
G36*
X1058808D02*
X1054473D01*
X1050191Y545022D01*
X1046068Y543682D01*
X1042206Y541714D01*
X1038699Y539166D01*
X1035634Y536101D01*
X1033086Y532594D01*
X1031118Y528732D01*
X1029778Y524609D01*
X1029100Y520327D01*
Y515993D01*
X1029778Y511711D01*
X1031118Y507588D01*
X1033086Y503726D01*
X1035634Y500219D01*
X1038699Y497154D01*
X1042206Y494606D01*
X1046068Y492638D01*
X1050191Y491298D01*
X1054473Y490620D01*
X1058808D01*
X1063089Y491298D01*
X1067212Y492638D01*
X1071074Y494606D01*
X1074581Y497154D01*
X1077646Y500219D01*
X1080194Y503726D01*
X1082162Y507588D01*
X1083502Y511711D01*
X1084180Y515993D01*
Y520327D01*
X1083502Y524609D01*
X1082162Y528732D01*
X1080194Y532594D01*
X1077646Y536101D01*
X1074581Y539166D01*
X1071074Y541714D01*
X1067212Y543682D01*
X1063089Y545022D01*
X1058808Y545700D01*
D02*
G37*
G36*
X1183640Y426717D02*
Y421640D01*
X1188717D01*
X1187753Y423967D01*
X1185967Y425753D01*
X1183640Y426717D01*
D02*
G37*
G36*
X1181100D02*
X1178773Y425753D01*
X1176987Y423967D01*
X1176023Y421640D01*
X1181100D01*
Y426717D01*
D02*
G37*
G36*
X1188717Y419100D02*
X1183640D01*
Y414023D01*
X1185967Y414987D01*
X1187753Y416773D01*
X1188717Y419100D01*
D02*
G37*
G36*
X1181100D02*
X1176023D01*
X1176987Y416773D01*
X1178773Y414987D01*
X1181100Y414023D01*
Y419100D01*
D02*
G37*
G36*
X1383128Y400280D02*
X1383030D01*
Y391160D01*
X1392150D01*
Y391258D01*
X1391442Y393900D01*
X1390074Y396270D01*
X1388140Y398204D01*
X1385770Y399572D01*
X1383128Y400280D01*
D02*
G37*
G36*
X1380490D02*
X1380392D01*
X1377750Y399572D01*
X1375380Y398204D01*
X1373446Y396270D01*
X1372078Y393900D01*
X1371370Y391258D01*
Y391160D01*
X1380490D01*
Y400280D01*
D02*
G37*
G36*
X1357728D02*
X1357630D01*
Y391160D01*
X1366750D01*
Y391258D01*
X1366042Y393900D01*
X1364674Y396270D01*
X1362740Y398204D01*
X1360370Y399572D01*
X1357728Y400280D01*
D02*
G37*
G36*
X1355090D02*
X1354992D01*
X1352350Y399572D01*
X1349980Y398204D01*
X1348046Y396270D01*
X1346678Y393900D01*
X1345970Y391258D01*
Y391160D01*
X1355090D01*
Y400280D01*
D02*
G37*
G36*
X1392150Y388620D02*
X1383030D01*
Y379500D01*
X1383128D01*
X1385770Y380208D01*
X1388140Y381576D01*
X1390074Y383510D01*
X1391442Y385880D01*
X1392150Y388522D01*
Y388620D01*
D02*
G37*
G36*
X1380490D02*
X1371370D01*
Y388522D01*
X1372078Y385880D01*
X1373446Y383510D01*
X1375380Y381576D01*
X1377750Y380208D01*
X1380392Y379500D01*
X1380490D01*
Y388620D01*
D02*
G37*
G36*
X1366750D02*
X1357630D01*
Y379500D01*
X1357728D01*
X1360370Y380208D01*
X1362740Y381576D01*
X1364674Y383510D01*
X1366042Y385880D01*
X1366750Y388522D01*
Y388620D01*
D02*
G37*
G36*
X1355090D02*
X1345970D01*
Y388522D01*
X1346678Y385880D01*
X1348046Y383510D01*
X1349980Y381576D01*
X1352350Y380208D01*
X1354992Y379500D01*
X1355090D01*
Y388620D01*
D02*
G37*
G36*
X1332328Y400280D02*
X1329592D01*
X1326950Y399572D01*
X1324580Y398204D01*
X1322646Y396270D01*
X1321278Y393900D01*
X1320570Y391258D01*
Y388522D01*
X1321278Y385880D01*
X1322646Y383510D01*
X1324580Y381576D01*
X1326950Y380208D01*
X1329592Y379500D01*
X1332328D01*
X1334970Y380208D01*
X1337340Y381576D01*
X1339274Y383510D01*
X1340642Y385880D01*
X1341350Y388522D01*
Y391258D01*
X1340642Y393900D01*
X1339274Y396270D01*
X1337340Y398204D01*
X1334970Y399572D01*
X1332328Y400280D01*
D02*
G37*
G36*
X1306928D02*
X1304192D01*
X1301550Y399572D01*
X1299180Y398204D01*
X1297246Y396270D01*
X1295878Y393900D01*
X1295170Y391258D01*
Y388522D01*
X1295878Y385880D01*
X1297246Y383510D01*
X1299180Y381576D01*
X1301550Y380208D01*
X1304192Y379500D01*
X1306928D01*
X1309570Y380208D01*
X1311940Y381576D01*
X1313874Y383510D01*
X1315242Y385880D01*
X1315950Y388522D01*
Y391258D01*
X1315242Y393900D01*
X1313874Y396270D01*
X1311940Y398204D01*
X1309570Y399572D01*
X1306928Y400280D01*
D02*
G37*
G36*
X1281528D02*
X1278792D01*
X1276150Y399572D01*
X1273780Y398204D01*
X1271846Y396270D01*
X1270478Y393900D01*
X1269770Y391258D01*
Y388522D01*
X1270478Y385880D01*
X1271846Y383510D01*
X1273780Y381576D01*
X1276150Y380208D01*
X1278792Y379500D01*
X1281528D01*
X1284170Y380208D01*
X1286540Y381576D01*
X1288474Y383510D01*
X1289842Y385880D01*
X1290550Y388522D01*
Y391258D01*
X1289842Y393900D01*
X1288474Y396270D01*
X1286540Y398204D01*
X1284170Y399572D01*
X1281528Y400280D01*
D02*
G37*
G36*
X1256128D02*
X1253392D01*
X1250750Y399572D01*
X1248380Y398204D01*
X1246446Y396270D01*
X1245078Y393900D01*
X1244370Y391258D01*
Y388522D01*
X1245078Y385880D01*
X1246446Y383510D01*
X1248380Y381576D01*
X1250750Y380208D01*
X1253392Y379500D01*
X1256128D01*
X1258770Y380208D01*
X1261140Y381576D01*
X1263074Y383510D01*
X1264442Y385880D01*
X1265150Y388522D01*
Y391258D01*
X1264442Y393900D01*
X1263074Y396270D01*
X1261140Y398204D01*
X1258770Y399572D01*
X1256128Y400280D01*
D02*
G37*
G36*
X1230728D02*
X1227992D01*
X1225350Y399572D01*
X1222980Y398204D01*
X1221046Y396270D01*
X1219678Y393900D01*
X1218970Y391258D01*
Y388522D01*
X1219678Y385880D01*
X1221046Y383510D01*
X1222980Y381576D01*
X1225350Y380208D01*
X1227992Y379500D01*
X1230728D01*
X1233370Y380208D01*
X1235740Y381576D01*
X1237674Y383510D01*
X1239042Y385880D01*
X1239750Y388522D01*
Y391258D01*
X1239042Y393900D01*
X1237674Y396270D01*
X1235740Y398204D01*
X1233370Y399572D01*
X1230728Y400280D01*
D02*
G37*
G36*
X1183373Y598170D02*
X1181367D01*
X1179429Y597651D01*
X1177691Y596647D01*
X1176273Y595229D01*
X1175269Y593491D01*
X1174750Y591553D01*
Y589547D01*
X1175269Y587609D01*
X1176273Y585871D01*
X1177691Y584453D01*
X1179429Y583449D01*
X1181367Y582930D01*
X1182665D01*
X1198781Y566815D01*
Y400280D01*
X1193570D01*
Y379500D01*
X1214350D01*
Y400280D01*
X1209139D01*
Y568960D01*
X1209139Y568960D01*
X1208745Y570942D01*
X1207623Y572622D01*
X1207622Y572622D01*
X1189990Y590255D01*
Y591553D01*
X1189471Y593491D01*
X1188467Y595229D01*
X1187049Y596647D01*
X1185311Y597651D01*
X1183373Y598170D01*
D02*
G37*
%LPD*%
D23*
X1330960Y389890D02*
D03*
X1381760D02*
D03*
X1356360D02*
D03*
X1229360D02*
D03*
X1254760D02*
D03*
X1280160D02*
D03*
X1305560D02*
D03*
D25*
X1203960D02*
D03*
D28*
X900110Y641240D02*
X904460D01*
X860110Y659240D02*
X862245D01*
X890695Y617179D02*
X909434D01*
X905870Y635480D02*
X909434Y631916D01*
X863655Y660650D02*
Y684489D01*
X904460Y641240D02*
X905870Y639830D01*
X878044Y633817D02*
Y656607D01*
X889173Y667737D02*
Y684489D01*
X909434Y617179D02*
Y631916D01*
X862245Y659240D02*
X863655Y660650D01*
X905870Y635480D02*
Y639830D01*
X847204Y617179D02*
X864673D01*
Y620447D02*
X878044Y633817D01*
X864673Y617179D02*
Y620447D01*
X878044Y656607D02*
X889173Y667737D01*
X1277620Y751840D02*
X1291279D01*
X1364898Y740369D02*
X1366209Y741680D01*
X1575718Y661629D02*
X1575759Y661670D01*
X1419664Y723900D02*
X1436059D01*
Y727169D01*
X1667699Y682120D02*
X1670109Y684530D01*
X1667699Y642618D02*
Y682120D01*
X1645528Y620447D02*
X1667699Y642618D01*
X1645528Y617179D02*
Y620447D01*
X1597735Y726456D02*
X1600259Y728980D01*
X1597735Y686914D02*
Y726456D01*
X1575759Y664939D02*
X1597735Y686914D01*
X1575759Y661670D02*
Y664939D01*
X1504598Y699187D02*
X1519914Y714503D01*
Y735908D01*
X1531679Y747673D01*
Y763270D01*
X1436059Y727169D02*
X1448794Y739903D01*
Y762578D01*
X1459289Y773073D01*
Y791210D01*
X1386879Y807700D02*
X1388169Y808990D01*
X1386879Y765618D02*
Y807700D01*
X1366209Y744949D02*
X1386879Y765618D01*
X1366209Y741680D02*
Y744949D01*
X1313450Y816821D02*
X1315779Y819150D01*
X1313450Y777280D02*
Y816821D01*
X1291279Y755109D02*
X1313450Y777280D01*
X1291279Y751840D02*
Y755109D01*
X1231103Y768437D02*
Y791072D01*
X1242233Y802202D01*
Y819109D01*
X1166244Y806775D02*
X1168459Y808990D01*
X1166244Y767233D02*
Y806775D01*
X1143959Y744949D02*
X1166244Y767233D01*
X1143959Y741680D02*
Y744949D01*
X1095124Y788995D02*
X1097339Y791210D01*
X1095124Y749453D02*
Y788995D01*
X1072839Y727169D02*
X1095124Y749453D01*
X1025160Y760786D02*
X1027603Y763229D01*
X1025160Y721244D02*
Y760786D01*
X1003103Y699187D02*
X1025160Y721244D01*
X955424Y726610D02*
X957753Y728939D01*
X955424Y687068D02*
Y726610D01*
X933253Y664897D02*
X955424Y687068D01*
X808378Y572811D02*
X818150Y582584D01*
X807992Y572811D02*
X808378D01*
X778510Y557530D02*
X792990D01*
X1712838Y557489D02*
Y560757D01*
X1696524Y558800D02*
X1711527D01*
X1712838Y560757D02*
X1735009Y582928D01*
Y622430D02*
X1737419Y624840D01*
X1735009Y582928D02*
Y622430D01*
X1072839Y723900D02*
Y727169D01*
X1057910Y723900D02*
X1072839D01*
X1216422Y753756D02*
X1231103Y768437D01*
X1215493Y751840D02*
X1216422Y752769D01*
X1203960Y751840D02*
X1215493D01*
X1216422Y752769D02*
Y753756D01*
X1130300Y741680D02*
X1143959D01*
X918324Y661629D02*
X933253D01*
X935793D01*
X934837Y662859D02*
X935793Y661629D01*
X1003103Y695919D02*
X1004373D01*
X1347238Y740369D02*
X1351048D01*
X1364898D01*
X1488359Y695919D02*
X1504598D01*
X1556016Y668972D02*
X1563359Y661629D01*
X1575718D01*
X1556016Y668972D02*
Y669249D01*
X1628059Y617179D02*
X1645528D01*
X794260Y559079D02*
X807992Y572811D01*
X794260Y556260D02*
Y559079D01*
X818150Y582584D02*
Y625051D01*
X820479Y627380D01*
X933253Y664897D02*
X934837Y662859D01*
X986904Y695919D02*
X1003103D01*
X1004207Y696348D02*
X1004373Y695919D01*
X1003103Y699187D02*
X1004207Y696348D01*
X1504598Y695919D02*
Y699187D01*
X791530Y599550D02*
Y621420D01*
X1257300Y751840D02*
Y774409D01*
X1253284Y775819D02*
X1255890D01*
X1257300Y774409D01*
X1243755Y751799D02*
X1257300D01*
X1185384Y743163D02*
Y764249D01*
X1183974Y765659D02*
X1185384Y764249D01*
X1186180Y741680D02*
Y742367D01*
X1179624Y765659D02*
X1183974D01*
X1169981Y741680D02*
X1186180D01*
X1185384Y743163D02*
X1186180Y742367D01*
X1029166Y695960D02*
X1050290D01*
X1044300Y714220D02*
Y715594D01*
X1044300Y715594D02*
Y718570D01*
X1050290Y695960D02*
Y708230D01*
X1044300Y715594D02*
X1044300Y715594D01*
Y714220D02*
X1050290Y708230D01*
X1042890Y719980D02*
X1044300Y718570D01*
X974564Y679889D02*
X980440Y674013D01*
Y661670D02*
Y674013D01*
X959316Y661670D02*
X980440D01*
X974564Y679889D02*
Y684239D01*
X973154Y685649D02*
X974564Y684239D01*
X1748389Y581509D02*
X1752739D01*
X1754149Y575748D02*
Y580098D01*
X1752739Y581509D02*
X1754149Y580098D01*
X1708389Y599509D02*
X1710491D01*
X1711901Y600919D01*
X1754149Y575748D02*
X1758754Y571143D01*
Y558800D02*
Y571143D01*
X1758067Y558800D02*
X1758754D01*
X1711901Y600919D02*
Y624840D01*
X1756756Y557489D02*
X1758067Y558800D01*
X1738860Y557489D02*
X1756756D01*
X1216715Y795229D02*
Y819109D01*
X1213284Y793819D02*
X1215305D01*
X1216715Y795229D01*
X1141531Y783659D02*
X1142941Y785069D01*
X1139624Y783659D02*
X1141531D01*
X1142941Y785069D02*
Y808990D01*
X835880Y581550D02*
X837290Y580140D01*
X840740Y556260D02*
Y572340D01*
X831530Y581550D02*
X835880D01*
X837290Y575790D02*
X840740Y572340D01*
X822001Y557530D02*
X840740D01*
X837290Y575790D02*
Y580140D01*
X1070411Y765879D02*
X1071821Y767289D01*
Y791210D01*
X1068504Y765879D02*
X1070411D01*
X1000675Y737980D02*
X1002085Y739390D01*
Y763229D01*
X998540Y737980D02*
X1000675D01*
X1038540Y719980D02*
X1042890D01*
X968804Y685649D02*
X973154D01*
X928804Y703649D02*
X930825D01*
X932235Y705059D02*
Y728939D01*
X930825Y703649D02*
X932235Y705059D01*
X1108504Y747879D02*
X1112854D01*
X1114264Y742118D02*
X1117714Y738669D01*
X1112854Y747879D02*
X1114264Y746468D01*
Y742118D02*
Y746468D01*
X1117714Y723859D02*
Y738669D01*
X1098861Y723900D02*
X1098902Y723859D01*
X1117714D01*
X1203960Y389890D02*
Y568960D01*
X1182370Y590550D02*
X1203960Y568960D01*
X1392231Y741680D02*
X1407470D01*
X1408781Y740369D02*
X1409468D01*
X1407470Y741680D02*
X1408781Y740369D01*
X1550589Y695919D02*
Y710729D01*
X1548590Y697230D02*
X1549901Y695919D01*
X1531931Y697230D02*
X1548590D01*
X1549901Y695919D02*
X1550589D01*
X1409468Y741056D02*
X1410970Y742557D01*
X1686839Y638531D02*
X1691946Y633424D01*
X1641079Y659199D02*
X1643181D01*
X1644591Y660609D01*
Y684530D01*
X1690289Y617179D02*
Y617866D01*
X1691946Y619523D01*
X1686839Y638531D02*
Y639788D01*
X1685429Y641199D02*
X1686839Y639788D01*
X1681079Y641199D02*
X1685429D01*
X1691946Y619523D02*
Y633424D01*
X1671550Y617179D02*
X1690289D01*
X1571115Y703690D02*
X1573331D01*
X1574741Y705100D01*
Y728980D01*
X1611115Y685690D02*
X1615465D01*
X1616875Y684280D01*
Y679930D02*
Y684280D01*
Y679930D02*
X1620439Y676366D01*
Y661629D02*
Y676366D01*
X1601822Y661629D02*
X1620439D01*
X1601781Y661670D02*
X1601822Y661629D01*
X1501379Y737939D02*
X1504751D01*
X1506161Y739349D01*
Y763270D01*
X1541379Y719939D02*
X1545729D01*
X1547139Y718528D01*
Y714178D02*
Y718528D01*
Y714178D02*
X1550589Y710729D01*
X1431529Y765879D02*
X1432361D01*
X1433771Y767289D01*
Y791210D01*
X1471529Y747879D02*
X1475879D01*
X1477289Y746468D01*
Y742118D02*
Y746468D01*
Y742118D02*
X1481894Y737513D01*
Y723900D02*
Y737513D01*
X1462081Y723900D02*
X1481894D01*
X1360258Y783659D02*
X1361241D01*
X1362651Y785069D01*
Y808990D01*
X1400259Y765659D02*
X1404609D01*
X1406019Y764248D01*
Y759898D02*
Y764248D01*
Y759898D02*
X1410970Y754947D01*
Y742557D02*
Y754947D01*
X1409468Y740369D02*
Y741056D01*
X1286830Y793860D02*
X1288851D01*
X1290261Y795270D01*
Y819150D01*
X1326830Y775860D02*
X1331180D01*
X1332590Y774450D01*
Y770100D02*
Y774450D01*
Y770100D02*
X1336040Y766650D01*
Y751840D02*
Y766650D01*
X1317301Y751840D02*
X1336040D01*
D29*
X1056640Y518160D02*
D03*
X1480820D02*
D03*
D30*
X909434Y617179D02*
D03*
X847204D02*
D03*
X1277620Y751840D02*
D03*
X1351048Y740369D02*
D03*
X1057910Y723900D02*
D03*
X1419664D02*
D03*
X778510Y557530D02*
D03*
X1130300Y741680D02*
D03*
X988060Y695960D02*
D03*
X918210Y661670D02*
D03*
X1696524Y558800D02*
D03*
X1203960Y751840D02*
D03*
X1488359Y695919D02*
D03*
X1556016Y669249D02*
D03*
X1628059Y617179D02*
D03*
X1182370Y420370D02*
D03*
X1186180Y741680D02*
D03*
X1758754Y558800D02*
D03*
X1257300Y751840D02*
D03*
X840740Y557530D02*
D03*
X1050290Y695960D02*
D03*
X980440Y661670D02*
D03*
X1120140Y723900D02*
D03*
X1409468Y740369D02*
D03*
X1550589Y695919D02*
D03*
X1620439Y661629D02*
D03*
X1690289Y617179D02*
D03*
X1481894Y723900D02*
D03*
X1336040Y751840D02*
D03*
D31*
X1322070Y604520D02*
D03*
X1182370Y590550D02*
D03*
D32*
X860110Y659240D02*
D03*
X900110Y641240D02*
D03*
X860110D02*
D03*
X900110Y659240D02*
D03*
X791530Y581550D02*
D03*
X831530Y599550D02*
D03*
X998540Y719980D02*
D03*
X928804Y685649D02*
D03*
X1213284Y775819D02*
D03*
X1068504Y747879D02*
D03*
X1139624Y765659D02*
D03*
X968804Y703649D02*
D03*
X1038540Y737980D02*
D03*
X1179624Y783659D02*
D03*
X1108504Y765879D02*
D03*
X1253284Y793819D02*
D03*
X1431529Y747879D02*
D03*
X1360258Y765659D02*
D03*
X1641079Y641199D02*
D03*
X1571115Y685690D02*
D03*
X1400259Y783659D02*
D03*
X1471529Y765879D02*
D03*
X1611115Y703690D02*
D03*
X1681079Y659199D02*
D03*
X1326830Y793860D02*
D03*
X1286830Y775860D02*
D03*
X1501379Y719939D02*
D03*
X1541379Y737939D02*
D03*
X1748389Y599509D02*
D03*
X1708389Y581509D02*
D03*
X1286830Y793860D02*
D03*
X1326830Y775860D02*
D03*
X791530Y599550D02*
D03*
X1708389Y599509D02*
D03*
X1748389Y581509D02*
D03*
X1253284Y775819D02*
D03*
X1213284Y793819D02*
D03*
X1179624Y765659D02*
D03*
X1139624Y783659D02*
D03*
X831530Y581550D02*
D03*
X968804Y685649D02*
D03*
X928804Y703649D02*
D03*
X1108504Y747879D02*
D03*
X1068504Y765879D02*
D03*
X1038540Y719980D02*
D03*
X998540Y737980D02*
D03*
X1501379Y737939D02*
D03*
X1541379Y719939D02*
D03*
X1431529Y765879D02*
D03*
X1471529Y747879D02*
D03*
X1360258Y783659D02*
D03*
X1400259Y765659D02*
D03*
X1641079Y659199D02*
D03*
X1681079Y641199D02*
D03*
X1571115Y703690D02*
D03*
X1611115Y685690D02*
D03*
D33*
X890695Y617179D02*
D03*
X864673D02*
D03*
X1291279Y751840D02*
D03*
X1645528Y617179D02*
D03*
X1575759Y661670D02*
D03*
X1436059Y723900D02*
D03*
X1143959Y741680D02*
D03*
X1072839Y723900D02*
D03*
X1217733Y751799D02*
D03*
X933253Y661629D02*
D03*
X1003103Y695919D02*
D03*
X1505909Y697230D02*
D03*
X1366209Y741680D02*
D03*
X795979Y557530D02*
D03*
X1712838Y557489D02*
D03*
X822001Y557530D02*
D03*
X1738860Y557489D02*
D03*
X1243755Y751799D02*
D03*
X1169981Y741680D02*
D03*
X1029125Y695919D02*
D03*
X1098861Y723900D02*
D03*
X959275Y661629D02*
D03*
X1317301Y751840D02*
D03*
X1671550Y617179D02*
D03*
X1531931Y697230D02*
D03*
X1601781Y661670D02*
D03*
X1462081Y723900D02*
D03*
X1392231Y741680D02*
D03*
D34*
X863655Y684489D02*
D03*
X889173D02*
D03*
X1531679Y763270D02*
D03*
X1459289Y791210D02*
D03*
X1388169Y808990D02*
D03*
X1242233Y819109D02*
D03*
X1315779Y819150D02*
D03*
X1168459Y808990D02*
D03*
X1600259Y728980D02*
D03*
X1670109Y684530D02*
D03*
X957753Y728939D02*
D03*
X1027603Y763229D02*
D03*
X1097339Y791210D02*
D03*
X820479Y624840D02*
D03*
X1737419D02*
D03*
X794961D02*
D03*
X1711901D02*
D03*
X1216715Y819109D02*
D03*
X1142941Y808990D02*
D03*
X1002085Y763229D02*
D03*
X932235Y728939D02*
D03*
X1071821Y791210D02*
D03*
X1506161Y763270D02*
D03*
X1433771Y791210D02*
D03*
X1362651Y808990D02*
D03*
X1290261Y819150D02*
D03*
X1574741Y728980D02*
D03*
X1644591Y684530D02*
D03*
M02*
