G04*
G04 #@! TF.GenerationSoftware,Altium Limited,Altium Designer,26.3.0 (6)*
G04*
G04 Layer_Color=8388736*
%FSLAX44Y44*%
%MOMM*%
G71*
G04*
G04 #@! TF.SameCoordinates,CDA66699-1944-4C2D-AFC1-0E8F45F5DD26*
G04*
G04*
G04 #@! TF.FilePolarity,Negative*
G04*
G01*
G75*
%ADD19R,2.0000X0.6000*%
%ADD20R,1.1032X0.9032*%
%ADD21R,1.3532X2.0032*%
%ADD22R,1.0032X1.0032*%
%ADD23C,1.5700*%
%ADD24C,5.2032*%
%ADD25R,1.5700X1.5700*%
%ADD26C,0.9652*%
%ADD27C,1.2192*%
D19*
X1277630Y574040D02*
D03*
Y485140D02*
D03*
Y472440D02*
D03*
Y459740D02*
D03*
X1183630Y434340D02*
D03*
X1277630Y497840D02*
D03*
X1183630Y548640D02*
D03*
Y535940D02*
D03*
X1277630Y561340D02*
D03*
Y548640D02*
D03*
Y535940D02*
D03*
Y523240D02*
D03*
Y510540D02*
D03*
Y447040D02*
D03*
Y434340D02*
D03*
X1183630Y447040D02*
D03*
Y459740D02*
D03*
Y472440D02*
D03*
Y485140D02*
D03*
Y497840D02*
D03*
Y510540D02*
D03*
Y523240D02*
D03*
Y561340D02*
D03*
Y574040D02*
D03*
D20*
X1331580Y436880D02*
D03*
Y450881D02*
D03*
D21*
X1277860Y604520D02*
D03*
X1307860D02*
D03*
D22*
X1347850Y463550D02*
D03*
X1331850D02*
D03*
D23*
X1330960Y389890D02*
D03*
X1381760D02*
D03*
X1356360D02*
D03*
X1229360D02*
D03*
X1254760D02*
D03*
X1280160D02*
D03*
X1305560D02*
D03*
D24*
X1056640Y518160D02*
D03*
X1480820D02*
D03*
D25*
X1203960Y389890D02*
D03*
D26*
X909434Y617179D02*
D03*
X847204D02*
D03*
X1277620Y751840D02*
D03*
X1351048Y740369D02*
D03*
X1057910Y723900D02*
D03*
X1419664D02*
D03*
X778510Y557530D02*
D03*
X1130300Y741680D02*
D03*
X988060Y695960D02*
D03*
X918210Y661670D02*
D03*
X1696524Y558800D02*
D03*
X1203960Y751840D02*
D03*
X1488359Y695919D02*
D03*
X1556016Y669249D02*
D03*
X1628059Y617179D02*
D03*
X1182370Y420370D02*
D03*
X1186180Y741680D02*
D03*
X1758754Y558800D02*
D03*
X1257300Y751840D02*
D03*
X840740Y557530D02*
D03*
X1050290Y695960D02*
D03*
X980440Y661670D02*
D03*
X1120140Y723900D02*
D03*
X1409468Y740369D02*
D03*
X1550589Y695919D02*
D03*
X1620439Y661629D02*
D03*
X1690289Y617179D02*
D03*
X1481894Y723900D02*
D03*
X1336040Y751840D02*
D03*
D27*
X1322070Y604520D02*
D03*
X1182370Y590550D02*
D03*
M02*
