G04*
G04 #@! TF.GenerationSoftware,Altium Limited,Altium Designer,26.3.0 (6)*
G04*
G04 Layer_Color=32768*
%FSLAX44Y44*%
%MOMM*%
G71*
G04*
G04 #@! TF.SameCoordinates,CDA66699-1944-4C2D-AFC1-0E8F45F5DD26*
G04*
G04*
G04 #@! TF.FilePolarity,Positive*
G04*
G01*
G75*
%ADD11C,0.2000*%
%ADD36C,0.1000*%
%ADD37C,0.0500*%
D11*
X1172630Y424440D02*
Y583940D01*
Y424440D02*
X1288630D01*
Y583940D01*
X1172630D02*
X1288630D01*
X1188360Y404240D02*
X1397360D01*
Y375540D02*
Y404240D01*
X1188360Y375540D02*
X1397360D01*
X1188360D02*
Y404240D01*
D36*
X1287860Y604520D02*
X1297860D01*
X1292860Y599520D02*
Y609520D01*
X1355100Y457050D02*
Y470050D01*
X1324600Y457050D02*
Y470050D01*
Y457050D02*
X1355100D01*
X1324600Y470050D02*
X1355100D01*
X1335350Y463550D02*
X1344350D01*
X1339850Y459050D02*
Y468050D01*
D37*
X1269360Y593020D02*
Y616020D01*
X1316360Y593020D02*
Y616020D01*
X1269360D02*
X1316360D01*
X1269360Y593020D02*
X1316360D01*
X1326830Y443880D02*
X1336330D01*
X1331580Y439130D02*
Y448630D01*
X1326080Y432380D02*
Y455380D01*
X1337080Y432380D02*
Y455380D01*
X1326080Y432380D02*
X1337080D01*
X1326080Y455380D02*
X1337080D01*
M02*
