M48
;Layer_Color=9474304
;FILE_FORMAT=4:4
METRIC,LZ
;TYPE=PLATED
T01F00S00C0.5080
T02F00S00C1.0200
;TYPE=NON_PLATED
T03F00S00C3.3020
%
T01
X01628059Y00617179
X01620439Y00661629
X01690289Y00617179
X01696524Y005588
X01758754
X01556016Y00669249
X01550589Y00695919
X01488359
X01481894Y007239
X01419664
X01409468Y00740369
X01351048
X0133604Y0075184
X0127762
X012573
X0120396
X0132207Y0060452
X0118237Y0059055
X0118618Y0074168
X011303
X0112014Y007239
X0105791
X0105029Y0069596
X0098806
X0098044Y0066167
X0091821
X00909434Y00617179
X00847204
X0084074Y0055753
X0118237Y0042037
X0077851Y0055753
T02
X0120396Y0038989
X0122936
X0125476
X0128016
X0130556
X0133096
X0135636
X0138176
T03
X0148082Y0051816
X0105664
M30
