%TF.GenerationSoftware,KiCad,Pcbnew,10.0.0*%
%TF.CreationDate,2026-04-07T03:27:14+10:00*%
%TF.ProjectId,breakoutB,62726561-6b6f-4757-9442-2e6b69636164,rev?*%
%TF.SameCoordinates,Original*%
%TF.FileFunction,Legend,Bot*%
%TF.FilePolarity,Positive*%
%FSLAX46Y46*%
G04 Gerber Fmt 4.6, Leading zero omitted, Abs format (unit mm)*
G04 Created by KiCad (PCBNEW 10.0.0) date 2026-04-07 03:27:14*
%MOMM*%
%LPD*%
G01*
G04 APERTURE LIST*
G04 Aperture macros list*
%AMRoundRect*
0 Rectangle with rounded corners*
0 $1 Rounding radius*
0 $2 $3 $4 $5 $6 $7 $8 $9 X,Y pos of 4 corners*
0 Add a 4 corners polygon primitive as box body*
4,1,4,$2,$3,$4,$5,$6,$7,$8,$9,$2,$3,0*
0 Add four circle primitives for the rounded corners*
1,1,$1+$1,$2,$3*
1,1,$1+$1,$4,$5*
1,1,$1+$1,$6,$7*
1,1,$1+$1,$8,$9*
0 Add four rect primitives between the rounded corners*
20,1,$1+$1,$2,$3,$4,$5,0*
20,1,$1+$1,$4,$5,$6,$7,0*
20,1,$1+$1,$6,$7,$8,$9,0*
20,1,$1+$1,$8,$9,$2,$3,0*%
G04 Aperture macros list end*
%ADD10C,0.150000*%
%ADD11C,0.120000*%
%ADD12RoundRect,0.250001X0.949999X-0.949999X0.949999X0.949999X-0.949999X0.949999X-0.949999X-0.949999X0*%
%ADD13C,2.400000*%
%ADD14C,1.700000*%
%ADD15R,1.700000X1.700000*%
%ADD16C,2.700000*%
%ADD17C,1.400000*%
%ADD18RoundRect,0.770000X0.980000X0.980000X-0.980000X0.980000X-0.980000X-0.980000X0.980000X-0.980000X0*%
%ADD19C,3.500000*%
%ADD20RoundRect,0.250000X-0.725000X0.600000X-0.725000X-0.600000X0.725000X-0.600000X0.725000X0.600000X0*%
%ADD21O,1.950000X1.700000*%
%ADD22R,1.800000X1.800000*%
%ADD23C,1.800000*%
%ADD24RoundRect,0.250000X0.625000X-0.350000X0.625000X0.350000X-0.625000X0.350000X-0.625000X-0.350000X0*%
%ADD25O,1.750000X1.200000*%
%ADD26RoundRect,0.250000X0.725000X-0.600000X0.725000X0.600000X-0.725000X0.600000X-0.725000X-0.600000X0*%
%ADD27RoundRect,0.250000X-0.600000X-0.725000X0.600000X-0.725000X0.600000X0.725000X-0.600000X0.725000X0*%
%ADD28O,1.700000X1.950000*%
%ADD29RoundRect,0.200000X0.275000X-0.200000X0.275000X0.200000X-0.275000X0.200000X-0.275000X-0.200000X0*%
%ADD30RoundRect,0.200000X-0.200000X-0.275000X0.200000X-0.275000X0.200000X0.275000X-0.200000X0.275000X0*%
%ADD31RoundRect,0.200000X-0.275000X0.200000X-0.275000X-0.200000X0.275000X-0.200000X0.275000X0.200000X0*%
%ADD32RoundRect,0.250000X-0.900000X1.000000X-0.900000X-1.000000X0.900000X-1.000000X0.900000X1.000000X0*%
%ADD33RoundRect,0.250000X0.900000X-1.000000X0.900000X1.000000X-0.900000X1.000000X-0.900000X-1.000000X0*%
G04 APERTURE END LIST*
D10*
X47454819Y-97333333D02*
X46978628Y-97000000D01*
X47454819Y-96761905D02*
X46454819Y-96761905D01*
X46454819Y-96761905D02*
X46454819Y-97142857D01*
X46454819Y-97142857D02*
X46502438Y-97238095D01*
X46502438Y-97238095D02*
X46550057Y-97285714D01*
X46550057Y-97285714D02*
X46645295Y-97333333D01*
X46645295Y-97333333D02*
X46788152Y-97333333D01*
X46788152Y-97333333D02*
X46883390Y-97285714D01*
X46883390Y-97285714D02*
X46931009Y-97238095D01*
X46931009Y-97238095D02*
X46978628Y-97142857D01*
X46978628Y-97142857D02*
X46978628Y-96761905D01*
X46454819Y-97666667D02*
X46454819Y-98285714D01*
X46454819Y-98285714D02*
X46835771Y-97952381D01*
X46835771Y-97952381D02*
X46835771Y-98095238D01*
X46835771Y-98095238D02*
X46883390Y-98190476D01*
X46883390Y-98190476D02*
X46931009Y-98238095D01*
X46931009Y-98238095D02*
X47026247Y-98285714D01*
X47026247Y-98285714D02*
X47264342Y-98285714D01*
X47264342Y-98285714D02*
X47359580Y-98238095D01*
X47359580Y-98238095D02*
X47407200Y-98190476D01*
X47407200Y-98190476D02*
X47454819Y-98095238D01*
X47454819Y-98095238D02*
X47454819Y-97809524D01*
X47454819Y-97809524D02*
X47407200Y-97714286D01*
X47407200Y-97714286D02*
X47359580Y-97666667D01*
X38166666Y-67634819D02*
X38499999Y-67158628D01*
X38738094Y-67634819D02*
X38738094Y-66634819D01*
X38738094Y-66634819D02*
X38357142Y-66634819D01*
X38357142Y-66634819D02*
X38261904Y-66682438D01*
X38261904Y-66682438D02*
X38214285Y-66730057D01*
X38214285Y-66730057D02*
X38166666Y-66825295D01*
X38166666Y-66825295D02*
X38166666Y-66968152D01*
X38166666Y-66968152D02*
X38214285Y-67063390D01*
X38214285Y-67063390D02*
X38261904Y-67111009D01*
X38261904Y-67111009D02*
X38357142Y-67158628D01*
X38357142Y-67158628D02*
X38738094Y-67158628D01*
X37261904Y-66634819D02*
X37738094Y-66634819D01*
X37738094Y-66634819D02*
X37785713Y-67111009D01*
X37785713Y-67111009D02*
X37738094Y-67063390D01*
X37738094Y-67063390D02*
X37642856Y-67015771D01*
X37642856Y-67015771D02*
X37404761Y-67015771D01*
X37404761Y-67015771D02*
X37309523Y-67063390D01*
X37309523Y-67063390D02*
X37261904Y-67111009D01*
X37261904Y-67111009D02*
X37214285Y-67206247D01*
X37214285Y-67206247D02*
X37214285Y-67444342D01*
X37214285Y-67444342D02*
X37261904Y-67539580D01*
X37261904Y-67539580D02*
X37309523Y-67587200D01*
X37309523Y-67587200D02*
X37404761Y-67634819D01*
X37404761Y-67634819D02*
X37642856Y-67634819D01*
X37642856Y-67634819D02*
X37738094Y-67587200D01*
X37738094Y-67587200D02*
X37785713Y-67539580D01*
X38151666Y-80634819D02*
X38484999Y-80158628D01*
X38723094Y-80634819D02*
X38723094Y-79634819D01*
X38723094Y-79634819D02*
X38342142Y-79634819D01*
X38342142Y-79634819D02*
X38246904Y-79682438D01*
X38246904Y-79682438D02*
X38199285Y-79730057D01*
X38199285Y-79730057D02*
X38151666Y-79825295D01*
X38151666Y-79825295D02*
X38151666Y-79968152D01*
X38151666Y-79968152D02*
X38199285Y-80063390D01*
X38199285Y-80063390D02*
X38246904Y-80111009D01*
X38246904Y-80111009D02*
X38342142Y-80158628D01*
X38342142Y-80158628D02*
X38723094Y-80158628D01*
X37818332Y-79634819D02*
X37151666Y-79634819D01*
X37151666Y-79634819D02*
X37580237Y-80634819D01*
X86666666Y-87454819D02*
X86999999Y-86978628D01*
X87238094Y-87454819D02*
X87238094Y-86454819D01*
X87238094Y-86454819D02*
X86857142Y-86454819D01*
X86857142Y-86454819D02*
X86761904Y-86502438D01*
X86761904Y-86502438D02*
X86714285Y-86550057D01*
X86714285Y-86550057D02*
X86666666Y-86645295D01*
X86666666Y-86645295D02*
X86666666Y-86788152D01*
X86666666Y-86788152D02*
X86714285Y-86883390D01*
X86714285Y-86883390D02*
X86761904Y-86931009D01*
X86761904Y-86931009D02*
X86857142Y-86978628D01*
X86857142Y-86978628D02*
X87238094Y-86978628D01*
X86285713Y-86550057D02*
X86238094Y-86502438D01*
X86238094Y-86502438D02*
X86142856Y-86454819D01*
X86142856Y-86454819D02*
X85904761Y-86454819D01*
X85904761Y-86454819D02*
X85809523Y-86502438D01*
X85809523Y-86502438D02*
X85761904Y-86550057D01*
X85761904Y-86550057D02*
X85714285Y-86645295D01*
X85714285Y-86645295D02*
X85714285Y-86740533D01*
X85714285Y-86740533D02*
X85761904Y-86883390D01*
X85761904Y-86883390D02*
X86333332Y-87454819D01*
X86333332Y-87454819D02*
X85714285Y-87454819D01*
X43454819Y-102761905D02*
X42454819Y-102761905D01*
X42454819Y-102761905D02*
X42454819Y-103000000D01*
X42454819Y-103000000D02*
X42502438Y-103142857D01*
X42502438Y-103142857D02*
X42597676Y-103238095D01*
X42597676Y-103238095D02*
X42692914Y-103285714D01*
X42692914Y-103285714D02*
X42883390Y-103333333D01*
X42883390Y-103333333D02*
X43026247Y-103333333D01*
X43026247Y-103333333D02*
X43216723Y-103285714D01*
X43216723Y-103285714D02*
X43311961Y-103238095D01*
X43311961Y-103238095D02*
X43407200Y-103142857D01*
X43407200Y-103142857D02*
X43454819Y-103000000D01*
X43454819Y-103000000D02*
X43454819Y-102761905D01*
X42883390Y-103904762D02*
X42835771Y-103809524D01*
X42835771Y-103809524D02*
X42788152Y-103761905D01*
X42788152Y-103761905D02*
X42692914Y-103714286D01*
X42692914Y-103714286D02*
X42645295Y-103714286D01*
X42645295Y-103714286D02*
X42550057Y-103761905D01*
X42550057Y-103761905D02*
X42502438Y-103809524D01*
X42502438Y-103809524D02*
X42454819Y-103904762D01*
X42454819Y-103904762D02*
X42454819Y-104095238D01*
X42454819Y-104095238D02*
X42502438Y-104190476D01*
X42502438Y-104190476D02*
X42550057Y-104238095D01*
X42550057Y-104238095D02*
X42645295Y-104285714D01*
X42645295Y-104285714D02*
X42692914Y-104285714D01*
X42692914Y-104285714D02*
X42788152Y-104238095D01*
X42788152Y-104238095D02*
X42835771Y-104190476D01*
X42835771Y-104190476D02*
X42883390Y-104095238D01*
X42883390Y-104095238D02*
X42883390Y-103904762D01*
X42883390Y-103904762D02*
X42931009Y-103809524D01*
X42931009Y-103809524D02*
X42978628Y-103761905D01*
X42978628Y-103761905D02*
X43073866Y-103714286D01*
X43073866Y-103714286D02*
X43264342Y-103714286D01*
X43264342Y-103714286D02*
X43359580Y-103761905D01*
X43359580Y-103761905D02*
X43407200Y-103809524D01*
X43407200Y-103809524D02*
X43454819Y-103904762D01*
X43454819Y-103904762D02*
X43454819Y-104095238D01*
X43454819Y-104095238D02*
X43407200Y-104190476D01*
X43407200Y-104190476D02*
X43359580Y-104238095D01*
X43359580Y-104238095D02*
X43264342Y-104285714D01*
X43264342Y-104285714D02*
X43073866Y-104285714D01*
X43073866Y-104285714D02*
X42978628Y-104238095D01*
X42978628Y-104238095D02*
X42931009Y-104190476D01*
X42931009Y-104190476D02*
X42883390Y-104095238D01*
X38454819Y-92761905D02*
X37454819Y-92761905D01*
X37454819Y-92761905D02*
X37454819Y-93000000D01*
X37454819Y-93000000D02*
X37502438Y-93142857D01*
X37502438Y-93142857D02*
X37597676Y-93238095D01*
X37597676Y-93238095D02*
X37692914Y-93285714D01*
X37692914Y-93285714D02*
X37883390Y-93333333D01*
X37883390Y-93333333D02*
X38026247Y-93333333D01*
X38026247Y-93333333D02*
X38216723Y-93285714D01*
X38216723Y-93285714D02*
X38311961Y-93238095D01*
X38311961Y-93238095D02*
X38407200Y-93142857D01*
X38407200Y-93142857D02*
X38454819Y-93000000D01*
X38454819Y-93000000D02*
X38454819Y-92761905D01*
X38454819Y-93809524D02*
X38454819Y-94000000D01*
X38454819Y-94000000D02*
X38407200Y-94095238D01*
X38407200Y-94095238D02*
X38359580Y-94142857D01*
X38359580Y-94142857D02*
X38216723Y-94238095D01*
X38216723Y-94238095D02*
X38026247Y-94285714D01*
X38026247Y-94285714D02*
X37645295Y-94285714D01*
X37645295Y-94285714D02*
X37550057Y-94238095D01*
X37550057Y-94238095D02*
X37502438Y-94190476D01*
X37502438Y-94190476D02*
X37454819Y-94095238D01*
X37454819Y-94095238D02*
X37454819Y-93904762D01*
X37454819Y-93904762D02*
X37502438Y-93809524D01*
X37502438Y-93809524D02*
X37550057Y-93761905D01*
X37550057Y-93761905D02*
X37645295Y-93714286D01*
X37645295Y-93714286D02*
X37883390Y-93714286D01*
X37883390Y-93714286D02*
X37978628Y-93761905D01*
X37978628Y-93761905D02*
X38026247Y-93809524D01*
X38026247Y-93809524D02*
X38073866Y-93904762D01*
X38073866Y-93904762D02*
X38073866Y-94095238D01*
X38073866Y-94095238D02*
X38026247Y-94190476D01*
X38026247Y-94190476D02*
X37978628Y-94238095D01*
X37978628Y-94238095D02*
X37883390Y-94285714D01*
X88954819Y-86833333D02*
X88478628Y-86500000D01*
X88954819Y-86261905D02*
X87954819Y-86261905D01*
X87954819Y-86261905D02*
X87954819Y-86642857D01*
X87954819Y-86642857D02*
X88002438Y-86738095D01*
X88002438Y-86738095D02*
X88050057Y-86785714D01*
X88050057Y-86785714D02*
X88145295Y-86833333D01*
X88145295Y-86833333D02*
X88288152Y-86833333D01*
X88288152Y-86833333D02*
X88383390Y-86785714D01*
X88383390Y-86785714D02*
X88431009Y-86738095D01*
X88431009Y-86738095D02*
X88478628Y-86642857D01*
X88478628Y-86642857D02*
X88478628Y-86261905D01*
X88954819Y-87785714D02*
X88954819Y-87214286D01*
X88954819Y-87500000D02*
X87954819Y-87500000D01*
X87954819Y-87500000D02*
X88097676Y-87404762D01*
X88097676Y-87404762D02*
X88192914Y-87309524D01*
X88192914Y-87309524D02*
X88240533Y-87214286D01*
X83738094Y-86954819D02*
X83738094Y-85954819D01*
X83738094Y-85954819D02*
X83499999Y-85954819D01*
X83499999Y-85954819D02*
X83357142Y-86002438D01*
X83357142Y-86002438D02*
X83261904Y-86097676D01*
X83261904Y-86097676D02*
X83214285Y-86192914D01*
X83214285Y-86192914D02*
X83166666Y-86383390D01*
X83166666Y-86383390D02*
X83166666Y-86526247D01*
X83166666Y-86526247D02*
X83214285Y-86716723D01*
X83214285Y-86716723D02*
X83261904Y-86811961D01*
X83261904Y-86811961D02*
X83357142Y-86907200D01*
X83357142Y-86907200D02*
X83499999Y-86954819D01*
X83499999Y-86954819D02*
X83738094Y-86954819D01*
X82309523Y-85954819D02*
X82499999Y-85954819D01*
X82499999Y-85954819D02*
X82595237Y-86002438D01*
X82595237Y-86002438D02*
X82642856Y-86050057D01*
X82642856Y-86050057D02*
X82738094Y-86192914D01*
X82738094Y-86192914D02*
X82785713Y-86383390D01*
X82785713Y-86383390D02*
X82785713Y-86764342D01*
X82785713Y-86764342D02*
X82738094Y-86859580D01*
X82738094Y-86859580D02*
X82690475Y-86907200D01*
X82690475Y-86907200D02*
X82595237Y-86954819D01*
X82595237Y-86954819D02*
X82404761Y-86954819D01*
X82404761Y-86954819D02*
X82309523Y-86907200D01*
X82309523Y-86907200D02*
X82261904Y-86859580D01*
X82261904Y-86859580D02*
X82214285Y-86764342D01*
X82214285Y-86764342D02*
X82214285Y-86526247D01*
X82214285Y-86526247D02*
X82261904Y-86431009D01*
X82261904Y-86431009D02*
X82309523Y-86383390D01*
X82309523Y-86383390D02*
X82404761Y-86335771D01*
X82404761Y-86335771D02*
X82595237Y-86335771D01*
X82595237Y-86335771D02*
X82690475Y-86383390D01*
X82690475Y-86383390D02*
X82738094Y-86431009D01*
X82738094Y-86431009D02*
X82785713Y-86526247D01*
X38166666Y-74134819D02*
X38499999Y-73658628D01*
X38738094Y-74134819D02*
X38738094Y-73134819D01*
X38738094Y-73134819D02*
X38357142Y-73134819D01*
X38357142Y-73134819D02*
X38261904Y-73182438D01*
X38261904Y-73182438D02*
X38214285Y-73230057D01*
X38214285Y-73230057D02*
X38166666Y-73325295D01*
X38166666Y-73325295D02*
X38166666Y-73468152D01*
X38166666Y-73468152D02*
X38214285Y-73563390D01*
X38214285Y-73563390D02*
X38261904Y-73611009D01*
X38261904Y-73611009D02*
X38357142Y-73658628D01*
X38357142Y-73658628D02*
X38738094Y-73658628D01*
X37309523Y-73134819D02*
X37499999Y-73134819D01*
X37499999Y-73134819D02*
X37595237Y-73182438D01*
X37595237Y-73182438D02*
X37642856Y-73230057D01*
X37642856Y-73230057D02*
X37738094Y-73372914D01*
X37738094Y-73372914D02*
X37785713Y-73563390D01*
X37785713Y-73563390D02*
X37785713Y-73944342D01*
X37785713Y-73944342D02*
X37738094Y-74039580D01*
X37738094Y-74039580D02*
X37690475Y-74087200D01*
X37690475Y-74087200D02*
X37595237Y-74134819D01*
X37595237Y-74134819D02*
X37404761Y-74134819D01*
X37404761Y-74134819D02*
X37309523Y-74087200D01*
X37309523Y-74087200D02*
X37261904Y-74039580D01*
X37261904Y-74039580D02*
X37214285Y-73944342D01*
X37214285Y-73944342D02*
X37214285Y-73706247D01*
X37214285Y-73706247D02*
X37261904Y-73611009D01*
X37261904Y-73611009D02*
X37309523Y-73563390D01*
X37309523Y-73563390D02*
X37404761Y-73515771D01*
X37404761Y-73515771D02*
X37595237Y-73515771D01*
X37595237Y-73515771D02*
X37690475Y-73563390D01*
X37690475Y-73563390D02*
X37738094Y-73611009D01*
X37738094Y-73611009D02*
X37785713Y-73706247D01*
X78954819Y-91261905D02*
X77954819Y-91261905D01*
X77954819Y-91261905D02*
X77954819Y-91500000D01*
X77954819Y-91500000D02*
X78002438Y-91642857D01*
X78002438Y-91642857D02*
X78097676Y-91738095D01*
X78097676Y-91738095D02*
X78192914Y-91785714D01*
X78192914Y-91785714D02*
X78383390Y-91833333D01*
X78383390Y-91833333D02*
X78526247Y-91833333D01*
X78526247Y-91833333D02*
X78716723Y-91785714D01*
X78716723Y-91785714D02*
X78811961Y-91738095D01*
X78811961Y-91738095D02*
X78907200Y-91642857D01*
X78907200Y-91642857D02*
X78954819Y-91500000D01*
X78954819Y-91500000D02*
X78954819Y-91261905D01*
X78288152Y-92690476D02*
X78954819Y-92690476D01*
X77907200Y-92452381D02*
X78621485Y-92214286D01*
X78621485Y-92214286D02*
X78621485Y-92833333D01*
X50987319Y-99833333D02*
X50511128Y-99500000D01*
X50987319Y-99261905D02*
X49987319Y-99261905D01*
X49987319Y-99261905D02*
X49987319Y-99642857D01*
X49987319Y-99642857D02*
X50034938Y-99738095D01*
X50034938Y-99738095D02*
X50082557Y-99785714D01*
X50082557Y-99785714D02*
X50177795Y-99833333D01*
X50177795Y-99833333D02*
X50320652Y-99833333D01*
X50320652Y-99833333D02*
X50415890Y-99785714D01*
X50415890Y-99785714D02*
X50463509Y-99738095D01*
X50463509Y-99738095D02*
X50511128Y-99642857D01*
X50511128Y-99642857D02*
X50511128Y-99261905D01*
X50320652Y-100690476D02*
X50987319Y-100690476D01*
X49939700Y-100452381D02*
X50653985Y-100214286D01*
X50653985Y-100214286D02*
X50653985Y-100833333D01*
%TO.C,R3*%
D11*
X46510000Y-100237258D02*
X46510000Y-99762742D01*
X47555000Y-100237258D02*
X47555000Y-99762742D01*
%TO.C,R5*%
X37762742Y-65227500D02*
X38237258Y-65227500D01*
X37762742Y-66272500D02*
X38237258Y-66272500D01*
%TO.C,R7*%
X37747742Y-78227500D02*
X38222258Y-78227500D01*
X37747742Y-79272500D02*
X38222258Y-79272500D01*
%TO.C,R2*%
X85977500Y-84262742D02*
X85977500Y-84737258D01*
X87022500Y-84262742D02*
X87022500Y-84737258D01*
%TO.C,D8*%
X40882500Y-94840000D02*
X40882500Y-100650000D01*
X40882500Y-94840000D02*
X45182500Y-94840000D01*
X45182500Y-94840000D02*
X45182500Y-100650000D01*
%TO.C,D9*%
X35882500Y-102160000D02*
X35882500Y-96350000D01*
X40182500Y-102160000D02*
X35882500Y-102160000D01*
X40182500Y-102160000D02*
X40182500Y-96350000D01*
%TO.C,R1*%
X87977500Y-84262742D02*
X87977500Y-84737258D01*
X89022500Y-84262742D02*
X89022500Y-84737258D01*
%TO.C,D6*%
X80850000Y-94660000D02*
X80850000Y-88850000D01*
X85150000Y-94660000D02*
X80850000Y-94660000D01*
X85150000Y-94660000D02*
X85150000Y-88850000D01*
%TO.C,R6*%
X37762742Y-71727500D02*
X38237258Y-71727500D01*
X37762742Y-72772500D02*
X38237258Y-72772500D01*
%TO.C,D4*%
X76350000Y-90660000D02*
X76350000Y-84850000D01*
X80650000Y-90660000D02*
X76350000Y-90660000D01*
X80650000Y-90660000D02*
X80650000Y-84850000D01*
%TO.C,R4*%
X48510000Y-100237258D02*
X48510000Y-99762742D01*
X49555000Y-100237258D02*
X49555000Y-99762742D01*
%TD*%
%LPC*%
D12*
%TO.C,REF\u002A\u002A*%
X42500000Y-86500000D03*
D13*
X42500000Y-81500000D03*
%TD*%
D14*
%TO.C,J2*%
X73320000Y-97900000D03*
X73320000Y-95360000D03*
X73320000Y-92820000D03*
X73320000Y-90280000D03*
X73320000Y-87740000D03*
X73320000Y-85200000D03*
X73320000Y-82660000D03*
X73320000Y-80120000D03*
X73320000Y-77580000D03*
X73320000Y-75040000D03*
X73320000Y-72500000D03*
X73320000Y-69960000D03*
X73320000Y-67420000D03*
D15*
X73320000Y-64880000D03*
%TD*%
D14*
%TO.C,*%
X68500000Y-103500000D03*
%TD*%
D15*
%TO.C,J6*%
X72250000Y-59500000D03*
D14*
X69710000Y-59500000D03*
X67170000Y-59500000D03*
X64630000Y-59500000D03*
X62090000Y-59500000D03*
X59550000Y-59500000D03*
X57010000Y-59500000D03*
X54470000Y-59500000D03*
%TD*%
D16*
%TO.C,REF\u002A\u002A*%
X28500000Y-58500000D03*
%TD*%
D14*
%TO.C,*%
X50500000Y-105500000D03*
%TD*%
D15*
%TO.C,J3*%
X70780000Y-100440000D03*
D14*
X68240000Y-100440000D03*
X65700000Y-100440000D03*
X63160000Y-100440000D03*
X60620000Y-100440000D03*
X58080000Y-100440000D03*
X55540000Y-100440000D03*
%TD*%
D16*
%TO.C,REF\u002A\u002A*%
X28500000Y-124500000D03*
%TD*%
D17*
%TO.C,J7*%
X55500000Y-123825000D03*
X44500000Y-123825000D03*
D18*
X47500000Y-113825000D03*
D19*
X52500000Y-113825000D03*
%TD*%
D20*
%TO.C,J5*%
X92467500Y-86750000D03*
D21*
X92467500Y-89250000D03*
X92467500Y-91750000D03*
X92467500Y-94250000D03*
X92467500Y-96750000D03*
X92467500Y-99250000D03*
%TD*%
D22*
%TO.C,D1*%
X32460000Y-64250000D03*
D23*
X35000000Y-64250000D03*
%TD*%
D14*
%TO.C,*%
X86500000Y-99500000D03*
%TD*%
D16*
%TO.C,REF\u002A\u002A*%
X96500000Y-124500000D03*
%TD*%
D22*
%TO.C,D2*%
X32460000Y-70750000D03*
D23*
X35000000Y-70750000D03*
%TD*%
D24*
%TO.C,J8*%
X92500000Y-81000000D03*
D25*
X92500000Y-79000000D03*
X92500000Y-77000000D03*
X92500000Y-75000000D03*
%TD*%
D14*
%TO.C,*%
X66500000Y-103500000D03*
%TD*%
D26*
%TO.C,J4*%
X33032500Y-98750000D03*
D21*
X33032500Y-96250000D03*
X33032500Y-93750000D03*
X33032500Y-91250000D03*
X33032500Y-88750000D03*
X33032500Y-86250000D03*
%TD*%
D15*
%TO.C,J9*%
X40500000Y-61290000D03*
D14*
X43040000Y-61290000D03*
X45580000Y-61290000D03*
X48120000Y-61290000D03*
%TD*%
%TO.C,*%
X88000000Y-92000000D03*
%TD*%
%TO.C,*%
X41508235Y-92474751D03*
%TD*%
D22*
%TO.C,D3*%
X32460000Y-77250000D03*
D23*
X35000000Y-77250000D03*
%TD*%
D14*
%TO.C,*%
X43500000Y-92500000D03*
%TD*%
%TO.C,*%
X39500000Y-92500000D03*
%TD*%
D15*
%TO.C,REF\u002A\u002A*%
X82250000Y-60500000D03*
D14*
X84790000Y-60500000D03*
%TD*%
D27*
%TO.C,J10*%
X63500000Y-119000000D03*
D28*
X66000000Y-119000000D03*
X68500000Y-119000000D03*
X71000000Y-119000000D03*
X73500000Y-119000000D03*
X76000000Y-119000000D03*
X78500000Y-119000000D03*
%TD*%
D16*
%TO.C,REF\u002A\u002A*%
X96500000Y-58500000D03*
%TD*%
D14*
%TO.C,*%
X86500000Y-93500000D03*
%TD*%
%TO.C,*%
X64500000Y-103500000D03*
%TD*%
D15*
%TO.C,J1*%
X53000000Y-64880000D03*
D14*
X53000000Y-67420000D03*
X53000000Y-69960000D03*
X53000000Y-72500000D03*
X53000000Y-75040000D03*
X53000000Y-77580000D03*
X53000000Y-80120000D03*
X53000000Y-82660000D03*
X53000000Y-85200000D03*
X53000000Y-87740000D03*
X53000000Y-90280000D03*
X53000000Y-92820000D03*
X53000000Y-95360000D03*
X53000000Y-97900000D03*
%TD*%
%TO.C,*%
X46500000Y-105500000D03*
%TD*%
%TO.C,*%
X48500000Y-105500000D03*
%TD*%
D29*
%TO.C,R3*%
X47032500Y-100825000D03*
X47032500Y-99175000D03*
%TD*%
D30*
%TO.C,R5*%
X37175000Y-65750000D03*
X38825000Y-65750000D03*
%TD*%
%TO.C,R7*%
X37160000Y-78750000D03*
X38810000Y-78750000D03*
%TD*%
D31*
%TO.C,R2*%
X86500000Y-83675000D03*
X86500000Y-85325000D03*
%TD*%
D32*
%TO.C,D8*%
X43032500Y-96350000D03*
X43032500Y-100650000D03*
%TD*%
D33*
%TO.C,D9*%
X38032500Y-100650000D03*
X38032500Y-96350000D03*
%TD*%
D31*
%TO.C,R1*%
X88500000Y-83675000D03*
X88500000Y-85325000D03*
%TD*%
D33*
%TO.C,D6*%
X83000000Y-93150000D03*
X83000000Y-88850000D03*
%TD*%
D30*
%TO.C,R6*%
X37175000Y-72250000D03*
X38825000Y-72250000D03*
%TD*%
D33*
%TO.C,D4*%
X78500000Y-89150000D03*
X78500000Y-84850000D03*
%TD*%
D29*
%TO.C,R4*%
X49032500Y-100825000D03*
X49032500Y-99175000D03*
%TD*%
%LPD*%
M02*
