%TF.GenerationSoftware,KiCad,Pcbnew,10.0.0*%
%TF.CreationDate,2026-04-07T03:27:14+10:00*%
%TF.ProjectId,breakoutB,62726561-6b6f-4757-9442-2e6b69636164,rev?*%
%TF.SameCoordinates,Original*%
%TF.FileFunction,Soldermask,Bot*%
%TF.FilePolarity,Negative*%
%FSLAX46Y46*%
G04 Gerber Fmt 4.6, Leading zero omitted, Abs format (unit mm)*
G04 Created by KiCad (PCBNEW 10.0.0) date 2026-04-07 03:27:14*
%MOMM*%
%LPD*%
G01*
G04 APERTURE LIST*
G04 Aperture macros list*
%AMRoundRect*
0 Rectangle with rounded corners*
0 $1 Rounding radius*
0 $2 $3 $4 $5 $6 $7 $8 $9 X,Y pos of 4 corners*
0 Add a 4 corners polygon primitive as box body*
4,1,4,$2,$3,$4,$5,$6,$7,$8,$9,$2,$3,0*
0 Add four circle primitives for the rounded corners*
1,1,$1+$1,$2,$3*
1,1,$1+$1,$4,$5*
1,1,$1+$1,$6,$7*
1,1,$1+$1,$8,$9*
0 Add four rect primitives between the rounded corners*
20,1,$1+$1,$2,$3,$4,$5,0*
20,1,$1+$1,$4,$5,$6,$7,0*
20,1,$1+$1,$6,$7,$8,$9,0*
20,1,$1+$1,$8,$9,$2,$3,0*%
G04 Aperture macros list end*
%ADD10RoundRect,0.250001X0.949999X-0.949999X0.949999X0.949999X-0.949999X0.949999X-0.949999X-0.949999X0*%
%ADD11C,2.400000*%
%ADD12C,1.700000*%
%ADD13R,1.700000X1.700000*%
%ADD14C,2.700000*%
%ADD15C,1.400000*%
%ADD16RoundRect,0.770000X0.980000X0.980000X-0.980000X0.980000X-0.980000X-0.980000X0.980000X-0.980000X0*%
%ADD17C,3.500000*%
%ADD18RoundRect,0.250000X-0.725000X0.600000X-0.725000X-0.600000X0.725000X-0.600000X0.725000X0.600000X0*%
%ADD19O,1.950000X1.700000*%
%ADD20R,1.800000X1.800000*%
%ADD21C,1.800000*%
%ADD22RoundRect,0.250000X0.625000X-0.350000X0.625000X0.350000X-0.625000X0.350000X-0.625000X-0.350000X0*%
%ADD23O,1.750000X1.200000*%
%ADD24RoundRect,0.250000X0.725000X-0.600000X0.725000X0.600000X-0.725000X0.600000X-0.725000X-0.600000X0*%
%ADD25RoundRect,0.250000X-0.600000X-0.725000X0.600000X-0.725000X0.600000X0.725000X-0.600000X0.725000X0*%
%ADD26O,1.700000X1.950000*%
%ADD27RoundRect,0.200000X0.275000X-0.200000X0.275000X0.200000X-0.275000X0.200000X-0.275000X-0.200000X0*%
%ADD28RoundRect,0.200000X-0.200000X-0.275000X0.200000X-0.275000X0.200000X0.275000X-0.200000X0.275000X0*%
%ADD29RoundRect,0.200000X-0.275000X0.200000X-0.275000X-0.200000X0.275000X-0.200000X0.275000X0.200000X0*%
%ADD30RoundRect,0.250000X-0.900000X1.000000X-0.900000X-1.000000X0.900000X-1.000000X0.900000X1.000000X0*%
%ADD31RoundRect,0.250000X0.900000X-1.000000X0.900000X1.000000X-0.900000X1.000000X-0.900000X-1.000000X0*%
G04 APERTURE END LIST*
D10*
%TO.C,REF\u002A\u002A*%
X42500000Y-86500000D03*
D11*
X42500000Y-81500000D03*
%TD*%
D12*
%TO.C,J2*%
X73320000Y-97900000D03*
X73320000Y-95360000D03*
X73320000Y-92820000D03*
X73320000Y-90280000D03*
X73320000Y-87740000D03*
X73320000Y-85200000D03*
X73320000Y-82660000D03*
X73320000Y-80120000D03*
X73320000Y-77580000D03*
X73320000Y-75040000D03*
X73320000Y-72500000D03*
X73320000Y-69960000D03*
X73320000Y-67420000D03*
D13*
X73320000Y-64880000D03*
%TD*%
D12*
%TO.C,*%
X68500000Y-103500000D03*
%TD*%
D13*
%TO.C,J6*%
X72250000Y-59500000D03*
D12*
X69710000Y-59500000D03*
X67170000Y-59500000D03*
X64630000Y-59500000D03*
X62090000Y-59500000D03*
X59550000Y-59500000D03*
X57010000Y-59500000D03*
X54470000Y-59500000D03*
%TD*%
D14*
%TO.C,REF\u002A\u002A*%
X28500000Y-58500000D03*
%TD*%
D12*
%TO.C,*%
X50500000Y-105500000D03*
%TD*%
D13*
%TO.C,J3*%
X70780000Y-100440000D03*
D12*
X68240000Y-100440000D03*
X65700000Y-100440000D03*
X63160000Y-100440000D03*
X60620000Y-100440000D03*
X58080000Y-100440000D03*
X55540000Y-100440000D03*
%TD*%
D14*
%TO.C,REF\u002A\u002A*%
X28500000Y-124500000D03*
%TD*%
D15*
%TO.C,J7*%
X55500000Y-123825000D03*
X44500000Y-123825000D03*
D16*
X47500000Y-113825000D03*
D17*
X52500000Y-113825000D03*
%TD*%
D18*
%TO.C,J5*%
X92467500Y-86750000D03*
D19*
X92467500Y-89250000D03*
X92467500Y-91750000D03*
X92467500Y-94250000D03*
X92467500Y-96750000D03*
X92467500Y-99250000D03*
%TD*%
D20*
%TO.C,D1*%
X32460000Y-64250000D03*
D21*
X35000000Y-64250000D03*
%TD*%
D12*
%TO.C,*%
X86500000Y-99500000D03*
%TD*%
D14*
%TO.C,REF\u002A\u002A*%
X96500000Y-124500000D03*
%TD*%
D20*
%TO.C,D2*%
X32460000Y-70750000D03*
D21*
X35000000Y-70750000D03*
%TD*%
D22*
%TO.C,J8*%
X92500000Y-81000000D03*
D23*
X92500000Y-79000000D03*
X92500000Y-77000000D03*
X92500000Y-75000000D03*
%TD*%
D12*
%TO.C,*%
X66500000Y-103500000D03*
%TD*%
D24*
%TO.C,J4*%
X33032500Y-98750000D03*
D19*
X33032500Y-96250000D03*
X33032500Y-93750000D03*
X33032500Y-91250000D03*
X33032500Y-88750000D03*
X33032500Y-86250000D03*
%TD*%
D13*
%TO.C,J9*%
X40500000Y-61290000D03*
D12*
X43040000Y-61290000D03*
X45580000Y-61290000D03*
X48120000Y-61290000D03*
%TD*%
%TO.C,*%
X88000000Y-92000000D03*
%TD*%
%TO.C,*%
X41508235Y-92474751D03*
%TD*%
D20*
%TO.C,D3*%
X32460000Y-77250000D03*
D21*
X35000000Y-77250000D03*
%TD*%
D12*
%TO.C,*%
X43500000Y-92500000D03*
%TD*%
%TO.C,*%
X39500000Y-92500000D03*
%TD*%
D13*
%TO.C,REF\u002A\u002A*%
X82250000Y-60500000D03*
D12*
X84790000Y-60500000D03*
%TD*%
D25*
%TO.C,J10*%
X63500000Y-119000000D03*
D26*
X66000000Y-119000000D03*
X68500000Y-119000000D03*
X71000000Y-119000000D03*
X73500000Y-119000000D03*
X76000000Y-119000000D03*
X78500000Y-119000000D03*
%TD*%
D14*
%TO.C,REF\u002A\u002A*%
X96500000Y-58500000D03*
%TD*%
D12*
%TO.C,*%
X86500000Y-93500000D03*
%TD*%
%TO.C,*%
X64500000Y-103500000D03*
%TD*%
D13*
%TO.C,J1*%
X53000000Y-64880000D03*
D12*
X53000000Y-67420000D03*
X53000000Y-69960000D03*
X53000000Y-72500000D03*
X53000000Y-75040000D03*
X53000000Y-77580000D03*
X53000000Y-80120000D03*
X53000000Y-82660000D03*
X53000000Y-85200000D03*
X53000000Y-87740000D03*
X53000000Y-90280000D03*
X53000000Y-92820000D03*
X53000000Y-95360000D03*
X53000000Y-97900000D03*
%TD*%
%TO.C,*%
X46500000Y-105500000D03*
%TD*%
%TO.C,*%
X48500000Y-105500000D03*
%TD*%
D27*
%TO.C,R3*%
X47032500Y-100825000D03*
X47032500Y-99175000D03*
%TD*%
D28*
%TO.C,R5*%
X37175000Y-65750000D03*
X38825000Y-65750000D03*
%TD*%
%TO.C,R7*%
X37160000Y-78750000D03*
X38810000Y-78750000D03*
%TD*%
D29*
%TO.C,R2*%
X86500000Y-83675000D03*
X86500000Y-85325000D03*
%TD*%
D30*
%TO.C,D8*%
X43032500Y-96350000D03*
X43032500Y-100650000D03*
%TD*%
D31*
%TO.C,D9*%
X38032500Y-100650000D03*
X38032500Y-96350000D03*
%TD*%
D29*
%TO.C,R1*%
X88500000Y-83675000D03*
X88500000Y-85325000D03*
%TD*%
D31*
%TO.C,D6*%
X83000000Y-93150000D03*
X83000000Y-88850000D03*
%TD*%
D28*
%TO.C,R6*%
X37175000Y-72250000D03*
X38825000Y-72250000D03*
%TD*%
D31*
%TO.C,D4*%
X78500000Y-89150000D03*
X78500000Y-84850000D03*
%TD*%
D27*
%TO.C,R4*%
X49032500Y-100825000D03*
X49032500Y-99175000D03*
%TD*%
M02*
