%TF.GenerationSoftware,KiCad,Pcbnew,10.0.0*%
%TF.CreationDate,2026-04-07T03:57:39+10:00*%
%TF.ProjectId,breakoutB,62726561-6b6f-4757-9442-2e6b69636164,rev?*%
%TF.SameCoordinates,Original*%
%TF.FileFunction,Copper,L2,Bot*%
%TF.FilePolarity,Positive*%
%FSLAX46Y46*%
G04 Gerber Fmt 4.6, Leading zero omitted, Abs format (unit mm)*
G04 Created by KiCad (PCBNEW 10.0.0) date 2026-04-07 03:57:39*
%MOMM*%
%LPD*%
G01*
G04 APERTURE LIST*
G04 Aperture macros list*
%AMRoundRect*
0 Rectangle with rounded corners*
0 $1 Rounding radius*
0 $2 $3 $4 $5 $6 $7 $8 $9 X,Y pos of 4 corners*
0 Add a 4 corners polygon primitive as box body*
4,1,4,$2,$3,$4,$5,$6,$7,$8,$9,$2,$3,0*
0 Add four circle primitives for the rounded corners*
1,1,$1+$1,$2,$3*
1,1,$1+$1,$4,$5*
1,1,$1+$1,$6,$7*
1,1,$1+$1,$8,$9*
0 Add four rect primitives between the rounded corners*
20,1,$1+$1,$2,$3,$4,$5,0*
20,1,$1+$1,$4,$5,$6,$7,0*
20,1,$1+$1,$6,$7,$8,$9,0*
20,1,$1+$1,$8,$9,$2,$3,0*%
G04 Aperture macros list end*
%TA.AperFunction,ComponentPad*%
%ADD10C,1.700000*%
%TD*%
%TA.AperFunction,ComponentPad*%
%ADD11R,1.700000X1.700000*%
%TD*%
%TA.AperFunction,ComponentPad*%
%ADD12RoundRect,0.250001X0.949999X-0.949999X0.949999X0.949999X-0.949999X0.949999X-0.949999X-0.949999X0*%
%TD*%
%TA.AperFunction,ComponentPad*%
%ADD13C,2.400000*%
%TD*%
%TA.AperFunction,ComponentPad*%
%ADD14C,1.400000*%
%TD*%
%TA.AperFunction,ComponentPad*%
%ADD15RoundRect,0.770000X0.980000X0.980000X-0.980000X0.980000X-0.980000X-0.980000X0.980000X-0.980000X0*%
%TD*%
%TA.AperFunction,ComponentPad*%
%ADD16C,3.500000*%
%TD*%
%TA.AperFunction,ComponentPad*%
%ADD17RoundRect,0.250000X-0.725000X0.600000X-0.725000X-0.600000X0.725000X-0.600000X0.725000X0.600000X0*%
%TD*%
%TA.AperFunction,ComponentPad*%
%ADD18O,1.950000X1.700000*%
%TD*%
%TA.AperFunction,ComponentPad*%
%ADD19R,1.800000X1.800000*%
%TD*%
%TA.AperFunction,ComponentPad*%
%ADD20C,1.800000*%
%TD*%
%TA.AperFunction,ComponentPad*%
%ADD21RoundRect,0.250000X0.625000X-0.350000X0.625000X0.350000X-0.625000X0.350000X-0.625000X-0.350000X0*%
%TD*%
%TA.AperFunction,ComponentPad*%
%ADD22O,1.750000X1.200000*%
%TD*%
%TA.AperFunction,ComponentPad*%
%ADD23RoundRect,0.250000X0.725000X-0.600000X0.725000X0.600000X-0.725000X0.600000X-0.725000X-0.600000X0*%
%TD*%
%TA.AperFunction,ComponentPad*%
%ADD24RoundRect,0.250000X-0.600000X-0.725000X0.600000X-0.725000X0.600000X0.725000X-0.600000X0.725000X0*%
%TD*%
%TA.AperFunction,ComponentPad*%
%ADD25O,1.700000X1.950000*%
%TD*%
%TA.AperFunction,SMDPad,CuDef*%
%ADD26RoundRect,0.200000X0.275000X-0.200000X0.275000X0.200000X-0.275000X0.200000X-0.275000X-0.200000X0*%
%TD*%
%TA.AperFunction,SMDPad,CuDef*%
%ADD27RoundRect,0.200000X-0.200000X-0.275000X0.200000X-0.275000X0.200000X0.275000X-0.200000X0.275000X0*%
%TD*%
%TA.AperFunction,SMDPad,CuDef*%
%ADD28RoundRect,0.200000X-0.275000X0.200000X-0.275000X-0.200000X0.275000X-0.200000X0.275000X0.200000X0*%
%TD*%
%TA.AperFunction,SMDPad,CuDef*%
%ADD29RoundRect,0.250000X-0.900000X1.000000X-0.900000X-1.000000X0.900000X-1.000000X0.900000X1.000000X0*%
%TD*%
%TA.AperFunction,SMDPad,CuDef*%
%ADD30RoundRect,0.250000X0.900000X-1.000000X0.900000X1.000000X-0.900000X1.000000X-0.900000X-1.000000X0*%
%TD*%
%TA.AperFunction,ViaPad*%
%ADD31C,0.600000*%
%TD*%
%TA.AperFunction,Conductor*%
%ADD32C,1.000000*%
%TD*%
%TA.AperFunction,Conductor*%
%ADD33C,0.800000*%
%TD*%
%TA.AperFunction,Conductor*%
%ADD34C,0.250000*%
%TD*%
%TA.AperFunction,Conductor*%
%ADD35C,0.200000*%
%TD*%
%TA.AperFunction,Conductor*%
%ADD36C,0.500000*%
%TD*%
G04 APERTURE END LIST*
D10*
%TO.P,,5,Pin_5_5*%
%TO.N,/VBAT*%
X68500000Y-103500000D03*
%TD*%
D11*
%TO.P,J6,1,Pin_1_1*%
%TO.N,/MUX_OUTPUT*%
X72250000Y-59500000D03*
D10*
%TO.P,J6,2,Pin_2_2*%
%TO.N,/sens_mux_A*%
X69710000Y-59500000D03*
%TO.P,J6,3,Pin_3_3*%
%TO.N,/sens_mux_B*%
X67170000Y-59500000D03*
%TO.P,J6,4,Pin_4_4*%
%TO.N,/sens_mux_C*%
X64630000Y-59500000D03*
%TO.P,J6,5,Pin_5_5*%
%TO.N,/sens_mux_D*%
X62090000Y-59500000D03*
%TO.P,J6,6,Pin_6_6*%
%TO.N,+5V*%
X59550000Y-59500000D03*
%TO.P,J6,7,Pin_7_7*%
%TO.N,GND*%
X57010000Y-59500000D03*
%TO.P,J6,8,Pin_8_8*%
X54470000Y-59500000D03*
%TD*%
%TO.P,,*%
%TO.N,GND*%
X50500000Y-105500000D03*
%TD*%
D11*
%TO.P,J3,1,Pin_1_1*%
%TO.N,/M2_1*%
X70780000Y-100440000D03*
D10*
%TO.P,J3,2,Pin_2_2*%
%TO.N,/M1_1*%
X68240000Y-100440000D03*
%TO.P,J3,3,Pin_3_3*%
%TO.N,/M2_2*%
X65700000Y-100440000D03*
%TO.P,J3,4,Pin_4_4*%
%TO.N,/M1_2*%
X63160000Y-100440000D03*
%TO.P,J3,5,Pin_5_5*%
%TO.N,/VBAT*%
X60620000Y-100440000D03*
%TO.P,J3,6,Pin_6_6*%
%TO.N,VCC*%
X58080000Y-100440000D03*
%TO.P,J3,7,Pin_7_7*%
%TO.N,GND*%
X55540000Y-100440000D03*
%TD*%
D12*
%TO.P,REF\u002A\u002A,1*%
%TO.N,PB7*%
X42500000Y-86500000D03*
D13*
%TO.P,REF\u002A\u002A,2*%
%TO.N,GND*%
X42500000Y-81500000D03*
%TD*%
D14*
%TO.P,J7,*%
%TO.N,*%
X55500000Y-123825000D03*
X44500000Y-123825000D03*
D15*
%TO.P,J7,1,Pin_1_1*%
%TO.N,GND*%
X47500000Y-113825000D03*
D16*
%TO.P,J7,2,Pin_2_2*%
%TO.N,/VBAT*%
X52500000Y-113825000D03*
%TD*%
D11*
%TO.P,J2,1,Pin_1_1*%
%TO.N,GND*%
X73320000Y-64880000D03*
D10*
%TO.P,J2,2,Pin_2_2*%
%TO.N,/MUX_OUTPUT*%
X73320000Y-67420000D03*
%TO.P,J2,3,Pin_3_3*%
%TO.N,/ADC1*%
X73320000Y-69960000D03*
%TO.P,J2,4,Pin_4_4*%
%TO.N,/sens_mux_A*%
X73320000Y-72500000D03*
%TO.P,J2,5,Pin_5_5*%
%TO.N,/sens_mux_B*%
X73320000Y-75040000D03*
%TO.P,J2,6,Pin_6_6*%
%TO.N,/sens_mux_C*%
X73320000Y-77580000D03*
%TO.P,J2,7,Pin_7_7*%
%TO.N,/sens_mux_D*%
X73320000Y-80120000D03*
%TO.P,J2,8,Pin_8_8*%
%TO.N,/PC7*%
X73320000Y-82660000D03*
%TO.P,J2,9,Pin_9_9*%
%TO.N,unconnected-(J2-Pin_9-Pad9)*%
X73320000Y-85200000D03*
%TO.P,J2,10,Pin_10_10*%
%TO.N,adc11*%
X73320000Y-87740000D03*
%TO.P,J2,11,Pin_11_11*%
%TO.N,unconnected-(J2-Pin_11-Pad11)*%
X73320000Y-90280000D03*
%TO.P,J2,12,Pin_12_12*%
%TO.N,unconnected-(J2-Pin_12-Pad12)*%
X73320000Y-92820000D03*
%TO.P,J2,13,Pin_13_13*%
%TO.N,/PD4*%
X73320000Y-95360000D03*
%TO.P,J2,14,Pin_14_14*%
%TO.N,GND*%
X73320000Y-97900000D03*
%TD*%
D17*
%TO.P,J5,1,Pin_1_1*%
%TO.N,/M1_1*%
X92467500Y-86750000D03*
D18*
%TO.P,J5,2,Pin_2_2*%
%TO.N,/M2_1*%
X92467500Y-89250000D03*
%TO.P,J5,3,Pin_3_3*%
%TO.N,+5V*%
X92467500Y-91750000D03*
%TO.P,J5,4,Pin_4_4*%
%TO.N,GND*%
X92467500Y-94250000D03*
%TO.P,J5,5,Pin_5_5*%
%TO.N,/Ch_A1*%
X92467500Y-96750000D03*
%TO.P,J5,6,Pin_6_6*%
%TO.N,/Ch_B1*%
X92467500Y-99250000D03*
%TD*%
D19*
%TO.P,D1,1,K_1*%
%TO.N,Net-(D1-K)*%
X32460000Y-64250000D03*
D20*
%TO.P,D1,2,A_2*%
%TO.N,/LED0*%
X35000000Y-64250000D03*
%TD*%
D10*
%TO.P,,*%
%TO.N,GND*%
X86500000Y-99500000D03*
%TD*%
D19*
%TO.P,D2,1,K_1*%
%TO.N,Net-(D2-K)*%
X32460000Y-70750000D03*
D20*
%TO.P,D2,2,A_2*%
%TO.N,/LED1*%
X35000000Y-70750000D03*
%TD*%
D21*
%TO.P,J8,1,Pin_1_1*%
%TO.N,+3.3V*%
X92500000Y-81000000D03*
D22*
%TO.P,J8,2,Pin_2_2*%
%TO.N,GND*%
X92500000Y-79000000D03*
%TO.P,J8,3,Pin_3_3*%
%TO.N,/PD1*%
X92500000Y-77000000D03*
%TO.P,J8,4,Pin_4_4*%
%TO.N,/PD0*%
X92500000Y-75000000D03*
%TD*%
D10*
%TO.P,,5,Pin_5_5*%
%TO.N,/VBAT*%
X66500000Y-103500000D03*
%TD*%
D23*
%TO.P,J4,1,Pin_1_1*%
%TO.N,/M1_2*%
X33032500Y-98750000D03*
D18*
%TO.P,J4,2,Pin_2_2*%
%TO.N,/M2_2*%
X33032500Y-96250000D03*
%TO.P,J4,3,Pin_3_3*%
%TO.N,+5V*%
X33032500Y-93750000D03*
%TO.P,J4,4,Pin_4_4*%
%TO.N,GND*%
X33032500Y-91250000D03*
%TO.P,J4,5,Pin_5_5*%
%TO.N,/Ch_A2*%
X33032500Y-88750000D03*
%TO.P,J4,6,Pin_6_6*%
%TO.N,/Ch_B2*%
X33032500Y-86250000D03*
%TD*%
D11*
%TO.P,J9,1,Pin_1_1*%
%TO.N,+5V*%
X40500000Y-61290000D03*
D10*
%TO.P,J9,2,Pin_2_2*%
%TO.N,/PC7*%
X43040000Y-61290000D03*
%TO.P,J9,3,Pin_3_3*%
%TO.N,/PD4*%
X45580000Y-61290000D03*
%TO.P,J9,4,Pin_4_4*%
%TO.N,GND*%
X48120000Y-61290000D03*
%TD*%
%TO.P,,*%
%TO.N,GND*%
X88000000Y-92000000D03*
%TD*%
%TO.P,,*%
%TO.N,GND*%
X41508235Y-92474751D03*
%TD*%
D19*
%TO.P,D3,1,K_1*%
%TO.N,Net-(D3-K)*%
X32460000Y-77250000D03*
D20*
%TO.P,D3,2,A_2*%
%TO.N,/LED2*%
X35000000Y-77250000D03*
%TD*%
D10*
%TO.P,,*%
%TO.N,GND*%
X43500000Y-92500000D03*
%TD*%
%TO.P,,*%
%TO.N,GND*%
X39500000Y-92500000D03*
%TD*%
D11*
%TO.P,REF\u002A\u002A,1*%
%TO.N,adc11*%
X82250000Y-60500000D03*
D10*
%TO.P,REF\u002A\u002A,2*%
%TO.N,GND*%
X84790000Y-60500000D03*
%TD*%
D24*
%TO.P,J10,1,Pin_1_1*%
%TO.N,GND*%
X63500000Y-119000000D03*
D25*
%TO.P,J10,2,Pin_2_2*%
%TO.N,+5V*%
X66000000Y-119000000D03*
%TO.P,J10,3,Pin_3_3*%
%TO.N,/SIG_SZ*%
X68500000Y-119000000D03*
%TO.P,J10,4,Pin_4_4*%
%TO.N,/VBAT*%
X71000000Y-119000000D03*
%TO.P,J10,5,Pin_5_5*%
%TO.N,/SIG_TRK*%
X73500000Y-119000000D03*
%TO.P,J10,6,Pin_6_6*%
%TO.N,+5V*%
X76000000Y-119000000D03*
%TO.P,J10,7,Pin_7_7*%
%TO.N,GND*%
X78500000Y-119000000D03*
%TD*%
D10*
%TO.P,,*%
%TO.N,GND*%
X86500000Y-93500000D03*
%TD*%
%TO.P,,5,Pin_5_5*%
%TO.N,/VBAT*%
X64500000Y-103500000D03*
%TD*%
D11*
%TO.P,J1,1,Pin_1_1*%
%TO.N,VCC*%
X53000000Y-64880000D03*
D10*
%TO.P,J1,2,Pin_2_2*%
%TO.N,/LED0*%
X53000000Y-67420000D03*
%TO.P,J1,3,Pin_3_3*%
%TO.N,/LED1*%
X53000000Y-69960000D03*
%TO.P,J1,4,Pin_4_4*%
%TO.N,/LED2*%
X53000000Y-72500000D03*
%TO.P,J1,5,Pin_5_5*%
%TO.N,/Ch_B2*%
X53000000Y-75040000D03*
%TO.P,J1,6,Pin_6_6*%
%TO.N,/Ch_A2*%
X53000000Y-77580000D03*
%TO.P,J1,7,Pin_7_7*%
%TO.N,unconnected-(J1-Pin_7-Pad7)*%
X53000000Y-80120000D03*
%TO.P,J1,8,Pin_8_8*%
%TO.N,/PD1*%
X53000000Y-82660000D03*
%TO.P,J1,9,Pin_9_9*%
%TO.N,/Ch_B1*%
X53000000Y-85200000D03*
%TO.P,J1,10,Pin_10_10*%
%TO.N,/Ch_A1*%
X53000000Y-87740000D03*
%TO.P,J1,11,Pin_11_11*%
%TO.N,PB7*%
X53000000Y-90280000D03*
%TO.P,J1,12,Pin_12_12*%
%TO.N,/PD0*%
X53000000Y-92820000D03*
%TO.P,J1,13,Pin_13_13*%
%TO.N,/SIG_TRK*%
X53000000Y-95360000D03*
%TO.P,J1,14,Pin_14_14*%
%TO.N,/SIG_SZ*%
X53000000Y-97900000D03*
%TD*%
%TO.P,,*%
%TO.N,GND*%
X46500000Y-105500000D03*
%TD*%
%TO.P,,*%
%TO.N,GND*%
X48500000Y-105500000D03*
%TD*%
D26*
%TO.P,R3,1*%
%TO.N,Net-(D14-K)*%
X47032500Y-100825000D03*
%TO.P,R3,2*%
%TO.N,/M2_2*%
X47032500Y-99175000D03*
%TD*%
D27*
%TO.P,R5,1*%
%TO.N,Net-(D1-K)*%
X37175000Y-65750000D03*
%TO.P,R5,2*%
%TO.N,GND*%
X38825000Y-65750000D03*
%TD*%
%TO.P,R7,1*%
%TO.N,Net-(D3-K)*%
X37160000Y-78750000D03*
%TO.P,R7,2*%
%TO.N,GND*%
X38810000Y-78750000D03*
%TD*%
D28*
%TO.P,R2,1*%
%TO.N,Net-(D13-A)*%
X86500000Y-83675000D03*
%TO.P,R2,2*%
%TO.N,/M2_1*%
X86500000Y-85325000D03*
%TD*%
D29*
%TO.P,D8,1,K_1*%
%TO.N,/M2_2*%
X43032500Y-96350000D03*
%TO.P,D8,2,A_2*%
%TO.N,GND*%
X43032500Y-100650000D03*
%TD*%
D30*
%TO.P,D9,1,K_1*%
%TO.N,/VBAT*%
X38032500Y-100650000D03*
%TO.P,D9,2,A_2*%
%TO.N,/M2_2*%
X38032500Y-96350000D03*
%TD*%
D28*
%TO.P,R1,1*%
%TO.N,Net-(D12-K)*%
X88500000Y-83675000D03*
%TO.P,R1,2*%
%TO.N,/M2_1*%
X88500000Y-85325000D03*
%TD*%
D30*
%TO.P,D6,1,K_1*%
%TO.N,/VBAT*%
X83000000Y-93150000D03*
%TO.P,D6,2,A_2*%
%TO.N,/M2_1*%
X83000000Y-88850000D03*
%TD*%
D27*
%TO.P,R6,1*%
%TO.N,Net-(D2-K)*%
X37175000Y-72250000D03*
%TO.P,R6,2*%
%TO.N,GND*%
X38825000Y-72250000D03*
%TD*%
D30*
%TO.P,D4,1,K_1*%
%TO.N,/M2_1*%
X78500000Y-89150000D03*
%TO.P,D4,2,A_2*%
%TO.N,GND*%
X78500000Y-84850000D03*
%TD*%
D26*
%TO.P,R4,1*%
%TO.N,Net-(D15-A)*%
X49032500Y-100825000D03*
%TO.P,R4,2*%
%TO.N,/M2_2*%
X49032500Y-99175000D03*
%TD*%
D31*
%TO.N,Net-(D12-K)*%
X87500000Y-82675000D03*
%TO.N,/PC7*%
X71049265Y-84049265D03*
%TO.N,/PD4*%
X47250000Y-73750000D03*
%TO.N,/Ch_A1*%
X83000000Y-83500000D03*
X63250000Y-86000000D03*
X70750000Y-85750000D03*
X66500000Y-86500000D03*
%TO.N,/Ch_B1*%
X68000000Y-84150000D03*
%TO.N,Net-(D14-K)*%
X47032500Y-102000000D03*
%TO.N,/PD1*%
X68000000Y-82750000D03*
%TO.N,/PD0*%
X69750000Y-84500000D03*
X89250000Y-77900000D03*
%TO.N,Net-(D15-A)*%
X49032500Y-102000000D03*
%TO.N,Net-(D13-A)*%
X85500000Y-82675000D03*
%TO.N,/SIG_SZ*%
X73346397Y-111000000D03*
%TO.N,/SIG_TRK*%
X74500000Y-110600000D03*
%TD*%
%TO.N,/VBAT*%
D32*
X48337500Y-108500000D02*
X45500000Y-108500000D01*
X52500000Y-113825000D02*
X60620000Y-105705000D01*
X52500000Y-112662500D02*
X48337500Y-108500000D01*
X45500000Y-108500000D02*
X38032500Y-101032500D01*
X60620000Y-105705000D02*
X60620000Y-100440000D01*
X72175000Y-113825000D02*
X74675000Y-113825000D01*
X66500000Y-103500000D02*
X68500000Y-103500000D01*
X65825000Y-113825000D02*
X71000000Y-119000000D01*
X83000000Y-105500000D02*
X83000000Y-93150000D01*
X74675000Y-113825000D02*
X83000000Y-105500000D01*
X52500000Y-113825000D02*
X73175000Y-113825000D01*
X62825000Y-103500000D02*
X66500000Y-103500000D01*
D33*
X52500000Y-113825000D02*
X65825000Y-113825000D01*
X52500000Y-113825000D02*
X52500000Y-112662500D01*
D32*
X60620000Y-105705000D02*
X62825000Y-103500000D01*
X38032500Y-101032500D02*
X38032500Y-100650000D01*
D33*
X52500000Y-113825000D02*
X52675000Y-113825000D01*
%TO.N,GND*%
D34*
X56880000Y-59500000D02*
X56840000Y-59540000D01*
X73369999Y-97949999D02*
X73320000Y-97900000D01*
X54340000Y-59500000D02*
X54300000Y-59540000D01*
%TO.N,/MUX_OUTPUT*%
D35*
X72170000Y-66270000D02*
X73320000Y-67420000D01*
X72170000Y-59580000D02*
X72170000Y-66270000D01*
X72250000Y-59500000D02*
X72170000Y-59580000D01*
%TO.N,/sens_mux_A*%
X69710000Y-68890000D02*
X73320000Y-72500000D01*
X69710000Y-59500000D02*
X69710000Y-68890000D01*
%TO.N,/sens_mux_B*%
X67170000Y-68890000D02*
X73320000Y-75040000D01*
X67170000Y-59500000D02*
X67170000Y-68890000D01*
%TO.N,/sens_mux_C*%
X64630000Y-68890000D02*
X73320000Y-77580000D01*
X64630000Y-59500000D02*
X64630000Y-68890000D01*
%TO.N,/sens_mux_D*%
D34*
X61960000Y-59500000D02*
X61920000Y-59540000D01*
D35*
X62090000Y-68890000D02*
X73320000Y-80120000D01*
X62090000Y-59500000D02*
X62090000Y-68890000D01*
%TO.N,/M2_1*%
D36*
X80000000Y-89250000D02*
X79600000Y-89250000D01*
X71000000Y-100660000D02*
X70780000Y-100440000D01*
D33*
X78500000Y-108000000D02*
X74500000Y-112000000D01*
X72500000Y-112000000D02*
X71000000Y-110500000D01*
X92467500Y-89250000D02*
X80000000Y-89250000D01*
X80000000Y-89250000D02*
X78500000Y-89250000D01*
X71000000Y-110500000D02*
X71000000Y-100660000D01*
X74500000Y-112000000D02*
X72500000Y-112000000D01*
D35*
X79600000Y-89250000D02*
X79500000Y-89150000D01*
X88542500Y-85325000D02*
X92467500Y-89250000D01*
D33*
X78500000Y-89250000D02*
X78500000Y-108000000D01*
D35*
X86500000Y-85325000D02*
X88542500Y-85325000D01*
%TO.N,/M2_2*%
D33*
X63760000Y-98500000D02*
X54500000Y-98500000D01*
D36*
X43032500Y-96350000D02*
X44207500Y-96350000D01*
D33*
X65700000Y-100440000D02*
X63760000Y-98500000D01*
X42932500Y-96250000D02*
X43032500Y-96350000D01*
X54500000Y-98500000D02*
X53500000Y-99500000D01*
X53500000Y-99500000D02*
X49650000Y-99500000D01*
X49325000Y-99175000D02*
X47032500Y-99175000D01*
X33032500Y-96250000D02*
X42932500Y-96250000D01*
X44207500Y-96350000D02*
X47032500Y-99175000D01*
X49650000Y-99500000D02*
X49325000Y-99175000D01*
%TO.N,Net-(D12-K)*%
D35*
X87500000Y-82675000D02*
X88500000Y-83675000D01*
%TO.N,/PC7*%
X46730000Y-61290000D02*
X46730000Y-61766346D01*
X71049265Y-84049265D02*
X55810000Y-68810000D01*
X51790000Y-61290000D02*
X49270000Y-61290000D01*
X47643654Y-62440000D02*
X46970000Y-61766346D01*
X55810000Y-65310000D02*
X51790000Y-61290000D01*
X46730000Y-61766346D02*
X46056346Y-62440000D01*
X46056346Y-62440000D02*
X45103654Y-62440000D01*
X46970000Y-61766346D02*
X46970000Y-61290000D01*
X49270000Y-61766346D02*
X48596346Y-62440000D01*
X55810000Y-68810000D02*
X55810000Y-65310000D01*
X48596346Y-62440000D02*
X47643654Y-62440000D01*
X49270000Y-61290000D02*
X49270000Y-61766346D01*
X46970000Y-61290000D02*
X46730000Y-61290000D01*
X44430000Y-61766346D02*
X44430000Y-61290000D01*
X44430000Y-61290000D02*
X43040000Y-61290000D01*
X45103654Y-62440000D02*
X44430000Y-61766346D01*
%TO.N,adc11*%
X73320000Y-87740000D02*
X74750000Y-86310000D01*
X74750000Y-86310000D02*
X74750000Y-68000000D01*
X74750000Y-68000000D02*
X82250000Y-60500000D01*
%TO.N,/PD4*%
X72170000Y-94210000D02*
X73320000Y-95360000D01*
X47250000Y-73750000D02*
X59848529Y-73750000D01*
X59848529Y-73750000D02*
X72170000Y-86071471D01*
X72170000Y-86071471D02*
X72170000Y-94210000D01*
%TO.N,/Ch_A1*%
X84125000Y-84625000D02*
X93125000Y-84625000D01*
X83000000Y-83500000D02*
X84125000Y-84625000D01*
X93250000Y-96750000D02*
X92467500Y-96750000D01*
X54740000Y-86000000D02*
X53000000Y-87740000D01*
X93125000Y-84625000D02*
X95000000Y-86500000D01*
X63250000Y-86000000D02*
X54740000Y-86000000D01*
X95000000Y-95000000D02*
X93250000Y-96750000D01*
X95000000Y-86500000D02*
X95000000Y-95000000D01*
X70000000Y-86500000D02*
X70750000Y-85750000D01*
X66500000Y-86500000D02*
X70000000Y-86500000D01*
%TO.N,/Ch_B1*%
D34*
X54050000Y-84150000D02*
X53000000Y-85200000D01*
X68000000Y-84150000D02*
X54050000Y-84150000D01*
%TO.N,Net-(D1-K)*%
D35*
X37385000Y-65750000D02*
X33435000Y-65750000D01*
X33435000Y-65750000D02*
X31935000Y-64250000D01*
%TO.N,/LED0*%
X49830000Y-64250000D02*
X53000000Y-67420000D01*
X35000000Y-64250000D02*
X49830000Y-64250000D01*
%TO.N,Net-(D2-K)*%
X37175000Y-72250000D02*
X33960000Y-72250000D01*
X33960000Y-72250000D02*
X32460000Y-70750000D01*
%TO.N,/LED1*%
X35000000Y-70750000D02*
X52210000Y-70750000D01*
X52210000Y-70750000D02*
X53000000Y-69960000D01*
%TO.N,Net-(D14-K)*%
X47032500Y-102000000D02*
X47032500Y-100825000D01*
%TO.N,/PD1*%
X67750000Y-82750000D02*
X67660000Y-82660000D01*
X67660000Y-82660000D02*
X53000000Y-82660000D01*
X68000000Y-82750000D02*
X67750000Y-82750000D01*
%TO.N,/PD0*%
X69500000Y-84750000D02*
X65750000Y-84750000D01*
X65750000Y-84750000D02*
X57680000Y-92820000D01*
X89250000Y-77900000D02*
X92150000Y-75000000D01*
X57680000Y-92820000D02*
X53000000Y-92820000D01*
X92150000Y-75000000D02*
X92500000Y-75000000D01*
X69750000Y-84500000D02*
X69500000Y-84750000D01*
%TO.N,Net-(D15-A)*%
X49032500Y-100825000D02*
X49032500Y-102000000D01*
%TO.N,/Ch_A2*%
X33032500Y-88750000D02*
X33032500Y-88500000D01*
D34*
X51500000Y-79080000D02*
X53000000Y-77580000D01*
X44500000Y-88500000D02*
X51500000Y-81500000D01*
X51500000Y-81500000D02*
X51500000Y-79080000D01*
X33032500Y-88500000D02*
X44500000Y-88500000D01*
%TO.N,/Ch_B2*%
X41779900Y-84500000D02*
X40029900Y-86250000D01*
X40029900Y-86250000D02*
X33032500Y-86250000D01*
X53000000Y-75040000D02*
X43540000Y-84500000D01*
X43540000Y-84500000D02*
X41779900Y-84500000D01*
%TO.N,Net-(D13-A)*%
D35*
X85500000Y-82675000D02*
X86500000Y-83675000D01*
%TO.N,Net-(D3-K)*%
X37160000Y-78750000D02*
X33945000Y-78750000D01*
X33945000Y-78750000D02*
X32445000Y-77250000D01*
%TO.N,/LED2*%
X41022792Y-72500000D02*
X53000000Y-72500000D01*
X36272792Y-77250000D02*
X41022792Y-72500000D01*
X35000000Y-77250000D02*
X36272792Y-77250000D01*
%TO.N,/SIG_SZ*%
D34*
X69740000Y-97050000D02*
X53850000Y-97050000D01*
X73346397Y-111000000D02*
X73346397Y-100656397D01*
X53850000Y-97050000D02*
X53000000Y-97900000D01*
X73346397Y-100656397D02*
X69740000Y-97050000D01*
%TO.N,/SIG_TRK*%
X73796397Y-110158910D02*
X73796397Y-100470001D01*
X74500000Y-110600000D02*
X74237487Y-110600000D01*
X74237487Y-110600000D02*
X73796397Y-110158910D01*
X73796397Y-100470001D02*
X69926396Y-96600000D01*
X54240000Y-96600000D02*
X53000000Y-95360000D01*
X69926396Y-96600000D02*
X54240000Y-96600000D01*
%TD*%
%TA.AperFunction,Conductor*%
%TO.N,GND*%
G36*
X51570622Y-82416480D02*
G01*
X51626555Y-82458352D01*
X51650972Y-82523816D01*
X51649764Y-82552042D01*
X51649500Y-82553708D01*
X51649500Y-82766286D01*
X51672024Y-82908501D01*
X51682754Y-82976243D01*
X51744293Y-83165641D01*
X51748444Y-83178414D01*
X51844951Y-83367820D01*
X51969890Y-83539786D01*
X52120213Y-83690109D01*
X52292182Y-83815050D01*
X52300946Y-83819516D01*
X52351742Y-83867491D01*
X52368536Y-83935312D01*
X52345998Y-84001447D01*
X52300946Y-84040484D01*
X52292182Y-84044949D01*
X52120213Y-84169890D01*
X51969890Y-84320213D01*
X51844951Y-84492179D01*
X51748444Y-84681585D01*
X51682753Y-84883760D01*
X51649500Y-85093713D01*
X51649500Y-85306286D01*
X51680178Y-85499984D01*
X51682754Y-85516243D01*
X51736398Y-85681342D01*
X51748444Y-85718414D01*
X51844951Y-85907820D01*
X51969890Y-86079786D01*
X52120213Y-86230109D01*
X52292182Y-86355050D01*
X52300946Y-86359516D01*
X52351742Y-86407491D01*
X52368536Y-86475312D01*
X52345998Y-86541447D01*
X52300946Y-86580484D01*
X52292182Y-86584949D01*
X52120213Y-86709890D01*
X51969890Y-86860213D01*
X51844951Y-87032179D01*
X51748444Y-87221585D01*
X51682753Y-87423760D01*
X51649500Y-87633713D01*
X51649500Y-87846286D01*
X51679892Y-88038178D01*
X51682754Y-88056243D01*
X51739727Y-88231588D01*
X51748444Y-88258414D01*
X51844951Y-88447820D01*
X51969890Y-88619786D01*
X52120213Y-88770109D01*
X52292182Y-88895050D01*
X52300946Y-88899516D01*
X52351742Y-88947491D01*
X52368536Y-89015312D01*
X52345998Y-89081447D01*
X52300946Y-89120484D01*
X52292182Y-89124949D01*
X52120213Y-89249890D01*
X51969890Y-89400213D01*
X51844951Y-89572179D01*
X51748444Y-89761585D01*
X51682753Y-89963760D01*
X51676767Y-90001557D01*
X51649500Y-90173713D01*
X51649500Y-90386287D01*
X51651622Y-90399682D01*
X51674232Y-90542442D01*
X51682754Y-90596243D01*
X51730344Y-90742710D01*
X51748444Y-90798414D01*
X51844951Y-90987820D01*
X51969890Y-91159786D01*
X52120213Y-91310109D01*
X52292182Y-91435050D01*
X52300946Y-91439516D01*
X52351742Y-91487491D01*
X52368536Y-91555312D01*
X52345998Y-91621447D01*
X52300946Y-91660484D01*
X52292182Y-91664949D01*
X52120213Y-91789890D01*
X51969890Y-91940213D01*
X51844951Y-92112179D01*
X51748444Y-92301585D01*
X51682753Y-92503760D01*
X51649500Y-92713713D01*
X51649500Y-92926286D01*
X51674911Y-93086729D01*
X51682754Y-93136243D01*
X51705924Y-93207554D01*
X51748444Y-93338414D01*
X51844951Y-93527820D01*
X51969890Y-93699786D01*
X52120213Y-93850109D01*
X52292182Y-93975050D01*
X52300946Y-93979516D01*
X52351742Y-94027491D01*
X52368536Y-94095312D01*
X52345998Y-94161447D01*
X52300946Y-94200484D01*
X52292182Y-94204949D01*
X52120213Y-94329890D01*
X51969890Y-94480213D01*
X51844951Y-94652179D01*
X51748444Y-94841585D01*
X51682753Y-95043760D01*
X51658450Y-95197203D01*
X51649500Y-95253713D01*
X51649500Y-95466287D01*
X51658691Y-95524315D01*
X51680349Y-95661062D01*
X51682754Y-95676243D01*
X51745777Y-95870208D01*
X51748444Y-95878414D01*
X51844951Y-96067820D01*
X51969890Y-96239786D01*
X52120213Y-96390109D01*
X52292182Y-96515050D01*
X52300946Y-96519516D01*
X52351742Y-96567491D01*
X52368536Y-96635312D01*
X52345998Y-96701447D01*
X52300946Y-96740484D01*
X52292182Y-96744949D01*
X52120213Y-96869890D01*
X51969890Y-97020213D01*
X51844951Y-97192179D01*
X51748444Y-97381585D01*
X51682753Y-97583760D01*
X51665105Y-97695185D01*
X51649500Y-97793713D01*
X51649500Y-98006287D01*
X51654018Y-98034812D01*
X51682735Y-98216127D01*
X51682754Y-98216243D01*
X51683941Y-98219896D01*
X51748444Y-98418416D01*
X51748846Y-98419204D01*
X51748908Y-98419536D01*
X51750310Y-98422921D01*
X51749599Y-98423215D01*
X51761743Y-98487873D01*
X51735468Y-98552613D01*
X51678362Y-98592871D01*
X51638362Y-98599500D01*
X50074362Y-98599500D01*
X50007323Y-98579815D01*
X49993444Y-98569459D01*
X49989949Y-98566449D01*
X49899036Y-98475536D01*
X49839959Y-98436063D01*
X49833664Y-98431856D01*
X49833662Y-98431855D01*
X49751544Y-98376985D01*
X49751542Y-98376984D01*
X49641785Y-98331522D01*
X49587666Y-98309105D01*
X49587658Y-98309103D01*
X49413696Y-98274500D01*
X49413692Y-98274500D01*
X49413691Y-98274500D01*
X47456861Y-98274500D01*
X47389822Y-98254815D01*
X47369180Y-98238181D01*
X44781539Y-95650538D01*
X44781535Y-95650535D01*
X44738108Y-95621518D01*
X44693303Y-95567906D01*
X44682999Y-95518416D01*
X44682999Y-95299998D01*
X44682998Y-95299981D01*
X44672499Y-95197203D01*
X44672498Y-95197200D01*
X44650051Y-95129459D01*
X44617314Y-95030666D01*
X44525212Y-94881344D01*
X44401156Y-94757288D01*
X44251834Y-94665186D01*
X44085297Y-94610001D01*
X44085295Y-94610000D01*
X43982510Y-94599500D01*
X42082498Y-94599500D01*
X42082481Y-94599501D01*
X41979703Y-94610000D01*
X41979700Y-94610001D01*
X41813168Y-94665185D01*
X41813163Y-94665187D01*
X41663842Y-94757289D01*
X41539789Y-94881342D01*
X41447687Y-95030663D01*
X41447686Y-95030666D01*
X41392502Y-95197202D01*
X41392501Y-95197204D01*
X41392500Y-95197205D01*
X41388323Y-95238102D01*
X41361927Y-95302793D01*
X41304747Y-95342945D01*
X41264965Y-95349500D01*
X39800035Y-95349500D01*
X39732996Y-95329815D01*
X39687241Y-95277011D01*
X39676677Y-95238102D01*
X39674816Y-95219890D01*
X39672499Y-95197203D01*
X39617314Y-95030666D01*
X39525212Y-94881344D01*
X39401156Y-94757288D01*
X39251834Y-94665186D01*
X39085297Y-94610001D01*
X39085295Y-94610000D01*
X38982510Y-94599500D01*
X37082498Y-94599500D01*
X37082481Y-94599501D01*
X36979703Y-94610000D01*
X36979700Y-94610001D01*
X36813168Y-94665185D01*
X36813163Y-94665187D01*
X36663842Y-94757289D01*
X36539789Y-94881342D01*
X36447687Y-95030663D01*
X36447686Y-95030666D01*
X36392502Y-95197202D01*
X36392501Y-95197204D01*
X36392500Y-95197205D01*
X36388323Y-95238102D01*
X36361927Y-95302793D01*
X36304747Y-95342945D01*
X36264965Y-95349500D01*
X34218258Y-95349500D01*
X34151219Y-95329815D01*
X34130577Y-95313181D01*
X34037292Y-95219896D01*
X34006059Y-95197204D01*
X33872704Y-95100316D01*
X33830040Y-95044989D01*
X33824061Y-94975376D01*
X33856666Y-94913580D01*
X33872699Y-94899686D01*
X34037292Y-94780104D01*
X34187604Y-94629792D01*
X34187606Y-94629788D01*
X34187609Y-94629786D01*
X34312548Y-94457820D01*
X34312550Y-94457817D01*
X34312551Y-94457816D01*
X34409057Y-94268412D01*
X34474746Y-94066243D01*
X34508000Y-93856287D01*
X34508000Y-93643713D01*
X34474746Y-93433757D01*
X34409057Y-93231588D01*
X34312551Y-93042184D01*
X34312549Y-93042181D01*
X34312548Y-93042179D01*
X34187609Y-92870213D01*
X34037290Y-92719894D01*
X34037285Y-92719890D01*
X33872281Y-92600008D01*
X33829615Y-92544678D01*
X33823636Y-92475065D01*
X33856241Y-92413270D01*
X33872281Y-92399371D01*
X33880014Y-92393753D01*
X38150000Y-92393753D01*
X38150000Y-92606246D01*
X38183242Y-92816127D01*
X38183242Y-92816130D01*
X38248904Y-93018217D01*
X38345375Y-93207550D01*
X38384728Y-93261716D01*
X39017037Y-92629408D01*
X39034075Y-92692993D01*
X39099901Y-92807007D01*
X39192993Y-92900099D01*
X39307007Y-92965925D01*
X39370590Y-92982962D01*
X38738282Y-93615269D01*
X38738282Y-93615270D01*
X38792449Y-93654624D01*
X38981782Y-93751095D01*
X39183870Y-93816757D01*
X39393754Y-93850000D01*
X39606246Y-93850000D01*
X39816127Y-93816757D01*
X39816130Y-93816757D01*
X40018217Y-93751095D01*
X40207554Y-93654622D01*
X40261716Y-93615270D01*
X40261717Y-93615270D01*
X39629408Y-92982962D01*
X39692993Y-92965925D01*
X39807007Y-92900099D01*
X39900099Y-92807007D01*
X39965925Y-92692993D01*
X39982962Y-92629408D01*
X40491493Y-93137939D01*
X41025272Y-92604159D01*
X41042310Y-92667744D01*
X41108136Y-92781758D01*
X41201228Y-92874850D01*
X41315242Y-92940676D01*
X41378825Y-92957713D01*
X40746517Y-93590020D01*
X40746517Y-93590021D01*
X40800684Y-93629375D01*
X40990017Y-93725846D01*
X41192105Y-93791508D01*
X41401989Y-93824751D01*
X41614481Y-93824751D01*
X41824362Y-93791508D01*
X41824365Y-93791508D01*
X42026452Y-93725846D01*
X42215789Y-93629373D01*
X42269952Y-93590021D01*
X41637643Y-92957713D01*
X41701228Y-92940676D01*
X41815242Y-92874850D01*
X41908334Y-92781758D01*
X41974160Y-92667744D01*
X41991197Y-92604159D01*
X42516742Y-93129704D01*
X43017037Y-92629408D01*
X43034075Y-92692993D01*
X43099901Y-92807007D01*
X43192993Y-92900099D01*
X43307007Y-92965925D01*
X43370590Y-92982962D01*
X42738282Y-93615269D01*
X42738282Y-93615270D01*
X42792449Y-93654624D01*
X42981782Y-93751095D01*
X43183870Y-93816757D01*
X43393754Y-93850000D01*
X43606246Y-93850000D01*
X43816127Y-93816757D01*
X43816130Y-93816757D01*
X44018217Y-93751095D01*
X44207554Y-93654622D01*
X44261716Y-93615270D01*
X44261717Y-93615270D01*
X43629408Y-92982962D01*
X43692993Y-92965925D01*
X43807007Y-92900099D01*
X43900099Y-92807007D01*
X43965925Y-92692993D01*
X43982962Y-92629409D01*
X44615270Y-93261717D01*
X44615270Y-93261716D01*
X44654622Y-93207554D01*
X44751095Y-93018217D01*
X44816757Y-92816130D01*
X44816757Y-92816127D01*
X44850000Y-92606246D01*
X44850000Y-92393753D01*
X44816757Y-92183872D01*
X44816757Y-92183869D01*
X44751095Y-91981782D01*
X44654624Y-91792449D01*
X44615270Y-91738282D01*
X44615269Y-91738282D01*
X43982962Y-92370590D01*
X43965925Y-92307007D01*
X43900099Y-92192993D01*
X43807007Y-92099901D01*
X43692993Y-92034075D01*
X43629409Y-92017037D01*
X44261716Y-91384728D01*
X44207550Y-91345375D01*
X44018217Y-91248904D01*
X43816129Y-91183242D01*
X43606246Y-91150000D01*
X43393754Y-91150000D01*
X43183872Y-91183242D01*
X43183869Y-91183242D01*
X42981782Y-91248904D01*
X42792439Y-91345380D01*
X42738282Y-91384727D01*
X42738282Y-91384728D01*
X43370591Y-92017037D01*
X43307007Y-92034075D01*
X43192993Y-92099901D01*
X43099901Y-92192993D01*
X43034075Y-92307007D01*
X43017037Y-92370591D01*
X42491493Y-91845047D01*
X41991197Y-92345342D01*
X41974160Y-92281758D01*
X41908334Y-92167744D01*
X41815242Y-92074652D01*
X41701228Y-92008826D01*
X41637644Y-91991788D01*
X42269951Y-91359479D01*
X42215785Y-91320126D01*
X42026452Y-91223655D01*
X41824364Y-91157993D01*
X41614481Y-91124751D01*
X41401989Y-91124751D01*
X41192107Y-91157993D01*
X41192104Y-91157993D01*
X40990017Y-91223655D01*
X40800674Y-91320131D01*
X40746517Y-91359478D01*
X40746517Y-91359479D01*
X41378826Y-91991788D01*
X41315242Y-92008826D01*
X41201228Y-92074652D01*
X41108136Y-92167744D01*
X41042310Y-92281758D01*
X41025272Y-92345342D01*
X40516742Y-91836812D01*
X39982962Y-92370591D01*
X39965925Y-92307007D01*
X39900099Y-92192993D01*
X39807007Y-92099901D01*
X39692993Y-92034075D01*
X39629409Y-92017037D01*
X40261716Y-91384728D01*
X40207550Y-91345375D01*
X40018217Y-91248904D01*
X39816129Y-91183242D01*
X39606246Y-91150000D01*
X39393754Y-91150000D01*
X39183872Y-91183242D01*
X39183869Y-91183242D01*
X38981782Y-91248904D01*
X38792439Y-91345380D01*
X38738282Y-91384727D01*
X38738282Y-91384728D01*
X39370591Y-92017037D01*
X39307007Y-92034075D01*
X39192993Y-92099901D01*
X39099901Y-92192993D01*
X39034075Y-92307007D01*
X39017037Y-92370591D01*
X38384728Y-91738282D01*
X38384727Y-91738282D01*
X38345380Y-91792439D01*
X38248904Y-91981782D01*
X38183242Y-92183869D01*
X38183242Y-92183872D01*
X38150000Y-92393753D01*
X33880014Y-92393753D01*
X34024799Y-92288562D01*
X34024799Y-92288561D01*
X34036964Y-92279723D01*
X34187223Y-92129464D01*
X34187227Y-92129459D01*
X34312120Y-91957557D01*
X34408595Y-91768217D01*
X34474257Y-91566129D01*
X34474257Y-91566126D01*
X34484731Y-91500000D01*
X33436646Y-91500000D01*
X33475130Y-91433343D01*
X33507500Y-91312535D01*
X33507500Y-91187465D01*
X33475130Y-91066657D01*
X33436646Y-91000000D01*
X34484731Y-91000000D01*
X34474257Y-90933873D01*
X34474257Y-90933870D01*
X34408595Y-90731782D01*
X34312120Y-90542442D01*
X34187227Y-90370540D01*
X34187223Y-90370535D01*
X34036964Y-90220276D01*
X34036959Y-90220272D01*
X33872281Y-90100627D01*
X33829615Y-90045297D01*
X33823636Y-89975684D01*
X33856241Y-89913889D01*
X33872276Y-89899994D01*
X34037292Y-89780104D01*
X34187604Y-89629792D01*
X34187606Y-89629788D01*
X34187609Y-89629786D01*
X34312548Y-89457820D01*
X34312547Y-89457820D01*
X34312551Y-89457816D01*
X34409057Y-89268412D01*
X34427652Y-89211181D01*
X34467090Y-89153506D01*
X34531448Y-89126308D01*
X34545583Y-89125500D01*
X44561607Y-89125500D01*
X44622029Y-89113481D01*
X44682452Y-89101463D01*
X44715792Y-89087652D01*
X44796286Y-89054312D01*
X44850307Y-89018215D01*
X44898733Y-88985858D01*
X44985858Y-88898733D01*
X44985859Y-88898730D01*
X44992925Y-88891665D01*
X44992928Y-88891661D01*
X51439609Y-82444979D01*
X51500930Y-82411496D01*
X51570622Y-82416480D01*
G37*
%TD.AperFunction*%
%TA.AperFunction,Conductor*%
G36*
X69905232Y-85297244D02*
G01*
X69933423Y-85299767D01*
X69939019Y-85304114D01*
X69945966Y-85305527D01*
X69966249Y-85325266D01*
X69988601Y-85342629D01*
X69990959Y-85349313D01*
X69996038Y-85354256D01*
X70002429Y-85381826D01*
X70011846Y-85408518D01*
X70010474Y-85416529D01*
X70011817Y-85422321D01*
X70007338Y-85434844D01*
X70002586Y-85462607D01*
X69980264Y-85516499D01*
X69980261Y-85516508D01*
X69949361Y-85671850D01*
X69916976Y-85733761D01*
X69915426Y-85735339D01*
X69787582Y-85863182D01*
X69726262Y-85896666D01*
X69699903Y-85899500D01*
X67079766Y-85899500D01*
X67012727Y-85879815D01*
X67010875Y-85878602D01*
X66879185Y-85790609D01*
X66879172Y-85790602D01*
X66733501Y-85730264D01*
X66733489Y-85730261D01*
X66578845Y-85699500D01*
X66578842Y-85699500D01*
X66421158Y-85699500D01*
X66421155Y-85699500D01*
X66266510Y-85730261D01*
X66266498Y-85730264D01*
X66120827Y-85790602D01*
X66120814Y-85790609D01*
X65989711Y-85878210D01*
X65989707Y-85878213D01*
X65878213Y-85989707D01*
X65878210Y-85989711D01*
X65790609Y-86120814D01*
X65790602Y-86120827D01*
X65730264Y-86266498D01*
X65730261Y-86266510D01*
X65699500Y-86421153D01*
X65699500Y-86578846D01*
X65730261Y-86733489D01*
X65730264Y-86733501D01*
X65790602Y-86879172D01*
X65790609Y-86879185D01*
X65878210Y-87010288D01*
X65878213Y-87010292D01*
X65989707Y-87121786D01*
X65989711Y-87121789D01*
X66120814Y-87209390D01*
X66120827Y-87209397D01*
X66266498Y-87269735D01*
X66266503Y-87269737D01*
X66421153Y-87300499D01*
X66421156Y-87300500D01*
X66421158Y-87300500D01*
X66578844Y-87300500D01*
X66578845Y-87300499D01*
X66733497Y-87269737D01*
X66879179Y-87209394D01*
X66879185Y-87209390D01*
X67010875Y-87121398D01*
X67077553Y-87100520D01*
X67079766Y-87100500D01*
X69913331Y-87100500D01*
X69913347Y-87100501D01*
X69920943Y-87100501D01*
X70079054Y-87100501D01*
X70079057Y-87100501D01*
X70231785Y-87059577D01*
X70281904Y-87030639D01*
X70368716Y-86980520D01*
X70480520Y-86868716D01*
X70480520Y-86868714D01*
X70490728Y-86858507D01*
X70490729Y-86858504D01*
X70764661Y-86584572D01*
X70825983Y-86551089D01*
X70828150Y-86550638D01*
X70886085Y-86539113D01*
X70983497Y-86519737D01*
X71129179Y-86459394D01*
X71260289Y-86371789D01*
X71353006Y-86279071D01*
X71414327Y-86245588D01*
X71484019Y-86250572D01*
X71528367Y-86279073D01*
X71533181Y-86283887D01*
X71566666Y-86345210D01*
X71569500Y-86371568D01*
X71569500Y-94123330D01*
X71569499Y-94123348D01*
X71569499Y-94289054D01*
X71569498Y-94289054D01*
X71610423Y-94441787D01*
X71619679Y-94457817D01*
X71619678Y-94457817D01*
X71619680Y-94457819D01*
X71689475Y-94578709D01*
X71689481Y-94578717D01*
X71808349Y-94697585D01*
X71808355Y-94697590D01*
X71986241Y-94875476D01*
X72019726Y-94936799D01*
X72016492Y-95001473D01*
X72002753Y-95043757D01*
X71969500Y-95253713D01*
X71969500Y-95466287D01*
X71978691Y-95524315D01*
X72000349Y-95661062D01*
X72002754Y-95676243D01*
X72065777Y-95870208D01*
X72068444Y-95878414D01*
X72164951Y-96067820D01*
X72289890Y-96239786D01*
X72440213Y-96390109D01*
X72612179Y-96515048D01*
X72612181Y-96515049D01*
X72612184Y-96515051D01*
X72621493Y-96519794D01*
X72672290Y-96567766D01*
X72689087Y-96635587D01*
X72666552Y-96701722D01*
X72621505Y-96740760D01*
X72612446Y-96745376D01*
X72612440Y-96745380D01*
X72558282Y-96784727D01*
X72558282Y-96784728D01*
X73190591Y-97417037D01*
X73127007Y-97434075D01*
X73012993Y-97499901D01*
X72919901Y-97592993D01*
X72854075Y-97707007D01*
X72837037Y-97770591D01*
X72204728Y-97138282D01*
X72204727Y-97138282D01*
X72165380Y-97192439D01*
X72068904Y-97381782D01*
X72014668Y-97548707D01*
X71975231Y-97606382D01*
X71910872Y-97633581D01*
X71842026Y-97621667D01*
X71809056Y-97598070D01*
X70419546Y-96208560D01*
X70412256Y-96201270D01*
X70412254Y-96201267D01*
X70325129Y-96114142D01*
X70273905Y-96079915D01*
X70222682Y-96045688D01*
X70222679Y-96045686D01*
X70222676Y-96045685D01*
X70148999Y-96015168D01*
X70148997Y-96015167D01*
X70142188Y-96012347D01*
X70108848Y-95998537D01*
X70048425Y-95986518D01*
X70043702Y-95985578D01*
X70043700Y-95985578D01*
X69988006Y-95974500D01*
X69988003Y-95974500D01*
X69988002Y-95974500D01*
X54550452Y-95974500D01*
X54483413Y-95954815D01*
X54462771Y-95938181D01*
X54342428Y-95817838D01*
X54308943Y-95756515D01*
X54312177Y-95691841D01*
X54317246Y-95676243D01*
X54350500Y-95466287D01*
X54350500Y-95253713D01*
X54317246Y-95043757D01*
X54251557Y-94841588D01*
X54155051Y-94652184D01*
X54155049Y-94652181D01*
X54155048Y-94652179D01*
X54030109Y-94480213D01*
X53879786Y-94329890D01*
X53707820Y-94204951D01*
X53707115Y-94204591D01*
X53699054Y-94200485D01*
X53648259Y-94152512D01*
X53631463Y-94084692D01*
X53653999Y-94018556D01*
X53699054Y-93979515D01*
X53707816Y-93975051D01*
X53764497Y-93933870D01*
X53879786Y-93850109D01*
X53879788Y-93850106D01*
X53879792Y-93850104D01*
X54030104Y-93699792D01*
X54030106Y-93699788D01*
X54030109Y-93699786D01*
X54127435Y-93565826D01*
X54155051Y-93527816D01*
X54155349Y-93527230D01*
X54175235Y-93488205D01*
X54223209Y-93437409D01*
X54285719Y-93420500D01*
X57593331Y-93420500D01*
X57593347Y-93420501D01*
X57600943Y-93420501D01*
X57759054Y-93420501D01*
X57759057Y-93420501D01*
X57911785Y-93379577D01*
X57961904Y-93350639D01*
X58048716Y-93300520D01*
X58160520Y-93188716D01*
X58160520Y-93188714D01*
X58170728Y-93178507D01*
X58170729Y-93178504D01*
X65962416Y-85386819D01*
X66023739Y-85353334D01*
X66050097Y-85350500D01*
X69413331Y-85350500D01*
X69413347Y-85350501D01*
X69420943Y-85350501D01*
X69579054Y-85350501D01*
X69579057Y-85350501D01*
X69731785Y-85309577D01*
X69731786Y-85309575D01*
X69739635Y-85307473D01*
X69739720Y-85307793D01*
X69767837Y-85300948D01*
X69773095Y-85300500D01*
X69828842Y-85300500D01*
X69870610Y-85292191D01*
X69877497Y-85291605D01*
X69905232Y-85297244D01*
G37*
%TD.AperFunction*%
%TA.AperFunction,Conductor*%
G36*
X94148202Y-86497883D02*
G01*
X94154680Y-86503915D01*
X94363181Y-86712416D01*
X94396666Y-86773739D01*
X94399500Y-86800097D01*
X94399500Y-94699901D01*
X94379815Y-94766940D01*
X94363181Y-94787582D01*
X93523185Y-95627577D01*
X93461862Y-95661062D01*
X93392170Y-95656078D01*
X93362618Y-95640214D01*
X93307280Y-95600008D01*
X93264615Y-95544677D01*
X93258636Y-95475064D01*
X93291242Y-95413269D01*
X93307281Y-95399371D01*
X93471966Y-95279721D01*
X93622223Y-95129464D01*
X93622227Y-95129459D01*
X93747120Y-94957557D01*
X93843595Y-94768217D01*
X93909257Y-94566129D01*
X93909257Y-94566126D01*
X93919731Y-94500000D01*
X92871646Y-94500000D01*
X92910130Y-94433343D01*
X92942500Y-94312535D01*
X92942500Y-94187465D01*
X92910130Y-94066657D01*
X92871646Y-94000000D01*
X93919731Y-94000000D01*
X93909257Y-93933873D01*
X93909257Y-93933870D01*
X93843595Y-93731782D01*
X93747120Y-93542442D01*
X93622227Y-93370540D01*
X93622223Y-93370535D01*
X93471964Y-93220276D01*
X93471959Y-93220272D01*
X93307281Y-93100627D01*
X93264615Y-93045297D01*
X93258636Y-92975684D01*
X93291241Y-92913889D01*
X93307276Y-92899994D01*
X93472292Y-92780104D01*
X93622604Y-92629792D01*
X93622606Y-92629788D01*
X93622609Y-92629786D01*
X93735247Y-92474751D01*
X93747551Y-92457816D01*
X93844057Y-92268412D01*
X93909746Y-92066243D01*
X93943000Y-91856287D01*
X93943000Y-91643713D01*
X93909746Y-91433757D01*
X93844057Y-91231588D01*
X93747551Y-91042184D01*
X93747549Y-91042181D01*
X93747548Y-91042179D01*
X93622609Y-90870213D01*
X93472292Y-90719896D01*
X93472284Y-90719890D01*
X93307704Y-90600316D01*
X93265040Y-90544989D01*
X93259061Y-90475376D01*
X93291666Y-90413580D01*
X93307699Y-90399686D01*
X93472292Y-90280104D01*
X93622604Y-90129792D01*
X93622606Y-90129788D01*
X93622609Y-90129786D01*
X93747548Y-89957820D01*
X93747547Y-89957820D01*
X93747551Y-89957816D01*
X93844057Y-89768412D01*
X93909746Y-89566243D01*
X93943000Y-89356287D01*
X93943000Y-89143713D01*
X93909746Y-88933757D01*
X93844057Y-88731588D01*
X93747551Y-88542184D01*
X93747549Y-88542181D01*
X93747548Y-88542179D01*
X93622609Y-88370213D01*
X93483794Y-88231398D01*
X93450309Y-88170075D01*
X93455293Y-88100383D01*
X93497165Y-88044450D01*
X93506379Y-88038178D01*
X93511831Y-88034814D01*
X93511834Y-88034814D01*
X93661156Y-87942712D01*
X93785212Y-87818656D01*
X93877314Y-87669334D01*
X93932499Y-87502797D01*
X93943000Y-87400009D01*
X93942999Y-86591595D01*
X93962683Y-86524557D01*
X94015487Y-86478802D01*
X94084646Y-86468858D01*
X94148202Y-86497883D01*
G37*
%TD.AperFunction*%
%TA.AperFunction,Conductor*%
G36*
X87534075Y-92192993D02*
G01*
X87599901Y-92307007D01*
X87692993Y-92400099D01*
X87807007Y-92465925D01*
X87870591Y-92482962D01*
X86982962Y-93370591D01*
X86965925Y-93307007D01*
X86900099Y-93192993D01*
X86807007Y-93099901D01*
X86692993Y-93034075D01*
X86629408Y-93017037D01*
X87517037Y-92129408D01*
X87534075Y-92192993D01*
G37*
%TD.AperFunction*%
%TA.AperFunction,Conductor*%
G36*
X98971455Y-55944496D02*
G01*
X99017210Y-55997300D01*
X99028416Y-56048811D01*
X99028416Y-126799811D01*
X99008731Y-126866850D01*
X98955927Y-126912605D01*
X98904416Y-126923811D01*
X26153416Y-126923811D01*
X26086377Y-126904126D01*
X26040622Y-126851322D01*
X26029416Y-126799811D01*
X26029416Y-124374038D01*
X26899500Y-124374038D01*
X26899500Y-124625961D01*
X26938910Y-124874785D01*
X27016760Y-125114383D01*
X27131132Y-125338848D01*
X27279201Y-125542649D01*
X27279205Y-125542654D01*
X27457345Y-125720794D01*
X27457350Y-125720798D01*
X27635117Y-125849952D01*
X27661155Y-125868870D01*
X27804184Y-125941747D01*
X27885616Y-125983239D01*
X27885618Y-125983239D01*
X27885621Y-125983241D01*
X28125215Y-126061090D01*
X28374038Y-126100500D01*
X28374039Y-126100500D01*
X28625961Y-126100500D01*
X28625962Y-126100500D01*
X28874785Y-126061090D01*
X29114379Y-125983241D01*
X29338845Y-125868870D01*
X29542656Y-125720793D01*
X29720793Y-125542656D01*
X29868870Y-125338845D01*
X29983241Y-125114379D01*
X30061090Y-124874785D01*
X30100500Y-124625962D01*
X30100500Y-124374038D01*
X30061090Y-124125215D01*
X29983241Y-123885621D01*
X29983239Y-123885618D01*
X29983239Y-123885616D01*
X29930414Y-123781942D01*
X29928877Y-123778927D01*
X29904209Y-123730513D01*
X43299500Y-123730513D01*
X43299500Y-123919486D01*
X43329059Y-124106118D01*
X43387454Y-124285836D01*
X43432396Y-124374038D01*
X43473240Y-124454199D01*
X43584310Y-124607073D01*
X43717927Y-124740690D01*
X43870801Y-124851760D01*
X43950347Y-124892290D01*
X44039163Y-124937545D01*
X44039165Y-124937545D01*
X44039168Y-124937547D01*
X44135497Y-124968846D01*
X44218881Y-124995940D01*
X44405514Y-125025500D01*
X44405519Y-125025500D01*
X44594486Y-125025500D01*
X44781118Y-124995940D01*
X44960832Y-124937547D01*
X45129199Y-124851760D01*
X45282073Y-124740690D01*
X45415690Y-124607073D01*
X45526760Y-124454199D01*
X45612547Y-124285832D01*
X45670940Y-124106118D01*
X45700500Y-123919486D01*
X45700500Y-123730513D01*
X54299500Y-123730513D01*
X54299500Y-123919486D01*
X54329059Y-124106118D01*
X54387454Y-124285836D01*
X54432396Y-124374038D01*
X54473240Y-124454199D01*
X54584310Y-124607073D01*
X54717927Y-124740690D01*
X54870801Y-124851760D01*
X54950347Y-124892290D01*
X55039163Y-124937545D01*
X55039165Y-124937545D01*
X55039168Y-124937547D01*
X55135497Y-124968846D01*
X55218881Y-124995940D01*
X55405514Y-125025500D01*
X55405519Y-125025500D01*
X55594486Y-125025500D01*
X55781118Y-124995940D01*
X55960832Y-124937547D01*
X56129199Y-124851760D01*
X56282073Y-124740690D01*
X56415690Y-124607073D01*
X56526760Y-124454199D01*
X56567604Y-124374038D01*
X94899500Y-124374038D01*
X94899500Y-124625961D01*
X94938910Y-124874785D01*
X95016760Y-125114383D01*
X95131132Y-125338848D01*
X95279201Y-125542649D01*
X95279205Y-125542654D01*
X95457345Y-125720794D01*
X95457350Y-125720798D01*
X95635117Y-125849952D01*
X95661155Y-125868870D01*
X95804184Y-125941747D01*
X95885616Y-125983239D01*
X95885618Y-125983239D01*
X95885621Y-125983241D01*
X96125215Y-126061090D01*
X96374038Y-126100500D01*
X96374039Y-126100500D01*
X96625961Y-126100500D01*
X96625962Y-126100500D01*
X96874785Y-126061090D01*
X97114379Y-125983241D01*
X97338845Y-125868870D01*
X97542656Y-125720793D01*
X97720793Y-125542656D01*
X97868870Y-125338845D01*
X97983241Y-125114379D01*
X98061090Y-124874785D01*
X98100500Y-124625962D01*
X98100500Y-124374038D01*
X98061090Y-124125215D01*
X97983241Y-123885621D01*
X97983239Y-123885618D01*
X97983239Y-123885616D01*
X97930414Y-123781942D01*
X97868870Y-123661155D01*
X97849952Y-123635117D01*
X97720798Y-123457350D01*
X97720794Y-123457345D01*
X97542654Y-123279205D01*
X97542649Y-123279201D01*
X97338848Y-123131132D01*
X97338847Y-123131131D01*
X97338845Y-123131130D01*
X97268747Y-123095413D01*
X97114383Y-123016760D01*
X96874785Y-122938910D01*
X96625962Y-122899500D01*
X96374038Y-122899500D01*
X96312101Y-122909310D01*
X96125214Y-122938910D01*
X95885616Y-123016760D01*
X95661151Y-123131132D01*
X95457350Y-123279201D01*
X95457345Y-123279205D01*
X95279205Y-123457345D01*
X95279201Y-123457350D01*
X95131132Y-123661151D01*
X95016760Y-123885616D01*
X94938910Y-124125214D01*
X94899500Y-124374038D01*
X56567604Y-124374038D01*
X56612547Y-124285832D01*
X56670940Y-124106118D01*
X56700500Y-123919486D01*
X56700500Y-123730513D01*
X56670940Y-123543881D01*
X56612545Y-123364163D01*
X56526759Y-123195800D01*
X56415690Y-123042927D01*
X56282073Y-122909310D01*
X56129199Y-122798240D01*
X55960836Y-122712454D01*
X55781118Y-122654059D01*
X55594486Y-122624500D01*
X55594481Y-122624500D01*
X55405519Y-122624500D01*
X55405514Y-122624500D01*
X55218881Y-122654059D01*
X55039163Y-122712454D01*
X54870800Y-122798240D01*
X54783579Y-122861610D01*
X54717927Y-122909310D01*
X54717925Y-122909312D01*
X54717924Y-122909312D01*
X54584312Y-123042924D01*
X54584312Y-123042925D01*
X54584310Y-123042927D01*
X54536610Y-123108579D01*
X54473240Y-123195800D01*
X54387454Y-123364163D01*
X54329059Y-123543881D01*
X54299500Y-123730513D01*
X45700500Y-123730513D01*
X45670940Y-123543881D01*
X45612545Y-123364163D01*
X45526759Y-123195800D01*
X45415690Y-123042927D01*
X45282073Y-122909310D01*
X45129199Y-122798240D01*
X44960836Y-122712454D01*
X44781118Y-122654059D01*
X44594486Y-122624500D01*
X44594481Y-122624500D01*
X44405519Y-122624500D01*
X44405514Y-122624500D01*
X44218881Y-122654059D01*
X44039163Y-122712454D01*
X43870800Y-122798240D01*
X43783579Y-122861610D01*
X43717927Y-122909310D01*
X43717925Y-122909312D01*
X43717924Y-122909312D01*
X43584312Y-123042924D01*
X43584312Y-123042925D01*
X43584310Y-123042927D01*
X43536610Y-123108579D01*
X43473240Y-123195800D01*
X43387454Y-123364163D01*
X43329059Y-123543881D01*
X43299500Y-123730513D01*
X29904209Y-123730513D01*
X29868870Y-123661155D01*
X29849952Y-123635117D01*
X29720798Y-123457350D01*
X29720794Y-123457345D01*
X29542654Y-123279205D01*
X29542649Y-123279201D01*
X29338848Y-123131132D01*
X29338847Y-123131131D01*
X29338845Y-123131130D01*
X29268747Y-123095413D01*
X29114383Y-123016760D01*
X28874785Y-122938910D01*
X28625962Y-122899500D01*
X28374038Y-122899500D01*
X28312101Y-122909310D01*
X28125214Y-122938910D01*
X27885616Y-123016760D01*
X27661151Y-123131132D01*
X27457350Y-123279201D01*
X27457345Y-123279205D01*
X27279205Y-123457345D01*
X27279201Y-123457350D01*
X27131132Y-123661151D01*
X27016760Y-123885616D01*
X26938910Y-124125214D01*
X26899500Y-124374038D01*
X26029416Y-124374038D01*
X26029416Y-112779773D01*
X45250000Y-112779773D01*
X45250000Y-113575000D01*
X46581116Y-113575000D01*
X46550000Y-113731433D01*
X46550000Y-113918567D01*
X46581116Y-114075000D01*
X45250001Y-114075000D01*
X45250001Y-114870227D01*
X45260566Y-115004474D01*
X45316423Y-115226152D01*
X45410962Y-115434287D01*
X45410967Y-115434296D01*
X45541151Y-115622203D01*
X45702796Y-115783848D01*
X45890703Y-115914032D01*
X45890712Y-115914037D01*
X46098847Y-116008576D01*
X46320525Y-116064433D01*
X46454780Y-116074999D01*
X47249999Y-116074999D01*
X47250000Y-116074998D01*
X47250000Y-114743883D01*
X47406433Y-114775000D01*
X47593567Y-114775000D01*
X47750000Y-114743883D01*
X47750000Y-116074999D01*
X48545212Y-116074999D01*
X48545227Y-116074998D01*
X48679474Y-116064433D01*
X48901152Y-116008576D01*
X49109287Y-115914037D01*
X49109296Y-115914032D01*
X49297203Y-115783848D01*
X49458848Y-115622203D01*
X49589032Y-115434296D01*
X49589037Y-115434287D01*
X49683576Y-115226152D01*
X49739433Y-115004474D01*
X49749999Y-114870226D01*
X49750000Y-114870213D01*
X49750000Y-114075000D01*
X48418884Y-114075000D01*
X48450000Y-113918567D01*
X48450000Y-113731433D01*
X48418884Y-113575000D01*
X49749999Y-113575000D01*
X49749999Y-112779787D01*
X49749998Y-112779772D01*
X49739433Y-112645525D01*
X49683576Y-112423847D01*
X49589037Y-112215712D01*
X49589032Y-112215703D01*
X49458848Y-112027796D01*
X49297203Y-111866151D01*
X49109296Y-111735967D01*
X49109287Y-111735962D01*
X48901152Y-111641423D01*
X48679474Y-111585566D01*
X48545226Y-111575000D01*
X47750000Y-111575000D01*
X47750000Y-112906116D01*
X47593567Y-112875000D01*
X47406433Y-112875000D01*
X47250000Y-112906116D01*
X47250000Y-111575000D01*
X46454787Y-111575000D01*
X46454772Y-111575001D01*
X46320525Y-111585566D01*
X46098847Y-111641423D01*
X45890712Y-111735962D01*
X45890703Y-111735967D01*
X45702796Y-111866151D01*
X45541151Y-112027796D01*
X45410967Y-112215703D01*
X45410962Y-112215712D01*
X45316423Y-112423847D01*
X45260566Y-112645525D01*
X45250000Y-112779773D01*
X26029416Y-112779773D01*
X26029416Y-81388575D01*
X40800000Y-81388575D01*
X40800000Y-81611424D01*
X40829085Y-81832354D01*
X40829088Y-81832367D01*
X40886763Y-82047618D01*
X40972045Y-82253502D01*
X40972054Y-82253520D01*
X41083464Y-82446491D01*
X41083473Y-82446504D01*
X41134040Y-82512403D01*
X41134043Y-82512403D01*
X41935387Y-81711058D01*
X41940889Y-81731591D01*
X42019881Y-81868408D01*
X42131592Y-81980119D01*
X42268409Y-82059111D01*
X42288940Y-82064612D01*
X41487595Y-82865955D01*
X41487595Y-82865956D01*
X41553507Y-82916533D01*
X41746485Y-83027949D01*
X41746497Y-83027954D01*
X41952381Y-83113236D01*
X42167632Y-83170911D01*
X42167645Y-83170914D01*
X42388575Y-83200000D01*
X42611425Y-83200000D01*
X42832354Y-83170914D01*
X42832367Y-83170911D01*
X43047618Y-83113236D01*
X43253502Y-83027954D01*
X43253514Y-83027949D01*
X43446498Y-82916530D01*
X43512403Y-82865957D01*
X43512404Y-82865956D01*
X42711059Y-82064612D01*
X42731591Y-82059111D01*
X42868408Y-81980119D01*
X42980119Y-81868408D01*
X43059111Y-81731591D01*
X43064612Y-81711059D01*
X43865956Y-82512404D01*
X43865957Y-82512403D01*
X43916530Y-82446498D01*
X44027949Y-82253514D01*
X44027954Y-82253502D01*
X44113236Y-82047618D01*
X44170911Y-81832367D01*
X44170914Y-81832354D01*
X44200000Y-81611424D01*
X44200000Y-81388575D01*
X44170914Y-81167645D01*
X44170911Y-81167632D01*
X44113236Y-80952381D01*
X44027954Y-80746497D01*
X44027949Y-80746485D01*
X43916533Y-80553507D01*
X43865956Y-80487595D01*
X43865955Y-80487595D01*
X43064612Y-81288939D01*
X43059111Y-81268409D01*
X42980119Y-81131592D01*
X42868408Y-81019881D01*
X42731591Y-80940889D01*
X42711058Y-80935387D01*
X43512403Y-80134043D01*
X43512403Y-80134040D01*
X43446504Y-80083473D01*
X43446491Y-80083464D01*
X43253520Y-79972054D01*
X43253502Y-79972045D01*
X43047618Y-79886763D01*
X42832367Y-79829088D01*
X42832354Y-79829085D01*
X42611425Y-79800000D01*
X42388575Y-79800000D01*
X42167645Y-79829085D01*
X42167632Y-79829088D01*
X41952381Y-79886763D01*
X41746497Y-79972045D01*
X41746479Y-79972054D01*
X41553511Y-80083462D01*
X41487595Y-80134042D01*
X42288941Y-80935387D01*
X42268409Y-80940889D01*
X42131592Y-81019881D01*
X42019881Y-81131592D01*
X41940889Y-81268409D01*
X41935387Y-81288940D01*
X41134042Y-80487595D01*
X41083462Y-80553511D01*
X40972054Y-80746479D01*
X40972045Y-80746497D01*
X40886763Y-80952381D01*
X40829088Y-81167632D01*
X40829085Y-81167645D01*
X40800000Y-81388575D01*
X26029416Y-81388575D01*
X26029416Y-63302135D01*
X31059500Y-63302135D01*
X31059500Y-65197870D01*
X31059501Y-65197876D01*
X31065908Y-65257483D01*
X31116202Y-65392328D01*
X31116206Y-65392335D01*
X31202452Y-65507544D01*
X31202455Y-65507547D01*
X31317664Y-65593793D01*
X31317671Y-65593797D01*
X31452517Y-65644091D01*
X31452516Y-65644091D01*
X31459444Y-65644835D01*
X31512127Y-65650500D01*
X32434902Y-65650499D01*
X32501941Y-65670183D01*
X32522583Y-65686818D01*
X32950139Y-66114374D01*
X32950149Y-66114385D01*
X32954479Y-66118715D01*
X32954480Y-66118716D01*
X33066284Y-66230520D01*
X33066286Y-66230521D01*
X33066290Y-66230524D01*
X33125917Y-66264949D01*
X33203216Y-66309577D01*
X33315019Y-66339534D01*
X33355942Y-66350500D01*
X33355943Y-66350500D01*
X36283285Y-66350500D01*
X36350324Y-66370185D01*
X36389401Y-66410349D01*
X36419342Y-66459877D01*
X36419530Y-66460188D01*
X36539811Y-66580469D01*
X36539813Y-66580470D01*
X36539815Y-66580472D01*
X36685394Y-66668478D01*
X36847804Y-66719086D01*
X36918384Y-66725500D01*
X36918387Y-66725500D01*
X37431613Y-66725500D01*
X37431616Y-66725500D01*
X37502196Y-66719086D01*
X37664606Y-66668478D01*
X37810185Y-66580472D01*
X37912673Y-66477983D01*
X37973994Y-66444499D01*
X38043685Y-66449483D01*
X38088034Y-66477984D01*
X38190122Y-66580072D01*
X38335604Y-66668019D01*
X38335603Y-66668019D01*
X38497894Y-66718590D01*
X38497893Y-66718590D01*
X38568408Y-66724998D01*
X38568426Y-66724999D01*
X39075000Y-66724999D01*
X39081581Y-66724999D01*
X39152102Y-66718591D01*
X39152107Y-66718590D01*
X39314396Y-66668018D01*
X39459877Y-66580072D01*
X39580072Y-66459877D01*
X39668019Y-66314395D01*
X39718590Y-66152106D01*
X39725000Y-66081572D01*
X39725000Y-66000000D01*
X39075000Y-66000000D01*
X39075000Y-66724999D01*
X38568426Y-66724999D01*
X38574999Y-66724998D01*
X38575000Y-66724998D01*
X38575000Y-65874000D01*
X38594685Y-65806961D01*
X38647489Y-65761206D01*
X38699000Y-65750000D01*
X38825000Y-65750000D01*
X38825000Y-65624000D01*
X38844685Y-65556961D01*
X38897489Y-65511206D01*
X38949000Y-65500000D01*
X39724999Y-65500000D01*
X39724999Y-65418417D01*
X39718591Y-65347897D01*
X39718590Y-65347892D01*
X39668018Y-65185603D01*
X39579182Y-65038650D01*
X39561346Y-64971096D01*
X39582863Y-64904622D01*
X39636904Y-64860334D01*
X39685299Y-64850500D01*
X49529903Y-64850500D01*
X49596942Y-64870185D01*
X49617584Y-64886819D01*
X51666241Y-66935476D01*
X51699726Y-66996799D01*
X51696492Y-67061473D01*
X51682753Y-67103757D01*
X51649500Y-67313713D01*
X51649500Y-67526286D01*
X51682753Y-67736239D01*
X51748444Y-67938414D01*
X51844951Y-68127820D01*
X51969890Y-68299786D01*
X52120213Y-68450109D01*
X52292182Y-68575050D01*
X52300946Y-68579516D01*
X52351742Y-68627491D01*
X52368536Y-68695312D01*
X52345998Y-68761447D01*
X52300946Y-68800484D01*
X52292182Y-68804949D01*
X52120213Y-68929890D01*
X51969890Y-69080213D01*
X51844951Y-69252179D01*
X51748444Y-69441585D01*
X51682753Y-69643760D01*
X51649500Y-69853713D01*
X51649500Y-70025500D01*
X51629815Y-70092539D01*
X51577011Y-70138294D01*
X51525500Y-70149500D01*
X36341836Y-70149500D01*
X36274797Y-70129815D01*
X36231352Y-70081796D01*
X36197814Y-70015976D01*
X36068247Y-69837641D01*
X36068243Y-69837636D01*
X35912363Y-69681756D01*
X35912358Y-69681752D01*
X35734025Y-69552187D01*
X35734024Y-69552186D01*
X35734022Y-69552185D01*
X35616791Y-69492452D01*
X35537606Y-69452104D01*
X35537603Y-69452103D01*
X35327952Y-69383985D01*
X35219086Y-69366742D01*
X35110222Y-69349500D01*
X34889778Y-69349500D01*
X34817201Y-69360995D01*
X34672047Y-69383985D01*
X34462396Y-69452103D01*
X34462393Y-69452104D01*
X34265974Y-69552187D01*
X34087641Y-69681752D01*
X34087636Y-69681756D01*
X34037463Y-69731929D01*
X33976140Y-69765413D01*
X33906448Y-69760428D01*
X33850515Y-69718557D01*
X33833601Y-69687580D01*
X33803797Y-69607671D01*
X33803793Y-69607664D01*
X33717547Y-69492455D01*
X33717544Y-69492452D01*
X33602335Y-69406206D01*
X33602328Y-69406202D01*
X33467482Y-69355908D01*
X33467483Y-69355908D01*
X33407883Y-69349501D01*
X33407881Y-69349500D01*
X33407873Y-69349500D01*
X33407864Y-69349500D01*
X31512129Y-69349500D01*
X31512123Y-69349501D01*
X31452516Y-69355908D01*
X31317671Y-69406202D01*
X31317664Y-69406206D01*
X31202455Y-69492452D01*
X31202452Y-69492455D01*
X31116206Y-69607664D01*
X31116202Y-69607671D01*
X31065908Y-69742517D01*
X31059501Y-69802116D01*
X31059500Y-69802135D01*
X31059500Y-71697870D01*
X31059501Y-71697876D01*
X31065908Y-71757483D01*
X31116202Y-71892328D01*
X31116206Y-71892335D01*
X31202452Y-72007544D01*
X31202455Y-72007547D01*
X31317664Y-72093793D01*
X31317671Y-72093797D01*
X31452517Y-72144091D01*
X31452516Y-72144091D01*
X31459444Y-72144835D01*
X31512127Y-72150500D01*
X32959902Y-72150499D01*
X33026941Y-72170184D01*
X33047583Y-72186818D01*
X33475139Y-72614374D01*
X33475149Y-72614385D01*
X33479479Y-72618715D01*
X33479480Y-72618716D01*
X33591284Y-72730520D01*
X33591286Y-72730521D01*
X33591290Y-72730524D01*
X33671023Y-72776557D01*
X33728216Y-72809577D01*
X33840019Y-72839534D01*
X33880942Y-72850500D01*
X33880943Y-72850500D01*
X36283285Y-72850500D01*
X36350324Y-72870185D01*
X36389401Y-72910349D01*
X36419528Y-72960185D01*
X36419530Y-72960188D01*
X36539811Y-73080469D01*
X36539813Y-73080470D01*
X36539815Y-73080472D01*
X36685394Y-73168478D01*
X36847804Y-73219086D01*
X36918384Y-73225500D01*
X36918387Y-73225500D01*
X37431613Y-73225500D01*
X37431616Y-73225500D01*
X37502196Y-73219086D01*
X37664606Y-73168478D01*
X37810185Y-73080472D01*
X37912673Y-72977983D01*
X37973994Y-72944499D01*
X38043685Y-72949483D01*
X38088034Y-72977984D01*
X38190122Y-73080072D01*
X38335604Y-73168019D01*
X38335603Y-73168019D01*
X38497894Y-73218590D01*
X38497893Y-73218590D01*
X38568408Y-73224998D01*
X38568426Y-73224999D01*
X38574999Y-73224998D01*
X38575000Y-73224998D01*
X38575000Y-72374000D01*
X38594685Y-72306961D01*
X38647489Y-72261206D01*
X38699000Y-72250000D01*
X38825000Y-72250000D01*
X38825000Y-72124000D01*
X38844685Y-72056961D01*
X38897489Y-72011206D01*
X38949000Y-72000000D01*
X39724999Y-72000000D01*
X39724999Y-71918417D01*
X39718591Y-71847897D01*
X39718590Y-71847892D01*
X39668018Y-71685603D01*
X39579182Y-71538650D01*
X39561346Y-71471096D01*
X39582863Y-71404622D01*
X39636904Y-71360334D01*
X39685299Y-71350500D01*
X51940242Y-71350500D01*
X52007281Y-71370185D01*
X52053036Y-71422989D01*
X52062980Y-71492147D01*
X52033955Y-71555703D01*
X52027923Y-71562181D01*
X51969894Y-71620209D01*
X51969890Y-71620213D01*
X51844948Y-71792184D01*
X51844947Y-71792185D01*
X51824765Y-71831795D01*
X51776791Y-71882591D01*
X51714281Y-71899500D01*
X40943732Y-71899500D01*
X40902811Y-71910464D01*
X40902811Y-71910465D01*
X40873134Y-71918417D01*
X40791006Y-71940423D01*
X40791001Y-71940426D01*
X40654082Y-72019475D01*
X40654074Y-72019481D01*
X40542270Y-72131286D01*
X39930483Y-72743072D01*
X39869160Y-72776557D01*
X39799468Y-72771573D01*
X39743535Y-72729701D01*
X39719118Y-72664237D01*
X39719311Y-72644168D01*
X39725000Y-72581569D01*
X39725000Y-72500000D01*
X39075000Y-72500000D01*
X39075000Y-73224999D01*
X39081581Y-73224999D01*
X39144169Y-73219312D01*
X39212715Y-73232849D01*
X39263060Y-73281296D01*
X39279221Y-73349271D01*
X39256067Y-73415192D01*
X39243071Y-73430484D01*
X36283545Y-76390010D01*
X36222222Y-76423495D01*
X36152530Y-76418511D01*
X36096597Y-76376639D01*
X36095546Y-76375215D01*
X36068243Y-76337636D01*
X35912363Y-76181756D01*
X35912358Y-76181752D01*
X35734025Y-76052187D01*
X35734024Y-76052186D01*
X35734022Y-76052185D01*
X35671096Y-76020122D01*
X35537606Y-75952104D01*
X35537603Y-75952103D01*
X35327952Y-75883985D01*
X35219086Y-75866742D01*
X35110222Y-75849500D01*
X34889778Y-75849500D01*
X34817201Y-75860995D01*
X34672047Y-75883985D01*
X34462396Y-75952103D01*
X34462393Y-75952104D01*
X34265974Y-76052187D01*
X34087641Y-76181752D01*
X34087636Y-76181756D01*
X34037463Y-76231929D01*
X33976140Y-76265413D01*
X33906448Y-76260428D01*
X33850515Y-76218557D01*
X33833601Y-76187580D01*
X33803797Y-76107671D01*
X33803793Y-76107664D01*
X33717547Y-75992455D01*
X33717544Y-75992452D01*
X33602335Y-75906206D01*
X33602328Y-75906202D01*
X33467482Y-75855908D01*
X33467483Y-75855908D01*
X33407883Y-75849501D01*
X33407881Y-75849500D01*
X33407873Y-75849500D01*
X33407864Y-75849500D01*
X31512129Y-75849500D01*
X31512123Y-75849501D01*
X31452516Y-75855908D01*
X31317671Y-75906202D01*
X31317664Y-75906206D01*
X31202455Y-75992452D01*
X31202452Y-75992455D01*
X31116206Y-76107664D01*
X31116202Y-76107671D01*
X31065908Y-76242517D01*
X31059501Y-76302116D01*
X31059500Y-76302135D01*
X31059500Y-78197870D01*
X31059501Y-78197876D01*
X31065908Y-78257483D01*
X31116202Y-78392328D01*
X31116206Y-78392335D01*
X31202452Y-78507544D01*
X31202455Y-78507547D01*
X31317664Y-78593793D01*
X31317671Y-78593797D01*
X31452517Y-78644091D01*
X31452516Y-78644091D01*
X31459444Y-78644835D01*
X31512127Y-78650500D01*
X32944902Y-78650499D01*
X33011941Y-78670184D01*
X33032583Y-78686818D01*
X33460139Y-79114374D01*
X33460149Y-79114385D01*
X33464479Y-79118715D01*
X33464480Y-79118716D01*
X33576284Y-79230520D01*
X33576286Y-79230521D01*
X33576290Y-79230524D01*
X33696758Y-79300075D01*
X33713216Y-79309577D01*
X33825019Y-79339534D01*
X33865942Y-79350500D01*
X33865943Y-79350500D01*
X36268285Y-79350500D01*
X36335324Y-79370185D01*
X36374401Y-79410349D01*
X36404342Y-79459877D01*
X36404530Y-79460188D01*
X36524811Y-79580469D01*
X36524813Y-79580470D01*
X36524815Y-79580472D01*
X36670394Y-79668478D01*
X36832804Y-79719086D01*
X36903384Y-79725500D01*
X36903387Y-79725500D01*
X37416613Y-79725500D01*
X37416616Y-79725500D01*
X37487196Y-79719086D01*
X37649606Y-79668478D01*
X37795185Y-79580472D01*
X37897673Y-79477983D01*
X37958994Y-79444499D01*
X38028685Y-79449483D01*
X38073034Y-79477984D01*
X38175122Y-79580072D01*
X38320604Y-79668019D01*
X38320603Y-79668019D01*
X38482894Y-79718590D01*
X38482893Y-79718590D01*
X38553408Y-79724998D01*
X38553426Y-79724999D01*
X39060000Y-79724999D01*
X39066581Y-79724999D01*
X39137102Y-79718591D01*
X39137107Y-79718590D01*
X39299396Y-79668018D01*
X39444877Y-79580072D01*
X39565072Y-79459877D01*
X39653019Y-79314395D01*
X39703590Y-79152106D01*
X39710000Y-79081572D01*
X39710000Y-79000000D01*
X39060000Y-79000000D01*
X39060000Y-79724999D01*
X38553426Y-79724999D01*
X38559999Y-79724998D01*
X38560000Y-79724998D01*
X38560000Y-78500000D01*
X39060000Y-78500000D01*
X39709999Y-78500000D01*
X39709999Y-78418417D01*
X39703591Y-78347897D01*
X39703590Y-78347892D01*
X39653018Y-78185603D01*
X39565072Y-78040122D01*
X39444877Y-77919927D01*
X39299395Y-77831980D01*
X39299396Y-77831980D01*
X39137105Y-77781409D01*
X39137106Y-77781409D01*
X39066572Y-77775000D01*
X39060000Y-77775000D01*
X39060000Y-78500000D01*
X38560000Y-78500000D01*
X38560000Y-77775000D01*
X38559999Y-77774999D01*
X38553436Y-77775000D01*
X38553417Y-77775001D01*
X38482897Y-77781408D01*
X38482892Y-77781409D01*
X38320603Y-77831981D01*
X38175122Y-77919927D01*
X38175121Y-77919928D01*
X38073035Y-78022015D01*
X38011712Y-78055500D01*
X37942020Y-78050516D01*
X37897673Y-78022015D01*
X37795188Y-77919530D01*
X37756673Y-77896247D01*
X37649606Y-77831522D01*
X37487196Y-77780914D01*
X37487194Y-77780913D01*
X37487192Y-77780913D01*
X37437778Y-77776423D01*
X37416616Y-77774500D01*
X36903384Y-77774500D01*
X36902325Y-77774548D01*
X36902129Y-77774500D01*
X36900574Y-77774500D01*
X36900574Y-77774118D01*
X36834463Y-77757918D01*
X36786365Y-77707240D01*
X36773301Y-77638602D01*
X36799419Y-77573798D01*
X36809022Y-77563003D01*
X41235208Y-73136819D01*
X41296531Y-73103334D01*
X41322889Y-73100500D01*
X46489241Y-73100500D01*
X46556280Y-73120185D01*
X46602035Y-73172989D01*
X46611979Y-73242147D01*
X46592343Y-73293391D01*
X46540609Y-73370815D01*
X46540602Y-73370827D01*
X46480264Y-73516498D01*
X46480261Y-73516510D01*
X46449500Y-73671153D01*
X46449500Y-73828846D01*
X46480261Y-73983489D01*
X46480264Y-73983501D01*
X46540602Y-74129172D01*
X46540609Y-74129185D01*
X46628210Y-74260288D01*
X46628213Y-74260292D01*
X46739707Y-74371786D01*
X46739711Y-74371789D01*
X46870814Y-74459390D01*
X46870827Y-74459397D01*
X47009784Y-74516954D01*
X47016503Y-74519737D01*
X47171153Y-74550499D01*
X47171156Y-74550500D01*
X47171158Y-74550500D01*
X47328844Y-74550500D01*
X47328845Y-74550499D01*
X47483497Y-74519737D01*
X47629179Y-74459394D01*
X47683663Y-74422989D01*
X47760875Y-74371398D01*
X47827553Y-74350520D01*
X47829766Y-74350500D01*
X51633731Y-74350500D01*
X51700770Y-74370185D01*
X51746525Y-74422989D01*
X51756469Y-74492147D01*
X51749687Y-74516868D01*
X51749949Y-74516954D01*
X51748443Y-74521586D01*
X51748443Y-74521588D01*
X51717507Y-74616799D01*
X51682753Y-74723760D01*
X51652719Y-74913389D01*
X51649500Y-74933713D01*
X51649500Y-75146287D01*
X51653032Y-75168584D01*
X51682753Y-75356241D01*
X51687821Y-75371837D01*
X51689816Y-75441678D01*
X51657571Y-75497837D01*
X43317229Y-83838181D01*
X43255906Y-83871666D01*
X43229548Y-83874500D01*
X41718289Y-83874500D01*
X41597455Y-83898535D01*
X41597441Y-83898539D01*
X41558501Y-83914668D01*
X41558502Y-83914669D01*
X41483613Y-83945688D01*
X41483614Y-83945689D01*
X41381168Y-84014140D01*
X41354825Y-84040484D01*
X41294042Y-84101267D01*
X41294039Y-84101270D01*
X40545706Y-84849604D01*
X39807129Y-85588181D01*
X39745806Y-85621666D01*
X39719448Y-85624500D01*
X34430481Y-85624500D01*
X34363442Y-85604815D01*
X34319997Y-85556797D01*
X34312549Y-85542180D01*
X34187609Y-85370213D01*
X34037286Y-85219890D01*
X33865320Y-85094951D01*
X33675914Y-84998444D01*
X33675913Y-84998443D01*
X33675912Y-84998443D01*
X33473743Y-84932754D01*
X33473741Y-84932753D01*
X33473740Y-84932753D01*
X33312457Y-84907208D01*
X33263787Y-84899500D01*
X32801213Y-84899500D01*
X32752542Y-84907208D01*
X32591260Y-84932753D01*
X32389085Y-84998444D01*
X32199679Y-85094951D01*
X32027713Y-85219890D01*
X31877390Y-85370213D01*
X31752451Y-85542179D01*
X31655944Y-85731585D01*
X31590253Y-85933760D01*
X31567125Y-86079786D01*
X31557000Y-86143713D01*
X31557000Y-86356287D01*
X31562191Y-86389061D01*
X31587853Y-86551089D01*
X31590254Y-86566243D01*
X31644598Y-86733497D01*
X31655944Y-86768414D01*
X31752451Y-86957820D01*
X31877390Y-87129786D01*
X32027709Y-87280105D01*
X32027714Y-87280109D01*
X32192293Y-87399682D01*
X32234959Y-87455011D01*
X32240938Y-87524625D01*
X32208333Y-87586420D01*
X32192293Y-87600318D01*
X32027714Y-87719890D01*
X32027709Y-87719894D01*
X31877390Y-87870213D01*
X31752451Y-88042179D01*
X31655944Y-88231585D01*
X31590253Y-88433760D01*
X31560790Y-88619786D01*
X31557000Y-88643713D01*
X31557000Y-88856287D01*
X31590254Y-89066243D01*
X31609770Y-89126308D01*
X31655944Y-89268414D01*
X31752451Y-89457820D01*
X31877390Y-89629786D01*
X32027709Y-89780105D01*
X32027714Y-89780109D01*
X32192718Y-89899991D01*
X32235384Y-89955320D01*
X32241363Y-90024934D01*
X32208758Y-90086729D01*
X32192718Y-90100627D01*
X32028040Y-90220272D01*
X32028035Y-90220276D01*
X31877776Y-90370535D01*
X31877772Y-90370540D01*
X31752879Y-90542442D01*
X31656404Y-90731782D01*
X31590742Y-90933870D01*
X31590742Y-90933873D01*
X31580269Y-91000000D01*
X32628354Y-91000000D01*
X32589870Y-91066657D01*
X32557500Y-91187465D01*
X32557500Y-91312535D01*
X32589870Y-91433343D01*
X32628354Y-91500000D01*
X31580269Y-91500000D01*
X31590742Y-91566126D01*
X31590742Y-91566129D01*
X31656404Y-91768217D01*
X31752879Y-91957557D01*
X31877772Y-92129459D01*
X31877776Y-92129464D01*
X32028035Y-92279723D01*
X32028040Y-92279727D01*
X32192718Y-92399372D01*
X32235384Y-92454701D01*
X32241363Y-92524315D01*
X32208758Y-92586110D01*
X32192718Y-92600008D01*
X32027714Y-92719890D01*
X32027709Y-92719894D01*
X31877390Y-92870213D01*
X31752451Y-93042179D01*
X31655944Y-93231585D01*
X31590253Y-93433760D01*
X31557000Y-93643713D01*
X31557000Y-93856286D01*
X31575810Y-93975051D01*
X31590254Y-94066243D01*
X31653767Y-94261716D01*
X31655944Y-94268414D01*
X31752451Y-94457820D01*
X31877390Y-94629786D01*
X32027709Y-94780105D01*
X32027714Y-94780109D01*
X32192293Y-94899682D01*
X32234959Y-94955011D01*
X32240938Y-95024625D01*
X32208333Y-95086420D01*
X32192293Y-95100318D01*
X32027714Y-95219890D01*
X32027709Y-95219894D01*
X31877390Y-95370213D01*
X31752451Y-95542179D01*
X31655944Y-95731585D01*
X31590253Y-95933760D01*
X31557000Y-96143713D01*
X31557000Y-96356286D01*
X31582145Y-96515049D01*
X31590254Y-96566243D01*
X31648459Y-96745380D01*
X31655944Y-96768414D01*
X31752451Y-96957820D01*
X31877390Y-97129786D01*
X32016205Y-97268601D01*
X32049690Y-97329924D01*
X32044706Y-97399616D01*
X32002834Y-97455549D01*
X31993621Y-97461821D01*
X31838842Y-97557289D01*
X31714789Y-97681342D01*
X31622687Y-97830663D01*
X31622685Y-97830668D01*
X31603959Y-97887181D01*
X31567501Y-97997203D01*
X31567501Y-97997204D01*
X31567500Y-97997204D01*
X31557000Y-98099983D01*
X31557000Y-99400001D01*
X31557001Y-99400018D01*
X31567500Y-99502796D01*
X31567501Y-99502799D01*
X31621119Y-99664606D01*
X31622686Y-99669334D01*
X31714788Y-99818656D01*
X31838844Y-99942712D01*
X31988166Y-100034814D01*
X32154703Y-100089999D01*
X32257491Y-100100500D01*
X33807508Y-100100499D01*
X33910297Y-100089999D01*
X34076834Y-100034814D01*
X34226156Y-99942712D01*
X34350212Y-99818656D01*
X34442314Y-99669334D01*
X34497499Y-99502797D01*
X34508000Y-99400009D01*
X34507999Y-98099992D01*
X34497499Y-97997203D01*
X34442314Y-97830666D01*
X34350212Y-97681344D01*
X34226156Y-97557288D01*
X34076834Y-97465186D01*
X34076833Y-97465185D01*
X34071378Y-97461821D01*
X34024654Y-97409873D01*
X34013431Y-97340910D01*
X34041275Y-97276828D01*
X34048772Y-97268623D01*
X34130579Y-97186816D01*
X34191901Y-97153334D01*
X34218258Y-97150500D01*
X36258001Y-97150500D01*
X36325040Y-97170185D01*
X36370795Y-97222989D01*
X36382001Y-97274500D01*
X36382001Y-97400018D01*
X36392500Y-97502796D01*
X36392501Y-97502799D01*
X36447685Y-97669331D01*
X36447687Y-97669336D01*
X36467826Y-97701987D01*
X36539788Y-97818656D01*
X36663844Y-97942712D01*
X36813166Y-98034814D01*
X36979703Y-98089999D01*
X37082491Y-98100500D01*
X38982508Y-98100499D01*
X39085297Y-98089999D01*
X39251834Y-98034814D01*
X39401156Y-97942712D01*
X39525212Y-97818656D01*
X39617314Y-97669334D01*
X39672499Y-97502797D01*
X39683000Y-97400009D01*
X39683000Y-97274500D01*
X39702685Y-97207461D01*
X39755489Y-97161706D01*
X39807000Y-97150500D01*
X41258001Y-97150500D01*
X41325040Y-97170185D01*
X41370795Y-97222989D01*
X41382001Y-97274500D01*
X41382001Y-97400018D01*
X41392500Y-97502796D01*
X41392501Y-97502799D01*
X41447685Y-97669331D01*
X41447687Y-97669336D01*
X41467826Y-97701987D01*
X41539788Y-97818656D01*
X41663844Y-97942712D01*
X41813166Y-98034814D01*
X41979703Y-98089999D01*
X42082491Y-98100500D01*
X43982508Y-98100499D01*
X44085297Y-98089999D01*
X44251834Y-98034814D01*
X44395368Y-97946281D01*
X44462756Y-97927843D01*
X44529420Y-97948765D01*
X44548142Y-97964141D01*
X46031489Y-99447488D01*
X46062194Y-99498279D01*
X46063413Y-99502193D01*
X46063414Y-99502196D01*
X46114022Y-99664606D01*
X46195746Y-99799794D01*
X46202030Y-99810188D01*
X46304161Y-99912319D01*
X46337646Y-99973642D01*
X46332662Y-100043334D01*
X46304161Y-100087681D01*
X46202031Y-100189810D01*
X46202030Y-100189811D01*
X46114022Y-100335393D01*
X46063413Y-100497807D01*
X46057000Y-100568384D01*
X46057000Y-101081613D01*
X46063413Y-101152192D01*
X46063413Y-101152194D01*
X46063414Y-101152196D01*
X46114022Y-101314606D01*
X46138616Y-101355290D01*
X46202030Y-101460188D01*
X46276105Y-101534263D01*
X46309590Y-101595586D01*
X46304606Y-101665278D01*
X46302985Y-101669396D01*
X46262764Y-101766498D01*
X46262761Y-101766510D01*
X46232000Y-101921153D01*
X46232000Y-102078846D01*
X46262761Y-102233489D01*
X46262764Y-102233501D01*
X46323102Y-102379172D01*
X46323109Y-102379185D01*
X46410710Y-102510288D01*
X46410713Y-102510292D01*
X46522207Y-102621786D01*
X46522211Y-102621789D01*
X46653314Y-102709390D01*
X46653327Y-102709397D01*
X46798998Y-102769735D01*
X46799003Y-102769737D01*
X46911826Y-102792179D01*
X46953653Y-102800499D01*
X46953656Y-102800500D01*
X46953658Y-102800500D01*
X47111344Y-102800500D01*
X47111345Y-102800499D01*
X47265997Y-102769737D01*
X47411679Y-102709394D01*
X47542789Y-102621789D01*
X47654289Y-102510289D01*
X47741894Y-102379179D01*
X47802237Y-102233497D01*
X47833000Y-102078842D01*
X47833000Y-101921158D01*
X47833000Y-101921155D01*
X47832999Y-101921153D01*
X47821429Y-101862986D01*
X47802237Y-101766503D01*
X47762013Y-101669395D01*
X47754545Y-101599926D01*
X47785820Y-101537447D01*
X47788867Y-101534289D01*
X47862972Y-101460185D01*
X47926384Y-101355288D01*
X47977911Y-101308102D01*
X48046771Y-101296264D01*
X48111099Y-101323533D01*
X48138615Y-101355287D01*
X48165765Y-101400199D01*
X48202030Y-101460188D01*
X48276105Y-101534263D01*
X48309590Y-101595586D01*
X48304606Y-101665278D01*
X48302985Y-101669396D01*
X48262764Y-101766498D01*
X48262761Y-101766510D01*
X48232000Y-101921153D01*
X48232000Y-102078846D01*
X48262761Y-102233489D01*
X48262764Y-102233501D01*
X48323102Y-102379172D01*
X48323109Y-102379185D01*
X48410710Y-102510288D01*
X48410713Y-102510292D01*
X48522207Y-102621786D01*
X48522211Y-102621789D01*
X48653314Y-102709390D01*
X48653327Y-102709397D01*
X48798998Y-102769735D01*
X48799003Y-102769737D01*
X48911826Y-102792179D01*
X48953653Y-102800499D01*
X48953656Y-102800500D01*
X48953658Y-102800500D01*
X49111344Y-102800500D01*
X49111345Y-102800499D01*
X49265997Y-102769737D01*
X49411679Y-102709394D01*
X49542789Y-102621789D01*
X49654289Y-102510289D01*
X49741894Y-102379179D01*
X49802237Y-102233497D01*
X49833000Y-102078842D01*
X49833000Y-101921158D01*
X49833000Y-101921155D01*
X49832999Y-101921153D01*
X49821429Y-101862986D01*
X49802237Y-101766503D01*
X49762013Y-101669395D01*
X49754545Y-101599926D01*
X49784343Y-101539062D01*
X49786541Y-101536615D01*
X49862972Y-101460185D01*
X49950978Y-101314606D01*
X50001586Y-101152196D01*
X50008000Y-101081616D01*
X50008000Y-100568384D01*
X50005032Y-100535721D01*
X50018569Y-100467175D01*
X50067016Y-100416830D01*
X50128523Y-100400500D01*
X53588693Y-100400500D01*
X53588694Y-100400499D01*
X53762666Y-100365895D01*
X53844606Y-100331953D01*
X53926547Y-100298013D01*
X54002281Y-100247408D01*
X54007756Y-100244496D01*
X54036135Y-100238643D01*
X54063786Y-100229986D01*
X54069937Y-100231673D01*
X54076186Y-100230385D01*
X54103224Y-100240804D01*
X54131166Y-100248470D01*
X54135429Y-100253215D01*
X54141382Y-100255510D01*
X54158495Y-100278894D01*
X54177856Y-100300448D01*
X54179468Y-100307553D01*
X54182645Y-100311894D01*
X54183444Y-100325074D01*
X54190000Y-100353966D01*
X54190000Y-100546246D01*
X54223242Y-100756127D01*
X54223242Y-100756130D01*
X54288904Y-100958217D01*
X54385375Y-101147550D01*
X54424728Y-101201716D01*
X55057036Y-100569407D01*
X55074075Y-100632993D01*
X55139901Y-100747007D01*
X55232993Y-100840099D01*
X55347007Y-100905925D01*
X55410590Y-100922962D01*
X54778282Y-101555269D01*
X54778282Y-101555270D01*
X54832449Y-101594624D01*
X55021782Y-101691095D01*
X55223870Y-101756757D01*
X55433754Y-101790000D01*
X55646246Y-101790000D01*
X55856127Y-101756757D01*
X55856130Y-101756757D01*
X56058217Y-101691095D01*
X56247554Y-101594622D01*
X56301716Y-101555270D01*
X56301717Y-101555270D01*
X55669408Y-100922962D01*
X55732993Y-100905925D01*
X55847007Y-100840099D01*
X55940099Y-100747007D01*
X56005925Y-100632993D01*
X56022962Y-100569409D01*
X56655270Y-101201717D01*
X56655270Y-101201716D01*
X56694622Y-101147555D01*
X56699232Y-101138507D01*
X56747205Y-101087709D01*
X56815025Y-101070912D01*
X56881161Y-101093447D01*
X56920204Y-101138504D01*
X56924949Y-101147817D01*
X57049890Y-101319786D01*
X57200213Y-101470109D01*
X57372179Y-101595048D01*
X57372181Y-101595049D01*
X57372184Y-101595051D01*
X57561588Y-101691557D01*
X57763757Y-101757246D01*
X57973713Y-101790500D01*
X57973714Y-101790500D01*
X58186286Y-101790500D01*
X58186287Y-101790500D01*
X58396243Y-101757246D01*
X58598412Y-101691557D01*
X58787816Y-101595051D01*
X58874138Y-101532335D01*
X58959786Y-101470109D01*
X58959788Y-101470106D01*
X58959792Y-101470104D01*
X59110104Y-101319792D01*
X59110106Y-101319788D01*
X59110109Y-101319786D01*
X59235048Y-101147820D01*
X59235050Y-101147817D01*
X59235051Y-101147816D01*
X59239514Y-101139054D01*
X59287488Y-101088259D01*
X59355308Y-101071463D01*
X59421444Y-101093999D01*
X59460486Y-101139056D01*
X59464951Y-101147820D01*
X59592759Y-101323734D01*
X59591888Y-101324366D01*
X59618357Y-101383401D01*
X59619500Y-101400199D01*
X59619500Y-105239217D01*
X59599815Y-105306256D01*
X59583181Y-105326898D01*
X53272235Y-111637843D01*
X53210912Y-111671328D01*
X53152461Y-111669937D01*
X53032683Y-111637843D01*
X52939993Y-111613007D01*
X52939987Y-111613006D01*
X52939986Y-111613006D01*
X52895851Y-111607195D01*
X52831955Y-111578927D01*
X52824357Y-111571937D01*
X49118979Y-107866559D01*
X49118959Y-107866537D01*
X48975285Y-107722863D01*
X48975281Y-107722860D01*
X48811420Y-107613371D01*
X48811411Y-107613366D01*
X48720326Y-107575638D01*
X48682665Y-107560038D01*
X48629336Y-107537949D01*
X48629332Y-107537948D01*
X48629328Y-107537946D01*
X48532688Y-107518724D01*
X48436044Y-107499500D01*
X48436041Y-107499500D01*
X45965783Y-107499500D01*
X45898744Y-107479815D01*
X45878102Y-107463181D01*
X43808674Y-105393753D01*
X45150000Y-105393753D01*
X45150000Y-105606246D01*
X45183242Y-105816127D01*
X45183242Y-105816130D01*
X45248904Y-106018217D01*
X45345375Y-106207550D01*
X45384728Y-106261716D01*
X46017037Y-105629408D01*
X46034075Y-105692993D01*
X46099901Y-105807007D01*
X46192993Y-105900099D01*
X46307007Y-105965925D01*
X46370590Y-105982962D01*
X45738282Y-106615269D01*
X45738282Y-106615270D01*
X45792449Y-106654624D01*
X45981782Y-106751095D01*
X46183870Y-106816757D01*
X46393754Y-106850000D01*
X46606246Y-106850000D01*
X46816127Y-106816757D01*
X46816130Y-106816757D01*
X47018217Y-106751095D01*
X47207554Y-106654622D01*
X47261716Y-106615270D01*
X47261717Y-106615270D01*
X46629408Y-105982962D01*
X46692993Y-105965925D01*
X46807007Y-105900099D01*
X46900099Y-105807007D01*
X46965925Y-105692993D01*
X46982962Y-105629408D01*
X47500000Y-106146446D01*
X48017037Y-105629408D01*
X48034075Y-105692993D01*
X48099901Y-105807007D01*
X48192993Y-105900099D01*
X48307007Y-105965925D01*
X48370590Y-105982962D01*
X47738282Y-106615269D01*
X47738282Y-106615270D01*
X47792449Y-106654624D01*
X47981782Y-106751095D01*
X48183870Y-106816757D01*
X48393754Y-106850000D01*
X48606246Y-106850000D01*
X48816127Y-106816757D01*
X48816130Y-106816757D01*
X49018217Y-106751095D01*
X49207554Y-106654622D01*
X49261716Y-106615270D01*
X49261717Y-106615270D01*
X48629408Y-105982962D01*
X48692993Y-105965925D01*
X48807007Y-105900099D01*
X48900099Y-105807007D01*
X48965925Y-105692993D01*
X48982962Y-105629408D01*
X49500000Y-106146446D01*
X50017037Y-105629408D01*
X50034075Y-105692993D01*
X50099901Y-105807007D01*
X50192993Y-105900099D01*
X50307007Y-105965925D01*
X50370590Y-105982962D01*
X49738282Y-106615269D01*
X49738282Y-106615270D01*
X49792449Y-106654624D01*
X49981782Y-106751095D01*
X50183870Y-106816757D01*
X50393754Y-106850000D01*
X50606246Y-106850000D01*
X50816127Y-106816757D01*
X50816130Y-106816757D01*
X51018217Y-106751095D01*
X51207554Y-106654622D01*
X51261716Y-106615270D01*
X51261717Y-106615270D01*
X50629408Y-105982962D01*
X50692993Y-105965925D01*
X50807007Y-105900099D01*
X50900099Y-105807007D01*
X50965925Y-105692993D01*
X50982962Y-105629408D01*
X51615270Y-106261717D01*
X51615270Y-106261716D01*
X51654622Y-106207554D01*
X51751095Y-106018217D01*
X51816757Y-105816130D01*
X51816757Y-105816127D01*
X51850000Y-105606246D01*
X51850000Y-105393753D01*
X51816757Y-105183872D01*
X51816757Y-105183869D01*
X51751095Y-104981782D01*
X51654624Y-104792449D01*
X51615270Y-104738282D01*
X51615269Y-104738282D01*
X50982962Y-105370590D01*
X50965925Y-105307007D01*
X50900099Y-105192993D01*
X50807007Y-105099901D01*
X50692993Y-105034075D01*
X50629409Y-105017037D01*
X51261716Y-104384728D01*
X51207550Y-104345375D01*
X51018217Y-104248904D01*
X50816129Y-104183242D01*
X50606246Y-104150000D01*
X50393754Y-104150000D01*
X50183872Y-104183242D01*
X50183869Y-104183242D01*
X49981782Y-104248904D01*
X49792439Y-104345380D01*
X49738282Y-104384727D01*
X49738282Y-104384728D01*
X50370591Y-105017037D01*
X50307007Y-105034075D01*
X50192993Y-105099901D01*
X50099901Y-105192993D01*
X50034075Y-105307007D01*
X50017037Y-105370591D01*
X49500000Y-104853554D01*
X48982962Y-105370591D01*
X48965925Y-105307007D01*
X48900099Y-105192993D01*
X48807007Y-105099901D01*
X48692993Y-105034075D01*
X48629409Y-105017037D01*
X49261716Y-104384728D01*
X49207550Y-104345375D01*
X49018217Y-104248904D01*
X48816129Y-104183242D01*
X48606246Y-104150000D01*
X48393754Y-104150000D01*
X48183872Y-104183242D01*
X48183869Y-104183242D01*
X47981782Y-104248904D01*
X47792439Y-104345380D01*
X47738282Y-104384727D01*
X47738282Y-104384728D01*
X48370591Y-105017037D01*
X48307007Y-105034075D01*
X48192993Y-105099901D01*
X48099901Y-105192993D01*
X48034075Y-105307007D01*
X48017037Y-105370591D01*
X47500000Y-104853554D01*
X46982962Y-105370591D01*
X46965925Y-105307007D01*
X46900099Y-105192993D01*
X46807007Y-105099901D01*
X46692993Y-105034075D01*
X46629409Y-105017037D01*
X47261716Y-104384728D01*
X47207550Y-104345375D01*
X47018217Y-104248904D01*
X46816129Y-104183242D01*
X46606246Y-104150000D01*
X46393754Y-104150000D01*
X46183872Y-104183242D01*
X46183869Y-104183242D01*
X45981782Y-104248904D01*
X45792439Y-104345380D01*
X45738282Y-104384727D01*
X45738282Y-104384728D01*
X46370591Y-105017037D01*
X46307007Y-105034075D01*
X46192993Y-105099901D01*
X46099901Y-105192993D01*
X46034075Y-105307007D01*
X46017037Y-105370591D01*
X45384728Y-104738282D01*
X45384727Y-104738282D01*
X45345380Y-104792439D01*
X45248904Y-104981782D01*
X45183242Y-105183869D01*
X45183242Y-105183872D01*
X45150000Y-105393753D01*
X43808674Y-105393753D01*
X40114907Y-101699986D01*
X41382501Y-101699986D01*
X41392994Y-101802697D01*
X41448141Y-101969119D01*
X41448143Y-101969124D01*
X41540184Y-102118345D01*
X41664154Y-102242315D01*
X41813375Y-102334356D01*
X41813380Y-102334358D01*
X41979802Y-102389505D01*
X41979809Y-102389506D01*
X42082519Y-102399999D01*
X42782499Y-102399999D01*
X43282500Y-102399999D01*
X43982472Y-102399999D01*
X43982486Y-102399998D01*
X44085197Y-102389505D01*
X44251619Y-102334358D01*
X44251624Y-102334356D01*
X44400845Y-102242315D01*
X44524815Y-102118345D01*
X44616856Y-101969124D01*
X44616858Y-101969119D01*
X44672005Y-101802697D01*
X44672006Y-101802690D01*
X44682499Y-101699986D01*
X44682500Y-101699973D01*
X44682500Y-100900000D01*
X43282500Y-100900000D01*
X43282500Y-102399999D01*
X42782499Y-102399999D01*
X42782500Y-102399998D01*
X42782500Y-100900000D01*
X41382501Y-100900000D01*
X41382501Y-101699986D01*
X40114907Y-101699986D01*
X39719318Y-101304397D01*
X39685833Y-101243074D01*
X39682999Y-101216716D01*
X39682999Y-99600013D01*
X41382500Y-99600013D01*
X41382500Y-100400000D01*
X42782500Y-100400000D01*
X43282500Y-100400000D01*
X44682499Y-100400000D01*
X44682499Y-99600028D01*
X44682498Y-99600013D01*
X44672005Y-99497302D01*
X44616858Y-99330880D01*
X44616856Y-99330875D01*
X44524815Y-99181654D01*
X44400845Y-99057684D01*
X44251624Y-98965643D01*
X44251619Y-98965641D01*
X44085197Y-98910494D01*
X44085190Y-98910493D01*
X43982486Y-98900000D01*
X43282500Y-98900000D01*
X43282500Y-100400000D01*
X42782500Y-100400000D01*
X42782500Y-98900000D01*
X42082528Y-98900000D01*
X42082512Y-98900001D01*
X41979802Y-98910494D01*
X41813380Y-98965641D01*
X41813375Y-98965643D01*
X41664154Y-99057684D01*
X41540184Y-99181654D01*
X41448143Y-99330875D01*
X41448141Y-99330880D01*
X41392994Y-99497302D01*
X41392993Y-99497309D01*
X41382500Y-99600013D01*
X39682999Y-99600013D01*
X39682999Y-99599998D01*
X39682998Y-99599981D01*
X39672499Y-99497203D01*
X39672498Y-99497200D01*
X39617314Y-99330666D01*
X39525212Y-99181344D01*
X39401156Y-99057288D01*
X39251834Y-98965186D01*
X39085297Y-98910001D01*
X39085295Y-98910000D01*
X38982510Y-98899500D01*
X37082498Y-98899500D01*
X37082481Y-98899501D01*
X36979703Y-98910000D01*
X36979700Y-98910001D01*
X36813168Y-98965185D01*
X36813163Y-98965187D01*
X36663842Y-99057289D01*
X36539789Y-99181342D01*
X36447687Y-99330663D01*
X36447685Y-99330668D01*
X36441405Y-99349620D01*
X36392501Y-99497203D01*
X36392501Y-99497204D01*
X36392500Y-99497204D01*
X36382000Y-99599983D01*
X36382000Y-101700001D01*
X36382001Y-101700018D01*
X36392500Y-101802796D01*
X36392501Y-101802799D01*
X36429515Y-101914499D01*
X36447686Y-101969334D01*
X36539788Y-102118656D01*
X36663844Y-102242712D01*
X36813166Y-102334814D01*
X36979703Y-102389999D01*
X37082491Y-102400500D01*
X37934217Y-102400499D01*
X38001256Y-102420183D01*
X38021897Y-102436817D01*
X44722860Y-109137781D01*
X44722861Y-109137782D01*
X44862218Y-109277139D01*
X44862219Y-109277140D01*
X45026079Y-109386628D01*
X45026092Y-109386635D01*
X45154833Y-109439961D01*
X45197744Y-109457735D01*
X45208164Y-109462051D01*
X45304812Y-109481275D01*
X45353135Y-109490887D01*
X45401458Y-109500500D01*
X45401459Y-109500500D01*
X45401460Y-109500500D01*
X45598540Y-109500500D01*
X47871718Y-109500500D01*
X47938757Y-109520185D01*
X47959399Y-109536819D01*
X50708435Y-112285855D01*
X50741920Y-112347178D01*
X50736936Y-112416870D01*
X50719130Y-112449022D01*
X50624761Y-112572006D01*
X50477258Y-112827489D01*
X50477254Y-112827499D01*
X50364364Y-113100038D01*
X50364361Y-113100048D01*
X50288008Y-113385004D01*
X50288006Y-113385015D01*
X50249500Y-113677486D01*
X50249500Y-113972513D01*
X50266562Y-114102105D01*
X50288007Y-114264993D01*
X50341003Y-114462778D01*
X50364361Y-114549951D01*
X50364364Y-114549961D01*
X50477254Y-114822500D01*
X50477258Y-114822510D01*
X50624761Y-115077993D01*
X50804352Y-115312040D01*
X50804358Y-115312047D01*
X51012952Y-115520641D01*
X51012959Y-115520647D01*
X51247006Y-115700238D01*
X51502489Y-115847741D01*
X51502490Y-115847741D01*
X51502493Y-115847743D01*
X51775048Y-115960639D01*
X52060007Y-116036993D01*
X52338415Y-116073646D01*
X52348688Y-116074999D01*
X52352494Y-116075500D01*
X52352501Y-116075500D01*
X52647499Y-116075500D01*
X52647506Y-116075500D01*
X52939993Y-116036993D01*
X53224952Y-115960639D01*
X53497507Y-115847743D01*
X53752994Y-115700238D01*
X53987042Y-115520646D01*
X54195646Y-115312042D01*
X54375238Y-115077994D01*
X54485219Y-114887499D01*
X54535785Y-114839285D01*
X54592606Y-114825500D01*
X65359218Y-114825500D01*
X65426257Y-114845185D01*
X65446899Y-114861819D01*
X68011240Y-117426160D01*
X68044725Y-117487483D01*
X68039741Y-117557175D01*
X67997869Y-117613108D01*
X67979854Y-117624326D01*
X67792180Y-117719951D01*
X67620213Y-117844890D01*
X67469894Y-117995209D01*
X67469890Y-117995214D01*
X67350318Y-118159793D01*
X67294989Y-118202459D01*
X67225375Y-118208438D01*
X67163580Y-118175833D01*
X67149682Y-118159793D01*
X67030109Y-117995214D01*
X67030105Y-117995209D01*
X66879786Y-117844890D01*
X66707820Y-117719951D01*
X66518414Y-117623444D01*
X66518413Y-117623443D01*
X66518412Y-117623443D01*
X66316243Y-117557754D01*
X66316241Y-117557753D01*
X66316240Y-117557753D01*
X66154957Y-117532208D01*
X66106287Y-117524500D01*
X65893713Y-117524500D01*
X65845042Y-117532208D01*
X65683760Y-117557753D01*
X65481585Y-117623444D01*
X65292179Y-117719951D01*
X65120215Y-117844889D01*
X64981035Y-117984069D01*
X64919712Y-118017553D01*
X64850020Y-118012569D01*
X64794087Y-117970697D01*
X64787815Y-117961484D01*
X64692315Y-117806654D01*
X64568345Y-117682684D01*
X64419124Y-117590643D01*
X64419119Y-117590641D01*
X64252697Y-117535494D01*
X64252690Y-117535493D01*
X64149986Y-117525000D01*
X63750000Y-117525000D01*
X63750000Y-118595854D01*
X63683343Y-118557370D01*
X63562535Y-118525000D01*
X63437465Y-118525000D01*
X63316657Y-118557370D01*
X63250000Y-118595854D01*
X63250000Y-117525000D01*
X62850028Y-117525000D01*
X62850012Y-117525001D01*
X62747302Y-117535494D01*
X62580880Y-117590641D01*
X62580875Y-117590643D01*
X62431654Y-117682684D01*
X62307684Y-117806654D01*
X62215643Y-117955875D01*
X62215641Y-117955880D01*
X62160494Y-118122302D01*
X62160493Y-118122309D01*
X62150000Y-118225013D01*
X62150000Y-118750000D01*
X63095854Y-118750000D01*
X63057370Y-118816657D01*
X63025000Y-118937465D01*
X63025000Y-119062535D01*
X63057370Y-119183343D01*
X63095854Y-119250000D01*
X62150001Y-119250000D01*
X62150001Y-119774986D01*
X62160494Y-119877697D01*
X62215641Y-120044119D01*
X62215643Y-120044124D01*
X62307684Y-120193345D01*
X62431654Y-120317315D01*
X62580875Y-120409356D01*
X62580880Y-120409358D01*
X62747302Y-120464505D01*
X62747309Y-120464506D01*
X62850019Y-120474999D01*
X63249999Y-120474999D01*
X63250000Y-120474998D01*
X63250000Y-119404145D01*
X63316657Y-119442630D01*
X63437465Y-119475000D01*
X63562535Y-119475000D01*
X63683343Y-119442630D01*
X63750000Y-119404145D01*
X63750000Y-120474999D01*
X64149972Y-120474999D01*
X64149986Y-120474998D01*
X64252697Y-120464505D01*
X64419119Y-120409358D01*
X64419124Y-120409356D01*
X64568345Y-120317315D01*
X64692317Y-120193343D01*
X64787815Y-120038516D01*
X64839763Y-119991791D01*
X64908725Y-119980568D01*
X64972808Y-120008412D01*
X64981035Y-120015931D01*
X65120213Y-120155109D01*
X65292179Y-120280048D01*
X65292181Y-120280049D01*
X65292184Y-120280051D01*
X65481588Y-120376557D01*
X65683757Y-120442246D01*
X65893713Y-120475500D01*
X65893714Y-120475500D01*
X66106286Y-120475500D01*
X66106287Y-120475500D01*
X66316243Y-120442246D01*
X66518412Y-120376557D01*
X66707816Y-120280051D01*
X66729789Y-120264086D01*
X66879786Y-120155109D01*
X66879788Y-120155106D01*
X66879792Y-120155104D01*
X67030104Y-120004792D01*
X67149683Y-119840204D01*
X67205011Y-119797540D01*
X67274624Y-119791561D01*
X67336420Y-119824166D01*
X67350313Y-119840199D01*
X67377557Y-119877697D01*
X67469896Y-120004792D01*
X67620213Y-120155109D01*
X67792179Y-120280048D01*
X67792181Y-120280049D01*
X67792184Y-120280051D01*
X67981588Y-120376557D01*
X68183757Y-120442246D01*
X68393713Y-120475500D01*
X68393714Y-120475500D01*
X68606286Y-120475500D01*
X68606287Y-120475500D01*
X68816243Y-120442246D01*
X69018412Y-120376557D01*
X69207816Y-120280051D01*
X69229789Y-120264086D01*
X69379786Y-120155109D01*
X69379788Y-120155106D01*
X69379792Y-120155104D01*
X69530104Y-120004792D01*
X69649683Y-119840204D01*
X69705011Y-119797540D01*
X69774624Y-119791561D01*
X69836420Y-119824166D01*
X69850313Y-119840199D01*
X69877557Y-119877697D01*
X69969896Y-120004792D01*
X70120213Y-120155109D01*
X70292179Y-120280048D01*
X70292181Y-120280049D01*
X70292184Y-120280051D01*
X70481588Y-120376557D01*
X70683757Y-120442246D01*
X70893713Y-120475500D01*
X70893714Y-120475500D01*
X71106286Y-120475500D01*
X71106287Y-120475500D01*
X71316243Y-120442246D01*
X71518412Y-120376557D01*
X71707816Y-120280051D01*
X71729789Y-120264086D01*
X71879786Y-120155109D01*
X71879788Y-120155106D01*
X71879792Y-120155104D01*
X72030104Y-120004792D01*
X72149683Y-119840204D01*
X72205011Y-119797540D01*
X72274624Y-119791561D01*
X72336420Y-119824166D01*
X72350313Y-119840199D01*
X72377557Y-119877697D01*
X72469896Y-120004792D01*
X72620213Y-120155109D01*
X72792179Y-120280048D01*
X72792181Y-120280049D01*
X72792184Y-120280051D01*
X72981588Y-120376557D01*
X73183757Y-120442246D01*
X73393713Y-120475500D01*
X73393714Y-120475500D01*
X73606286Y-120475500D01*
X73606287Y-120475500D01*
X73816243Y-120442246D01*
X74018412Y-120376557D01*
X74207816Y-120280051D01*
X74229789Y-120264086D01*
X74379786Y-120155109D01*
X74379788Y-120155106D01*
X74379792Y-120155104D01*
X74530104Y-120004792D01*
X74649683Y-119840204D01*
X74705011Y-119797540D01*
X74774624Y-119791561D01*
X74836420Y-119824166D01*
X74850313Y-119840199D01*
X74877557Y-119877697D01*
X74969896Y-120004792D01*
X75120213Y-120155109D01*
X75292179Y-120280048D01*
X75292181Y-120280049D01*
X75292184Y-120280051D01*
X75481588Y-120376557D01*
X75683757Y-120442246D01*
X75893713Y-120475500D01*
X75893714Y-120475500D01*
X76106286Y-120475500D01*
X76106287Y-120475500D01*
X76316243Y-120442246D01*
X76518412Y-120376557D01*
X76707816Y-120280051D01*
X76729789Y-120264086D01*
X76879786Y-120155109D01*
X76879788Y-120155106D01*
X76879792Y-120155104D01*
X77030104Y-120004792D01*
X77149991Y-119839779D01*
X77205320Y-119797115D01*
X77274933Y-119791136D01*
X77336729Y-119823741D01*
X77350627Y-119839781D01*
X77470272Y-120004459D01*
X77470276Y-120004464D01*
X77620535Y-120154723D01*
X77620540Y-120154727D01*
X77792442Y-120279620D01*
X77981782Y-120376095D01*
X78183871Y-120441757D01*
X78250000Y-120452231D01*
X78250000Y-119404145D01*
X78316657Y-119442630D01*
X78437465Y-119475000D01*
X78562535Y-119475000D01*
X78683343Y-119442630D01*
X78750000Y-119404145D01*
X78750000Y-120452230D01*
X78816126Y-120441757D01*
X78816129Y-120441757D01*
X79018217Y-120376095D01*
X79207557Y-120279620D01*
X79379459Y-120154727D01*
X79379464Y-120154723D01*
X79529723Y-120004464D01*
X79529727Y-120004459D01*
X79654620Y-119832557D01*
X79751095Y-119643217D01*
X79816757Y-119441130D01*
X79816757Y-119441127D01*
X79847030Y-119250000D01*
X78904146Y-119250000D01*
X78942630Y-119183343D01*
X78975000Y-119062535D01*
X78975000Y-118937465D01*
X78942630Y-118816657D01*
X78904146Y-118750000D01*
X79847030Y-118750000D01*
X79816757Y-118558872D01*
X79816757Y-118558869D01*
X79751095Y-118356782D01*
X79654620Y-118167442D01*
X79529727Y-117995540D01*
X79529723Y-117995535D01*
X79379464Y-117845276D01*
X79379459Y-117845272D01*
X79207557Y-117720379D01*
X79018215Y-117623903D01*
X78816124Y-117558241D01*
X78750000Y-117547768D01*
X78750000Y-118595854D01*
X78683343Y-118557370D01*
X78562535Y-118525000D01*
X78437465Y-118525000D01*
X78316657Y-118557370D01*
X78250000Y-118595854D01*
X78250000Y-117547768D01*
X78249999Y-117547768D01*
X78183875Y-117558241D01*
X77981784Y-117623903D01*
X77792442Y-117720379D01*
X77620540Y-117845272D01*
X77620535Y-117845276D01*
X77470276Y-117995535D01*
X77470272Y-117995540D01*
X77350627Y-118160218D01*
X77295297Y-118202884D01*
X77225684Y-118208863D01*
X77163889Y-118176257D01*
X77149991Y-118160218D01*
X77030109Y-117995214D01*
X77030105Y-117995209D01*
X76879786Y-117844890D01*
X76707820Y-117719951D01*
X76518414Y-117623444D01*
X76518413Y-117623443D01*
X76518412Y-117623443D01*
X76316243Y-117557754D01*
X76316241Y-117557753D01*
X76316240Y-117557753D01*
X76154957Y-117532208D01*
X76106287Y-117524500D01*
X75893713Y-117524500D01*
X75845042Y-117532208D01*
X75683760Y-117557753D01*
X75481585Y-117623444D01*
X75292179Y-117719951D01*
X75120213Y-117844890D01*
X74969894Y-117995209D01*
X74969890Y-117995214D01*
X74850318Y-118159793D01*
X74794989Y-118202459D01*
X74725375Y-118208438D01*
X74663580Y-118175833D01*
X74649682Y-118159793D01*
X74530109Y-117995214D01*
X74530105Y-117995209D01*
X74379786Y-117844890D01*
X74207820Y-117719951D01*
X74018414Y-117623444D01*
X74018413Y-117623443D01*
X74018412Y-117623443D01*
X73816243Y-117557754D01*
X73816241Y-117557753D01*
X73816240Y-117557753D01*
X73654957Y-117532208D01*
X73606287Y-117524500D01*
X73393713Y-117524500D01*
X73345042Y-117532208D01*
X73183760Y-117557753D01*
X72981585Y-117623444D01*
X72792179Y-117719951D01*
X72620213Y-117844890D01*
X72469894Y-117995209D01*
X72469890Y-117995214D01*
X72350318Y-118159793D01*
X72294989Y-118202459D01*
X72225375Y-118208438D01*
X72163580Y-118175833D01*
X72149682Y-118159793D01*
X72030109Y-117995214D01*
X72030105Y-117995209D01*
X71879786Y-117844890D01*
X71707820Y-117719951D01*
X71518414Y-117623444D01*
X71518413Y-117623443D01*
X71518412Y-117623443D01*
X71316243Y-117557754D01*
X71316241Y-117557753D01*
X71316240Y-117557753D01*
X71154957Y-117532208D01*
X71106287Y-117524500D01*
X71106286Y-117524500D01*
X70990782Y-117524500D01*
X70923743Y-117504815D01*
X70903101Y-117488181D01*
X68452101Y-115037181D01*
X68418616Y-114975858D01*
X68423600Y-114906166D01*
X68465472Y-114850233D01*
X68530936Y-114825816D01*
X68539782Y-114825500D01*
X74773542Y-114825500D01*
X74804566Y-114819328D01*
X74870188Y-114806275D01*
X74966836Y-114787051D01*
X75020165Y-114764961D01*
X75148914Y-114711632D01*
X75312782Y-114602139D01*
X75452139Y-114462782D01*
X75452140Y-114462779D01*
X75459206Y-114455714D01*
X75459209Y-114455710D01*
X83637778Y-106277141D01*
X83637782Y-106277139D01*
X83777139Y-106137782D01*
X83886632Y-105973914D01*
X83917207Y-105900099D01*
X83939961Y-105845166D01*
X83939961Y-105845165D01*
X83962051Y-105791836D01*
X84000500Y-105598540D01*
X84000500Y-105401460D01*
X84000500Y-99393753D01*
X85150000Y-99393753D01*
X85150000Y-99606246D01*
X85183242Y-99816127D01*
X85183242Y-99816130D01*
X85248904Y-100018217D01*
X85345375Y-100207550D01*
X85384728Y-100261716D01*
X86017037Y-99629408D01*
X86034075Y-99692993D01*
X86099901Y-99807007D01*
X86192993Y-99900099D01*
X86307007Y-99965925D01*
X86370590Y-99982962D01*
X85738282Y-100615269D01*
X85738282Y-100615270D01*
X85792449Y-100654624D01*
X85981782Y-100751095D01*
X86183870Y-100816757D01*
X86393754Y-100850000D01*
X86606246Y-100850000D01*
X86816127Y-100816757D01*
X86816130Y-100816757D01*
X87018217Y-100751095D01*
X87207554Y-100654622D01*
X87261716Y-100615270D01*
X87261717Y-100615270D01*
X86629408Y-99982962D01*
X86692993Y-99965925D01*
X86807007Y-99900099D01*
X86900099Y-99807007D01*
X86965925Y-99692993D01*
X86982962Y-99629408D01*
X87615270Y-100261717D01*
X87615270Y-100261716D01*
X87654622Y-100207554D01*
X87751095Y-100018217D01*
X87816757Y-99816130D01*
X87816757Y-99816127D01*
X87850000Y-99606246D01*
X87850000Y-99393753D01*
X87816757Y-99183872D01*
X87816757Y-99183869D01*
X87751095Y-98981782D01*
X87654624Y-98792449D01*
X87615270Y-98738282D01*
X87615269Y-98738282D01*
X86982962Y-99370590D01*
X86965925Y-99307007D01*
X86900099Y-99192993D01*
X86807007Y-99099901D01*
X86692993Y-99034075D01*
X86629409Y-99017037D01*
X87261716Y-98384728D01*
X87207550Y-98345375D01*
X87018217Y-98248904D01*
X86816129Y-98183242D01*
X86606246Y-98150000D01*
X86393754Y-98150000D01*
X86183872Y-98183242D01*
X86183869Y-98183242D01*
X85981782Y-98248904D01*
X85792439Y-98345380D01*
X85738282Y-98384727D01*
X85738282Y-98384728D01*
X86370591Y-99017037D01*
X86307007Y-99034075D01*
X86192993Y-99099901D01*
X86099901Y-99192993D01*
X86034075Y-99307007D01*
X86017037Y-99370591D01*
X85384728Y-98738282D01*
X85384727Y-98738282D01*
X85345380Y-98792439D01*
X85248904Y-98981782D01*
X85183242Y-99183869D01*
X85183242Y-99183872D01*
X85150000Y-99393753D01*
X84000500Y-99393753D01*
X84000500Y-94996869D01*
X84020185Y-94929830D01*
X84072989Y-94884075D01*
X84085486Y-94879166D01*
X84219334Y-94834814D01*
X84368656Y-94742712D01*
X84492712Y-94618656D01*
X84584814Y-94469334D01*
X84639999Y-94302797D01*
X84650500Y-94200009D01*
X84650499Y-93393753D01*
X85150000Y-93393753D01*
X85150000Y-93606246D01*
X85183242Y-93816127D01*
X85183242Y-93816130D01*
X85248904Y-94018217D01*
X85345375Y-94207550D01*
X85384728Y-94261716D01*
X86017037Y-93629408D01*
X86034075Y-93692993D01*
X86099901Y-93807007D01*
X86192993Y-93900099D01*
X86307007Y-93965925D01*
X86370590Y-93982962D01*
X85738282Y-94615269D01*
X85738282Y-94615270D01*
X85792449Y-94654624D01*
X85981782Y-94751095D01*
X86183870Y-94816757D01*
X86393754Y-94850000D01*
X86606246Y-94850000D01*
X86816127Y-94816757D01*
X86816130Y-94816757D01*
X87018217Y-94751095D01*
X87207554Y-94654622D01*
X87261716Y-94615270D01*
X87261717Y-94615270D01*
X86629408Y-93982962D01*
X86692993Y-93965925D01*
X86807007Y-93900099D01*
X86900099Y-93807007D01*
X86965925Y-93692993D01*
X86982962Y-93629408D01*
X87615270Y-94261717D01*
X87615270Y-94261716D01*
X87654622Y-94207554D01*
X87751095Y-94018217D01*
X87816757Y-93816130D01*
X87816757Y-93816127D01*
X87850000Y-93606246D01*
X87850000Y-93474000D01*
X87869685Y-93406961D01*
X87922489Y-93361206D01*
X87974000Y-93350000D01*
X88106246Y-93350000D01*
X88316127Y-93316757D01*
X88316130Y-93316757D01*
X88518217Y-93251095D01*
X88707554Y-93154622D01*
X88761716Y-93115270D01*
X88761717Y-93115270D01*
X88129408Y-92482962D01*
X88192993Y-92465925D01*
X88307007Y-92400099D01*
X88400099Y-92307007D01*
X88465925Y-92192993D01*
X88482962Y-92129408D01*
X89115270Y-92761717D01*
X89115270Y-92761716D01*
X89154622Y-92707554D01*
X89251095Y-92518217D01*
X89316757Y-92316130D01*
X89316757Y-92316127D01*
X89350000Y-92106246D01*
X89350000Y-91893753D01*
X89316757Y-91683872D01*
X89316757Y-91683869D01*
X89251095Y-91481782D01*
X89154624Y-91292449D01*
X89115270Y-91238282D01*
X89115269Y-91238282D01*
X88482962Y-91870590D01*
X88465925Y-91807007D01*
X88400099Y-91692993D01*
X88307007Y-91599901D01*
X88192993Y-91534075D01*
X88129409Y-91517037D01*
X88761716Y-90884728D01*
X88707550Y-90845375D01*
X88518217Y-90748904D01*
X88316129Y-90683242D01*
X88106246Y-90650000D01*
X87893754Y-90650000D01*
X87683872Y-90683242D01*
X87683869Y-90683242D01*
X87481782Y-90748904D01*
X87292439Y-90845380D01*
X87238282Y-90884727D01*
X87238282Y-90884728D01*
X87870591Y-91517037D01*
X87807007Y-91534075D01*
X87692993Y-91599901D01*
X87599901Y-91692993D01*
X87534075Y-91807007D01*
X87517037Y-91870591D01*
X86884728Y-91238282D01*
X86884727Y-91238282D01*
X86845380Y-91292439D01*
X86748904Y-91481782D01*
X86683242Y-91683869D01*
X86683242Y-91683872D01*
X86650000Y-91893753D01*
X86650000Y-92026000D01*
X86630315Y-92093039D01*
X86577511Y-92138794D01*
X86526000Y-92150000D01*
X86393754Y-92150000D01*
X86183872Y-92183242D01*
X86183869Y-92183242D01*
X85981782Y-92248904D01*
X85792439Y-92345380D01*
X85738282Y-92384727D01*
X85738282Y-92384728D01*
X86370591Y-93017037D01*
X86307007Y-93034075D01*
X86192993Y-93099901D01*
X86099901Y-93192993D01*
X86034075Y-93307007D01*
X86017037Y-93370591D01*
X85384728Y-92738282D01*
X85384727Y-92738282D01*
X85345380Y-92792439D01*
X85248904Y-92981782D01*
X85183242Y-93183869D01*
X85183242Y-93183872D01*
X85150000Y-93393753D01*
X84650499Y-93393753D01*
X84650499Y-93146446D01*
X84650499Y-92431987D01*
X84650499Y-92099998D01*
X84650498Y-92099981D01*
X84639999Y-91997203D01*
X84639998Y-91997200D01*
X84632559Y-91974751D01*
X84584814Y-91830666D01*
X84492712Y-91681344D01*
X84368656Y-91557288D01*
X84275777Y-91500000D01*
X84219336Y-91465187D01*
X84219331Y-91465185D01*
X84217862Y-91464698D01*
X84052797Y-91410001D01*
X84052795Y-91410000D01*
X83950010Y-91399500D01*
X82049998Y-91399500D01*
X82049981Y-91399501D01*
X81947203Y-91410000D01*
X81947200Y-91410001D01*
X81780668Y-91465185D01*
X81780663Y-91465187D01*
X81631342Y-91557289D01*
X81507289Y-91681342D01*
X81415187Y-91830663D01*
X81415185Y-91830668D01*
X81406696Y-91856286D01*
X81360001Y-91997203D01*
X81360001Y-91997204D01*
X81360000Y-91997204D01*
X81349500Y-92099983D01*
X81349500Y-94200001D01*
X81349501Y-94200018D01*
X81360000Y-94302796D01*
X81360001Y-94302799D01*
X81403260Y-94433343D01*
X81415186Y-94469334D01*
X81507288Y-94618656D01*
X81631344Y-94742712D01*
X81780666Y-94834814D01*
X81914505Y-94879164D01*
X81971949Y-94918936D01*
X81998772Y-94983451D01*
X81999500Y-94996869D01*
X81999500Y-105034218D01*
X81979815Y-105101257D01*
X81963181Y-105121899D01*
X79612181Y-107472899D01*
X79550858Y-107506384D01*
X79481166Y-107501400D01*
X79425233Y-107459528D01*
X79400816Y-107394064D01*
X79400500Y-107385218D01*
X79400500Y-91017534D01*
X79420185Y-90950495D01*
X79472989Y-90904740D01*
X79511897Y-90894176D01*
X79552797Y-90889999D01*
X79719334Y-90834814D01*
X79868656Y-90742712D01*
X79992712Y-90618656D01*
X80084814Y-90469334D01*
X80139999Y-90302797D01*
X80144177Y-90261896D01*
X80170573Y-90197207D01*
X80227753Y-90157055D01*
X80267535Y-90150500D01*
X81334362Y-90150500D01*
X81401401Y-90170185D01*
X81439899Y-90209401D01*
X81507288Y-90318656D01*
X81631344Y-90442712D01*
X81780666Y-90534814D01*
X81947203Y-90589999D01*
X82049991Y-90600500D01*
X83950008Y-90600499D01*
X84052797Y-90589999D01*
X84219334Y-90534814D01*
X84368656Y-90442712D01*
X84492712Y-90318656D01*
X84560099Y-90209402D01*
X84612047Y-90162679D01*
X84665638Y-90150500D01*
X91281742Y-90150500D01*
X91348781Y-90170185D01*
X91369423Y-90186819D01*
X91462709Y-90280105D01*
X91462714Y-90280109D01*
X91627293Y-90399682D01*
X91669959Y-90455011D01*
X91675938Y-90524625D01*
X91643333Y-90586420D01*
X91627293Y-90600318D01*
X91462714Y-90719890D01*
X91462709Y-90719894D01*
X91312390Y-90870213D01*
X91187451Y-91042179D01*
X91090944Y-91231585D01*
X91090943Y-91231587D01*
X91090943Y-91231588D01*
X91058098Y-91332672D01*
X91025253Y-91433760D01*
X90992000Y-91643713D01*
X90992000Y-91856286D01*
X91014318Y-91997200D01*
X91025254Y-92066243D01*
X91084604Y-92248904D01*
X91090944Y-92268414D01*
X91187451Y-92457820D01*
X91312390Y-92629786D01*
X91462709Y-92780105D01*
X91462714Y-92780109D01*
X91627718Y-92899991D01*
X91670384Y-92955320D01*
X91676363Y-93024934D01*
X91643758Y-93086729D01*
X91627718Y-93100627D01*
X91463040Y-93220272D01*
X91463035Y-93220276D01*
X91312776Y-93370535D01*
X91312772Y-93370540D01*
X91187879Y-93542442D01*
X91091404Y-93731782D01*
X91025742Y-93933870D01*
X91025742Y-93933873D01*
X91015269Y-94000000D01*
X92063354Y-94000000D01*
X92024870Y-94066657D01*
X91992500Y-94187465D01*
X91992500Y-94312535D01*
X92024870Y-94433343D01*
X92063354Y-94500000D01*
X91015269Y-94500000D01*
X91025742Y-94566126D01*
X91025742Y-94566129D01*
X91091404Y-94768217D01*
X91187879Y-94957557D01*
X91312772Y-95129459D01*
X91312776Y-95129464D01*
X91463035Y-95279723D01*
X91463040Y-95279727D01*
X91627718Y-95399372D01*
X91670384Y-95454701D01*
X91676363Y-95524315D01*
X91643758Y-95586110D01*
X91627718Y-95600008D01*
X91462714Y-95719890D01*
X91462709Y-95719894D01*
X91312390Y-95870213D01*
X91187451Y-96042179D01*
X91090944Y-96231585D01*
X91025253Y-96433760D01*
X91012378Y-96515050D01*
X90992000Y-96643713D01*
X90992000Y-96856287D01*
X90997703Y-96892294D01*
X91017963Y-97020213D01*
X91025254Y-97066243D01*
X91066173Y-97192179D01*
X91090944Y-97268414D01*
X91187451Y-97457820D01*
X91312390Y-97629786D01*
X91462709Y-97780105D01*
X91462714Y-97780109D01*
X91627293Y-97899682D01*
X91669959Y-97955011D01*
X91675938Y-98024625D01*
X91643333Y-98086420D01*
X91627293Y-98100318D01*
X91462714Y-98219890D01*
X91462709Y-98219894D01*
X91312390Y-98370213D01*
X91187451Y-98542179D01*
X91090944Y-98731585D01*
X91025253Y-98933760D01*
X90992000Y-99143713D01*
X90992000Y-99356286D01*
X91014318Y-99497200D01*
X91025254Y-99566243D01*
X91058750Y-99669334D01*
X91090944Y-99768414D01*
X91187451Y-99957820D01*
X91312390Y-100129786D01*
X91462713Y-100280109D01*
X91634679Y-100405048D01*
X91634681Y-100405049D01*
X91634684Y-100405051D01*
X91824088Y-100501557D01*
X92026257Y-100567246D01*
X92236213Y-100600500D01*
X92236214Y-100600500D01*
X92698786Y-100600500D01*
X92698787Y-100600500D01*
X92908743Y-100567246D01*
X93110912Y-100501557D01*
X93300316Y-100405051D01*
X93354210Y-100365895D01*
X93472286Y-100280109D01*
X93472288Y-100280106D01*
X93472292Y-100280104D01*
X93622604Y-100129792D01*
X93622606Y-100129788D01*
X93622609Y-100129786D01*
X93736053Y-99973642D01*
X93747551Y-99957816D01*
X93844057Y-99768412D01*
X93909746Y-99566243D01*
X93943000Y-99356287D01*
X93943000Y-99143713D01*
X93909746Y-98933757D01*
X93844057Y-98731588D01*
X93747551Y-98542184D01*
X93747549Y-98542181D01*
X93747548Y-98542179D01*
X93622609Y-98370213D01*
X93472292Y-98219896D01*
X93467264Y-98216243D01*
X93307704Y-98100316D01*
X93265040Y-98044989D01*
X93259061Y-97975376D01*
X93291666Y-97913580D01*
X93307699Y-97899686D01*
X93472292Y-97780104D01*
X93622604Y-97629792D01*
X93622606Y-97629788D01*
X93622609Y-97629786D01*
X93747548Y-97457820D01*
X93747547Y-97457820D01*
X93747551Y-97457816D01*
X93844057Y-97268412D01*
X93909746Y-97066243D01*
X93927297Y-96955428D01*
X93957226Y-96892294D01*
X93962071Y-96887163D01*
X95480520Y-95368716D01*
X95559577Y-95231784D01*
X95600501Y-95079057D01*
X95600501Y-94920942D01*
X95600501Y-94913347D01*
X95600500Y-94913329D01*
X95600500Y-86420944D01*
X95600500Y-86420943D01*
X95591956Y-86389058D01*
X95586506Y-86368716D01*
X95559577Y-86268216D01*
X95501994Y-86168478D01*
X95480524Y-86131290D01*
X95480521Y-86131286D01*
X95480520Y-86131284D01*
X95368716Y-86019480D01*
X95368715Y-86019479D01*
X95364385Y-86015149D01*
X95364374Y-86015139D01*
X93612590Y-84263355D01*
X93612588Y-84263352D01*
X93493717Y-84144481D01*
X93493716Y-84144480D01*
X93406904Y-84094360D01*
X93406904Y-84094359D01*
X93406900Y-84094358D01*
X93356785Y-84065423D01*
X93204057Y-84024499D01*
X93045943Y-84024499D01*
X93038347Y-84024499D01*
X93038331Y-84024500D01*
X89599500Y-84024500D01*
X89532461Y-84004815D01*
X89486706Y-83952011D01*
X89475500Y-83900500D01*
X89475500Y-83418386D01*
X89471479Y-83374142D01*
X89469086Y-83347804D01*
X89418478Y-83185394D01*
X89330472Y-83039815D01*
X89330470Y-83039813D01*
X89330469Y-83039811D01*
X89210188Y-82919530D01*
X89205230Y-82916533D01*
X89064606Y-82831522D01*
X88902196Y-82780914D01*
X88902194Y-82780913D01*
X88902192Y-82780913D01*
X88852778Y-82776423D01*
X88831616Y-82774500D01*
X88831613Y-82774500D01*
X88500098Y-82774500D01*
X88433059Y-82754815D01*
X88412417Y-82738181D01*
X88334573Y-82660337D01*
X88301088Y-82599014D01*
X88300637Y-82596847D01*
X88273088Y-82458352D01*
X88269737Y-82441503D01*
X88229250Y-82343757D01*
X88209397Y-82295827D01*
X88209390Y-82295814D01*
X88121789Y-82164711D01*
X88121786Y-82164707D01*
X88010292Y-82053213D01*
X88010288Y-82053210D01*
X87879185Y-81965609D01*
X87879172Y-81965602D01*
X87733501Y-81905264D01*
X87733489Y-81905261D01*
X87578845Y-81874500D01*
X87578842Y-81874500D01*
X87421158Y-81874500D01*
X87421155Y-81874500D01*
X87266510Y-81905261D01*
X87266498Y-81905264D01*
X87120827Y-81965602D01*
X87120814Y-81965609D01*
X86989711Y-82053210D01*
X86989707Y-82053213D01*
X86878213Y-82164707D01*
X86878210Y-82164711D01*
X86790609Y-82295814D01*
X86790602Y-82295827D01*
X86730264Y-82441498D01*
X86730261Y-82441510D01*
X86699500Y-82596153D01*
X86699500Y-82650500D01*
X86679815Y-82717539D01*
X86627011Y-82763294D01*
X86575500Y-82774500D01*
X86500098Y-82774500D01*
X86433059Y-82754815D01*
X86412417Y-82738181D01*
X86334573Y-82660337D01*
X86301088Y-82599014D01*
X86300637Y-82596847D01*
X86273088Y-82458352D01*
X86269737Y-82441503D01*
X86229250Y-82343757D01*
X86209397Y-82295827D01*
X86209390Y-82295814D01*
X86121789Y-82164711D01*
X86121786Y-82164707D01*
X86010292Y-82053213D01*
X86010288Y-82053210D01*
X85879185Y-81965609D01*
X85879172Y-81965602D01*
X85733501Y-81905264D01*
X85733489Y-81905261D01*
X85578845Y-81874500D01*
X85578842Y-81874500D01*
X85421158Y-81874500D01*
X85421155Y-81874500D01*
X85266510Y-81905261D01*
X85266498Y-81905264D01*
X85120827Y-81965602D01*
X85120814Y-81965609D01*
X84989711Y-82053210D01*
X84989707Y-82053213D01*
X84878213Y-82164707D01*
X84878210Y-82164711D01*
X84790609Y-82295814D01*
X84790602Y-82295827D01*
X84730264Y-82441498D01*
X84730261Y-82441510D01*
X84699500Y-82596153D01*
X84699500Y-82753846D01*
X84730261Y-82908489D01*
X84730264Y-82908501D01*
X84790602Y-83054172D01*
X84790609Y-83054185D01*
X84878210Y-83185288D01*
X84878213Y-83185292D01*
X84989707Y-83296786D01*
X84989711Y-83296789D01*
X85120814Y-83384390D01*
X85120827Y-83384397D01*
X85264323Y-83443834D01*
X85266503Y-83444737D01*
X85303072Y-83452011D01*
X85421849Y-83475638D01*
X85483760Y-83508023D01*
X85485339Y-83509574D01*
X85488181Y-83512416D01*
X85521666Y-83573739D01*
X85524500Y-83600097D01*
X85524500Y-83900500D01*
X85504815Y-83967539D01*
X85452011Y-84013294D01*
X85400500Y-84024500D01*
X84425097Y-84024500D01*
X84358058Y-84004815D01*
X84337416Y-83988181D01*
X83834574Y-83485339D01*
X83801089Y-83424016D01*
X83800638Y-83421849D01*
X83775761Y-83296789D01*
X83769737Y-83266503D01*
X83769735Y-83266498D01*
X83709397Y-83120827D01*
X83709390Y-83120814D01*
X83621789Y-82989711D01*
X83621786Y-82989707D01*
X83510292Y-82878213D01*
X83510288Y-82878210D01*
X83379185Y-82790609D01*
X83379172Y-82790602D01*
X83233501Y-82730264D01*
X83233489Y-82730261D01*
X83078845Y-82699500D01*
X83078842Y-82699500D01*
X82921158Y-82699500D01*
X82921155Y-82699500D01*
X82766510Y-82730261D01*
X82766498Y-82730264D01*
X82620827Y-82790602D01*
X82620814Y-82790609D01*
X82489711Y-82878210D01*
X82489707Y-82878213D01*
X82378213Y-82989707D01*
X82378210Y-82989711D01*
X82290609Y-83120814D01*
X82290602Y-83120827D01*
X82230264Y-83266498D01*
X82230261Y-83266510D01*
X82199500Y-83421153D01*
X82199500Y-83578846D01*
X82230261Y-83733489D01*
X82230264Y-83733501D01*
X82290602Y-83879172D01*
X82290609Y-83879185D01*
X82378210Y-84010288D01*
X82378213Y-84010292D01*
X82489707Y-84121786D01*
X82489711Y-84121789D01*
X82620814Y-84209390D01*
X82620827Y-84209397D01*
X82734024Y-84256284D01*
X82766503Y-84269737D01*
X82831147Y-84282595D01*
X82921849Y-84300638D01*
X82983760Y-84333023D01*
X82985339Y-84334574D01*
X83640139Y-84989374D01*
X83640149Y-84989385D01*
X83644479Y-84993715D01*
X83644480Y-84993716D01*
X83756284Y-85105520D01*
X83833837Y-85150294D01*
X83843095Y-85155639D01*
X83843097Y-85155641D01*
X83893213Y-85184576D01*
X83893215Y-85184577D01*
X84045942Y-85225500D01*
X84045943Y-85225500D01*
X85400500Y-85225500D01*
X85467539Y-85245185D01*
X85513294Y-85297989D01*
X85524500Y-85349500D01*
X85524500Y-85581613D01*
X85530913Y-85652192D01*
X85530913Y-85652194D01*
X85530914Y-85652196D01*
X85581522Y-85814606D01*
X85653553Y-85933760D01*
X85669530Y-85960188D01*
X85789811Y-86080469D01*
X85789813Y-86080470D01*
X85789815Y-86080472D01*
X85935394Y-86168478D01*
X86097804Y-86219086D01*
X86168384Y-86225500D01*
X86168387Y-86225500D01*
X86831613Y-86225500D01*
X86831616Y-86225500D01*
X86902196Y-86219086D01*
X87064606Y-86168478D01*
X87210185Y-86080472D01*
X87210871Y-86079786D01*
X87328839Y-85961819D01*
X87390162Y-85928334D01*
X87416520Y-85925500D01*
X87583480Y-85925500D01*
X87650519Y-85945185D01*
X87671161Y-85961819D01*
X87789811Y-86080469D01*
X87789813Y-86080470D01*
X87789815Y-86080472D01*
X87935394Y-86168478D01*
X88097804Y-86219086D01*
X88168384Y-86225500D01*
X88542403Y-86225500D01*
X88609442Y-86245185D01*
X88630084Y-86261819D01*
X90506084Y-88137819D01*
X90539569Y-88199142D01*
X90534585Y-88268834D01*
X90492713Y-88324767D01*
X90427249Y-88349184D01*
X90418403Y-88349500D01*
X84774499Y-88349500D01*
X84707460Y-88329815D01*
X84661705Y-88277011D01*
X84650499Y-88225500D01*
X84650499Y-87799998D01*
X84650498Y-87799981D01*
X84639999Y-87697203D01*
X84639998Y-87697200D01*
X84610947Y-87609531D01*
X84584814Y-87530666D01*
X84492712Y-87381344D01*
X84368656Y-87257288D01*
X84219334Y-87165186D01*
X84052797Y-87110001D01*
X84052795Y-87110000D01*
X83950010Y-87099500D01*
X82049998Y-87099500D01*
X82049981Y-87099501D01*
X81947203Y-87110000D01*
X81947200Y-87110001D01*
X81780668Y-87165185D01*
X81780663Y-87165187D01*
X81631342Y-87257289D01*
X81507289Y-87381342D01*
X81415187Y-87530663D01*
X81415186Y-87530666D01*
X81360001Y-87697203D01*
X81360001Y-87697204D01*
X81360000Y-87697204D01*
X81349500Y-87799983D01*
X81349500Y-88225500D01*
X81329815Y-88292539D01*
X81277011Y-88338294D01*
X81225500Y-88349500D01*
X80274499Y-88349500D01*
X80207460Y-88329815D01*
X80161705Y-88277011D01*
X80150499Y-88225500D01*
X80150499Y-88099998D01*
X80150498Y-88099981D01*
X80139999Y-87997203D01*
X80139998Y-87997200D01*
X80099339Y-87874500D01*
X80084814Y-87830666D01*
X79992712Y-87681344D01*
X79868656Y-87557288D01*
X79719334Y-87465186D01*
X79552797Y-87410001D01*
X79552795Y-87410000D01*
X79450010Y-87399500D01*
X77549998Y-87399500D01*
X77549981Y-87399501D01*
X77447203Y-87410000D01*
X77447200Y-87410001D01*
X77280668Y-87465185D01*
X77280663Y-87465187D01*
X77131342Y-87557289D01*
X77007289Y-87681342D01*
X76915187Y-87830663D01*
X76915185Y-87830668D01*
X76907184Y-87854815D01*
X76860001Y-87997203D01*
X76860001Y-87997204D01*
X76860000Y-87997204D01*
X76849500Y-88099983D01*
X76849500Y-90200001D01*
X76849501Y-90200018D01*
X76860000Y-90302796D01*
X76860001Y-90302799D01*
X76896711Y-90413580D01*
X76915186Y-90469334D01*
X77007288Y-90618656D01*
X77131344Y-90742712D01*
X77280666Y-90834814D01*
X77447203Y-90889999D01*
X77488103Y-90894177D01*
X77552793Y-90920573D01*
X77592945Y-90977753D01*
X77599500Y-91017535D01*
X77599500Y-107575638D01*
X77579815Y-107642677D01*
X77563181Y-107663319D01*
X75216970Y-110009529D01*
X75155647Y-110043014D01*
X75085955Y-110038030D01*
X75041608Y-110009529D01*
X75010292Y-109978213D01*
X75010288Y-109978210D01*
X74879185Y-109890609D01*
X74879172Y-109890602D01*
X74733501Y-109830264D01*
X74733489Y-109830261D01*
X74578845Y-109799500D01*
X74578842Y-109799500D01*
X74545897Y-109799500D01*
X74478858Y-109779815D01*
X74433103Y-109727011D01*
X74421897Y-109675500D01*
X74421897Y-100408398D01*
X74421897Y-100408395D01*
X74420327Y-100400504D01*
X74420327Y-100400500D01*
X74402702Y-100311894D01*
X74397860Y-100287550D01*
X74350709Y-100173716D01*
X74332102Y-100145869D01*
X74282255Y-100071267D01*
X74192034Y-99981046D01*
X74192003Y-99981017D01*
X73621929Y-99410943D01*
X73588444Y-99349620D01*
X73593428Y-99279928D01*
X73635300Y-99223995D01*
X73671293Y-99205331D01*
X73838215Y-99151096D01*
X74027554Y-99054622D01*
X74081716Y-99015270D01*
X74081717Y-99015270D01*
X73449408Y-98382962D01*
X73512993Y-98365925D01*
X73627007Y-98300099D01*
X73720099Y-98207007D01*
X73785925Y-98092993D01*
X73802962Y-98029408D01*
X74435270Y-98661717D01*
X74435270Y-98661716D01*
X74474622Y-98607554D01*
X74571095Y-98418217D01*
X74636757Y-98216130D01*
X74636757Y-98216127D01*
X74670000Y-98006246D01*
X74670000Y-97793753D01*
X74636757Y-97583872D01*
X74636757Y-97583869D01*
X74571095Y-97381782D01*
X74474624Y-97192449D01*
X74435270Y-97138282D01*
X74435269Y-97138282D01*
X73802962Y-97770590D01*
X73785925Y-97707007D01*
X73720099Y-97592993D01*
X73627007Y-97499901D01*
X73512993Y-97434075D01*
X73449409Y-97417037D01*
X74081716Y-96784728D01*
X74027547Y-96745373D01*
X74027547Y-96745372D01*
X74018500Y-96740763D01*
X73967706Y-96692788D01*
X73950912Y-96624966D01*
X73973451Y-96558832D01*
X74018508Y-96519793D01*
X74027816Y-96515051D01*
X74107007Y-96457515D01*
X74199786Y-96390109D01*
X74199788Y-96390106D01*
X74199792Y-96390104D01*
X74350104Y-96239792D01*
X74350106Y-96239788D01*
X74350109Y-96239786D01*
X74475048Y-96067820D01*
X74475047Y-96067820D01*
X74475051Y-96067816D01*
X74571557Y-95878412D01*
X74637246Y-95676243D01*
X74670500Y-95466287D01*
X74670500Y-95253713D01*
X74637246Y-95043757D01*
X74571557Y-94841588D01*
X74475051Y-94652184D01*
X74475049Y-94652181D01*
X74475048Y-94652179D01*
X74350109Y-94480213D01*
X74199786Y-94329890D01*
X74027820Y-94204951D01*
X74027115Y-94204591D01*
X74019054Y-94200485D01*
X73968259Y-94152512D01*
X73951463Y-94084692D01*
X73973999Y-94018556D01*
X74019054Y-93979515D01*
X74027816Y-93975051D01*
X74084497Y-93933870D01*
X74199786Y-93850109D01*
X74199788Y-93850106D01*
X74199792Y-93850104D01*
X74350104Y-93699792D01*
X74350106Y-93699788D01*
X74350109Y-93699786D01*
X74475048Y-93527820D01*
X74475047Y-93527820D01*
X74475051Y-93527816D01*
X74571557Y-93338412D01*
X74637246Y-93136243D01*
X74670500Y-92926287D01*
X74670500Y-92713713D01*
X74637246Y-92503757D01*
X74571557Y-92301588D01*
X74475051Y-92112184D01*
X74475049Y-92112181D01*
X74475048Y-92112179D01*
X74350109Y-91940213D01*
X74199786Y-91789890D01*
X74027820Y-91664951D01*
X74027115Y-91664591D01*
X74019054Y-91660485D01*
X73968259Y-91612512D01*
X73951463Y-91544692D01*
X73973999Y-91478556D01*
X74019054Y-91439515D01*
X74027816Y-91435051D01*
X74131833Y-91359479D01*
X74199786Y-91310109D01*
X74199788Y-91310106D01*
X74199792Y-91310104D01*
X74350104Y-91159792D01*
X74350106Y-91159788D01*
X74350109Y-91159786D01*
X74475048Y-90987820D01*
X74475047Y-90987820D01*
X74475051Y-90987816D01*
X74571557Y-90798412D01*
X74637246Y-90596243D01*
X74670500Y-90386287D01*
X74670500Y-90173713D01*
X74637246Y-89963757D01*
X74571557Y-89761588D01*
X74475051Y-89572184D01*
X74475049Y-89572181D01*
X74475048Y-89572179D01*
X74350109Y-89400213D01*
X74199786Y-89249890D01*
X74027820Y-89124951D01*
X74027115Y-89124591D01*
X74019054Y-89120485D01*
X73968259Y-89072512D01*
X73951463Y-89004692D01*
X73973999Y-88938556D01*
X74019054Y-88899515D01*
X74027816Y-88895051D01*
X74049789Y-88879086D01*
X74199786Y-88770109D01*
X74199788Y-88770106D01*
X74199792Y-88770104D01*
X74350104Y-88619792D01*
X74350106Y-88619788D01*
X74350109Y-88619786D01*
X74475048Y-88447820D01*
X74475047Y-88447820D01*
X74475051Y-88447816D01*
X74571557Y-88258412D01*
X74637246Y-88056243D01*
X74670500Y-87846287D01*
X74670500Y-87633713D01*
X74637246Y-87423757D01*
X74623506Y-87381473D01*
X74621512Y-87311635D01*
X74653755Y-87255478D01*
X75108506Y-86800728D01*
X75108511Y-86800724D01*
X75118714Y-86790520D01*
X75118716Y-86790520D01*
X75230520Y-86678716D01*
X75309577Y-86541784D01*
X75341956Y-86420943D01*
X75350500Y-86389058D01*
X75350500Y-86230943D01*
X75350500Y-85899986D01*
X76850001Y-85899986D01*
X76860494Y-86002697D01*
X76915641Y-86169119D01*
X76915643Y-86169124D01*
X77007684Y-86318345D01*
X77131654Y-86442315D01*
X77280875Y-86534356D01*
X77280880Y-86534358D01*
X77447302Y-86589505D01*
X77447309Y-86589506D01*
X77550019Y-86599999D01*
X78249999Y-86599999D01*
X78750000Y-86599999D01*
X79449972Y-86599999D01*
X79449986Y-86599998D01*
X79552697Y-86589505D01*
X79719119Y-86534358D01*
X79719124Y-86534356D01*
X79868345Y-86442315D01*
X79992315Y-86318345D01*
X80084356Y-86169124D01*
X80084358Y-86169119D01*
X80139505Y-86002697D01*
X80139506Y-86002690D01*
X80149999Y-85899986D01*
X80150000Y-85899973D01*
X80150000Y-85100000D01*
X78750000Y-85100000D01*
X78750000Y-86599999D01*
X78249999Y-86599999D01*
X78250000Y-86599998D01*
X78250000Y-85100000D01*
X76850001Y-85100000D01*
X76850001Y-85899986D01*
X75350500Y-85899986D01*
X75350500Y-83800013D01*
X76850000Y-83800013D01*
X76850000Y-84600000D01*
X78250000Y-84600000D01*
X78750000Y-84600000D01*
X80149999Y-84600000D01*
X80149999Y-83800028D01*
X80149998Y-83800013D01*
X80139505Y-83697302D01*
X80084358Y-83530880D01*
X80084356Y-83530875D01*
X79992315Y-83381654D01*
X79868345Y-83257684D01*
X79719124Y-83165643D01*
X79719119Y-83165641D01*
X79552697Y-83110494D01*
X79552690Y-83110493D01*
X79449986Y-83100000D01*
X78750000Y-83100000D01*
X78750000Y-84600000D01*
X78250000Y-84600000D01*
X78250000Y-83100000D01*
X77550028Y-83100000D01*
X77550012Y-83100001D01*
X77447302Y-83110494D01*
X77280880Y-83165641D01*
X77280875Y-83165643D01*
X77131654Y-83257684D01*
X77007684Y-83381654D01*
X76915643Y-83530875D01*
X76915641Y-83530880D01*
X76860494Y-83697302D01*
X76860493Y-83697309D01*
X76850000Y-83800013D01*
X75350500Y-83800013D01*
X75350500Y-77821153D01*
X88449500Y-77821153D01*
X88449500Y-77978846D01*
X88480261Y-78133489D01*
X88480264Y-78133501D01*
X88540602Y-78279172D01*
X88540609Y-78279185D01*
X88628210Y-78410288D01*
X88628213Y-78410292D01*
X88739707Y-78521786D01*
X88739711Y-78521789D01*
X88870814Y-78609390D01*
X88870827Y-78609397D01*
X89016498Y-78669735D01*
X89016503Y-78669737D01*
X89168267Y-78699925D01*
X89171153Y-78700499D01*
X89171156Y-78700500D01*
X89171158Y-78700500D01*
X89328844Y-78700500D01*
X89328845Y-78700499D01*
X89483497Y-78669737D01*
X89629179Y-78609394D01*
X89760289Y-78521789D01*
X89871789Y-78410289D01*
X89959394Y-78279179D01*
X90019737Y-78133497D01*
X90039113Y-78036085D01*
X90050638Y-77978150D01*
X90083023Y-77916239D01*
X90084520Y-77914714D01*
X90923448Y-77075785D01*
X90984769Y-77042302D01*
X91054460Y-77047286D01*
X91110394Y-77089158D01*
X91133600Y-77144070D01*
X91145860Y-77221473D01*
X91151598Y-77257701D01*
X91205127Y-77422445D01*
X91283768Y-77576788D01*
X91385586Y-77716928D01*
X91508072Y-77839414D01*
X91586296Y-77896247D01*
X91591449Y-77899991D01*
X91634114Y-77955322D01*
X91640093Y-78024935D01*
X91607487Y-78086730D01*
X91591448Y-78100627D01*
X91508404Y-78160961D01*
X91508399Y-78160965D01*
X91385967Y-78283397D01*
X91284195Y-78423475D01*
X91205591Y-78577744D01*
X91152085Y-78742415D01*
X91150884Y-78749999D01*
X91150885Y-78750000D01*
X92219670Y-78750000D01*
X92199925Y-78769745D01*
X92150556Y-78855255D01*
X92125000Y-78950630D01*
X92125000Y-79049370D01*
X92150556Y-79144745D01*
X92199925Y-79230255D01*
X92219670Y-79250000D01*
X91150885Y-79250000D01*
X91152085Y-79257584D01*
X91205591Y-79422255D01*
X91284195Y-79576524D01*
X91385967Y-79716602D01*
X91493565Y-79824200D01*
X91527050Y-79885523D01*
X91522066Y-79955215D01*
X91480194Y-80011148D01*
X91470981Y-80017420D01*
X91406342Y-80057289D01*
X91282289Y-80181342D01*
X91190187Y-80330663D01*
X91190186Y-80330666D01*
X91135001Y-80497203D01*
X91135001Y-80497204D01*
X91135000Y-80497204D01*
X91124500Y-80599983D01*
X91124500Y-81400001D01*
X91124501Y-81400019D01*
X91135000Y-81502796D01*
X91135001Y-81502799D01*
X91180547Y-81640246D01*
X91190186Y-81669334D01*
X91282288Y-81818656D01*
X91406344Y-81942712D01*
X91555666Y-82034814D01*
X91722203Y-82089999D01*
X91824991Y-82100500D01*
X93175008Y-82100499D01*
X93277797Y-82089999D01*
X93444334Y-82034814D01*
X93593656Y-81942712D01*
X93717712Y-81818656D01*
X93809814Y-81669334D01*
X93864999Y-81502797D01*
X93875500Y-81400009D01*
X93875499Y-80599992D01*
X93864999Y-80497203D01*
X93809814Y-80330666D01*
X93717712Y-80181344D01*
X93593656Y-80057288D01*
X93593655Y-80057287D01*
X93529019Y-80017420D01*
X93482294Y-79965472D01*
X93471071Y-79896510D01*
X93498914Y-79832428D01*
X93506434Y-79824199D01*
X93614035Y-79716598D01*
X93715804Y-79576524D01*
X93794408Y-79422255D01*
X93847914Y-79257584D01*
X93849115Y-79250000D01*
X92780330Y-79250000D01*
X92800075Y-79230255D01*
X92849444Y-79144745D01*
X92875000Y-79049370D01*
X92875000Y-78950630D01*
X92849444Y-78855255D01*
X92800075Y-78769745D01*
X92780330Y-78750000D01*
X93849115Y-78750000D01*
X93849115Y-78749999D01*
X93847914Y-78742415D01*
X93794408Y-78577744D01*
X93715804Y-78423475D01*
X93614032Y-78283397D01*
X93491602Y-78160967D01*
X93408551Y-78100628D01*
X93365885Y-78045298D01*
X93359906Y-77975685D01*
X93392511Y-77913889D01*
X93408551Y-77899991D01*
X93413704Y-77896247D01*
X93491928Y-77839414D01*
X93614414Y-77716928D01*
X93716232Y-77576788D01*
X93794873Y-77422445D01*
X93848402Y-77257701D01*
X93875500Y-77086611D01*
X93875500Y-76913389D01*
X93848402Y-76742299D01*
X93794873Y-76577555D01*
X93716232Y-76423212D01*
X93614414Y-76283072D01*
X93491928Y-76160586D01*
X93408975Y-76100317D01*
X93366311Y-76044988D01*
X93360332Y-75975374D01*
X93392938Y-75913579D01*
X93408976Y-75899682D01*
X93430581Y-75883985D01*
X93491928Y-75839414D01*
X93614414Y-75716928D01*
X93716232Y-75576788D01*
X93794873Y-75422445D01*
X93848402Y-75257701D01*
X93875500Y-75086611D01*
X93875500Y-74913389D01*
X93848402Y-74742299D01*
X93794873Y-74577555D01*
X93716232Y-74423212D01*
X93614414Y-74283072D01*
X93491928Y-74160586D01*
X93351788Y-74058768D01*
X93197445Y-73980127D01*
X93032701Y-73926598D01*
X93032699Y-73926597D01*
X93032698Y-73926597D01*
X92901271Y-73905781D01*
X92861611Y-73899500D01*
X92138389Y-73899500D01*
X92098728Y-73905781D01*
X91967302Y-73926597D01*
X91802552Y-73980128D01*
X91648211Y-74058768D01*
X91568256Y-74116859D01*
X91508072Y-74160586D01*
X91508070Y-74160588D01*
X91508069Y-74160588D01*
X91385588Y-74283069D01*
X91385588Y-74283070D01*
X91385586Y-74283072D01*
X91341859Y-74343256D01*
X91283768Y-74423211D01*
X91205128Y-74577552D01*
X91151597Y-74742302D01*
X91124500Y-74913389D01*
X91124500Y-75086615D01*
X91126874Y-75101607D01*
X91117917Y-75170900D01*
X91092081Y-75208682D01*
X89235339Y-77065425D01*
X89174016Y-77098910D01*
X89171850Y-77099361D01*
X89016508Y-77130261D01*
X89016498Y-77130264D01*
X88870827Y-77190602D01*
X88870814Y-77190609D01*
X88739711Y-77278210D01*
X88739707Y-77278213D01*
X88628213Y-77389707D01*
X88628210Y-77389711D01*
X88540609Y-77520814D01*
X88540602Y-77520827D01*
X88480264Y-77666498D01*
X88480261Y-77666510D01*
X88449500Y-77821153D01*
X75350500Y-77821153D01*
X75350500Y-68300097D01*
X75370185Y-68233058D01*
X75386819Y-68212416D01*
X81712417Y-61886818D01*
X81773740Y-61853333D01*
X81800098Y-61850499D01*
X83147871Y-61850499D01*
X83147872Y-61850499D01*
X83207483Y-61844091D01*
X83342331Y-61793796D01*
X83457546Y-61707546D01*
X83543796Y-61592331D01*
X83594091Y-61457483D01*
X83600500Y-61397873D01*
X83600499Y-61373979D01*
X83603330Y-61360963D01*
X83613940Y-61341525D01*
X83620179Y-61320275D01*
X83636803Y-61299643D01*
X83636808Y-61299636D01*
X83636811Y-61299634D01*
X83636818Y-61299626D01*
X84307037Y-60629408D01*
X84324075Y-60692993D01*
X84389901Y-60807007D01*
X84482993Y-60900099D01*
X84597007Y-60965925D01*
X84660590Y-60982962D01*
X84028282Y-61615269D01*
X84028282Y-61615270D01*
X84082449Y-61654624D01*
X84271782Y-61751095D01*
X84473870Y-61816757D01*
X84683754Y-61850000D01*
X84896246Y-61850000D01*
X85106127Y-61816757D01*
X85106130Y-61816757D01*
X85308217Y-61751095D01*
X85497554Y-61654622D01*
X85551716Y-61615270D01*
X85551717Y-61615270D01*
X84919408Y-60982962D01*
X84982993Y-60965925D01*
X85097007Y-60900099D01*
X85190099Y-60807007D01*
X85255925Y-60692993D01*
X85272962Y-60629408D01*
X85905270Y-61261717D01*
X85905270Y-61261716D01*
X85944622Y-61207554D01*
X86041095Y-61018217D01*
X86106757Y-60816130D01*
X86106757Y-60816127D01*
X86140000Y-60606246D01*
X86140000Y-60393753D01*
X86106757Y-60183872D01*
X86106757Y-60183869D01*
X86041095Y-59981782D01*
X85944624Y-59792449D01*
X85905270Y-59738282D01*
X85905269Y-59738282D01*
X85272962Y-60370590D01*
X85255925Y-60307007D01*
X85190099Y-60192993D01*
X85097007Y-60099901D01*
X84982993Y-60034075D01*
X84919409Y-60017037D01*
X85551716Y-59384728D01*
X85497550Y-59345375D01*
X85308217Y-59248904D01*
X85106129Y-59183242D01*
X84896246Y-59150000D01*
X84683754Y-59150000D01*
X84473872Y-59183242D01*
X84473869Y-59183242D01*
X84271782Y-59248904D01*
X84082439Y-59345380D01*
X84028282Y-59384727D01*
X84028282Y-59384728D01*
X84660591Y-60017037D01*
X84597007Y-60034075D01*
X84482993Y-60099901D01*
X84389901Y-60192993D01*
X84324075Y-60307007D01*
X84307037Y-60370591D01*
X83636818Y-59700372D01*
X83603333Y-59639049D01*
X83603330Y-59639036D01*
X83600499Y-59626015D01*
X83600499Y-59602128D01*
X83594091Y-59542517D01*
X83553682Y-59434174D01*
X83543798Y-59407673D01*
X83543793Y-59407664D01*
X83457547Y-59292455D01*
X83457544Y-59292452D01*
X83342335Y-59206206D01*
X83342328Y-59206202D01*
X83207482Y-59155908D01*
X83207483Y-59155908D01*
X83147883Y-59149501D01*
X83147881Y-59149500D01*
X83147873Y-59149500D01*
X83147864Y-59149500D01*
X81352129Y-59149500D01*
X81352123Y-59149501D01*
X81292516Y-59155908D01*
X81157671Y-59206202D01*
X81157664Y-59206206D01*
X81042455Y-59292452D01*
X81042452Y-59292455D01*
X80956206Y-59407664D01*
X80956202Y-59407671D01*
X80905908Y-59542517D01*
X80899501Y-59602116D01*
X80899500Y-59602135D01*
X80899500Y-60949901D01*
X80879815Y-61016940D01*
X80863181Y-61037582D01*
X74819507Y-67081256D01*
X74758184Y-67114741D01*
X74688492Y-67109757D01*
X74632559Y-67067885D01*
X74613897Y-67031897D01*
X74571557Y-66901588D01*
X74475051Y-66712184D01*
X74475049Y-66712181D01*
X74475048Y-66712179D01*
X74350109Y-66540213D01*
X74236181Y-66426285D01*
X74202696Y-66364962D01*
X74207680Y-66295270D01*
X74249552Y-66239337D01*
X74280529Y-66222422D01*
X74412086Y-66173354D01*
X74412093Y-66173350D01*
X74527187Y-66087190D01*
X74527190Y-66087187D01*
X74613350Y-65972093D01*
X74613354Y-65972086D01*
X74663596Y-65837379D01*
X74663598Y-65837372D01*
X74669999Y-65777844D01*
X74670000Y-65777827D01*
X74670000Y-65130000D01*
X73753012Y-65130000D01*
X73785925Y-65072993D01*
X73820000Y-64945826D01*
X73820000Y-64814174D01*
X73785925Y-64687007D01*
X73753012Y-64630000D01*
X74670000Y-64630000D01*
X74670000Y-63982172D01*
X74669999Y-63982155D01*
X74663598Y-63922627D01*
X74663596Y-63922620D01*
X74613354Y-63787913D01*
X74613350Y-63787906D01*
X74527190Y-63672812D01*
X74527187Y-63672809D01*
X74412093Y-63586649D01*
X74412086Y-63586645D01*
X74277379Y-63536403D01*
X74277372Y-63536401D01*
X74217844Y-63530000D01*
X73570000Y-63530000D01*
X73570000Y-64446988D01*
X73512993Y-64414075D01*
X73385826Y-64380000D01*
X73254174Y-64380000D01*
X73127007Y-64414075D01*
X73070000Y-64446988D01*
X73070000Y-63530000D01*
X72894500Y-63530000D01*
X72827461Y-63510315D01*
X72781706Y-63457511D01*
X72770500Y-63406000D01*
X72770500Y-60974499D01*
X72790185Y-60907460D01*
X72842989Y-60861705D01*
X72894500Y-60850499D01*
X73147871Y-60850499D01*
X73147872Y-60850499D01*
X73207483Y-60844091D01*
X73342331Y-60793796D01*
X73457546Y-60707546D01*
X73543796Y-60592331D01*
X73594091Y-60457483D01*
X73600500Y-60397873D01*
X73600499Y-58602128D01*
X73594091Y-58542517D01*
X73594091Y-58542516D01*
X73545598Y-58412499D01*
X73543796Y-58407669D01*
X73543793Y-58407664D01*
X73518620Y-58374038D01*
X94899500Y-58374038D01*
X94899500Y-58625961D01*
X94938910Y-58874785D01*
X95016760Y-59114383D01*
X95131132Y-59338848D01*
X95279201Y-59542649D01*
X95279205Y-59542654D01*
X95457345Y-59720794D01*
X95457350Y-59720798D01*
X95588560Y-59816127D01*
X95661155Y-59868870D01*
X95799774Y-59939500D01*
X95885616Y-59983239D01*
X95885618Y-59983239D01*
X95885621Y-59983241D01*
X96125215Y-60061090D01*
X96374038Y-60100500D01*
X96374039Y-60100500D01*
X96625961Y-60100500D01*
X96625962Y-60100500D01*
X96874785Y-60061090D01*
X97114379Y-59983241D01*
X97338845Y-59868870D01*
X97542656Y-59720793D01*
X97720793Y-59542656D01*
X97868870Y-59338845D01*
X97983241Y-59114379D01*
X98061090Y-58874785D01*
X98100500Y-58625962D01*
X98100500Y-58374038D01*
X98061090Y-58125215D01*
X97983241Y-57885621D01*
X97983239Y-57885618D01*
X97983239Y-57885616D01*
X97941747Y-57804184D01*
X97868870Y-57661155D01*
X97849952Y-57635117D01*
X97720798Y-57457350D01*
X97720794Y-57457345D01*
X97542654Y-57279205D01*
X97542649Y-57279201D01*
X97338848Y-57131132D01*
X97338847Y-57131131D01*
X97338845Y-57131130D01*
X97268747Y-57095413D01*
X97114383Y-57016760D01*
X96874785Y-56938910D01*
X96625962Y-56899500D01*
X96374038Y-56899500D01*
X96249626Y-56919205D01*
X96125214Y-56938910D01*
X95885616Y-57016760D01*
X95661151Y-57131132D01*
X95457350Y-57279201D01*
X95457345Y-57279205D01*
X95279205Y-57457345D01*
X95279201Y-57457350D01*
X95131132Y-57661151D01*
X95016760Y-57885616D01*
X94938910Y-58125214D01*
X94899500Y-58374038D01*
X73518620Y-58374038D01*
X73457547Y-58292455D01*
X73457544Y-58292452D01*
X73342335Y-58206206D01*
X73342328Y-58206202D01*
X73207482Y-58155908D01*
X73207483Y-58155908D01*
X73147883Y-58149501D01*
X73147881Y-58149500D01*
X73147873Y-58149500D01*
X73147864Y-58149500D01*
X71352129Y-58149500D01*
X71352123Y-58149501D01*
X71292516Y-58155908D01*
X71157671Y-58206202D01*
X71157664Y-58206206D01*
X71042455Y-58292452D01*
X71042452Y-58292455D01*
X70956206Y-58407664D01*
X70956203Y-58407669D01*
X70907189Y-58539083D01*
X70865317Y-58595016D01*
X70799853Y-58619433D01*
X70731580Y-58604581D01*
X70703326Y-58583430D01*
X70589786Y-58469890D01*
X70417820Y-58344951D01*
X70228414Y-58248444D01*
X70228413Y-58248443D01*
X70228412Y-58248443D01*
X70026243Y-58182754D01*
X70026241Y-58182753D01*
X70026240Y-58182753D01*
X69864957Y-58157208D01*
X69816287Y-58149500D01*
X69603713Y-58149500D01*
X69555042Y-58157208D01*
X69393760Y-58182753D01*
X69191585Y-58248444D01*
X69002179Y-58344951D01*
X68830213Y-58469890D01*
X68679890Y-58620213D01*
X68554949Y-58792182D01*
X68550484Y-58800946D01*
X68502509Y-58851742D01*
X68434688Y-58868536D01*
X68368553Y-58845998D01*
X68329516Y-58800946D01*
X68325050Y-58792182D01*
X68200109Y-58620213D01*
X68049786Y-58469890D01*
X67877820Y-58344951D01*
X67688414Y-58248444D01*
X67688413Y-58248443D01*
X67688412Y-58248443D01*
X67486243Y-58182754D01*
X67486241Y-58182753D01*
X67486240Y-58182753D01*
X67324957Y-58157208D01*
X67276287Y-58149500D01*
X67063713Y-58149500D01*
X67015042Y-58157208D01*
X66853760Y-58182753D01*
X66651585Y-58248444D01*
X66462179Y-58344951D01*
X66290213Y-58469890D01*
X66139890Y-58620213D01*
X66014949Y-58792182D01*
X66010484Y-58800946D01*
X65962509Y-58851742D01*
X65894688Y-58868536D01*
X65828553Y-58845998D01*
X65789516Y-58800946D01*
X65785050Y-58792182D01*
X65660109Y-58620213D01*
X65509786Y-58469890D01*
X65337820Y-58344951D01*
X65148414Y-58248444D01*
X65148413Y-58248443D01*
X65148412Y-58248443D01*
X64946243Y-58182754D01*
X64946241Y-58182753D01*
X64946240Y-58182753D01*
X64784957Y-58157208D01*
X64736287Y-58149500D01*
X64523713Y-58149500D01*
X64475042Y-58157208D01*
X64313760Y-58182753D01*
X64111585Y-58248444D01*
X63922179Y-58344951D01*
X63750213Y-58469890D01*
X63599890Y-58620213D01*
X63474949Y-58792182D01*
X63470484Y-58800946D01*
X63422509Y-58851742D01*
X63354688Y-58868536D01*
X63288553Y-58845998D01*
X63249516Y-58800946D01*
X63245050Y-58792182D01*
X63120109Y-58620213D01*
X62969786Y-58469890D01*
X62797820Y-58344951D01*
X62608414Y-58248444D01*
X62608413Y-58248443D01*
X62608412Y-58248443D01*
X62406243Y-58182754D01*
X62406241Y-58182753D01*
X62406240Y-58182753D01*
X62244957Y-58157208D01*
X62196287Y-58149500D01*
X61983713Y-58149500D01*
X61935042Y-58157208D01*
X61773760Y-58182753D01*
X61571585Y-58248444D01*
X61382179Y-58344951D01*
X61210213Y-58469890D01*
X61059890Y-58620213D01*
X60934949Y-58792182D01*
X60930484Y-58800946D01*
X60882509Y-58851742D01*
X60814688Y-58868536D01*
X60748553Y-58845998D01*
X60709516Y-58800946D01*
X60705050Y-58792182D01*
X60580109Y-58620213D01*
X60429786Y-58469890D01*
X60257820Y-58344951D01*
X60068414Y-58248444D01*
X60068413Y-58248443D01*
X60068412Y-58248443D01*
X59866243Y-58182754D01*
X59866241Y-58182753D01*
X59866240Y-58182753D01*
X59704957Y-58157208D01*
X59656287Y-58149500D01*
X59443713Y-58149500D01*
X59395042Y-58157208D01*
X59233760Y-58182753D01*
X59031585Y-58248444D01*
X58842179Y-58344951D01*
X58670213Y-58469890D01*
X58519890Y-58620213D01*
X58394949Y-58792182D01*
X58390202Y-58801499D01*
X58342227Y-58852293D01*
X58274405Y-58869087D01*
X58208271Y-58846548D01*
X58169234Y-58801495D01*
X58164626Y-58792452D01*
X58125270Y-58738282D01*
X58125269Y-58738282D01*
X57492962Y-59370590D01*
X57475925Y-59307007D01*
X57410099Y-59192993D01*
X57317007Y-59099901D01*
X57202993Y-59034075D01*
X57139409Y-59017037D01*
X57771716Y-58384728D01*
X57717550Y-58345375D01*
X57528217Y-58248904D01*
X57326129Y-58183242D01*
X57116246Y-58150000D01*
X56903754Y-58150000D01*
X56693872Y-58183242D01*
X56693869Y-58183242D01*
X56491782Y-58248904D01*
X56302439Y-58345380D01*
X56248282Y-58384727D01*
X56248282Y-58384728D01*
X56880591Y-59017037D01*
X56817007Y-59034075D01*
X56702993Y-59099901D01*
X56609901Y-59192993D01*
X56544075Y-59307007D01*
X56527037Y-59370591D01*
X55894728Y-58738282D01*
X55894727Y-58738282D01*
X55855380Y-58792440D01*
X55850483Y-58802051D01*
X55802506Y-58852845D01*
X55734684Y-58869638D01*
X55668550Y-58847098D01*
X55629516Y-58802048D01*
X55624626Y-58792452D01*
X55585270Y-58738282D01*
X55585269Y-58738282D01*
X54952962Y-59370590D01*
X54935925Y-59307007D01*
X54870099Y-59192993D01*
X54777007Y-59099901D01*
X54662993Y-59034075D01*
X54599409Y-59017037D01*
X55231716Y-58384728D01*
X55177550Y-58345375D01*
X54988217Y-58248904D01*
X54786129Y-58183242D01*
X54576246Y-58150000D01*
X54363754Y-58150000D01*
X54153872Y-58183242D01*
X54153869Y-58183242D01*
X53951782Y-58248904D01*
X53762439Y-58345380D01*
X53708282Y-58384727D01*
X53708282Y-58384728D01*
X54340591Y-59017037D01*
X54277007Y-59034075D01*
X54162993Y-59099901D01*
X54069901Y-59192993D01*
X54004075Y-59307007D01*
X53987037Y-59370591D01*
X53354728Y-58738282D01*
X53354727Y-58738282D01*
X53315380Y-58792439D01*
X53218904Y-58981782D01*
X53153242Y-59183869D01*
X53153242Y-59183872D01*
X53120000Y-59393753D01*
X53120000Y-59606246D01*
X53153242Y-59816127D01*
X53153242Y-59816130D01*
X53218904Y-60018217D01*
X53315375Y-60207550D01*
X53354728Y-60261716D01*
X53987037Y-59629408D01*
X54004075Y-59692993D01*
X54069901Y-59807007D01*
X54162993Y-59900099D01*
X54277007Y-59965925D01*
X54340590Y-59982962D01*
X53708282Y-60615269D01*
X53708282Y-60615270D01*
X53762449Y-60654624D01*
X53951782Y-60751095D01*
X54153870Y-60816757D01*
X54363754Y-60850000D01*
X54576246Y-60850000D01*
X54786127Y-60816757D01*
X54786130Y-60816757D01*
X54988217Y-60751095D01*
X55177554Y-60654622D01*
X55231716Y-60615270D01*
X55231717Y-60615270D01*
X54599408Y-59982962D01*
X54662993Y-59965925D01*
X54777007Y-59900099D01*
X54870099Y-59807007D01*
X54935925Y-59692993D01*
X54952962Y-59629408D01*
X55585270Y-60261717D01*
X55585270Y-60261716D01*
X55624622Y-60207554D01*
X55629514Y-60197954D01*
X55677488Y-60147157D01*
X55745308Y-60130361D01*
X55811444Y-60152897D01*
X55850486Y-60197954D01*
X55855375Y-60207550D01*
X55894728Y-60261716D01*
X56527037Y-59629408D01*
X56544075Y-59692993D01*
X56609901Y-59807007D01*
X56702993Y-59900099D01*
X56817007Y-59965925D01*
X56880590Y-59982962D01*
X56248282Y-60615269D01*
X56248282Y-60615270D01*
X56302449Y-60654624D01*
X56491782Y-60751095D01*
X56693870Y-60816757D01*
X56903754Y-60850000D01*
X57116246Y-60850000D01*
X57326127Y-60816757D01*
X57326130Y-60816757D01*
X57528217Y-60751095D01*
X57717554Y-60654622D01*
X57771716Y-60615270D01*
X57771717Y-60615270D01*
X57139408Y-59982962D01*
X57202993Y-59965925D01*
X57317007Y-59900099D01*
X57410099Y-59807007D01*
X57475925Y-59692993D01*
X57492962Y-59629408D01*
X58125270Y-60261717D01*
X58125270Y-60261716D01*
X58164622Y-60207555D01*
X58169232Y-60198507D01*
X58217205Y-60147709D01*
X58285025Y-60130912D01*
X58351161Y-60153447D01*
X58390204Y-60198504D01*
X58394949Y-60207817D01*
X58519890Y-60379786D01*
X58670213Y-60530109D01*
X58842179Y-60655048D01*
X58842181Y-60655049D01*
X58842184Y-60655051D01*
X59031588Y-60751557D01*
X59233757Y-60817246D01*
X59443713Y-60850500D01*
X59443714Y-60850500D01*
X59656286Y-60850500D01*
X59656287Y-60850500D01*
X59866243Y-60817246D01*
X60068412Y-60751557D01*
X60257816Y-60655051D01*
X60344138Y-60592335D01*
X60429786Y-60530109D01*
X60429788Y-60530106D01*
X60429792Y-60530104D01*
X60580104Y-60379792D01*
X60580106Y-60379788D01*
X60580109Y-60379786D01*
X60689086Y-60229789D01*
X60705051Y-60207816D01*
X60709514Y-60199054D01*
X60757488Y-60148259D01*
X60825308Y-60131463D01*
X60891444Y-60153999D01*
X60930486Y-60199056D01*
X60934951Y-60207820D01*
X61059890Y-60379786D01*
X61210213Y-60530109D01*
X61382184Y-60655051D01*
X61382184Y-60655052D01*
X61421793Y-60675233D01*
X61472590Y-60723206D01*
X61489500Y-60785718D01*
X61489500Y-68803330D01*
X61489499Y-68803348D01*
X61489499Y-68969054D01*
X61489498Y-68969054D01*
X61530423Y-69121785D01*
X61559358Y-69171900D01*
X61559359Y-69171904D01*
X61559360Y-69171904D01*
X61609479Y-69258714D01*
X61609481Y-69258717D01*
X61728349Y-69377585D01*
X61728355Y-69377590D01*
X71986241Y-79635476D01*
X72019726Y-79696799D01*
X72016492Y-79761473D01*
X72002753Y-79803757D01*
X71976098Y-79972054D01*
X71969500Y-80013713D01*
X71969500Y-80226287D01*
X72002754Y-80436243D01*
X72055961Y-80599998D01*
X72068444Y-80638414D01*
X72164951Y-80827820D01*
X72289890Y-80999786D01*
X72440213Y-81150109D01*
X72612182Y-81275050D01*
X72620946Y-81279516D01*
X72671742Y-81327491D01*
X72688536Y-81395312D01*
X72665998Y-81461447D01*
X72620946Y-81500484D01*
X72612182Y-81504949D01*
X72440213Y-81629890D01*
X72289890Y-81780213D01*
X72164951Y-81952179D01*
X72068444Y-82141585D01*
X72002753Y-82343760D01*
X71969500Y-82553713D01*
X71969500Y-82766286D01*
X71992024Y-82908501D01*
X72002754Y-82976243D01*
X72064293Y-83165641D01*
X72068444Y-83178414D01*
X72164951Y-83367820D01*
X72289890Y-83539786D01*
X72440213Y-83690109D01*
X72612182Y-83815050D01*
X72620946Y-83819516D01*
X72671742Y-83867491D01*
X72688536Y-83935312D01*
X72665998Y-84001447D01*
X72620946Y-84040484D01*
X72612182Y-84044949D01*
X72440213Y-84169890D01*
X72289890Y-84320213D01*
X72164951Y-84492179D01*
X72068444Y-84681583D01*
X72023290Y-84820552D01*
X71983852Y-84878227D01*
X71919493Y-84905425D01*
X71850647Y-84893510D01*
X71817678Y-84869914D01*
X71676719Y-84728955D01*
X71643234Y-84667632D01*
X71648218Y-84597940D01*
X71668548Y-84562607D01*
X71671047Y-84559560D01*
X71671054Y-84559554D01*
X71758659Y-84428444D01*
X71819002Y-84282762D01*
X71849765Y-84128107D01*
X71849765Y-83970423D01*
X71849765Y-83970420D01*
X71849764Y-83970418D01*
X71841724Y-83930000D01*
X71819002Y-83815768D01*
X71812476Y-83800013D01*
X71758662Y-83670092D01*
X71758655Y-83670079D01*
X71671054Y-83538976D01*
X71671051Y-83538972D01*
X71559557Y-83427478D01*
X71559553Y-83427475D01*
X71428450Y-83339874D01*
X71428437Y-83339867D01*
X71282766Y-83279529D01*
X71282756Y-83279526D01*
X71127414Y-83248626D01*
X71065503Y-83216241D01*
X71063925Y-83214690D01*
X56446819Y-68597584D01*
X56413334Y-68536261D01*
X56410500Y-68509903D01*
X56410500Y-65399060D01*
X56410501Y-65399047D01*
X56410501Y-65230944D01*
X56410501Y-65230943D01*
X56369577Y-65078216D01*
X56349615Y-65043641D01*
X56290524Y-64941290D01*
X56290518Y-64941282D01*
X52277590Y-60928355D01*
X52277588Y-60928352D01*
X52158717Y-60809481D01*
X52158716Y-60809480D01*
X52071904Y-60759360D01*
X52071904Y-60759359D01*
X52071900Y-60759358D01*
X52021785Y-60730423D01*
X51869057Y-60689499D01*
X51710943Y-60689499D01*
X51710939Y-60689500D01*
X49405157Y-60689500D01*
X49338118Y-60669815D01*
X49294672Y-60621794D01*
X49274626Y-60582452D01*
X49235270Y-60528282D01*
X49037728Y-60725824D01*
X49012048Y-60745530D01*
X48901284Y-60809480D01*
X48901281Y-60809482D01*
X48789482Y-60921281D01*
X48789480Y-60921284D01*
X48725530Y-61032048D01*
X48705824Y-61057728D01*
X48602962Y-61160589D01*
X48585925Y-61097007D01*
X48520099Y-60982993D01*
X48427007Y-60889901D01*
X48312993Y-60824075D01*
X48249409Y-60807037D01*
X48881716Y-60174728D01*
X48827550Y-60135375D01*
X48638217Y-60038904D01*
X48436129Y-59973242D01*
X48226246Y-59940000D01*
X48013754Y-59940000D01*
X47803872Y-59973242D01*
X47803869Y-59973242D01*
X47601782Y-60038904D01*
X47412439Y-60135380D01*
X47358282Y-60174727D01*
X47358282Y-60174728D01*
X47990591Y-60807037D01*
X47927007Y-60824075D01*
X47812993Y-60889901D01*
X47719901Y-60982993D01*
X47654075Y-61097007D01*
X47637037Y-61160591D01*
X47534175Y-61057729D01*
X47514468Y-61032047D01*
X47450520Y-60921284D01*
X47338716Y-60809480D01*
X47338715Y-60809479D01*
X47338712Y-60809477D01*
X47227951Y-60745530D01*
X47202270Y-60725824D01*
X47004728Y-60528282D01*
X47004727Y-60528282D01*
X46965380Y-60582440D01*
X46965376Y-60582446D01*
X46960760Y-60591505D01*
X46912781Y-60642297D01*
X46844959Y-60659087D01*
X46778826Y-60636543D01*
X46739794Y-60591493D01*
X46735051Y-60582184D01*
X46735049Y-60582181D01*
X46735048Y-60582179D01*
X46610109Y-60410213D01*
X46459786Y-60259890D01*
X46287820Y-60134951D01*
X46098414Y-60038444D01*
X46098413Y-60038443D01*
X46098412Y-60038443D01*
X45896243Y-59972754D01*
X45896241Y-59972753D01*
X45896240Y-59972753D01*
X45734957Y-59947208D01*
X45686287Y-59939500D01*
X45473713Y-59939500D01*
X45425042Y-59947208D01*
X45263760Y-59972753D01*
X45061585Y-60038444D01*
X44872179Y-60134951D01*
X44700213Y-60259890D01*
X44549890Y-60410213D01*
X44424949Y-60582182D01*
X44420484Y-60590946D01*
X44372509Y-60641742D01*
X44304688Y-60658536D01*
X44238553Y-60635998D01*
X44199516Y-60590946D01*
X44195050Y-60582182D01*
X44070109Y-60410213D01*
X43919786Y-60259890D01*
X43747820Y-60134951D01*
X43558414Y-60038444D01*
X43558413Y-60038443D01*
X43558412Y-60038443D01*
X43356243Y-59972754D01*
X43356241Y-59972753D01*
X43356240Y-59972753D01*
X43194957Y-59947208D01*
X43146287Y-59939500D01*
X42933713Y-59939500D01*
X42885042Y-59947208D01*
X42723760Y-59972753D01*
X42521585Y-60038444D01*
X42332179Y-60134951D01*
X42160215Y-60259889D01*
X42046673Y-60373431D01*
X41985350Y-60406915D01*
X41915658Y-60401931D01*
X41859725Y-60360059D01*
X41842810Y-60329082D01*
X41793797Y-60197671D01*
X41793793Y-60197664D01*
X41707547Y-60082455D01*
X41707544Y-60082452D01*
X41592335Y-59996206D01*
X41592328Y-59996202D01*
X41457482Y-59945908D01*
X41457483Y-59945908D01*
X41397883Y-59939501D01*
X41397881Y-59939500D01*
X41397873Y-59939500D01*
X41397864Y-59939500D01*
X39602129Y-59939500D01*
X39602123Y-59939501D01*
X39542516Y-59945908D01*
X39407671Y-59996202D01*
X39407664Y-59996206D01*
X39292455Y-60082452D01*
X39292452Y-60082455D01*
X39206206Y-60197664D01*
X39206202Y-60197671D01*
X39155908Y-60332517D01*
X39149501Y-60392116D01*
X39149500Y-60392135D01*
X39149500Y-62187870D01*
X39149501Y-62187876D01*
X39155908Y-62247483D01*
X39206202Y-62382328D01*
X39206206Y-62382335D01*
X39292452Y-62497544D01*
X39292455Y-62497547D01*
X39407664Y-62583793D01*
X39407671Y-62583797D01*
X39542517Y-62634091D01*
X39542516Y-62634091D01*
X39549444Y-62634835D01*
X39602127Y-62640500D01*
X41397872Y-62640499D01*
X41457483Y-62634091D01*
X41592331Y-62583796D01*
X41707546Y-62497546D01*
X41793796Y-62382331D01*
X41842810Y-62250916D01*
X41884681Y-62194984D01*
X41950145Y-62170566D01*
X42018418Y-62185417D01*
X42046673Y-62206569D01*
X42160213Y-62320109D01*
X42332179Y-62445048D01*
X42332181Y-62445049D01*
X42332184Y-62445051D01*
X42521588Y-62541557D01*
X42723757Y-62607246D01*
X42933713Y-62640500D01*
X42933714Y-62640500D01*
X43146286Y-62640500D01*
X43146287Y-62640500D01*
X43356243Y-62607246D01*
X43558412Y-62541557D01*
X43747816Y-62445051D01*
X43834138Y-62382335D01*
X43919786Y-62320109D01*
X43919788Y-62320106D01*
X43919792Y-62320104D01*
X43939476Y-62300419D01*
X44000796Y-62266934D01*
X44070488Y-62271917D01*
X44114837Y-62300418D01*
X44734938Y-62920520D01*
X44734940Y-62920521D01*
X44734944Y-62920524D01*
X44859529Y-62992452D01*
X44871870Y-62999577D01*
X45024597Y-63040501D01*
X45024599Y-63040501D01*
X45190308Y-63040501D01*
X45190324Y-63040500D01*
X45969677Y-63040500D01*
X45969693Y-63040501D01*
X45977289Y-63040501D01*
X46135400Y-63040501D01*
X46135403Y-63040501D01*
X46288131Y-62999577D01*
X46338250Y-62970639D01*
X46425062Y-62920520D01*
X46536866Y-62808716D01*
X46536866Y-62808714D01*
X46547074Y-62798507D01*
X46547075Y-62798504D01*
X46762321Y-62583258D01*
X46823641Y-62549776D01*
X46893333Y-62554760D01*
X46937679Y-62583260D01*
X47274938Y-62920520D01*
X47274940Y-62920521D01*
X47274944Y-62920524D01*
X47399529Y-62992452D01*
X47411870Y-62999577D01*
X47564597Y-63040501D01*
X47564599Y-63040501D01*
X47730308Y-63040501D01*
X47730324Y-63040500D01*
X48509677Y-63040500D01*
X48509693Y-63040501D01*
X48517289Y-63040501D01*
X48675400Y-63040501D01*
X48675403Y-63040501D01*
X48828131Y-62999577D01*
X48878250Y-62970639D01*
X48965062Y-62920520D01*
X49076866Y-62808716D01*
X49076866Y-62808714D01*
X49087074Y-62798507D01*
X49087075Y-62798504D01*
X49750520Y-62135062D01*
X49829577Y-61998130D01*
X49833791Y-61982405D01*
X49870156Y-61922745D01*
X49933004Y-61892217D01*
X49953565Y-61890500D01*
X51489903Y-61890500D01*
X51556942Y-61910185D01*
X51577584Y-61926819D01*
X52968583Y-63317819D01*
X53002068Y-63379142D01*
X52997084Y-63448834D01*
X52955212Y-63504767D01*
X52889748Y-63529184D01*
X52880902Y-63529500D01*
X52102129Y-63529500D01*
X52102123Y-63529501D01*
X52042516Y-63535908D01*
X51907671Y-63586202D01*
X51907664Y-63586206D01*
X51792455Y-63672452D01*
X51792452Y-63672455D01*
X51706206Y-63787664D01*
X51706202Y-63787671D01*
X51655908Y-63922517D01*
X51649501Y-63982116D01*
X51649500Y-63982135D01*
X51649500Y-64920903D01*
X51629815Y-64987942D01*
X51577011Y-65033697D01*
X51507853Y-65043641D01*
X51444297Y-65014616D01*
X51437819Y-65008584D01*
X50317590Y-63888355D01*
X50317588Y-63888352D01*
X50198717Y-63769481D01*
X50198716Y-63769480D01*
X50099839Y-63712394D01*
X50099838Y-63712393D01*
X50061783Y-63690422D01*
X49996061Y-63672812D01*
X49909057Y-63649499D01*
X49750943Y-63649499D01*
X49743347Y-63649499D01*
X49743331Y-63649500D01*
X36341836Y-63649500D01*
X36274797Y-63629815D01*
X36231352Y-63581796D01*
X36197814Y-63515976D01*
X36068247Y-63337641D01*
X36068243Y-63337636D01*
X35912363Y-63181756D01*
X35912358Y-63181752D01*
X35734025Y-63052187D01*
X35734024Y-63052186D01*
X35734022Y-63052185D01*
X35671096Y-63020122D01*
X35537606Y-62952104D01*
X35537603Y-62952103D01*
X35327952Y-62883985D01*
X35219086Y-62866742D01*
X35110222Y-62849500D01*
X34889778Y-62849500D01*
X34817201Y-62860995D01*
X34672047Y-62883985D01*
X34462396Y-62952103D01*
X34462393Y-62952104D01*
X34265974Y-63052187D01*
X34087641Y-63181752D01*
X34087636Y-63181756D01*
X34037463Y-63231929D01*
X33976140Y-63265413D01*
X33906448Y-63260428D01*
X33850515Y-63218557D01*
X33833601Y-63187580D01*
X33803797Y-63107671D01*
X33803793Y-63107664D01*
X33717547Y-62992455D01*
X33717544Y-62992452D01*
X33602335Y-62906206D01*
X33602328Y-62906202D01*
X33467482Y-62855908D01*
X33467483Y-62855908D01*
X33407883Y-62849501D01*
X33407881Y-62849500D01*
X33407873Y-62849500D01*
X33407864Y-62849500D01*
X31512129Y-62849500D01*
X31512123Y-62849501D01*
X31452516Y-62855908D01*
X31317671Y-62906202D01*
X31317664Y-62906206D01*
X31202455Y-62992452D01*
X31202452Y-62992455D01*
X31116206Y-63107664D01*
X31116202Y-63107671D01*
X31065908Y-63242517D01*
X31059501Y-63302116D01*
X31059500Y-63302135D01*
X26029416Y-63302135D01*
X26029416Y-58374038D01*
X26899500Y-58374038D01*
X26899500Y-58625961D01*
X26938910Y-58874785D01*
X27016760Y-59114383D01*
X27131132Y-59338848D01*
X27279201Y-59542649D01*
X27279205Y-59542654D01*
X27457345Y-59720794D01*
X27457350Y-59720798D01*
X27588560Y-59816127D01*
X27661155Y-59868870D01*
X27799774Y-59939500D01*
X27885616Y-59983239D01*
X27885618Y-59983239D01*
X27885621Y-59983241D01*
X28125215Y-60061090D01*
X28374038Y-60100500D01*
X28374039Y-60100500D01*
X28625961Y-60100500D01*
X28625962Y-60100500D01*
X28874785Y-60061090D01*
X29114379Y-59983241D01*
X29338845Y-59868870D01*
X29542656Y-59720793D01*
X29720793Y-59542656D01*
X29868870Y-59338845D01*
X29983241Y-59114379D01*
X30061090Y-58874785D01*
X30100500Y-58625962D01*
X30100500Y-58374038D01*
X30061090Y-58125215D01*
X29983241Y-57885621D01*
X29983239Y-57885618D01*
X29983239Y-57885616D01*
X29941747Y-57804184D01*
X29868870Y-57661155D01*
X29849952Y-57635117D01*
X29720798Y-57457350D01*
X29720794Y-57457345D01*
X29542654Y-57279205D01*
X29542649Y-57279201D01*
X29338848Y-57131132D01*
X29338847Y-57131131D01*
X29338845Y-57131130D01*
X29268747Y-57095413D01*
X29114383Y-57016760D01*
X28874785Y-56938910D01*
X28625962Y-56899500D01*
X28374038Y-56899500D01*
X28249626Y-56919205D01*
X28125214Y-56938910D01*
X27885616Y-57016760D01*
X27661151Y-57131132D01*
X27457350Y-57279201D01*
X27457345Y-57279205D01*
X27279205Y-57457345D01*
X27279201Y-57457350D01*
X27131132Y-57661151D01*
X27016760Y-57885616D01*
X26938910Y-58125214D01*
X26899500Y-58374038D01*
X26029416Y-58374038D01*
X26029416Y-56048811D01*
X26049101Y-55981772D01*
X26101905Y-55936017D01*
X26153416Y-55924811D01*
X98904416Y-55924811D01*
X98971455Y-55944496D01*
G37*
%TD.AperFunction*%
%TD*%
M02*
