%TF.GenerationSoftware,KiCad,Pcbnew,10.0.0*%
%TF.CreationDate,2026-04-07T03:57:46+10:00*%
%TF.ProjectId,breakoutB,62726561-6b6f-4757-9442-2e6b69636164,rev?*%
%TF.SameCoordinates,Original*%
%TF.FileFunction,Drillmap*%
%TF.FilePolarity,Positive*%
%FSLAX45Y45*%
G04 Gerber Fmt 4.5, Leading zero omitted, Abs format (unit mm)*
G04 Created by KiCad (PCBNEW 10.0.0) date 2026-04-07 03:57:46*
%MOMM*%
%LPD*%
G01*
G04 APERTURE LIST*
%ADD10C,0.050000*%
%ADD11C,0.200000*%
%ADD12C,0.270000*%
G04 APERTURE END LIST*
D10*
X2552892Y-5542431D02*
X9952892Y-5542431D01*
X9952892Y-12742431D01*
X2552892Y-12742431D01*
X2552892Y-5542431D01*
D11*
D12*
X2715000Y-5715000D02*
X2985000Y-5985000D01*
X2985000Y-5715000D02*
X2715000Y-5985000D01*
X2715000Y-12315000D02*
X2985000Y-12585000D01*
X2985000Y-12315000D02*
X2715000Y-12585000D01*
X9515000Y-5715000D02*
X9785000Y-5985000D01*
X9785000Y-5715000D02*
X9515000Y-5985000D01*
X9515000Y-12315000D02*
X9785000Y-12585000D01*
X9785000Y-12315000D02*
X9515000Y-12585000D01*
D11*
X2811168Y-13056415D02*
X2811168Y-12856415D01*
X2811168Y-12856415D02*
X2858787Y-12856415D01*
X2858787Y-12856415D02*
X2887359Y-12865939D01*
X2887359Y-12865939D02*
X2906406Y-12884986D01*
X2906406Y-12884986D02*
X2915930Y-12904034D01*
X2915930Y-12904034D02*
X2925454Y-12942129D01*
X2925454Y-12942129D02*
X2925454Y-12970701D01*
X2925454Y-12970701D02*
X2915930Y-13008796D01*
X2915930Y-13008796D02*
X2906406Y-13027843D01*
X2906406Y-13027843D02*
X2887359Y-13046891D01*
X2887359Y-13046891D02*
X2858787Y-13056415D01*
X2858787Y-13056415D02*
X2811168Y-13056415D01*
X3011168Y-13056415D02*
X3011168Y-12923081D01*
X3011168Y-12961177D02*
X3020692Y-12942129D01*
X3020692Y-12942129D02*
X3030216Y-12932605D01*
X3030216Y-12932605D02*
X3049264Y-12923081D01*
X3049264Y-12923081D02*
X3068311Y-12923081D01*
X3134978Y-13056415D02*
X3134978Y-12923081D01*
X3134978Y-12856415D02*
X3125454Y-12865939D01*
X3125454Y-12865939D02*
X3134978Y-12875462D01*
X3134978Y-12875462D02*
X3144502Y-12865939D01*
X3144502Y-12865939D02*
X3134978Y-12856415D01*
X3134978Y-12856415D02*
X3134978Y-12875462D01*
X3258787Y-13056415D02*
X3239740Y-13046891D01*
X3239740Y-13046891D02*
X3230216Y-13027843D01*
X3230216Y-13027843D02*
X3230216Y-12856415D01*
X3363549Y-13056415D02*
X3344502Y-13046891D01*
X3344502Y-13046891D02*
X3334978Y-13027843D01*
X3334978Y-13027843D02*
X3334978Y-12856415D01*
X3592121Y-13056415D02*
X3592121Y-12856415D01*
X3592121Y-12856415D02*
X3658787Y-12999272D01*
X3658787Y-12999272D02*
X3725454Y-12856415D01*
X3725454Y-12856415D02*
X3725454Y-13056415D01*
X3906406Y-13056415D02*
X3906406Y-12951653D01*
X3906406Y-12951653D02*
X3896883Y-12932605D01*
X3896883Y-12932605D02*
X3877835Y-12923081D01*
X3877835Y-12923081D02*
X3839740Y-12923081D01*
X3839740Y-12923081D02*
X3820692Y-12932605D01*
X3906406Y-13046891D02*
X3887359Y-13056415D01*
X3887359Y-13056415D02*
X3839740Y-13056415D01*
X3839740Y-13056415D02*
X3820692Y-13046891D01*
X3820692Y-13046891D02*
X3811168Y-13027843D01*
X3811168Y-13027843D02*
X3811168Y-13008796D01*
X3811168Y-13008796D02*
X3820692Y-12989748D01*
X3820692Y-12989748D02*
X3839740Y-12980224D01*
X3839740Y-12980224D02*
X3887359Y-12980224D01*
X3887359Y-12980224D02*
X3906406Y-12970701D01*
X4001645Y-12923081D02*
X4001645Y-13123081D01*
X4001645Y-12932605D02*
X4020692Y-12923081D01*
X4020692Y-12923081D02*
X4058787Y-12923081D01*
X4058787Y-12923081D02*
X4077835Y-12932605D01*
X4077835Y-12932605D02*
X4087359Y-12942129D01*
X4087359Y-12942129D02*
X4096883Y-12961177D01*
X4096883Y-12961177D02*
X4096883Y-13018320D01*
X4096883Y-13018320D02*
X4087359Y-13037367D01*
X4087359Y-13037367D02*
X4077835Y-13046891D01*
X4077835Y-13046891D02*
X4058787Y-13056415D01*
X4058787Y-13056415D02*
X4020692Y-13056415D01*
X4020692Y-13056415D02*
X4001645Y-13046891D01*
X4182597Y-13037367D02*
X4192121Y-13046891D01*
X4192121Y-13046891D02*
X4182597Y-13056415D01*
X4182597Y-13056415D02*
X4173073Y-13046891D01*
X4173073Y-13046891D02*
X4182597Y-13037367D01*
X4182597Y-13037367D02*
X4182597Y-13056415D01*
X4182597Y-12932605D02*
X4192121Y-12942129D01*
X4192121Y-12942129D02*
X4182597Y-12951653D01*
X4182597Y-12951653D02*
X4173073Y-12942129D01*
X4173073Y-12942129D02*
X4182597Y-12932605D01*
X4182597Y-12932605D02*
X4182597Y-12951653D01*
X2350392Y-13284931D02*
X2550392Y-13484931D01*
X2550392Y-13284931D02*
X2350392Y-13484931D01*
X2801645Y-13295462D02*
X2811168Y-13285939D01*
X2811168Y-13285939D02*
X2830216Y-13276415D01*
X2830216Y-13276415D02*
X2877835Y-13276415D01*
X2877835Y-13276415D02*
X2896883Y-13285939D01*
X2896883Y-13285939D02*
X2906406Y-13295462D01*
X2906406Y-13295462D02*
X2915930Y-13314510D01*
X2915930Y-13314510D02*
X2915930Y-13333558D01*
X2915930Y-13333558D02*
X2906406Y-13362129D01*
X2906406Y-13362129D02*
X2792121Y-13476415D01*
X2792121Y-13476415D02*
X2915930Y-13476415D01*
X3001645Y-13457367D02*
X3011168Y-13466891D01*
X3011168Y-13466891D02*
X3001645Y-13476415D01*
X3001645Y-13476415D02*
X2992121Y-13466891D01*
X2992121Y-13466891D02*
X3001645Y-13457367D01*
X3001645Y-13457367D02*
X3001645Y-13476415D01*
X3077835Y-13276415D02*
X3211168Y-13276415D01*
X3211168Y-13276415D02*
X3125454Y-13476415D01*
X3325454Y-13276415D02*
X3344502Y-13276415D01*
X3344502Y-13276415D02*
X3363549Y-13285939D01*
X3363549Y-13285939D02*
X3373073Y-13295462D01*
X3373073Y-13295462D02*
X3382597Y-13314510D01*
X3382597Y-13314510D02*
X3392121Y-13352605D01*
X3392121Y-13352605D02*
X3392121Y-13400224D01*
X3392121Y-13400224D02*
X3382597Y-13438320D01*
X3382597Y-13438320D02*
X3373073Y-13457367D01*
X3373073Y-13457367D02*
X3363549Y-13466891D01*
X3363549Y-13466891D02*
X3344502Y-13476415D01*
X3344502Y-13476415D02*
X3325454Y-13476415D01*
X3325454Y-13476415D02*
X3306406Y-13466891D01*
X3306406Y-13466891D02*
X3296883Y-13457367D01*
X3296883Y-13457367D02*
X3287359Y-13438320D01*
X3287359Y-13438320D02*
X3277835Y-13400224D01*
X3277835Y-13400224D02*
X3277835Y-13352605D01*
X3277835Y-13352605D02*
X3287359Y-13314510D01*
X3287359Y-13314510D02*
X3296883Y-13295462D01*
X3296883Y-13295462D02*
X3306406Y-13285939D01*
X3306406Y-13285939D02*
X3325454Y-13276415D01*
X3515930Y-13276415D02*
X3534978Y-13276415D01*
X3534978Y-13276415D02*
X3554026Y-13285939D01*
X3554026Y-13285939D02*
X3563549Y-13295462D01*
X3563549Y-13295462D02*
X3573073Y-13314510D01*
X3573073Y-13314510D02*
X3582597Y-13352605D01*
X3582597Y-13352605D02*
X3582597Y-13400224D01*
X3582597Y-13400224D02*
X3573073Y-13438320D01*
X3573073Y-13438320D02*
X3563549Y-13457367D01*
X3563549Y-13457367D02*
X3554026Y-13466891D01*
X3554026Y-13466891D02*
X3534978Y-13476415D01*
X3534978Y-13476415D02*
X3515930Y-13476415D01*
X3515930Y-13476415D02*
X3496883Y-13466891D01*
X3496883Y-13466891D02*
X3487359Y-13457367D01*
X3487359Y-13457367D02*
X3477835Y-13438320D01*
X3477835Y-13438320D02*
X3468311Y-13400224D01*
X3468311Y-13400224D02*
X3468311Y-13352605D01*
X3468311Y-13352605D02*
X3477835Y-13314510D01*
X3477835Y-13314510D02*
X3487359Y-13295462D01*
X3487359Y-13295462D02*
X3496883Y-13285939D01*
X3496883Y-13285939D02*
X3515930Y-13276415D01*
X3668311Y-13476415D02*
X3668311Y-13343081D01*
X3668311Y-13362129D02*
X3677835Y-13352605D01*
X3677835Y-13352605D02*
X3696883Y-13343081D01*
X3696883Y-13343081D02*
X3725454Y-13343081D01*
X3725454Y-13343081D02*
X3744502Y-13352605D01*
X3744502Y-13352605D02*
X3754026Y-13371653D01*
X3754026Y-13371653D02*
X3754026Y-13476415D01*
X3754026Y-13371653D02*
X3763549Y-13352605D01*
X3763549Y-13352605D02*
X3782597Y-13343081D01*
X3782597Y-13343081D02*
X3811168Y-13343081D01*
X3811168Y-13343081D02*
X3830216Y-13352605D01*
X3830216Y-13352605D02*
X3839740Y-13371653D01*
X3839740Y-13371653D02*
X3839740Y-13476415D01*
X3934978Y-13476415D02*
X3934978Y-13343081D01*
X3934978Y-13362129D02*
X3944502Y-13352605D01*
X3944502Y-13352605D02*
X3963549Y-13343081D01*
X3963549Y-13343081D02*
X3992121Y-13343081D01*
X3992121Y-13343081D02*
X4011168Y-13352605D01*
X4011168Y-13352605D02*
X4020692Y-13371653D01*
X4020692Y-13371653D02*
X4020692Y-13476415D01*
X4020692Y-13371653D02*
X4030216Y-13352605D01*
X4030216Y-13352605D02*
X4049264Y-13343081D01*
X4049264Y-13343081D02*
X4077835Y-13343081D01*
X4077835Y-13343081D02*
X4096883Y-13352605D01*
X4096883Y-13352605D02*
X4106407Y-13371653D01*
X4106407Y-13371653D02*
X4106407Y-13476415D01*
X4496883Y-13266891D02*
X4325454Y-13524034D01*
X4754026Y-13276415D02*
X4773073Y-13276415D01*
X4773073Y-13276415D02*
X4792121Y-13285939D01*
X4792121Y-13285939D02*
X4801645Y-13295462D01*
X4801645Y-13295462D02*
X4811169Y-13314510D01*
X4811169Y-13314510D02*
X4820692Y-13352605D01*
X4820692Y-13352605D02*
X4820692Y-13400224D01*
X4820692Y-13400224D02*
X4811169Y-13438320D01*
X4811169Y-13438320D02*
X4801645Y-13457367D01*
X4801645Y-13457367D02*
X4792121Y-13466891D01*
X4792121Y-13466891D02*
X4773073Y-13476415D01*
X4773073Y-13476415D02*
X4754026Y-13476415D01*
X4754026Y-13476415D02*
X4734978Y-13466891D01*
X4734978Y-13466891D02*
X4725454Y-13457367D01*
X4725454Y-13457367D02*
X4715931Y-13438320D01*
X4715931Y-13438320D02*
X4706407Y-13400224D01*
X4706407Y-13400224D02*
X4706407Y-13352605D01*
X4706407Y-13352605D02*
X4715931Y-13314510D01*
X4715931Y-13314510D02*
X4725454Y-13295462D01*
X4725454Y-13295462D02*
X4734978Y-13285939D01*
X4734978Y-13285939D02*
X4754026Y-13276415D01*
X4906407Y-13457367D02*
X4915931Y-13466891D01*
X4915931Y-13466891D02*
X4906407Y-13476415D01*
X4906407Y-13476415D02*
X4896883Y-13466891D01*
X4896883Y-13466891D02*
X4906407Y-13457367D01*
X4906407Y-13457367D02*
X4906407Y-13476415D01*
X5106407Y-13476415D02*
X4992121Y-13476415D01*
X5049264Y-13476415D02*
X5049264Y-13276415D01*
X5049264Y-13276415D02*
X5030216Y-13304986D01*
X5030216Y-13304986D02*
X5011169Y-13324034D01*
X5011169Y-13324034D02*
X4992121Y-13333558D01*
X5230216Y-13276415D02*
X5249264Y-13276415D01*
X5249264Y-13276415D02*
X5268312Y-13285939D01*
X5268312Y-13285939D02*
X5277835Y-13295462D01*
X5277835Y-13295462D02*
X5287359Y-13314510D01*
X5287359Y-13314510D02*
X5296883Y-13352605D01*
X5296883Y-13352605D02*
X5296883Y-13400224D01*
X5296883Y-13400224D02*
X5287359Y-13438320D01*
X5287359Y-13438320D02*
X5277835Y-13457367D01*
X5277835Y-13457367D02*
X5268312Y-13466891D01*
X5268312Y-13466891D02*
X5249264Y-13476415D01*
X5249264Y-13476415D02*
X5230216Y-13476415D01*
X5230216Y-13476415D02*
X5211169Y-13466891D01*
X5211169Y-13466891D02*
X5201645Y-13457367D01*
X5201645Y-13457367D02*
X5192121Y-13438320D01*
X5192121Y-13438320D02*
X5182597Y-13400224D01*
X5182597Y-13400224D02*
X5182597Y-13352605D01*
X5182597Y-13352605D02*
X5192121Y-13314510D01*
X5192121Y-13314510D02*
X5201645Y-13295462D01*
X5201645Y-13295462D02*
X5211169Y-13285939D01*
X5211169Y-13285939D02*
X5230216Y-13276415D01*
X5468312Y-13276415D02*
X5430216Y-13276415D01*
X5430216Y-13276415D02*
X5411169Y-13285939D01*
X5411169Y-13285939D02*
X5401645Y-13295462D01*
X5401645Y-13295462D02*
X5382597Y-13324034D01*
X5382597Y-13324034D02*
X5373073Y-13362129D01*
X5373073Y-13362129D02*
X5373073Y-13438320D01*
X5373073Y-13438320D02*
X5382597Y-13457367D01*
X5382597Y-13457367D02*
X5392121Y-13466891D01*
X5392121Y-13466891D02*
X5411169Y-13476415D01*
X5411169Y-13476415D02*
X5449264Y-13476415D01*
X5449264Y-13476415D02*
X5468312Y-13466891D01*
X5468312Y-13466891D02*
X5477835Y-13457367D01*
X5477835Y-13457367D02*
X5487359Y-13438320D01*
X5487359Y-13438320D02*
X5487359Y-13390701D01*
X5487359Y-13390701D02*
X5477835Y-13371653D01*
X5477835Y-13371653D02*
X5468312Y-13362129D01*
X5468312Y-13362129D02*
X5449264Y-13352605D01*
X5449264Y-13352605D02*
X5411169Y-13352605D01*
X5411169Y-13352605D02*
X5392121Y-13362129D01*
X5392121Y-13362129D02*
X5382597Y-13371653D01*
X5382597Y-13371653D02*
X5373073Y-13390701D01*
X5554026Y-13276415D02*
X5677835Y-13276415D01*
X5677835Y-13276415D02*
X5611169Y-13352605D01*
X5611169Y-13352605D02*
X5639740Y-13352605D01*
X5639740Y-13352605D02*
X5658788Y-13362129D01*
X5658788Y-13362129D02*
X5668311Y-13371653D01*
X5668311Y-13371653D02*
X5677835Y-13390701D01*
X5677835Y-13390701D02*
X5677835Y-13438320D01*
X5677835Y-13438320D02*
X5668311Y-13457367D01*
X5668311Y-13457367D02*
X5658788Y-13466891D01*
X5658788Y-13466891D02*
X5639740Y-13476415D01*
X5639740Y-13476415D02*
X5582597Y-13476415D01*
X5582597Y-13476415D02*
X5563550Y-13466891D01*
X5563550Y-13466891D02*
X5554026Y-13457367D01*
X5754026Y-13276415D02*
X5754026Y-13314510D01*
X5830216Y-13276415D02*
X5830216Y-13314510D01*
X6125454Y-13552605D02*
X6115931Y-13543081D01*
X6115931Y-13543081D02*
X6096883Y-13514510D01*
X6096883Y-13514510D02*
X6087359Y-13495462D01*
X6087359Y-13495462D02*
X6077835Y-13466891D01*
X6077835Y-13466891D02*
X6068312Y-13419272D01*
X6068312Y-13419272D02*
X6068312Y-13381177D01*
X6068312Y-13381177D02*
X6077835Y-13333558D01*
X6077835Y-13333558D02*
X6087359Y-13304986D01*
X6087359Y-13304986D02*
X6096883Y-13285939D01*
X6096883Y-13285939D02*
X6115931Y-13257367D01*
X6115931Y-13257367D02*
X6125454Y-13247843D01*
X6287359Y-13343081D02*
X6287359Y-13476415D01*
X6239740Y-13266891D02*
X6192121Y-13409748D01*
X6192121Y-13409748D02*
X6315931Y-13409748D01*
X6544502Y-13476415D02*
X6544502Y-13276415D01*
X6630216Y-13476415D02*
X6630216Y-13371653D01*
X6630216Y-13371653D02*
X6620693Y-13352605D01*
X6620693Y-13352605D02*
X6601645Y-13343081D01*
X6601645Y-13343081D02*
X6573073Y-13343081D01*
X6573073Y-13343081D02*
X6554026Y-13352605D01*
X6554026Y-13352605D02*
X6544502Y-13362129D01*
X6754026Y-13476415D02*
X6734978Y-13466891D01*
X6734978Y-13466891D02*
X6725454Y-13457367D01*
X6725454Y-13457367D02*
X6715931Y-13438320D01*
X6715931Y-13438320D02*
X6715931Y-13381177D01*
X6715931Y-13381177D02*
X6725454Y-13362129D01*
X6725454Y-13362129D02*
X6734978Y-13352605D01*
X6734978Y-13352605D02*
X6754026Y-13343081D01*
X6754026Y-13343081D02*
X6782597Y-13343081D01*
X6782597Y-13343081D02*
X6801645Y-13352605D01*
X6801645Y-13352605D02*
X6811169Y-13362129D01*
X6811169Y-13362129D02*
X6820693Y-13381177D01*
X6820693Y-13381177D02*
X6820693Y-13438320D01*
X6820693Y-13438320D02*
X6811169Y-13457367D01*
X6811169Y-13457367D02*
X6801645Y-13466891D01*
X6801645Y-13466891D02*
X6782597Y-13476415D01*
X6782597Y-13476415D02*
X6754026Y-13476415D01*
X6934978Y-13476415D02*
X6915931Y-13466891D01*
X6915931Y-13466891D02*
X6906407Y-13447843D01*
X6906407Y-13447843D02*
X6906407Y-13276415D01*
X7087359Y-13466891D02*
X7068312Y-13476415D01*
X7068312Y-13476415D02*
X7030216Y-13476415D01*
X7030216Y-13476415D02*
X7011169Y-13466891D01*
X7011169Y-13466891D02*
X7001645Y-13447843D01*
X7001645Y-13447843D02*
X7001645Y-13371653D01*
X7001645Y-13371653D02*
X7011169Y-13352605D01*
X7011169Y-13352605D02*
X7030216Y-13343081D01*
X7030216Y-13343081D02*
X7068312Y-13343081D01*
X7068312Y-13343081D02*
X7087359Y-13352605D01*
X7087359Y-13352605D02*
X7096883Y-13371653D01*
X7096883Y-13371653D02*
X7096883Y-13390701D01*
X7096883Y-13390701D02*
X7001645Y-13409748D01*
X7173074Y-13466891D02*
X7192121Y-13476415D01*
X7192121Y-13476415D02*
X7230216Y-13476415D01*
X7230216Y-13476415D02*
X7249264Y-13466891D01*
X7249264Y-13466891D02*
X7258788Y-13447843D01*
X7258788Y-13447843D02*
X7258788Y-13438320D01*
X7258788Y-13438320D02*
X7249264Y-13419272D01*
X7249264Y-13419272D02*
X7230216Y-13409748D01*
X7230216Y-13409748D02*
X7201645Y-13409748D01*
X7201645Y-13409748D02*
X7182597Y-13400224D01*
X7182597Y-13400224D02*
X7173074Y-13381177D01*
X7173074Y-13381177D02*
X7173074Y-13371653D01*
X7173074Y-13371653D02*
X7182597Y-13352605D01*
X7182597Y-13352605D02*
X7201645Y-13343081D01*
X7201645Y-13343081D02*
X7230216Y-13343081D01*
X7230216Y-13343081D02*
X7249264Y-13352605D01*
X7325455Y-13552605D02*
X7334978Y-13543081D01*
X7334978Y-13543081D02*
X7354026Y-13514510D01*
X7354026Y-13514510D02*
X7363550Y-13495462D01*
X7363550Y-13495462D02*
X7373074Y-13466891D01*
X7373074Y-13466891D02*
X7382597Y-13419272D01*
X7382597Y-13419272D02*
X7382597Y-13381177D01*
X7382597Y-13381177D02*
X7373074Y-13333558D01*
X7373074Y-13333558D02*
X7363550Y-13304986D01*
X7363550Y-13304986D02*
X7354026Y-13285939D01*
X7354026Y-13285939D02*
X7334978Y-13257367D01*
X7334978Y-13257367D02*
X7325455Y-13247843D01*
X7687359Y-13552605D02*
X7677835Y-13543081D01*
X7677835Y-13543081D02*
X7658788Y-13514510D01*
X7658788Y-13514510D02*
X7649264Y-13495462D01*
X7649264Y-13495462D02*
X7639740Y-13466891D01*
X7639740Y-13466891D02*
X7630216Y-13419272D01*
X7630216Y-13419272D02*
X7630216Y-13381177D01*
X7630216Y-13381177D02*
X7639740Y-13333558D01*
X7639740Y-13333558D02*
X7649264Y-13304986D01*
X7649264Y-13304986D02*
X7658788Y-13285939D01*
X7658788Y-13285939D02*
X7677835Y-13257367D01*
X7677835Y-13257367D02*
X7687359Y-13247843D01*
X7763550Y-13343081D02*
X7763550Y-13476415D01*
X7763550Y-13362129D02*
X7773074Y-13352605D01*
X7773074Y-13352605D02*
X7792121Y-13343081D01*
X7792121Y-13343081D02*
X7820693Y-13343081D01*
X7820693Y-13343081D02*
X7839740Y-13352605D01*
X7839740Y-13352605D02*
X7849264Y-13371653D01*
X7849264Y-13371653D02*
X7849264Y-13476415D01*
X7973074Y-13476415D02*
X7954026Y-13466891D01*
X7954026Y-13466891D02*
X7944502Y-13457367D01*
X7944502Y-13457367D02*
X7934978Y-13438320D01*
X7934978Y-13438320D02*
X7934978Y-13381177D01*
X7934978Y-13381177D02*
X7944502Y-13362129D01*
X7944502Y-13362129D02*
X7954026Y-13352605D01*
X7954026Y-13352605D02*
X7973074Y-13343081D01*
X7973074Y-13343081D02*
X8001645Y-13343081D01*
X8001645Y-13343081D02*
X8020693Y-13352605D01*
X8020693Y-13352605D02*
X8030216Y-13362129D01*
X8030216Y-13362129D02*
X8039740Y-13381177D01*
X8039740Y-13381177D02*
X8039740Y-13438320D01*
X8039740Y-13438320D02*
X8030216Y-13457367D01*
X8030216Y-13457367D02*
X8020693Y-13466891D01*
X8020693Y-13466891D02*
X8001645Y-13476415D01*
X8001645Y-13476415D02*
X7973074Y-13476415D01*
X8096883Y-13343081D02*
X8173074Y-13343081D01*
X8125455Y-13276415D02*
X8125455Y-13447843D01*
X8125455Y-13447843D02*
X8134978Y-13466891D01*
X8134978Y-13466891D02*
X8154026Y-13476415D01*
X8154026Y-13476415D02*
X8173074Y-13476415D01*
X8392121Y-13343081D02*
X8392121Y-13543081D01*
X8392121Y-13352605D02*
X8411169Y-13343081D01*
X8411169Y-13343081D02*
X8449264Y-13343081D01*
X8449264Y-13343081D02*
X8468312Y-13352605D01*
X8468312Y-13352605D02*
X8477836Y-13362129D01*
X8477836Y-13362129D02*
X8487359Y-13381177D01*
X8487359Y-13381177D02*
X8487359Y-13438320D01*
X8487359Y-13438320D02*
X8477836Y-13457367D01*
X8477836Y-13457367D02*
X8468312Y-13466891D01*
X8468312Y-13466891D02*
X8449264Y-13476415D01*
X8449264Y-13476415D02*
X8411169Y-13476415D01*
X8411169Y-13476415D02*
X8392121Y-13466891D01*
X8601645Y-13476415D02*
X8582598Y-13466891D01*
X8582598Y-13466891D02*
X8573074Y-13447843D01*
X8573074Y-13447843D02*
X8573074Y-13276415D01*
X8763550Y-13476415D02*
X8763550Y-13371653D01*
X8763550Y-13371653D02*
X8754026Y-13352605D01*
X8754026Y-13352605D02*
X8734979Y-13343081D01*
X8734979Y-13343081D02*
X8696883Y-13343081D01*
X8696883Y-13343081D02*
X8677836Y-13352605D01*
X8763550Y-13466891D02*
X8744502Y-13476415D01*
X8744502Y-13476415D02*
X8696883Y-13476415D01*
X8696883Y-13476415D02*
X8677836Y-13466891D01*
X8677836Y-13466891D02*
X8668312Y-13447843D01*
X8668312Y-13447843D02*
X8668312Y-13428796D01*
X8668312Y-13428796D02*
X8677836Y-13409748D01*
X8677836Y-13409748D02*
X8696883Y-13400224D01*
X8696883Y-13400224D02*
X8744502Y-13400224D01*
X8744502Y-13400224D02*
X8763550Y-13390701D01*
X8830217Y-13343081D02*
X8906407Y-13343081D01*
X8858788Y-13276415D02*
X8858788Y-13447843D01*
X8858788Y-13447843D02*
X8868312Y-13466891D01*
X8868312Y-13466891D02*
X8887359Y-13476415D01*
X8887359Y-13476415D02*
X8906407Y-13476415D01*
X9049264Y-13466891D02*
X9030217Y-13476415D01*
X9030217Y-13476415D02*
X8992121Y-13476415D01*
X8992121Y-13476415D02*
X8973074Y-13466891D01*
X8973074Y-13466891D02*
X8963550Y-13447843D01*
X8963550Y-13447843D02*
X8963550Y-13371653D01*
X8963550Y-13371653D02*
X8973074Y-13352605D01*
X8973074Y-13352605D02*
X8992121Y-13343081D01*
X8992121Y-13343081D02*
X9030217Y-13343081D01*
X9030217Y-13343081D02*
X9049264Y-13352605D01*
X9049264Y-13352605D02*
X9058788Y-13371653D01*
X9058788Y-13371653D02*
X9058788Y-13390701D01*
X9058788Y-13390701D02*
X8963550Y-13409748D01*
X9230217Y-13476415D02*
X9230217Y-13276415D01*
X9230217Y-13466891D02*
X9211169Y-13476415D01*
X9211169Y-13476415D02*
X9173074Y-13476415D01*
X9173074Y-13476415D02*
X9154026Y-13466891D01*
X9154026Y-13466891D02*
X9144502Y-13457367D01*
X9144502Y-13457367D02*
X9134979Y-13438320D01*
X9134979Y-13438320D02*
X9134979Y-13381177D01*
X9134979Y-13381177D02*
X9144502Y-13362129D01*
X9144502Y-13362129D02*
X9154026Y-13352605D01*
X9154026Y-13352605D02*
X9173074Y-13343081D01*
X9173074Y-13343081D02*
X9211169Y-13343081D01*
X9211169Y-13343081D02*
X9230217Y-13352605D01*
X9306407Y-13552605D02*
X9315931Y-13543081D01*
X9315931Y-13543081D02*
X9334979Y-13514510D01*
X9334979Y-13514510D02*
X9344502Y-13495462D01*
X9344502Y-13495462D02*
X9354026Y-13466891D01*
X9354026Y-13466891D02*
X9363550Y-13419272D01*
X9363550Y-13419272D02*
X9363550Y-13381177D01*
X9363550Y-13381177D02*
X9354026Y-13333558D01*
X9354026Y-13333558D02*
X9344502Y-13304986D01*
X9344502Y-13304986D02*
X9334979Y-13285939D01*
X9334979Y-13285939D02*
X9315931Y-13257367D01*
X9315931Y-13257367D02*
X9306407Y-13247843D01*
M02*
