%TF.GenerationSoftware,KiCad,Pcbnew,10.0.0*%
%TF.CreationDate,2026-04-07T03:57:39+10:00*%
%TF.ProjectId,breakoutB,62726561-6b6f-4757-9442-2e6b69636164,rev?*%
%TF.SameCoordinates,Original*%
%TF.FileFunction,Legend,Top*%
%TF.FilePolarity,Positive*%
%FSLAX46Y46*%
G04 Gerber Fmt 4.6, Leading zero omitted, Abs format (unit mm)*
G04 Created by KiCad (PCBNEW 10.0.0) date 2026-04-07 03:57:39*
%MOMM*%
%LPD*%
G01*
G04 APERTURE LIST*
G04 Aperture macros list*
%AMRoundRect*
0 Rectangle with rounded corners*
0 $1 Rounding radius*
0 $2 $3 $4 $5 $6 $7 $8 $9 X,Y pos of 4 corners*
0 Add a 4 corners polygon primitive as box body*
4,1,4,$2,$3,$4,$5,$6,$7,$8,$9,$2,$3,0*
0 Add four circle primitives for the rounded corners*
1,1,$1+$1,$2,$3*
1,1,$1+$1,$4,$5*
1,1,$1+$1,$6,$7*
1,1,$1+$1,$8,$9*
0 Add four rect primitives between the rounded corners*
20,1,$1+$1,$2,$3,$4,$5,0*
20,1,$1+$1,$4,$5,$6,$7,0*
20,1,$1+$1,$6,$7,$8,$9,0*
20,1,$1+$1,$8,$9,$2,$3,0*%
G04 Aperture macros list end*
%ADD10C,0.200000*%
%ADD11C,0.100000*%
%ADD12C,0.150000*%
%ADD13C,0.120000*%
%ADD14C,1.700000*%
%ADD15RoundRect,0.250000X0.650000X-0.325000X0.650000X0.325000X-0.650000X0.325000X-0.650000X-0.325000X0*%
%ADD16R,1.700000X1.700000*%
%ADD17C,2.700000*%
%ADD18RoundRect,0.218750X-0.256250X0.218750X-0.256250X-0.218750X0.256250X-0.218750X0.256250X0.218750X0*%
%ADD19RoundRect,0.250001X0.949999X-0.949999X0.949999X0.949999X-0.949999X0.949999X-0.949999X-0.949999X0*%
%ADD20C,2.400000*%
%ADD21RoundRect,0.375000X-0.625000X-0.375000X0.625000X-0.375000X0.625000X0.375000X-0.625000X0.375000X0*%
%ADD22RoundRect,0.500000X-0.500000X-1.400000X0.500000X-1.400000X0.500000X1.400000X-0.500000X1.400000X0*%
%ADD23C,1.400000*%
%ADD24RoundRect,0.770000X0.980000X0.980000X-0.980000X0.980000X-0.980000X-0.980000X0.980000X-0.980000X0*%
%ADD25C,3.500000*%
%ADD26RoundRect,0.200000X0.275000X-0.200000X0.275000X0.200000X-0.275000X0.200000X-0.275000X-0.200000X0*%
%ADD27RoundRect,0.250000X-0.725000X0.600000X-0.725000X-0.600000X0.725000X-0.600000X0.725000X0.600000X0*%
%ADD28O,1.950000X1.700000*%
%ADD29RoundRect,0.250000X-0.900000X1.000000X-0.900000X-1.000000X0.900000X-1.000000X0.900000X1.000000X0*%
%ADD30R,1.800000X1.800000*%
%ADD31C,1.800000*%
%ADD32RoundRect,0.250000X0.900000X-1.000000X0.900000X1.000000X-0.900000X1.000000X-0.900000X-1.000000X0*%
%ADD33RoundRect,0.218750X0.256250X-0.218750X0.256250X0.218750X-0.256250X0.218750X-0.256250X-0.218750X0*%
%ADD34RoundRect,0.250000X-0.650000X0.325000X-0.650000X-0.325000X0.650000X-0.325000X0.650000X0.325000X0*%
%ADD35RoundRect,0.250000X0.625000X-0.350000X0.625000X0.350000X-0.625000X0.350000X-0.625000X-0.350000X0*%
%ADD36O,1.750000X1.200000*%
%ADD37RoundRect,0.250000X0.725000X-0.600000X0.725000X0.600000X-0.725000X0.600000X-0.725000X-0.600000X0*%
%ADD38RoundRect,0.250000X-0.600000X-0.725000X0.600000X-0.725000X0.600000X0.725000X-0.600000X0.725000X0*%
%ADD39O,1.700000X1.950000*%
G04 APERTURE END LIST*
D10*
G36*
X28791400Y-112289375D02*
G01*
X29497634Y-112289375D01*
X29447943Y-112528147D01*
X29215204Y-112528147D01*
X28993419Y-113595000D01*
X28746709Y-113595000D01*
X28968494Y-112528147D01*
X28741708Y-112528147D01*
X28791400Y-112289375D01*
G37*
G36*
X29681634Y-112289375D02*
G01*
X30379057Y-112289375D01*
X30329366Y-112528147D01*
X29873414Y-112528147D01*
X29823802Y-112766919D01*
X30279754Y-112766919D01*
X30230063Y-113005690D01*
X29774111Y-113005690D01*
X29701241Y-113356228D01*
X30157193Y-113356228D01*
X30107581Y-113595000D01*
X29410158Y-113595000D01*
X29681634Y-112289375D01*
G37*
G36*
X31482901Y-113595000D02*
G01*
X31230158Y-113595000D01*
X31186262Y-113325746D01*
X30664980Y-113325746D01*
X30504873Y-113595000D01*
X30252051Y-113595000D01*
X30549336Y-113086974D01*
X30805084Y-113086974D01*
X31144667Y-113086974D01*
X31068860Y-112636896D01*
X30805084Y-113086974D01*
X30549336Y-113086974D01*
X31016073Y-112289375D01*
X31262783Y-112289375D01*
X31482901Y-113595000D01*
G37*
G36*
X32096500Y-112289375D02*
G01*
X32334557Y-112289375D01*
X32440528Y-113200010D01*
X32929582Y-112289375D01*
X33164146Y-112289375D01*
X33108025Y-113595000D01*
X32873461Y-113595000D01*
X32907752Y-112770411D01*
X32464342Y-113595000D01*
X32249860Y-113595000D01*
X32152859Y-112770411D01*
X31841614Y-113595000D01*
X31604430Y-113595000D01*
X32096500Y-112289375D01*
G37*
G36*
X34481249Y-112296370D02*
G01*
X34569471Y-112312474D01*
X34636841Y-112340137D01*
X34688769Y-112378577D01*
X34727832Y-112428209D01*
X34752661Y-112486354D01*
X34761847Y-112551906D01*
X34754186Y-112627529D01*
X34731572Y-112699013D01*
X34695128Y-112763267D01*
X34644398Y-112820397D01*
X34571058Y-112877573D01*
X34635998Y-112920030D01*
X34681986Y-112966424D01*
X34712274Y-113017121D01*
X34729450Y-113073903D01*
X34734209Y-113139108D01*
X34724974Y-113215013D01*
X34704136Y-113285757D01*
X34671937Y-113352237D01*
X34627735Y-113415206D01*
X34574721Y-113471203D01*
X34517730Y-113515921D01*
X34456356Y-113550309D01*
X34390125Y-113573870D01*
X34307391Y-113589351D01*
X34204725Y-113595000D01*
X33846885Y-113595000D01*
X33896532Y-113356228D01*
X34139634Y-113356228D01*
X34200438Y-113356228D01*
X34301872Y-113350712D01*
X34369354Y-113336834D01*
X34412142Y-113317729D01*
X34447434Y-113288184D01*
X34472507Y-113251302D01*
X34488028Y-113205566D01*
X34491719Y-113151913D01*
X34479993Y-113109277D01*
X34453657Y-113074194D01*
X34415600Y-113050120D01*
X34353909Y-113032886D01*
X34258702Y-113026011D01*
X34208297Y-113026011D01*
X34139634Y-113356228D01*
X33896532Y-113356228D01*
X34011671Y-112802480D01*
X34254813Y-112802480D01*
X34307759Y-112802480D01*
X34365791Y-112797717D01*
X34411452Y-112784660D01*
X34447307Y-112764458D01*
X34476993Y-112736134D01*
X34498368Y-112701990D01*
X34511842Y-112660868D01*
X34515032Y-112621155D01*
X34507786Y-112589684D01*
X34491045Y-112564026D01*
X34466184Y-112545543D01*
X34428856Y-112532991D01*
X34374357Y-112528147D01*
X34311807Y-112528147D01*
X34254813Y-112802480D01*
X34011671Y-112802480D01*
X34118360Y-112289375D01*
X34318951Y-112289375D01*
X34481249Y-112296370D01*
G37*
G36*
X35734912Y-112363912D02*
G01*
X35419460Y-112807561D01*
X35498424Y-112815439D01*
X35565158Y-112837882D01*
X35622180Y-112874336D01*
X35671092Y-112925915D01*
X35707086Y-112986957D01*
X35728192Y-113054922D01*
X35734304Y-113131805D01*
X35723799Y-113220093D01*
X35699686Y-113301285D01*
X35662704Y-113375634D01*
X35612295Y-113444188D01*
X35547181Y-113507603D01*
X35472933Y-113560418D01*
X35397764Y-113596825D01*
X35320765Y-113618307D01*
X35240778Y-113625481D01*
X35156484Y-113617208D01*
X35086393Y-113593819D01*
X35027588Y-113556130D01*
X34978193Y-113503158D01*
X34941071Y-113439795D01*
X34919429Y-113372971D01*
X34912639Y-113301194D01*
X34916796Y-113264075D01*
X35156606Y-113264075D01*
X35164242Y-113305227D01*
X35183070Y-113340828D01*
X35211294Y-113369269D01*
X35244686Y-113386002D01*
X35284993Y-113391789D01*
X35328437Y-113386423D01*
X35370373Y-113370130D01*
X35411840Y-113341701D01*
X35446541Y-113305272D01*
X35471356Y-113263442D01*
X35486853Y-113215171D01*
X35491264Y-113166303D01*
X35483747Y-113125658D01*
X35465262Y-113090943D01*
X35437282Y-113063699D01*
X35401972Y-113047142D01*
X35356989Y-113041252D01*
X35313606Y-113046635D01*
X35272580Y-113062847D01*
X35232841Y-113090943D01*
X35199773Y-113126847D01*
X35175986Y-113167929D01*
X35161003Y-113215171D01*
X35156606Y-113264075D01*
X34916796Y-113264075D01*
X34921437Y-113222633D01*
X34938187Y-113163106D01*
X34964460Y-113101580D01*
X35004026Y-113033524D01*
X35085513Y-112914246D01*
X35550039Y-112258893D01*
X35734912Y-112363912D01*
G37*
G36*
X28918326Y-114473375D02*
G01*
X29615750Y-114473375D01*
X29566058Y-114712147D01*
X29110106Y-114712147D01*
X29060494Y-114950919D01*
X29516447Y-114950919D01*
X29466755Y-115189690D01*
X29010803Y-115189690D01*
X28937933Y-115540228D01*
X29393886Y-115540228D01*
X29344274Y-115779000D01*
X28646851Y-115779000D01*
X28918326Y-114473375D01*
G37*
G36*
X30998769Y-114687063D02*
G01*
X30791907Y-114858918D01*
X30736918Y-114793997D01*
X30676229Y-114745018D01*
X30609132Y-114710255D01*
X30534328Y-114689010D01*
X30450022Y-114681665D01*
X30358296Y-114689584D01*
X30271509Y-114713100D01*
X30188333Y-114752576D01*
X30107740Y-114809307D01*
X30036811Y-114877985D01*
X29982037Y-114952044D01*
X29941972Y-115032181D01*
X29915961Y-115119519D01*
X29905304Y-115213786D01*
X29913359Y-115296881D01*
X29938651Y-115371450D01*
X29981528Y-115439575D01*
X30038501Y-115496190D01*
X30105706Y-115536668D01*
X30185188Y-115561825D01*
X30279993Y-115570709D01*
X30362621Y-115564556D01*
X30436606Y-115546766D01*
X30503365Y-115517843D01*
X30564007Y-115477519D01*
X30621863Y-115423023D01*
X30677205Y-115352258D01*
X30307219Y-115352258D01*
X30355799Y-115118567D01*
X30998531Y-115118567D01*
X30988846Y-115173259D01*
X30956647Y-115283169D01*
X30905828Y-115390493D01*
X30834851Y-115496252D01*
X30750149Y-115591569D01*
X30659197Y-115668694D01*
X30561470Y-115729229D01*
X30455747Y-115773512D01*
X30342724Y-115800339D01*
X30220776Y-115809481D01*
X30121258Y-115803508D01*
X30032985Y-115786383D01*
X29954406Y-115758942D01*
X29884209Y-115721529D01*
X29820625Y-115673019D01*
X29767407Y-115615672D01*
X29723809Y-115548685D01*
X29689651Y-115470771D01*
X29667460Y-115389109D01*
X29656875Y-115303951D01*
X29658122Y-115214408D01*
X29671871Y-115119519D01*
X29699318Y-115019475D01*
X29738692Y-114925191D01*
X29790265Y-114835912D01*
X29854684Y-114751057D01*
X29932948Y-114670235D01*
X30036528Y-114586853D01*
X30143791Y-114523602D01*
X30255608Y-114478915D01*
X30373160Y-114452005D01*
X30497888Y-114442893D01*
X30607656Y-114450175D01*
X30706749Y-114471252D01*
X30796749Y-114505444D01*
X30866074Y-114547158D01*
X30933262Y-114606701D01*
X30998769Y-114687063D01*
G37*
G36*
X31754424Y-114480370D02*
G01*
X31842646Y-114496474D01*
X31910016Y-114524137D01*
X31961944Y-114562577D01*
X32001007Y-114612209D01*
X32025837Y-114670354D01*
X32035022Y-114735906D01*
X32027361Y-114811529D01*
X32004747Y-114883013D01*
X31968303Y-114947267D01*
X31917573Y-115004397D01*
X31844234Y-115061573D01*
X31909174Y-115104030D01*
X31955162Y-115150424D01*
X31985449Y-115201121D01*
X32002625Y-115257903D01*
X32007384Y-115323108D01*
X31998149Y-115399013D01*
X31977311Y-115469757D01*
X31945112Y-115536237D01*
X31900910Y-115599206D01*
X31847896Y-115655203D01*
X31790905Y-115699921D01*
X31729531Y-115734309D01*
X31663300Y-115757870D01*
X31580566Y-115773351D01*
X31477900Y-115779000D01*
X31120060Y-115779000D01*
X31169707Y-115540228D01*
X31412809Y-115540228D01*
X31473613Y-115540228D01*
X31575047Y-115534712D01*
X31642529Y-115520834D01*
X31685317Y-115501729D01*
X31720610Y-115472184D01*
X31745682Y-115435302D01*
X31761203Y-115389566D01*
X31764894Y-115335913D01*
X31753168Y-115293277D01*
X31726832Y-115258194D01*
X31688775Y-115234120D01*
X31627084Y-115216886D01*
X31531878Y-115210011D01*
X31481472Y-115210011D01*
X31412809Y-115540228D01*
X31169707Y-115540228D01*
X31284847Y-114986480D01*
X31527988Y-114986480D01*
X31580934Y-114986480D01*
X31638966Y-114981717D01*
X31684627Y-114968660D01*
X31720482Y-114948458D01*
X31750168Y-114920134D01*
X31771543Y-114885990D01*
X31785017Y-114844868D01*
X31788207Y-114805155D01*
X31780962Y-114773684D01*
X31764220Y-114748026D01*
X31739359Y-114729543D01*
X31702031Y-114716991D01*
X31647533Y-114712147D01*
X31584982Y-114712147D01*
X31527988Y-114986480D01*
X31284847Y-114986480D01*
X31391536Y-114473375D01*
X31592126Y-114473375D01*
X31754424Y-114480370D01*
G37*
G36*
X32522368Y-114900116D02*
G01*
X32285184Y-114900116D01*
X32319159Y-114796134D01*
X32363856Y-114706806D01*
X32418952Y-114630247D01*
X32484742Y-114565058D01*
X32560965Y-114511193D01*
X32641296Y-114473370D01*
X32726814Y-114450620D01*
X32818927Y-114442893D01*
X32895114Y-114448920D01*
X32959388Y-114465930D01*
X33013882Y-114492982D01*
X33060984Y-114530949D01*
X33098271Y-114578626D01*
X33126283Y-114637531D01*
X33142862Y-114701094D01*
X33147347Y-114764726D01*
X33139856Y-114829469D01*
X33117803Y-114904581D01*
X33079840Y-114987469D01*
X33023090Y-115079592D01*
X32956357Y-115165030D01*
X32858083Y-115269396D01*
X32720656Y-115396076D01*
X32545229Y-115550388D01*
X33000388Y-115550388D01*
X32952840Y-115779000D01*
X32067685Y-115779000D01*
X32092372Y-115660407D01*
X32573012Y-115249939D01*
X32730715Y-115105997D01*
X32813053Y-115012358D01*
X32853748Y-114950310D01*
X32879854Y-114896677D01*
X32894099Y-114850028D01*
X32898380Y-114800848D01*
X32890309Y-114760227D01*
X32870841Y-114725721D01*
X32841698Y-114699077D01*
X32803884Y-114682551D01*
X32754631Y-114676585D01*
X32704776Y-114683064D01*
X32657613Y-114702635D01*
X32611828Y-114736754D01*
X32574173Y-114780217D01*
X32544270Y-114834024D01*
X32522368Y-114900116D01*
G37*
G36*
X33540958Y-114900116D02*
G01*
X33303774Y-114900116D01*
X33337750Y-114796134D01*
X33382447Y-114706806D01*
X33437542Y-114630247D01*
X33503333Y-114565058D01*
X33579555Y-114511193D01*
X33659886Y-114473370D01*
X33745404Y-114450620D01*
X33837518Y-114442893D01*
X33913705Y-114448920D01*
X33977979Y-114465930D01*
X34032472Y-114492982D01*
X34079574Y-114530949D01*
X34116862Y-114578626D01*
X34144873Y-114637531D01*
X34161452Y-114701094D01*
X34165937Y-114764726D01*
X34158447Y-114829469D01*
X34136393Y-114904581D01*
X34098430Y-114987469D01*
X34041680Y-115079592D01*
X33974947Y-115165030D01*
X33876674Y-115269396D01*
X33739247Y-115396076D01*
X33563819Y-115550388D01*
X34018978Y-115550388D01*
X33971430Y-115779000D01*
X33086276Y-115779000D01*
X33110963Y-115660407D01*
X33591602Y-115249939D01*
X33749305Y-115105997D01*
X33831644Y-115012358D01*
X33872338Y-114950310D01*
X33898445Y-114896677D01*
X33912690Y-114850028D01*
X33916970Y-114800848D01*
X33908900Y-114760227D01*
X33889432Y-114725721D01*
X33860288Y-114699077D01*
X33822474Y-114682551D01*
X33773221Y-114676585D01*
X33723367Y-114683064D01*
X33676203Y-114702635D01*
X33630418Y-114736754D01*
X33592763Y-114780217D01*
X33562860Y-114834024D01*
X33540958Y-114900116D01*
G37*
G36*
X34929522Y-114451352D02*
G01*
X35003869Y-114475060D01*
X35065113Y-114512826D01*
X35114213Y-114564982D01*
X35151785Y-114634719D01*
X35177037Y-114726435D01*
X35185155Y-114822575D01*
X35177667Y-114953023D01*
X35149096Y-115126663D01*
X35106065Y-115298549D01*
X35058976Y-115430640D01*
X35009230Y-115529988D01*
X34946361Y-115621394D01*
X34881485Y-115690923D01*
X34814434Y-115741850D01*
X34739351Y-115778915D01*
X34655684Y-115801624D01*
X34561533Y-115809481D01*
X34467606Y-115801071D01*
X34392873Y-115777825D01*
X34333319Y-115741374D01*
X34285547Y-115690645D01*
X34248423Y-115623031D01*
X34222664Y-115534433D01*
X34213836Y-115441334D01*
X34217685Y-115369704D01*
X34462668Y-115369704D01*
X34467022Y-115436522D01*
X34478979Y-115481805D01*
X34502585Y-115524468D01*
X34531542Y-115552941D01*
X34566443Y-115569878D01*
X34609240Y-115575789D01*
X34664286Y-115566597D01*
X34716708Y-115538213D01*
X34768474Y-115486647D01*
X34804604Y-115432359D01*
X34840177Y-115357599D01*
X34874567Y-115257528D01*
X34906831Y-115126663D01*
X34930479Y-114988743D01*
X34938199Y-114889511D01*
X34934576Y-114820318D01*
X34923263Y-114773665D01*
X34900164Y-114729231D01*
X34871833Y-114699890D01*
X34837810Y-114682594D01*
X34796177Y-114676585D01*
X34736722Y-114686345D01*
X34678379Y-114716751D01*
X34644817Y-114746967D01*
X34610920Y-114791753D01*
X34576694Y-114854870D01*
X34535927Y-114964982D01*
X34491918Y-115141666D01*
X34469464Y-115274180D01*
X34462668Y-115369704D01*
X34217685Y-115369704D01*
X34220745Y-115312770D01*
X34249256Y-115139047D01*
X34295815Y-114955307D01*
X34348372Y-114811938D01*
X34405336Y-114702099D01*
X34465723Y-114619829D01*
X34533340Y-114554216D01*
X34603667Y-114505033D01*
X34677321Y-114470573D01*
X34755260Y-114449898D01*
X34838724Y-114442893D01*
X34929522Y-114451352D01*
G37*
D11*
X39803884Y-58372419D02*
X39803884Y-59181942D01*
X39803884Y-59181942D02*
X39851503Y-59277180D01*
X39851503Y-59277180D02*
X39899122Y-59324800D01*
X39899122Y-59324800D02*
X39994360Y-59372419D01*
X39994360Y-59372419D02*
X40184836Y-59372419D01*
X40184836Y-59372419D02*
X40280074Y-59324800D01*
X40280074Y-59324800D02*
X40327693Y-59277180D01*
X40327693Y-59277180D02*
X40375312Y-59181942D01*
X40375312Y-59181942D02*
X40375312Y-58372419D01*
X40994360Y-59372419D02*
X40899122Y-59324800D01*
X40899122Y-59324800D02*
X40851503Y-59229561D01*
X40851503Y-59229561D02*
X40851503Y-58372419D01*
X41232456Y-58705752D02*
X41613408Y-58705752D01*
X41375313Y-58372419D02*
X41375313Y-59229561D01*
X41375313Y-59229561D02*
X41422932Y-59324800D01*
X41422932Y-59324800D02*
X41518170Y-59372419D01*
X41518170Y-59372419D02*
X41613408Y-59372419D01*
X41946742Y-59372419D02*
X41946742Y-58705752D01*
X41946742Y-58896228D02*
X41994361Y-58800990D01*
X41994361Y-58800990D02*
X42041980Y-58753371D01*
X42041980Y-58753371D02*
X42137218Y-58705752D01*
X42137218Y-58705752D02*
X42232456Y-58705752D01*
X42994361Y-59372419D02*
X42994361Y-58848609D01*
X42994361Y-58848609D02*
X42946742Y-58753371D01*
X42946742Y-58753371D02*
X42851504Y-58705752D01*
X42851504Y-58705752D02*
X42661028Y-58705752D01*
X42661028Y-58705752D02*
X42565790Y-58753371D01*
X42994361Y-59324800D02*
X42899123Y-59372419D01*
X42899123Y-59372419D02*
X42661028Y-59372419D01*
X42661028Y-59372419D02*
X42565790Y-59324800D01*
X42565790Y-59324800D02*
X42518171Y-59229561D01*
X42518171Y-59229561D02*
X42518171Y-59134323D01*
X42518171Y-59134323D02*
X42565790Y-59039085D01*
X42565790Y-59039085D02*
X42661028Y-58991466D01*
X42661028Y-58991466D02*
X42899123Y-58991466D01*
X42899123Y-58991466D02*
X42994361Y-58943847D01*
X43422933Y-59324800D02*
X43565790Y-59372419D01*
X43565790Y-59372419D02*
X43803885Y-59372419D01*
X43803885Y-59372419D02*
X43899123Y-59324800D01*
X43899123Y-59324800D02*
X43946742Y-59277180D01*
X43946742Y-59277180D02*
X43994361Y-59181942D01*
X43994361Y-59181942D02*
X43994361Y-59086704D01*
X43994361Y-59086704D02*
X43946742Y-58991466D01*
X43946742Y-58991466D02*
X43899123Y-58943847D01*
X43899123Y-58943847D02*
X43803885Y-58896228D01*
X43803885Y-58896228D02*
X43613409Y-58848609D01*
X43613409Y-58848609D02*
X43518171Y-58800990D01*
X43518171Y-58800990D02*
X43470552Y-58753371D01*
X43470552Y-58753371D02*
X43422933Y-58658133D01*
X43422933Y-58658133D02*
X43422933Y-58562895D01*
X43422933Y-58562895D02*
X43470552Y-58467657D01*
X43470552Y-58467657D02*
X43518171Y-58420038D01*
X43518171Y-58420038D02*
X43613409Y-58372419D01*
X43613409Y-58372419D02*
X43851504Y-58372419D01*
X43851504Y-58372419D02*
X43994361Y-58420038D01*
X44613409Y-58372419D02*
X44803885Y-58372419D01*
X44803885Y-58372419D02*
X44899123Y-58420038D01*
X44899123Y-58420038D02*
X44994361Y-58515276D01*
X44994361Y-58515276D02*
X45041980Y-58705752D01*
X45041980Y-58705752D02*
X45041980Y-59039085D01*
X45041980Y-59039085D02*
X44994361Y-59229561D01*
X44994361Y-59229561D02*
X44899123Y-59324800D01*
X44899123Y-59324800D02*
X44803885Y-59372419D01*
X44803885Y-59372419D02*
X44613409Y-59372419D01*
X44613409Y-59372419D02*
X44518171Y-59324800D01*
X44518171Y-59324800D02*
X44422933Y-59229561D01*
X44422933Y-59229561D02*
X44375314Y-59039085D01*
X44375314Y-59039085D02*
X44375314Y-58705752D01*
X44375314Y-58705752D02*
X44422933Y-58515276D01*
X44422933Y-58515276D02*
X44518171Y-58420038D01*
X44518171Y-58420038D02*
X44613409Y-58372419D01*
X45470552Y-59372419D02*
X45470552Y-58372419D01*
X45470552Y-58372419D02*
X46041980Y-59372419D01*
X46041980Y-59372419D02*
X46041980Y-58372419D01*
X46518171Y-59372419D02*
X46518171Y-58372419D01*
X47565789Y-59277180D02*
X47518170Y-59324800D01*
X47518170Y-59324800D02*
X47375313Y-59372419D01*
X47375313Y-59372419D02*
X47280075Y-59372419D01*
X47280075Y-59372419D02*
X47137218Y-59324800D01*
X47137218Y-59324800D02*
X47041980Y-59229561D01*
X47041980Y-59229561D02*
X46994361Y-59134323D01*
X46994361Y-59134323D02*
X46946742Y-58943847D01*
X46946742Y-58943847D02*
X46946742Y-58800990D01*
X46946742Y-58800990D02*
X46994361Y-58610514D01*
X46994361Y-58610514D02*
X47041980Y-58515276D01*
X47041980Y-58515276D02*
X47137218Y-58420038D01*
X47137218Y-58420038D02*
X47280075Y-58372419D01*
X47280075Y-58372419D02*
X47375313Y-58372419D01*
X47375313Y-58372419D02*
X47518170Y-58420038D01*
X47518170Y-58420038D02*
X47565789Y-58467657D01*
X56756265Y-57824800D02*
X56899122Y-57872419D01*
X56899122Y-57872419D02*
X57137217Y-57872419D01*
X57137217Y-57872419D02*
X57232455Y-57824800D01*
X57232455Y-57824800D02*
X57280074Y-57777180D01*
X57280074Y-57777180D02*
X57327693Y-57681942D01*
X57327693Y-57681942D02*
X57327693Y-57586704D01*
X57327693Y-57586704D02*
X57280074Y-57491466D01*
X57280074Y-57491466D02*
X57232455Y-57443847D01*
X57232455Y-57443847D02*
X57137217Y-57396228D01*
X57137217Y-57396228D02*
X56946741Y-57348609D01*
X56946741Y-57348609D02*
X56851503Y-57300990D01*
X56851503Y-57300990D02*
X56803884Y-57253371D01*
X56803884Y-57253371D02*
X56756265Y-57158133D01*
X56756265Y-57158133D02*
X56756265Y-57062895D01*
X56756265Y-57062895D02*
X56803884Y-56967657D01*
X56803884Y-56967657D02*
X56851503Y-56920038D01*
X56851503Y-56920038D02*
X56946741Y-56872419D01*
X56946741Y-56872419D02*
X57184836Y-56872419D01*
X57184836Y-56872419D02*
X57327693Y-56920038D01*
X57756265Y-57348609D02*
X58089598Y-57348609D01*
X58232455Y-57872419D02*
X57756265Y-57872419D01*
X57756265Y-57872419D02*
X57756265Y-56872419D01*
X57756265Y-56872419D02*
X58232455Y-56872419D01*
X58661027Y-57872419D02*
X58661027Y-56872419D01*
X58661027Y-56872419D02*
X59232455Y-57872419D01*
X59232455Y-57872419D02*
X59232455Y-56872419D01*
X59661027Y-57824800D02*
X59803884Y-57872419D01*
X59803884Y-57872419D02*
X60041979Y-57872419D01*
X60041979Y-57872419D02*
X60137217Y-57824800D01*
X60137217Y-57824800D02*
X60184836Y-57777180D01*
X60184836Y-57777180D02*
X60232455Y-57681942D01*
X60232455Y-57681942D02*
X60232455Y-57586704D01*
X60232455Y-57586704D02*
X60184836Y-57491466D01*
X60184836Y-57491466D02*
X60137217Y-57443847D01*
X60137217Y-57443847D02*
X60041979Y-57396228D01*
X60041979Y-57396228D02*
X59851503Y-57348609D01*
X59851503Y-57348609D02*
X59756265Y-57300990D01*
X59756265Y-57300990D02*
X59708646Y-57253371D01*
X59708646Y-57253371D02*
X59661027Y-57158133D01*
X59661027Y-57158133D02*
X59661027Y-57062895D01*
X59661027Y-57062895D02*
X59708646Y-56967657D01*
X59708646Y-56967657D02*
X59756265Y-56920038D01*
X59756265Y-56920038D02*
X59851503Y-56872419D01*
X59851503Y-56872419D02*
X60089598Y-56872419D01*
X60089598Y-56872419D02*
X60232455Y-56920038D01*
X60851503Y-56872419D02*
X61041979Y-56872419D01*
X61041979Y-56872419D02*
X61137217Y-56920038D01*
X61137217Y-56920038D02*
X61232455Y-57015276D01*
X61232455Y-57015276D02*
X61280074Y-57205752D01*
X61280074Y-57205752D02*
X61280074Y-57539085D01*
X61280074Y-57539085D02*
X61232455Y-57729561D01*
X61232455Y-57729561D02*
X61137217Y-57824800D01*
X61137217Y-57824800D02*
X61041979Y-57872419D01*
X61041979Y-57872419D02*
X60851503Y-57872419D01*
X60851503Y-57872419D02*
X60756265Y-57824800D01*
X60756265Y-57824800D02*
X60661027Y-57729561D01*
X60661027Y-57729561D02*
X60613408Y-57539085D01*
X60613408Y-57539085D02*
X60613408Y-57205752D01*
X60613408Y-57205752D02*
X60661027Y-57015276D01*
X60661027Y-57015276D02*
X60756265Y-56920038D01*
X60756265Y-56920038D02*
X60851503Y-56872419D01*
X62280074Y-57872419D02*
X61946741Y-57396228D01*
X61708646Y-57872419D02*
X61708646Y-56872419D01*
X61708646Y-56872419D02*
X62089598Y-56872419D01*
X62089598Y-56872419D02*
X62184836Y-56920038D01*
X62184836Y-56920038D02*
X62232455Y-56967657D01*
X62232455Y-56967657D02*
X62280074Y-57062895D01*
X62280074Y-57062895D02*
X62280074Y-57205752D01*
X62280074Y-57205752D02*
X62232455Y-57300990D01*
X62232455Y-57300990D02*
X62184836Y-57348609D01*
X62184836Y-57348609D02*
X62089598Y-57396228D01*
X62089598Y-57396228D02*
X61708646Y-57396228D01*
X63422932Y-57586704D02*
X63899122Y-57586704D01*
X63327694Y-57872419D02*
X63661027Y-56872419D01*
X63661027Y-56872419D02*
X63994360Y-57872419D01*
X64899122Y-57872419D02*
X64565789Y-57396228D01*
X64327694Y-57872419D02*
X64327694Y-56872419D01*
X64327694Y-56872419D02*
X64708646Y-56872419D01*
X64708646Y-56872419D02*
X64803884Y-56920038D01*
X64803884Y-56920038D02*
X64851503Y-56967657D01*
X64851503Y-56967657D02*
X64899122Y-57062895D01*
X64899122Y-57062895D02*
X64899122Y-57205752D01*
X64899122Y-57205752D02*
X64851503Y-57300990D01*
X64851503Y-57300990D02*
X64803884Y-57348609D01*
X64803884Y-57348609D02*
X64708646Y-57396228D01*
X64708646Y-57396228D02*
X64327694Y-57396228D01*
X65899122Y-57872419D02*
X65565789Y-57396228D01*
X65327694Y-57872419D02*
X65327694Y-56872419D01*
X65327694Y-56872419D02*
X65708646Y-56872419D01*
X65708646Y-56872419D02*
X65803884Y-56920038D01*
X65803884Y-56920038D02*
X65851503Y-56967657D01*
X65851503Y-56967657D02*
X65899122Y-57062895D01*
X65899122Y-57062895D02*
X65899122Y-57205752D01*
X65899122Y-57205752D02*
X65851503Y-57300990D01*
X65851503Y-57300990D02*
X65803884Y-57348609D01*
X65803884Y-57348609D02*
X65708646Y-57396228D01*
X65708646Y-57396228D02*
X65327694Y-57396228D01*
X66280075Y-57586704D02*
X66756265Y-57586704D01*
X66184837Y-57872419D02*
X66518170Y-56872419D01*
X66518170Y-56872419D02*
X66851503Y-57872419D01*
X67375313Y-57396228D02*
X67375313Y-57872419D01*
X67041980Y-56872419D02*
X67375313Y-57396228D01*
X67375313Y-57396228D02*
X67708646Y-56872419D01*
X67803884Y-117162419D02*
X67803884Y-116162419D01*
X67803884Y-116162419D02*
X68184836Y-116162419D01*
X68184836Y-116162419D02*
X68280074Y-116210038D01*
X68280074Y-116210038D02*
X68327693Y-116257657D01*
X68327693Y-116257657D02*
X68375312Y-116352895D01*
X68375312Y-116352895D02*
X68375312Y-116495752D01*
X68375312Y-116495752D02*
X68327693Y-116590990D01*
X68327693Y-116590990D02*
X68280074Y-116638609D01*
X68280074Y-116638609D02*
X68184836Y-116686228D01*
X68184836Y-116686228D02*
X67803884Y-116686228D01*
X68756265Y-116876704D02*
X69232455Y-116876704D01*
X68661027Y-117162419D02*
X68994360Y-116162419D01*
X68994360Y-116162419D02*
X69327693Y-117162419D01*
X69851503Y-116686228D02*
X69851503Y-117162419D01*
X69518170Y-116162419D02*
X69851503Y-116686228D01*
X69851503Y-116686228D02*
X70184836Y-116162419D01*
X70994360Y-117162419D02*
X70518170Y-117162419D01*
X70518170Y-117162419D02*
X70518170Y-116162419D01*
X71518170Y-116162419D02*
X71708646Y-116162419D01*
X71708646Y-116162419D02*
X71803884Y-116210038D01*
X71803884Y-116210038D02*
X71899122Y-116305276D01*
X71899122Y-116305276D02*
X71946741Y-116495752D01*
X71946741Y-116495752D02*
X71946741Y-116829085D01*
X71946741Y-116829085D02*
X71899122Y-117019561D01*
X71899122Y-117019561D02*
X71803884Y-117114800D01*
X71803884Y-117114800D02*
X71708646Y-117162419D01*
X71708646Y-117162419D02*
X71518170Y-117162419D01*
X71518170Y-117162419D02*
X71422932Y-117114800D01*
X71422932Y-117114800D02*
X71327694Y-117019561D01*
X71327694Y-117019561D02*
X71280075Y-116829085D01*
X71280075Y-116829085D02*
X71280075Y-116495752D01*
X71280075Y-116495752D02*
X71327694Y-116305276D01*
X71327694Y-116305276D02*
X71422932Y-116210038D01*
X71422932Y-116210038D02*
X71518170Y-116162419D01*
X72327694Y-116876704D02*
X72803884Y-116876704D01*
X72232456Y-117162419D02*
X72565789Y-116162419D01*
X72565789Y-116162419D02*
X72899122Y-117162419D01*
X73232456Y-117162419D02*
X73232456Y-116162419D01*
X73232456Y-116162419D02*
X73470551Y-116162419D01*
X73470551Y-116162419D02*
X73613408Y-116210038D01*
X73613408Y-116210038D02*
X73708646Y-116305276D01*
X73708646Y-116305276D02*
X73756265Y-116400514D01*
X73756265Y-116400514D02*
X73803884Y-116590990D01*
X73803884Y-116590990D02*
X73803884Y-116733847D01*
X73803884Y-116733847D02*
X73756265Y-116924323D01*
X73756265Y-116924323D02*
X73708646Y-117019561D01*
X73708646Y-117019561D02*
X73613408Y-117114800D01*
X73613408Y-117114800D02*
X73470551Y-117162419D01*
X73470551Y-117162419D02*
X73232456Y-117162419D01*
X81756265Y-58824800D02*
X81899122Y-58872419D01*
X81899122Y-58872419D02*
X82137217Y-58872419D01*
X82137217Y-58872419D02*
X82232455Y-58824800D01*
X82232455Y-58824800D02*
X82280074Y-58777180D01*
X82280074Y-58777180D02*
X82327693Y-58681942D01*
X82327693Y-58681942D02*
X82327693Y-58586704D01*
X82327693Y-58586704D02*
X82280074Y-58491466D01*
X82280074Y-58491466D02*
X82232455Y-58443847D01*
X82232455Y-58443847D02*
X82137217Y-58396228D01*
X82137217Y-58396228D02*
X81946741Y-58348609D01*
X81946741Y-58348609D02*
X81851503Y-58300990D01*
X81851503Y-58300990D02*
X81803884Y-58253371D01*
X81803884Y-58253371D02*
X81756265Y-58158133D01*
X81756265Y-58158133D02*
X81756265Y-58062895D01*
X81756265Y-58062895D02*
X81803884Y-57967657D01*
X81803884Y-57967657D02*
X81851503Y-57920038D01*
X81851503Y-57920038D02*
X81946741Y-57872419D01*
X81946741Y-57872419D02*
X82184836Y-57872419D01*
X82184836Y-57872419D02*
X82327693Y-57920038D01*
X82661027Y-58205752D02*
X82851503Y-58872419D01*
X82851503Y-58872419D02*
X83041979Y-58396228D01*
X83041979Y-58396228D02*
X83232455Y-58872419D01*
X83232455Y-58872419D02*
X83422931Y-58205752D01*
X83803884Y-58872419D02*
X83803884Y-58205752D01*
X83803884Y-57872419D02*
X83756265Y-57920038D01*
X83756265Y-57920038D02*
X83803884Y-57967657D01*
X83803884Y-57967657D02*
X83851503Y-57920038D01*
X83851503Y-57920038D02*
X83803884Y-57872419D01*
X83803884Y-57872419D02*
X83803884Y-57967657D01*
X84137217Y-58205752D02*
X84518169Y-58205752D01*
X84280074Y-57872419D02*
X84280074Y-58729561D01*
X84280074Y-58729561D02*
X84327693Y-58824800D01*
X84327693Y-58824800D02*
X84422931Y-58872419D01*
X84422931Y-58872419D02*
X84518169Y-58872419D01*
X85280074Y-58824800D02*
X85184836Y-58872419D01*
X85184836Y-58872419D02*
X84994360Y-58872419D01*
X84994360Y-58872419D02*
X84899122Y-58824800D01*
X84899122Y-58824800D02*
X84851503Y-58777180D01*
X84851503Y-58777180D02*
X84803884Y-58681942D01*
X84803884Y-58681942D02*
X84803884Y-58396228D01*
X84803884Y-58396228D02*
X84851503Y-58300990D01*
X84851503Y-58300990D02*
X84899122Y-58253371D01*
X84899122Y-58253371D02*
X84994360Y-58205752D01*
X84994360Y-58205752D02*
X85184836Y-58205752D01*
X85184836Y-58205752D02*
X85280074Y-58253371D01*
X85708646Y-58872419D02*
X85708646Y-57872419D01*
X86137217Y-58872419D02*
X86137217Y-58348609D01*
X86137217Y-58348609D02*
X86089598Y-58253371D01*
X86089598Y-58253371D02*
X85994360Y-58205752D01*
X85994360Y-58205752D02*
X85851503Y-58205752D01*
X85851503Y-58205752D02*
X85756265Y-58253371D01*
X85756265Y-58253371D02*
X85708646Y-58300990D01*
X92161027Y-71372419D02*
X92732455Y-71372419D01*
X92446741Y-72372419D02*
X92446741Y-71372419D01*
X93637217Y-72277180D02*
X93589598Y-72324800D01*
X93589598Y-72324800D02*
X93446741Y-72372419D01*
X93446741Y-72372419D02*
X93351503Y-72372419D01*
X93351503Y-72372419D02*
X93208646Y-72324800D01*
X93208646Y-72324800D02*
X93113408Y-72229561D01*
X93113408Y-72229561D02*
X93065789Y-72134323D01*
X93065789Y-72134323D02*
X93018170Y-71943847D01*
X93018170Y-71943847D02*
X93018170Y-71800990D01*
X93018170Y-71800990D02*
X93065789Y-71610514D01*
X93065789Y-71610514D02*
X93113408Y-71515276D01*
X93113408Y-71515276D02*
X93208646Y-71420038D01*
X93208646Y-71420038D02*
X93351503Y-71372419D01*
X93351503Y-71372419D02*
X93446741Y-71372419D01*
X93446741Y-71372419D02*
X93589598Y-71420038D01*
X93589598Y-71420038D02*
X93637217Y-71467657D01*
X94018170Y-72324800D02*
X94161027Y-72372419D01*
X94161027Y-72372419D02*
X94399122Y-72372419D01*
X94399122Y-72372419D02*
X94494360Y-72324800D01*
X94494360Y-72324800D02*
X94541979Y-72277180D01*
X94541979Y-72277180D02*
X94589598Y-72181942D01*
X94589598Y-72181942D02*
X94589598Y-72086704D01*
X94589598Y-72086704D02*
X94541979Y-71991466D01*
X94541979Y-71991466D02*
X94494360Y-71943847D01*
X94494360Y-71943847D02*
X94399122Y-71896228D01*
X94399122Y-71896228D02*
X94208646Y-71848609D01*
X94208646Y-71848609D02*
X94113408Y-71800990D01*
X94113408Y-71800990D02*
X94065789Y-71753371D01*
X94065789Y-71753371D02*
X94018170Y-71658133D01*
X94018170Y-71658133D02*
X94018170Y-71562895D01*
X94018170Y-71562895D02*
X94065789Y-71467657D01*
X94065789Y-71467657D02*
X94113408Y-71420038D01*
X94113408Y-71420038D02*
X94208646Y-71372419D01*
X94208646Y-71372419D02*
X94446741Y-71372419D01*
X94446741Y-71372419D02*
X94589598Y-71420038D01*
X94922932Y-71372419D02*
X95541979Y-71372419D01*
X95541979Y-71372419D02*
X95208646Y-71753371D01*
X95208646Y-71753371D02*
X95351503Y-71753371D01*
X95351503Y-71753371D02*
X95446741Y-71800990D01*
X95446741Y-71800990D02*
X95494360Y-71848609D01*
X95494360Y-71848609D02*
X95541979Y-71943847D01*
X95541979Y-71943847D02*
X95541979Y-72181942D01*
X95541979Y-72181942D02*
X95494360Y-72277180D01*
X95494360Y-72277180D02*
X95446741Y-72324800D01*
X95446741Y-72324800D02*
X95351503Y-72372419D01*
X95351503Y-72372419D02*
X95065789Y-72372419D01*
X95065789Y-72372419D02*
X94970551Y-72324800D01*
X94970551Y-72324800D02*
X94922932Y-72277180D01*
X96399122Y-71705752D02*
X96399122Y-72372419D01*
X96161027Y-71324800D02*
X95922932Y-72039085D01*
X95922932Y-72039085D02*
X96541979Y-72039085D01*
X96827694Y-71372419D02*
X97494360Y-71372419D01*
X97494360Y-71372419D02*
X97065789Y-72372419D01*
X97827694Y-71467657D02*
X97875313Y-71420038D01*
X97875313Y-71420038D02*
X97970551Y-71372419D01*
X97970551Y-71372419D02*
X98208646Y-71372419D01*
X98208646Y-71372419D02*
X98303884Y-71420038D01*
X98303884Y-71420038D02*
X98351503Y-71467657D01*
X98351503Y-71467657D02*
X98399122Y-71562895D01*
X98399122Y-71562895D02*
X98399122Y-71658133D01*
X98399122Y-71658133D02*
X98351503Y-71800990D01*
X98351503Y-71800990D02*
X97780075Y-72372419D01*
X97780075Y-72372419D02*
X98399122Y-72372419D01*
X99303884Y-71372419D02*
X98827694Y-71372419D01*
X98827694Y-71372419D02*
X98780075Y-71848609D01*
X98780075Y-71848609D02*
X98827694Y-71800990D01*
X98827694Y-71800990D02*
X98922932Y-71753371D01*
X98922932Y-71753371D02*
X99161027Y-71753371D01*
X99161027Y-71753371D02*
X99256265Y-71800990D01*
X99256265Y-71800990D02*
X99303884Y-71848609D01*
X99303884Y-71848609D02*
X99351503Y-71943847D01*
X99351503Y-71943847D02*
X99351503Y-72181942D01*
X99351503Y-72181942D02*
X99303884Y-72277180D01*
X99303884Y-72277180D02*
X99256265Y-72324800D01*
X99256265Y-72324800D02*
X99161027Y-72372419D01*
X99161027Y-72372419D02*
X98922932Y-72372419D01*
X98922932Y-72372419D02*
X98827694Y-72324800D01*
X98827694Y-72324800D02*
X98780075Y-72277180D01*
X32196115Y-101627580D02*
X32196115Y-102627580D01*
X32196115Y-102627580D02*
X31862782Y-101913295D01*
X31862782Y-101913295D02*
X31529449Y-102627580D01*
X31529449Y-102627580D02*
X31529449Y-101627580D01*
X30862782Y-102627580D02*
X30672306Y-102627580D01*
X30672306Y-102627580D02*
X30577068Y-102579961D01*
X30577068Y-102579961D02*
X30481830Y-102484723D01*
X30481830Y-102484723D02*
X30434211Y-102294247D01*
X30434211Y-102294247D02*
X30434211Y-101960914D01*
X30434211Y-101960914D02*
X30481830Y-101770438D01*
X30481830Y-101770438D02*
X30577068Y-101675200D01*
X30577068Y-101675200D02*
X30672306Y-101627580D01*
X30672306Y-101627580D02*
X30862782Y-101627580D01*
X30862782Y-101627580D02*
X30958020Y-101675200D01*
X30958020Y-101675200D02*
X31053258Y-101770438D01*
X31053258Y-101770438D02*
X31100877Y-101960914D01*
X31100877Y-101960914D02*
X31100877Y-102294247D01*
X31100877Y-102294247D02*
X31053258Y-102484723D01*
X31053258Y-102484723D02*
X30958020Y-102579961D01*
X30958020Y-102579961D02*
X30862782Y-102627580D01*
X30148496Y-102627580D02*
X29577068Y-102627580D01*
X29862782Y-101627580D02*
X29862782Y-102627580D01*
X29053258Y-102627580D02*
X28862782Y-102627580D01*
X28862782Y-102627580D02*
X28767544Y-102579961D01*
X28767544Y-102579961D02*
X28672306Y-102484723D01*
X28672306Y-102484723D02*
X28624687Y-102294247D01*
X28624687Y-102294247D02*
X28624687Y-101960914D01*
X28624687Y-101960914D02*
X28672306Y-101770438D01*
X28672306Y-101770438D02*
X28767544Y-101675200D01*
X28767544Y-101675200D02*
X28862782Y-101627580D01*
X28862782Y-101627580D02*
X29053258Y-101627580D01*
X29053258Y-101627580D02*
X29148496Y-101675200D01*
X29148496Y-101675200D02*
X29243734Y-101770438D01*
X29243734Y-101770438D02*
X29291353Y-101960914D01*
X29291353Y-101960914D02*
X29291353Y-102294247D01*
X29291353Y-102294247D02*
X29243734Y-102484723D01*
X29243734Y-102484723D02*
X29148496Y-102579961D01*
X29148496Y-102579961D02*
X29053258Y-102627580D01*
X27624687Y-101627580D02*
X27958020Y-102103771D01*
X28196115Y-101627580D02*
X28196115Y-102627580D01*
X28196115Y-102627580D02*
X27815163Y-102627580D01*
X27815163Y-102627580D02*
X27719925Y-102579961D01*
X27719925Y-102579961D02*
X27672306Y-102532342D01*
X27672306Y-102532342D02*
X27624687Y-102437104D01*
X27624687Y-102437104D02*
X27624687Y-102294247D01*
X27624687Y-102294247D02*
X27672306Y-102199009D01*
X27672306Y-102199009D02*
X27719925Y-102151390D01*
X27719925Y-102151390D02*
X27815163Y-102103771D01*
X27815163Y-102103771D02*
X28196115Y-102103771D01*
X27243734Y-101913295D02*
X26767544Y-101913295D01*
X27338972Y-101627580D02*
X27005639Y-102627580D01*
X27005639Y-102627580D02*
X26672306Y-101627580D01*
X96196115Y-102127580D02*
X96196115Y-103127580D01*
X96196115Y-103127580D02*
X95862782Y-102413295D01*
X95862782Y-102413295D02*
X95529449Y-103127580D01*
X95529449Y-103127580D02*
X95529449Y-102127580D01*
X94862782Y-103127580D02*
X94672306Y-103127580D01*
X94672306Y-103127580D02*
X94577068Y-103079961D01*
X94577068Y-103079961D02*
X94481830Y-102984723D01*
X94481830Y-102984723D02*
X94434211Y-102794247D01*
X94434211Y-102794247D02*
X94434211Y-102460914D01*
X94434211Y-102460914D02*
X94481830Y-102270438D01*
X94481830Y-102270438D02*
X94577068Y-102175200D01*
X94577068Y-102175200D02*
X94672306Y-102127580D01*
X94672306Y-102127580D02*
X94862782Y-102127580D01*
X94862782Y-102127580D02*
X94958020Y-102175200D01*
X94958020Y-102175200D02*
X95053258Y-102270438D01*
X95053258Y-102270438D02*
X95100877Y-102460914D01*
X95100877Y-102460914D02*
X95100877Y-102794247D01*
X95100877Y-102794247D02*
X95053258Y-102984723D01*
X95053258Y-102984723D02*
X94958020Y-103079961D01*
X94958020Y-103079961D02*
X94862782Y-103127580D01*
X94148496Y-103127580D02*
X93577068Y-103127580D01*
X93862782Y-102127580D02*
X93862782Y-103127580D01*
X93053258Y-103127580D02*
X92862782Y-103127580D01*
X92862782Y-103127580D02*
X92767544Y-103079961D01*
X92767544Y-103079961D02*
X92672306Y-102984723D01*
X92672306Y-102984723D02*
X92624687Y-102794247D01*
X92624687Y-102794247D02*
X92624687Y-102460914D01*
X92624687Y-102460914D02*
X92672306Y-102270438D01*
X92672306Y-102270438D02*
X92767544Y-102175200D01*
X92767544Y-102175200D02*
X92862782Y-102127580D01*
X92862782Y-102127580D02*
X93053258Y-102127580D01*
X93053258Y-102127580D02*
X93148496Y-102175200D01*
X93148496Y-102175200D02*
X93243734Y-102270438D01*
X93243734Y-102270438D02*
X93291353Y-102460914D01*
X93291353Y-102460914D02*
X93291353Y-102794247D01*
X93291353Y-102794247D02*
X93243734Y-102984723D01*
X93243734Y-102984723D02*
X93148496Y-103079961D01*
X93148496Y-103079961D02*
X93053258Y-103127580D01*
X91624687Y-102127580D02*
X91958020Y-102603771D01*
X92196115Y-102127580D02*
X92196115Y-103127580D01*
X92196115Y-103127580D02*
X91815163Y-103127580D01*
X91815163Y-103127580D02*
X91719925Y-103079961D01*
X91719925Y-103079961D02*
X91672306Y-103032342D01*
X91672306Y-103032342D02*
X91624687Y-102937104D01*
X91624687Y-102937104D02*
X91624687Y-102794247D01*
X91624687Y-102794247D02*
X91672306Y-102699009D01*
X91672306Y-102699009D02*
X91719925Y-102651390D01*
X91719925Y-102651390D02*
X91815163Y-102603771D01*
X91815163Y-102603771D02*
X92196115Y-102603771D01*
X90862782Y-102651390D02*
X90719925Y-102603771D01*
X90719925Y-102603771D02*
X90672306Y-102556152D01*
X90672306Y-102556152D02*
X90624687Y-102460914D01*
X90624687Y-102460914D02*
X90624687Y-102318057D01*
X90624687Y-102318057D02*
X90672306Y-102222819D01*
X90672306Y-102222819D02*
X90719925Y-102175200D01*
X90719925Y-102175200D02*
X90815163Y-102127580D01*
X90815163Y-102127580D02*
X91196115Y-102127580D01*
X91196115Y-102127580D02*
X91196115Y-103127580D01*
X91196115Y-103127580D02*
X90862782Y-103127580D01*
X90862782Y-103127580D02*
X90767544Y-103079961D01*
X90767544Y-103079961D02*
X90719925Y-103032342D01*
X90719925Y-103032342D02*
X90672306Y-102937104D01*
X90672306Y-102937104D02*
X90672306Y-102841866D01*
X90672306Y-102841866D02*
X90719925Y-102746628D01*
X90719925Y-102746628D02*
X90767544Y-102699009D01*
X90767544Y-102699009D02*
X90862782Y-102651390D01*
X90862782Y-102651390D02*
X91196115Y-102651390D01*
D12*
X69583333Y-65859580D02*
X69535714Y-65907200D01*
X69535714Y-65907200D02*
X69392857Y-65954819D01*
X69392857Y-65954819D02*
X69297619Y-65954819D01*
X69297619Y-65954819D02*
X69154762Y-65907200D01*
X69154762Y-65907200D02*
X69059524Y-65811961D01*
X69059524Y-65811961D02*
X69011905Y-65716723D01*
X69011905Y-65716723D02*
X68964286Y-65526247D01*
X68964286Y-65526247D02*
X68964286Y-65383390D01*
X68964286Y-65383390D02*
X69011905Y-65192914D01*
X69011905Y-65192914D02*
X69059524Y-65097676D01*
X69059524Y-65097676D02*
X69154762Y-65002438D01*
X69154762Y-65002438D02*
X69297619Y-64954819D01*
X69297619Y-64954819D02*
X69392857Y-64954819D01*
X69392857Y-64954819D02*
X69535714Y-65002438D01*
X69535714Y-65002438D02*
X69583333Y-65050057D01*
X70488095Y-64954819D02*
X70011905Y-64954819D01*
X70011905Y-64954819D02*
X69964286Y-65431009D01*
X69964286Y-65431009D02*
X70011905Y-65383390D01*
X70011905Y-65383390D02*
X70107143Y-65335771D01*
X70107143Y-65335771D02*
X70345238Y-65335771D01*
X70345238Y-65335771D02*
X70440476Y-65383390D01*
X70440476Y-65383390D02*
X70488095Y-65431009D01*
X70488095Y-65431009D02*
X70535714Y-65526247D01*
X70535714Y-65526247D02*
X70535714Y-65764342D01*
X70535714Y-65764342D02*
X70488095Y-65859580D01*
X70488095Y-65859580D02*
X70440476Y-65907200D01*
X70440476Y-65907200D02*
X70345238Y-65954819D01*
X70345238Y-65954819D02*
X70107143Y-65954819D01*
X70107143Y-65954819D02*
X70011905Y-65907200D01*
X70011905Y-65907200D02*
X69964286Y-65859580D01*
X92359580Y-106666666D02*
X92407200Y-106714285D01*
X92407200Y-106714285D02*
X92454819Y-106857142D01*
X92454819Y-106857142D02*
X92454819Y-106952380D01*
X92454819Y-106952380D02*
X92407200Y-107095237D01*
X92407200Y-107095237D02*
X92311961Y-107190475D01*
X92311961Y-107190475D02*
X92216723Y-107238094D01*
X92216723Y-107238094D02*
X92026247Y-107285713D01*
X92026247Y-107285713D02*
X91883390Y-107285713D01*
X91883390Y-107285713D02*
X91692914Y-107238094D01*
X91692914Y-107238094D02*
X91597676Y-107190475D01*
X91597676Y-107190475D02*
X91502438Y-107095237D01*
X91502438Y-107095237D02*
X91454819Y-106952380D01*
X91454819Y-106952380D02*
X91454819Y-106857142D01*
X91454819Y-106857142D02*
X91502438Y-106714285D01*
X91502438Y-106714285D02*
X91550057Y-106666666D01*
X91550057Y-106285713D02*
X91502438Y-106238094D01*
X91502438Y-106238094D02*
X91454819Y-106142856D01*
X91454819Y-106142856D02*
X91454819Y-105904761D01*
X91454819Y-105904761D02*
X91502438Y-105809523D01*
X91502438Y-105809523D02*
X91550057Y-105761904D01*
X91550057Y-105761904D02*
X91645295Y-105714285D01*
X91645295Y-105714285D02*
X91740533Y-105714285D01*
X91740533Y-105714285D02*
X91883390Y-105761904D01*
X91883390Y-105761904D02*
X92454819Y-106333332D01*
X92454819Y-106333332D02*
X92454819Y-105714285D01*
X74474819Y-59833333D02*
X75189104Y-59833333D01*
X75189104Y-59833333D02*
X75331961Y-59880952D01*
X75331961Y-59880952D02*
X75427200Y-59976190D01*
X75427200Y-59976190D02*
X75474819Y-60119047D01*
X75474819Y-60119047D02*
X75474819Y-60214285D01*
X74474819Y-58928571D02*
X74474819Y-59119047D01*
X74474819Y-59119047D02*
X74522438Y-59214285D01*
X74522438Y-59214285D02*
X74570057Y-59261904D01*
X74570057Y-59261904D02*
X74712914Y-59357142D01*
X74712914Y-59357142D02*
X74903390Y-59404761D01*
X74903390Y-59404761D02*
X75284342Y-59404761D01*
X75284342Y-59404761D02*
X75379580Y-59357142D01*
X75379580Y-59357142D02*
X75427200Y-59309523D01*
X75427200Y-59309523D02*
X75474819Y-59214285D01*
X75474819Y-59214285D02*
X75474819Y-59023809D01*
X75474819Y-59023809D02*
X75427200Y-58928571D01*
X75427200Y-58928571D02*
X75379580Y-58880952D01*
X75379580Y-58880952D02*
X75284342Y-58833333D01*
X75284342Y-58833333D02*
X75046247Y-58833333D01*
X75046247Y-58833333D02*
X74951009Y-58880952D01*
X74951009Y-58880952D02*
X74903390Y-58928571D01*
X74903390Y-58928571D02*
X74855771Y-59023809D01*
X74855771Y-59023809D02*
X74855771Y-59214285D01*
X74855771Y-59214285D02*
X74903390Y-59309523D01*
X74903390Y-59309523D02*
X74951009Y-59357142D01*
X74951009Y-59357142D02*
X75046247Y-59404761D01*
X73004819Y-100773333D02*
X73719104Y-100773333D01*
X73719104Y-100773333D02*
X73861961Y-100820952D01*
X73861961Y-100820952D02*
X73957200Y-100916190D01*
X73957200Y-100916190D02*
X74004819Y-101059047D01*
X74004819Y-101059047D02*
X74004819Y-101154285D01*
X73004819Y-100392380D02*
X73004819Y-99773333D01*
X73004819Y-99773333D02*
X73385771Y-100106666D01*
X73385771Y-100106666D02*
X73385771Y-99963809D01*
X73385771Y-99963809D02*
X73433390Y-99868571D01*
X73433390Y-99868571D02*
X73481009Y-99820952D01*
X73481009Y-99820952D02*
X73576247Y-99773333D01*
X73576247Y-99773333D02*
X73814342Y-99773333D01*
X73814342Y-99773333D02*
X73909580Y-99820952D01*
X73909580Y-99820952D02*
X73957200Y-99868571D01*
X73957200Y-99868571D02*
X74004819Y-99963809D01*
X74004819Y-99963809D02*
X74004819Y-100249523D01*
X74004819Y-100249523D02*
X73957200Y-100344761D01*
X73957200Y-100344761D02*
X73909580Y-100392380D01*
X87954819Y-83214285D02*
X86954819Y-83214285D01*
X86954819Y-83214285D02*
X86954819Y-82976190D01*
X86954819Y-82976190D02*
X87002438Y-82833333D01*
X87002438Y-82833333D02*
X87097676Y-82738095D01*
X87097676Y-82738095D02*
X87192914Y-82690476D01*
X87192914Y-82690476D02*
X87383390Y-82642857D01*
X87383390Y-82642857D02*
X87526247Y-82642857D01*
X87526247Y-82642857D02*
X87716723Y-82690476D01*
X87716723Y-82690476D02*
X87811961Y-82738095D01*
X87811961Y-82738095D02*
X87907200Y-82833333D01*
X87907200Y-82833333D02*
X87954819Y-82976190D01*
X87954819Y-82976190D02*
X87954819Y-83214285D01*
X87954819Y-81690476D02*
X87954819Y-82261904D01*
X87954819Y-81976190D02*
X86954819Y-81976190D01*
X86954819Y-81976190D02*
X87097676Y-82071428D01*
X87097676Y-82071428D02*
X87192914Y-82166666D01*
X87192914Y-82166666D02*
X87240533Y-82261904D01*
X87050057Y-81309523D02*
X87002438Y-81261904D01*
X87002438Y-81261904D02*
X86954819Y-81166666D01*
X86954819Y-81166666D02*
X86954819Y-80928571D01*
X86954819Y-80928571D02*
X87002438Y-80833333D01*
X87002438Y-80833333D02*
X87050057Y-80785714D01*
X87050057Y-80785714D02*
X87145295Y-80738095D01*
X87145295Y-80738095D02*
X87240533Y-80738095D01*
X87240533Y-80738095D02*
X87383390Y-80785714D01*
X87383390Y-80785714D02*
X87954819Y-81357142D01*
X87954819Y-81357142D02*
X87954819Y-80738095D01*
X66738095Y-104779819D02*
X66738095Y-105589342D01*
X66738095Y-105589342D02*
X66785714Y-105684580D01*
X66785714Y-105684580D02*
X66833333Y-105732200D01*
X66833333Y-105732200D02*
X66928571Y-105779819D01*
X66928571Y-105779819D02*
X67119047Y-105779819D01*
X67119047Y-105779819D02*
X67214285Y-105732200D01*
X67214285Y-105732200D02*
X67261904Y-105684580D01*
X67261904Y-105684580D02*
X67309523Y-105589342D01*
X67309523Y-105589342D02*
X67309523Y-104779819D01*
X67738095Y-104875057D02*
X67785714Y-104827438D01*
X67785714Y-104827438D02*
X67880952Y-104779819D01*
X67880952Y-104779819D02*
X68119047Y-104779819D01*
X68119047Y-104779819D02*
X68214285Y-104827438D01*
X68214285Y-104827438D02*
X68261904Y-104875057D01*
X68261904Y-104875057D02*
X68309523Y-104970295D01*
X68309523Y-104970295D02*
X68309523Y-105065533D01*
X68309523Y-105065533D02*
X68261904Y-105208390D01*
X68261904Y-105208390D02*
X67690476Y-105779819D01*
X67690476Y-105779819D02*
X68309523Y-105779819D01*
X41166666Y-125954819D02*
X41166666Y-126669104D01*
X41166666Y-126669104D02*
X41119047Y-126811961D01*
X41119047Y-126811961D02*
X41023809Y-126907200D01*
X41023809Y-126907200D02*
X40880952Y-126954819D01*
X40880952Y-126954819D02*
X40785714Y-126954819D01*
X41547619Y-125954819D02*
X42214285Y-125954819D01*
X42214285Y-125954819D02*
X41785714Y-126954819D01*
X43928571Y-113939700D02*
X45071429Y-113939700D01*
X54928571Y-113939700D02*
X56071429Y-113939700D01*
X55500000Y-114511128D02*
X55500000Y-113368271D01*
X70666666Y-62454819D02*
X70666666Y-63169104D01*
X70666666Y-63169104D02*
X70619047Y-63311961D01*
X70619047Y-63311961D02*
X70523809Y-63407200D01*
X70523809Y-63407200D02*
X70380952Y-63454819D01*
X70380952Y-63454819D02*
X70285714Y-63454819D01*
X71095238Y-62550057D02*
X71142857Y-62502438D01*
X71142857Y-62502438D02*
X71238095Y-62454819D01*
X71238095Y-62454819D02*
X71476190Y-62454819D01*
X71476190Y-62454819D02*
X71571428Y-62502438D01*
X71571428Y-62502438D02*
X71619047Y-62550057D01*
X71619047Y-62550057D02*
X71666666Y-62645295D01*
X71666666Y-62645295D02*
X71666666Y-62740533D01*
X71666666Y-62740533D02*
X71619047Y-62883390D01*
X71619047Y-62883390D02*
X71047619Y-63454819D01*
X71047619Y-63454819D02*
X71666666Y-63454819D01*
X66204819Y-70916666D02*
X65728628Y-71249999D01*
X66204819Y-71488094D02*
X65204819Y-71488094D01*
X65204819Y-71488094D02*
X65204819Y-71107142D01*
X65204819Y-71107142D02*
X65252438Y-71011904D01*
X65252438Y-71011904D02*
X65300057Y-70964285D01*
X65300057Y-70964285D02*
X65395295Y-70916666D01*
X65395295Y-70916666D02*
X65538152Y-70916666D01*
X65538152Y-70916666D02*
X65633390Y-70964285D01*
X65633390Y-70964285D02*
X65681009Y-71011904D01*
X65681009Y-71011904D02*
X65728628Y-71107142D01*
X65728628Y-71107142D02*
X65728628Y-71488094D01*
X65633390Y-70345237D02*
X65585771Y-70440475D01*
X65585771Y-70440475D02*
X65538152Y-70488094D01*
X65538152Y-70488094D02*
X65442914Y-70535713D01*
X65442914Y-70535713D02*
X65395295Y-70535713D01*
X65395295Y-70535713D02*
X65300057Y-70488094D01*
X65300057Y-70488094D02*
X65252438Y-70440475D01*
X65252438Y-70440475D02*
X65204819Y-70345237D01*
X65204819Y-70345237D02*
X65204819Y-70154761D01*
X65204819Y-70154761D02*
X65252438Y-70059523D01*
X65252438Y-70059523D02*
X65300057Y-70011904D01*
X65300057Y-70011904D02*
X65395295Y-69964285D01*
X65395295Y-69964285D02*
X65442914Y-69964285D01*
X65442914Y-69964285D02*
X65538152Y-70011904D01*
X65538152Y-70011904D02*
X65585771Y-70059523D01*
X65585771Y-70059523D02*
X65633390Y-70154761D01*
X65633390Y-70154761D02*
X65633390Y-70345237D01*
X65633390Y-70345237D02*
X65681009Y-70440475D01*
X65681009Y-70440475D02*
X65728628Y-70488094D01*
X65728628Y-70488094D02*
X65823866Y-70535713D01*
X65823866Y-70535713D02*
X66014342Y-70535713D01*
X66014342Y-70535713D02*
X66109580Y-70488094D01*
X66109580Y-70488094D02*
X66157200Y-70440475D01*
X66157200Y-70440475D02*
X66204819Y-70345237D01*
X66204819Y-70345237D02*
X66204819Y-70154761D01*
X66204819Y-70154761D02*
X66157200Y-70059523D01*
X66157200Y-70059523D02*
X66109580Y-70011904D01*
X66109580Y-70011904D02*
X66014342Y-69964285D01*
X66014342Y-69964285D02*
X65823866Y-69964285D01*
X65823866Y-69964285D02*
X65728628Y-70011904D01*
X65728628Y-70011904D02*
X65681009Y-70059523D01*
X65681009Y-70059523D02*
X65633390Y-70154761D01*
X97454819Y-103833333D02*
X98169104Y-103833333D01*
X98169104Y-103833333D02*
X98311961Y-103880952D01*
X98311961Y-103880952D02*
X98407200Y-103976190D01*
X98407200Y-103976190D02*
X98454819Y-104119047D01*
X98454819Y-104119047D02*
X98454819Y-104214285D01*
X97454819Y-102880952D02*
X97454819Y-103357142D01*
X97454819Y-103357142D02*
X97931009Y-103404761D01*
X97931009Y-103404761D02*
X97883390Y-103357142D01*
X97883390Y-103357142D02*
X97835771Y-103261904D01*
X97835771Y-103261904D02*
X97835771Y-103023809D01*
X97835771Y-103023809D02*
X97883390Y-102928571D01*
X97883390Y-102928571D02*
X97931009Y-102880952D01*
X97931009Y-102880952D02*
X98026247Y-102833333D01*
X98026247Y-102833333D02*
X98264342Y-102833333D01*
X98264342Y-102833333D02*
X98359580Y-102880952D01*
X98359580Y-102880952D02*
X98407200Y-102928571D01*
X98407200Y-102928571D02*
X98454819Y-103023809D01*
X98454819Y-103023809D02*
X98454819Y-103261904D01*
X98454819Y-103261904D02*
X98407200Y-103357142D01*
X98407200Y-103357142D02*
X98359580Y-103404761D01*
X41785714Y-97454819D02*
X41785714Y-96454819D01*
X41785714Y-96454819D02*
X42023809Y-96454819D01*
X42023809Y-96454819D02*
X42166666Y-96502438D01*
X42166666Y-96502438D02*
X42261904Y-96597676D01*
X42261904Y-96597676D02*
X42309523Y-96692914D01*
X42309523Y-96692914D02*
X42357142Y-96883390D01*
X42357142Y-96883390D02*
X42357142Y-97026247D01*
X42357142Y-97026247D02*
X42309523Y-97216723D01*
X42309523Y-97216723D02*
X42261904Y-97311961D01*
X42261904Y-97311961D02*
X42166666Y-97407200D01*
X42166666Y-97407200D02*
X42023809Y-97454819D01*
X42023809Y-97454819D02*
X41785714Y-97454819D01*
X43309523Y-97454819D02*
X42738095Y-97454819D01*
X43023809Y-97454819D02*
X43023809Y-96454819D01*
X43023809Y-96454819D02*
X42928571Y-96597676D01*
X42928571Y-96597676D02*
X42833333Y-96692914D01*
X42833333Y-96692914D02*
X42738095Y-96740533D01*
X43928571Y-96454819D02*
X44023809Y-96454819D01*
X44023809Y-96454819D02*
X44119047Y-96502438D01*
X44119047Y-96502438D02*
X44166666Y-96550057D01*
X44166666Y-96550057D02*
X44214285Y-96645295D01*
X44214285Y-96645295D02*
X44261904Y-96835771D01*
X44261904Y-96835771D02*
X44261904Y-97073866D01*
X44261904Y-97073866D02*
X44214285Y-97264342D01*
X44214285Y-97264342D02*
X44166666Y-97359580D01*
X44166666Y-97359580D02*
X44119047Y-97407200D01*
X44119047Y-97407200D02*
X44023809Y-97454819D01*
X44023809Y-97454819D02*
X43928571Y-97454819D01*
X43928571Y-97454819D02*
X43833333Y-97407200D01*
X43833333Y-97407200D02*
X43785714Y-97359580D01*
X43785714Y-97359580D02*
X43738095Y-97264342D01*
X43738095Y-97264342D02*
X43690476Y-97073866D01*
X43690476Y-97073866D02*
X43690476Y-96835771D01*
X43690476Y-96835771D02*
X43738095Y-96645295D01*
X43738095Y-96645295D02*
X43785714Y-96550057D01*
X43785714Y-96550057D02*
X43833333Y-96502438D01*
X43833333Y-96502438D02*
X43928571Y-96454819D01*
X38189819Y-64988094D02*
X37189819Y-64988094D01*
X37189819Y-64988094D02*
X37189819Y-64749999D01*
X37189819Y-64749999D02*
X37237438Y-64607142D01*
X37237438Y-64607142D02*
X37332676Y-64511904D01*
X37332676Y-64511904D02*
X37427914Y-64464285D01*
X37427914Y-64464285D02*
X37618390Y-64416666D01*
X37618390Y-64416666D02*
X37761247Y-64416666D01*
X37761247Y-64416666D02*
X37951723Y-64464285D01*
X37951723Y-64464285D02*
X38046961Y-64511904D01*
X38046961Y-64511904D02*
X38142200Y-64607142D01*
X38142200Y-64607142D02*
X38189819Y-64749999D01*
X38189819Y-64749999D02*
X38189819Y-64988094D01*
X38189819Y-63464285D02*
X38189819Y-64035713D01*
X38189819Y-63749999D02*
X37189819Y-63749999D01*
X37189819Y-63749999D02*
X37332676Y-63845237D01*
X37332676Y-63845237D02*
X37427914Y-63940475D01*
X37427914Y-63940475D02*
X37475533Y-64035713D01*
X36785714Y-106454819D02*
X36785714Y-105454819D01*
X36785714Y-105454819D02*
X37023809Y-105454819D01*
X37023809Y-105454819D02*
X37166666Y-105502438D01*
X37166666Y-105502438D02*
X37261904Y-105597676D01*
X37261904Y-105597676D02*
X37309523Y-105692914D01*
X37309523Y-105692914D02*
X37357142Y-105883390D01*
X37357142Y-105883390D02*
X37357142Y-106026247D01*
X37357142Y-106026247D02*
X37309523Y-106216723D01*
X37309523Y-106216723D02*
X37261904Y-106311961D01*
X37261904Y-106311961D02*
X37166666Y-106407200D01*
X37166666Y-106407200D02*
X37023809Y-106454819D01*
X37023809Y-106454819D02*
X36785714Y-106454819D01*
X38309523Y-106454819D02*
X37738095Y-106454819D01*
X38023809Y-106454819D02*
X38023809Y-105454819D01*
X38023809Y-105454819D02*
X37928571Y-105597676D01*
X37928571Y-105597676D02*
X37833333Y-105692914D01*
X37833333Y-105692914D02*
X37738095Y-105740533D01*
X39261904Y-106454819D02*
X38690476Y-106454819D01*
X38976190Y-106454819D02*
X38976190Y-105454819D01*
X38976190Y-105454819D02*
X38880952Y-105597676D01*
X38880952Y-105597676D02*
X38785714Y-105692914D01*
X38785714Y-105692914D02*
X38690476Y-105740533D01*
X38189819Y-71488094D02*
X37189819Y-71488094D01*
X37189819Y-71488094D02*
X37189819Y-71249999D01*
X37189819Y-71249999D02*
X37237438Y-71107142D01*
X37237438Y-71107142D02*
X37332676Y-71011904D01*
X37332676Y-71011904D02*
X37427914Y-70964285D01*
X37427914Y-70964285D02*
X37618390Y-70916666D01*
X37618390Y-70916666D02*
X37761247Y-70916666D01*
X37761247Y-70916666D02*
X37951723Y-70964285D01*
X37951723Y-70964285D02*
X38046961Y-71011904D01*
X38046961Y-71011904D02*
X38142200Y-71107142D01*
X38142200Y-71107142D02*
X38189819Y-71249999D01*
X38189819Y-71249999D02*
X38189819Y-71488094D01*
X37285057Y-70535713D02*
X37237438Y-70488094D01*
X37237438Y-70488094D02*
X37189819Y-70392856D01*
X37189819Y-70392856D02*
X37189819Y-70154761D01*
X37189819Y-70154761D02*
X37237438Y-70059523D01*
X37237438Y-70059523D02*
X37285057Y-70011904D01*
X37285057Y-70011904D02*
X37380295Y-69964285D01*
X37380295Y-69964285D02*
X37475533Y-69964285D01*
X37475533Y-69964285D02*
X37618390Y-70011904D01*
X37618390Y-70011904D02*
X38189819Y-70583332D01*
X38189819Y-70583332D02*
X38189819Y-69964285D01*
X47454819Y-104214285D02*
X46454819Y-104214285D01*
X46454819Y-104214285D02*
X46454819Y-103976190D01*
X46454819Y-103976190D02*
X46502438Y-103833333D01*
X46502438Y-103833333D02*
X46597676Y-103738095D01*
X46597676Y-103738095D02*
X46692914Y-103690476D01*
X46692914Y-103690476D02*
X46883390Y-103642857D01*
X46883390Y-103642857D02*
X47026247Y-103642857D01*
X47026247Y-103642857D02*
X47216723Y-103690476D01*
X47216723Y-103690476D02*
X47311961Y-103738095D01*
X47311961Y-103738095D02*
X47407200Y-103833333D01*
X47407200Y-103833333D02*
X47454819Y-103976190D01*
X47454819Y-103976190D02*
X47454819Y-104214285D01*
X47454819Y-102690476D02*
X47454819Y-103261904D01*
X47454819Y-102976190D02*
X46454819Y-102976190D01*
X46454819Y-102976190D02*
X46597676Y-103071428D01*
X46597676Y-103071428D02*
X46692914Y-103166666D01*
X46692914Y-103166666D02*
X46740533Y-103261904D01*
X46788152Y-101833333D02*
X47454819Y-101833333D01*
X46407200Y-102071428D02*
X47121485Y-102309523D01*
X47121485Y-102309523D02*
X47121485Y-101690476D01*
X76761905Y-88954819D02*
X76761905Y-87954819D01*
X76761905Y-87954819D02*
X77000000Y-87954819D01*
X77000000Y-87954819D02*
X77142857Y-88002438D01*
X77142857Y-88002438D02*
X77238095Y-88097676D01*
X77238095Y-88097676D02*
X77285714Y-88192914D01*
X77285714Y-88192914D02*
X77333333Y-88383390D01*
X77333333Y-88383390D02*
X77333333Y-88526247D01*
X77333333Y-88526247D02*
X77285714Y-88716723D01*
X77285714Y-88716723D02*
X77238095Y-88811961D01*
X77238095Y-88811961D02*
X77142857Y-88907200D01*
X77142857Y-88907200D02*
X77000000Y-88954819D01*
X77000000Y-88954819D02*
X76761905Y-88954819D01*
X78238095Y-87954819D02*
X77761905Y-87954819D01*
X77761905Y-87954819D02*
X77714286Y-88431009D01*
X77714286Y-88431009D02*
X77761905Y-88383390D01*
X77761905Y-88383390D02*
X77857143Y-88335771D01*
X77857143Y-88335771D02*
X78095238Y-88335771D01*
X78095238Y-88335771D02*
X78190476Y-88383390D01*
X78190476Y-88383390D02*
X78238095Y-88431009D01*
X78238095Y-88431009D02*
X78285714Y-88526247D01*
X78285714Y-88526247D02*
X78285714Y-88764342D01*
X78285714Y-88764342D02*
X78238095Y-88859580D01*
X78238095Y-88859580D02*
X78190476Y-88907200D01*
X78190476Y-88907200D02*
X78095238Y-88954819D01*
X78095238Y-88954819D02*
X77857143Y-88954819D01*
X77857143Y-88954819D02*
X77761905Y-88907200D01*
X77761905Y-88907200D02*
X77714286Y-88859580D01*
X79709580Y-112666666D02*
X79757200Y-112714285D01*
X79757200Y-112714285D02*
X79804819Y-112857142D01*
X79804819Y-112857142D02*
X79804819Y-112952380D01*
X79804819Y-112952380D02*
X79757200Y-113095237D01*
X79757200Y-113095237D02*
X79661961Y-113190475D01*
X79661961Y-113190475D02*
X79566723Y-113238094D01*
X79566723Y-113238094D02*
X79376247Y-113285713D01*
X79376247Y-113285713D02*
X79233390Y-113285713D01*
X79233390Y-113285713D02*
X79042914Y-113238094D01*
X79042914Y-113238094D02*
X78947676Y-113190475D01*
X78947676Y-113190475D02*
X78852438Y-113095237D01*
X78852438Y-113095237D02*
X78804819Y-112952380D01*
X78804819Y-112952380D02*
X78804819Y-112857142D01*
X78804819Y-112857142D02*
X78852438Y-112714285D01*
X78852438Y-112714285D02*
X78900057Y-112666666D01*
X79804819Y-111714285D02*
X79804819Y-112285713D01*
X79804819Y-111999999D02*
X78804819Y-111999999D01*
X78804819Y-111999999D02*
X78947676Y-112095237D01*
X78947676Y-112095237D02*
X79042914Y-112190475D01*
X79042914Y-112190475D02*
X79090533Y-112285713D01*
X62709580Y-114491666D02*
X62757200Y-114539285D01*
X62757200Y-114539285D02*
X62804819Y-114682142D01*
X62804819Y-114682142D02*
X62804819Y-114777380D01*
X62804819Y-114777380D02*
X62757200Y-114920237D01*
X62757200Y-114920237D02*
X62661961Y-115015475D01*
X62661961Y-115015475D02*
X62566723Y-115063094D01*
X62566723Y-115063094D02*
X62376247Y-115110713D01*
X62376247Y-115110713D02*
X62233390Y-115110713D01*
X62233390Y-115110713D02*
X62042914Y-115063094D01*
X62042914Y-115063094D02*
X61947676Y-115015475D01*
X61947676Y-115015475D02*
X61852438Y-114920237D01*
X61852438Y-114920237D02*
X61804819Y-114777380D01*
X61804819Y-114777380D02*
X61804819Y-114682142D01*
X61804819Y-114682142D02*
X61852438Y-114539285D01*
X61852438Y-114539285D02*
X61900057Y-114491666D01*
X61804819Y-114158332D02*
X61804819Y-113539285D01*
X61804819Y-113539285D02*
X62185771Y-113872618D01*
X62185771Y-113872618D02*
X62185771Y-113729761D01*
X62185771Y-113729761D02*
X62233390Y-113634523D01*
X62233390Y-113634523D02*
X62281009Y-113586904D01*
X62281009Y-113586904D02*
X62376247Y-113539285D01*
X62376247Y-113539285D02*
X62614342Y-113539285D01*
X62614342Y-113539285D02*
X62709580Y-113586904D01*
X62709580Y-113586904D02*
X62757200Y-113634523D01*
X62757200Y-113634523D02*
X62804819Y-113729761D01*
X62804819Y-113729761D02*
X62804819Y-114015475D01*
X62804819Y-114015475D02*
X62757200Y-114110713D01*
X62757200Y-114110713D02*
X62709580Y-114158332D01*
X82738095Y-103454819D02*
X82738095Y-104264342D01*
X82738095Y-104264342D02*
X82785714Y-104359580D01*
X82785714Y-104359580D02*
X82833333Y-104407200D01*
X82833333Y-104407200D02*
X82928571Y-104454819D01*
X82928571Y-104454819D02*
X83119047Y-104454819D01*
X83119047Y-104454819D02*
X83214285Y-104407200D01*
X83214285Y-104407200D02*
X83261904Y-104359580D01*
X83261904Y-104359580D02*
X83309523Y-104264342D01*
X83309523Y-104264342D02*
X83309523Y-103454819D01*
X84309523Y-104454819D02*
X83738095Y-104454819D01*
X84023809Y-104454819D02*
X84023809Y-103454819D01*
X84023809Y-103454819D02*
X83928571Y-103597676D01*
X83928571Y-103597676D02*
X83833333Y-103692914D01*
X83833333Y-103692914D02*
X83738095Y-103740533D01*
X89404819Y-78333333D02*
X90119104Y-78333333D01*
X90119104Y-78333333D02*
X90261961Y-78380952D01*
X90261961Y-78380952D02*
X90357200Y-78476190D01*
X90357200Y-78476190D02*
X90404819Y-78619047D01*
X90404819Y-78619047D02*
X90404819Y-78714285D01*
X89833390Y-77714285D02*
X89785771Y-77809523D01*
X89785771Y-77809523D02*
X89738152Y-77857142D01*
X89738152Y-77857142D02*
X89642914Y-77904761D01*
X89642914Y-77904761D02*
X89595295Y-77904761D01*
X89595295Y-77904761D02*
X89500057Y-77857142D01*
X89500057Y-77857142D02*
X89452438Y-77809523D01*
X89452438Y-77809523D02*
X89404819Y-77714285D01*
X89404819Y-77714285D02*
X89404819Y-77523809D01*
X89404819Y-77523809D02*
X89452438Y-77428571D01*
X89452438Y-77428571D02*
X89500057Y-77380952D01*
X89500057Y-77380952D02*
X89595295Y-77333333D01*
X89595295Y-77333333D02*
X89642914Y-77333333D01*
X89642914Y-77333333D02*
X89738152Y-77380952D01*
X89738152Y-77380952D02*
X89785771Y-77428571D01*
X89785771Y-77428571D02*
X89833390Y-77523809D01*
X89833390Y-77523809D02*
X89833390Y-77714285D01*
X89833390Y-77714285D02*
X89881009Y-77809523D01*
X89881009Y-77809523D02*
X89928628Y-77857142D01*
X89928628Y-77857142D02*
X90023866Y-77904761D01*
X90023866Y-77904761D02*
X90214342Y-77904761D01*
X90214342Y-77904761D02*
X90309580Y-77857142D01*
X90309580Y-77857142D02*
X90357200Y-77809523D01*
X90357200Y-77809523D02*
X90404819Y-77714285D01*
X90404819Y-77714285D02*
X90404819Y-77523809D01*
X90404819Y-77523809D02*
X90357200Y-77428571D01*
X90357200Y-77428571D02*
X90309580Y-77380952D01*
X90309580Y-77380952D02*
X90214342Y-77333333D01*
X90214342Y-77333333D02*
X90023866Y-77333333D01*
X90023866Y-77333333D02*
X89928628Y-77380952D01*
X89928628Y-77380952D02*
X89881009Y-77428571D01*
X89881009Y-77428571D02*
X89833390Y-77523809D01*
X49454819Y-98214285D02*
X48454819Y-98214285D01*
X48454819Y-98214285D02*
X48454819Y-97976190D01*
X48454819Y-97976190D02*
X48502438Y-97833333D01*
X48502438Y-97833333D02*
X48597676Y-97738095D01*
X48597676Y-97738095D02*
X48692914Y-97690476D01*
X48692914Y-97690476D02*
X48883390Y-97642857D01*
X48883390Y-97642857D02*
X49026247Y-97642857D01*
X49026247Y-97642857D02*
X49216723Y-97690476D01*
X49216723Y-97690476D02*
X49311961Y-97738095D01*
X49311961Y-97738095D02*
X49407200Y-97833333D01*
X49407200Y-97833333D02*
X49454819Y-97976190D01*
X49454819Y-97976190D02*
X49454819Y-98214285D01*
X49454819Y-96690476D02*
X49454819Y-97261904D01*
X49454819Y-96976190D02*
X48454819Y-96976190D01*
X48454819Y-96976190D02*
X48597676Y-97071428D01*
X48597676Y-97071428D02*
X48692914Y-97166666D01*
X48692914Y-97166666D02*
X48740533Y-97261904D01*
X48454819Y-95785714D02*
X48454819Y-96261904D01*
X48454819Y-96261904D02*
X48931009Y-96309523D01*
X48931009Y-96309523D02*
X48883390Y-96261904D01*
X48883390Y-96261904D02*
X48835771Y-96166666D01*
X48835771Y-96166666D02*
X48835771Y-95928571D01*
X48835771Y-95928571D02*
X48883390Y-95833333D01*
X48883390Y-95833333D02*
X48931009Y-95785714D01*
X48931009Y-95785714D02*
X49026247Y-95738095D01*
X49026247Y-95738095D02*
X49264342Y-95738095D01*
X49264342Y-95738095D02*
X49359580Y-95785714D01*
X49359580Y-95785714D02*
X49407200Y-95833333D01*
X49407200Y-95833333D02*
X49454819Y-95928571D01*
X49454819Y-95928571D02*
X49454819Y-96166666D01*
X49454819Y-96166666D02*
X49407200Y-96261904D01*
X49407200Y-96261904D02*
X49359580Y-96309523D01*
X65204819Y-67416666D02*
X64728628Y-67749999D01*
X65204819Y-67988094D02*
X64204819Y-67988094D01*
X64204819Y-67988094D02*
X64204819Y-67607142D01*
X64204819Y-67607142D02*
X64252438Y-67511904D01*
X64252438Y-67511904D02*
X64300057Y-67464285D01*
X64300057Y-67464285D02*
X64395295Y-67416666D01*
X64395295Y-67416666D02*
X64538152Y-67416666D01*
X64538152Y-67416666D02*
X64633390Y-67464285D01*
X64633390Y-67464285D02*
X64681009Y-67511904D01*
X64681009Y-67511904D02*
X64728628Y-67607142D01*
X64728628Y-67607142D02*
X64728628Y-67988094D01*
X65204819Y-66940475D02*
X65204819Y-66749999D01*
X65204819Y-66749999D02*
X65157200Y-66654761D01*
X65157200Y-66654761D02*
X65109580Y-66607142D01*
X65109580Y-66607142D02*
X64966723Y-66511904D01*
X64966723Y-66511904D02*
X64776247Y-66464285D01*
X64776247Y-66464285D02*
X64395295Y-66464285D01*
X64395295Y-66464285D02*
X64300057Y-66511904D01*
X64300057Y-66511904D02*
X64252438Y-66559523D01*
X64252438Y-66559523D02*
X64204819Y-66654761D01*
X64204819Y-66654761D02*
X64204819Y-66845237D01*
X64204819Y-66845237D02*
X64252438Y-66940475D01*
X64252438Y-66940475D02*
X64300057Y-66988094D01*
X64300057Y-66988094D02*
X64395295Y-67035713D01*
X64395295Y-67035713D02*
X64633390Y-67035713D01*
X64633390Y-67035713D02*
X64728628Y-66988094D01*
X64728628Y-66988094D02*
X64776247Y-66940475D01*
X64776247Y-66940475D02*
X64823866Y-66845237D01*
X64823866Y-66845237D02*
X64823866Y-66654761D01*
X64823866Y-66654761D02*
X64776247Y-66559523D01*
X64776247Y-66559523D02*
X64728628Y-66511904D01*
X64728628Y-66511904D02*
X64633390Y-66464285D01*
X26454819Y-82333333D02*
X27169104Y-82333333D01*
X27169104Y-82333333D02*
X27311961Y-82380952D01*
X27311961Y-82380952D02*
X27407200Y-82476190D01*
X27407200Y-82476190D02*
X27454819Y-82619047D01*
X27454819Y-82619047D02*
X27454819Y-82714285D01*
X26788152Y-81428571D02*
X27454819Y-81428571D01*
X26407200Y-81666666D02*
X27121485Y-81904761D01*
X27121485Y-81904761D02*
X27121485Y-81285714D01*
X40166666Y-63454819D02*
X40166666Y-64169104D01*
X40166666Y-64169104D02*
X40119047Y-64311961D01*
X40119047Y-64311961D02*
X40023809Y-64407200D01*
X40023809Y-64407200D02*
X39880952Y-64454819D01*
X39880952Y-64454819D02*
X39785714Y-64454819D01*
X40690476Y-64454819D02*
X40880952Y-64454819D01*
X40880952Y-64454819D02*
X40976190Y-64407200D01*
X40976190Y-64407200D02*
X41023809Y-64359580D01*
X41023809Y-64359580D02*
X41119047Y-64216723D01*
X41119047Y-64216723D02*
X41166666Y-64026247D01*
X41166666Y-64026247D02*
X41166666Y-63645295D01*
X41166666Y-63645295D02*
X41119047Y-63550057D01*
X41119047Y-63550057D02*
X41071428Y-63502438D01*
X41071428Y-63502438D02*
X40976190Y-63454819D01*
X40976190Y-63454819D02*
X40785714Y-63454819D01*
X40785714Y-63454819D02*
X40690476Y-63502438D01*
X40690476Y-63502438D02*
X40642857Y-63550057D01*
X40642857Y-63550057D02*
X40595238Y-63645295D01*
X40595238Y-63645295D02*
X40595238Y-63883390D01*
X40595238Y-63883390D02*
X40642857Y-63978628D01*
X40642857Y-63978628D02*
X40690476Y-64026247D01*
X40690476Y-64026247D02*
X40785714Y-64073866D01*
X40785714Y-64073866D02*
X40976190Y-64073866D01*
X40976190Y-64073866D02*
X41071428Y-64026247D01*
X41071428Y-64026247D02*
X41119047Y-63978628D01*
X41119047Y-63978628D02*
X41166666Y-63883390D01*
X85954819Y-83214285D02*
X84954819Y-83214285D01*
X84954819Y-83214285D02*
X84954819Y-82976190D01*
X84954819Y-82976190D02*
X85002438Y-82833333D01*
X85002438Y-82833333D02*
X85097676Y-82738095D01*
X85097676Y-82738095D02*
X85192914Y-82690476D01*
X85192914Y-82690476D02*
X85383390Y-82642857D01*
X85383390Y-82642857D02*
X85526247Y-82642857D01*
X85526247Y-82642857D02*
X85716723Y-82690476D01*
X85716723Y-82690476D02*
X85811961Y-82738095D01*
X85811961Y-82738095D02*
X85907200Y-82833333D01*
X85907200Y-82833333D02*
X85954819Y-82976190D01*
X85954819Y-82976190D02*
X85954819Y-83214285D01*
X85954819Y-81690476D02*
X85954819Y-82261904D01*
X85954819Y-81976190D02*
X84954819Y-81976190D01*
X84954819Y-81976190D02*
X85097676Y-82071428D01*
X85097676Y-82071428D02*
X85192914Y-82166666D01*
X85192914Y-82166666D02*
X85240533Y-82261904D01*
X84954819Y-81357142D02*
X84954819Y-80738095D01*
X84954819Y-80738095D02*
X85335771Y-81071428D01*
X85335771Y-81071428D02*
X85335771Y-80928571D01*
X85335771Y-80928571D02*
X85383390Y-80833333D01*
X85383390Y-80833333D02*
X85431009Y-80785714D01*
X85431009Y-80785714D02*
X85526247Y-80738095D01*
X85526247Y-80738095D02*
X85764342Y-80738095D01*
X85764342Y-80738095D02*
X85859580Y-80785714D01*
X85859580Y-80785714D02*
X85907200Y-80833333D01*
X85907200Y-80833333D02*
X85954819Y-80928571D01*
X85954819Y-80928571D02*
X85954819Y-81214285D01*
X85954819Y-81214285D02*
X85907200Y-81309523D01*
X85907200Y-81309523D02*
X85859580Y-81357142D01*
X38189819Y-77988094D02*
X37189819Y-77988094D01*
X37189819Y-77988094D02*
X37189819Y-77749999D01*
X37189819Y-77749999D02*
X37237438Y-77607142D01*
X37237438Y-77607142D02*
X37332676Y-77511904D01*
X37332676Y-77511904D02*
X37427914Y-77464285D01*
X37427914Y-77464285D02*
X37618390Y-77416666D01*
X37618390Y-77416666D02*
X37761247Y-77416666D01*
X37761247Y-77416666D02*
X37951723Y-77464285D01*
X37951723Y-77464285D02*
X38046961Y-77511904D01*
X38046961Y-77511904D02*
X38142200Y-77607142D01*
X38142200Y-77607142D02*
X38189819Y-77749999D01*
X38189819Y-77749999D02*
X38189819Y-77988094D01*
X37189819Y-77083332D02*
X37189819Y-76464285D01*
X37189819Y-76464285D02*
X37570771Y-76797618D01*
X37570771Y-76797618D02*
X37570771Y-76654761D01*
X37570771Y-76654761D02*
X37618390Y-76559523D01*
X37618390Y-76559523D02*
X37666009Y-76511904D01*
X37666009Y-76511904D02*
X37761247Y-76464285D01*
X37761247Y-76464285D02*
X37999342Y-76464285D01*
X37999342Y-76464285D02*
X38094580Y-76511904D01*
X38094580Y-76511904D02*
X38142200Y-76559523D01*
X38142200Y-76559523D02*
X38189819Y-76654761D01*
X38189819Y-76654761D02*
X38189819Y-76940475D01*
X38189819Y-76940475D02*
X38142200Y-77035713D01*
X38142200Y-77035713D02*
X38094580Y-77083332D01*
X83190476Y-117454819D02*
X83190476Y-118169104D01*
X83190476Y-118169104D02*
X83142857Y-118311961D01*
X83142857Y-118311961D02*
X83047619Y-118407200D01*
X83047619Y-118407200D02*
X82904762Y-118454819D01*
X82904762Y-118454819D02*
X82809524Y-118454819D01*
X84190476Y-118454819D02*
X83619048Y-118454819D01*
X83904762Y-118454819D02*
X83904762Y-117454819D01*
X83904762Y-117454819D02*
X83809524Y-117597676D01*
X83809524Y-117597676D02*
X83714286Y-117692914D01*
X83714286Y-117692914D02*
X83619048Y-117740533D01*
X84809524Y-117454819D02*
X84904762Y-117454819D01*
X84904762Y-117454819D02*
X85000000Y-117502438D01*
X85000000Y-117502438D02*
X85047619Y-117550057D01*
X85047619Y-117550057D02*
X85095238Y-117645295D01*
X85095238Y-117645295D02*
X85142857Y-117835771D01*
X85142857Y-117835771D02*
X85142857Y-118073866D01*
X85142857Y-118073866D02*
X85095238Y-118264342D01*
X85095238Y-118264342D02*
X85047619Y-118359580D01*
X85047619Y-118359580D02*
X85000000Y-118407200D01*
X85000000Y-118407200D02*
X84904762Y-118454819D01*
X84904762Y-118454819D02*
X84809524Y-118454819D01*
X84809524Y-118454819D02*
X84714286Y-118407200D01*
X84714286Y-118407200D02*
X84666667Y-118359580D01*
X84666667Y-118359580D02*
X84619048Y-118264342D01*
X84619048Y-118264342D02*
X84571429Y-118073866D01*
X84571429Y-118073866D02*
X84571429Y-117835771D01*
X84571429Y-117835771D02*
X84619048Y-117645295D01*
X84619048Y-117645295D02*
X84666667Y-117550057D01*
X84666667Y-117550057D02*
X84714286Y-117502438D01*
X84714286Y-117502438D02*
X84809524Y-117454819D01*
X52666666Y-61564819D02*
X52666666Y-62279104D01*
X52666666Y-62279104D02*
X52619047Y-62421961D01*
X52619047Y-62421961D02*
X52523809Y-62517200D01*
X52523809Y-62517200D02*
X52380952Y-62564819D01*
X52380952Y-62564819D02*
X52285714Y-62564819D01*
X53666666Y-62564819D02*
X53095238Y-62564819D01*
X53380952Y-62564819D02*
X53380952Y-61564819D01*
X53380952Y-61564819D02*
X53285714Y-61707676D01*
X53285714Y-61707676D02*
X53190476Y-61802914D01*
X53190476Y-61802914D02*
X53095238Y-61850533D01*
X81261905Y-92954819D02*
X81261905Y-91954819D01*
X81261905Y-91954819D02*
X81500000Y-91954819D01*
X81500000Y-91954819D02*
X81642857Y-92002438D01*
X81642857Y-92002438D02*
X81738095Y-92097676D01*
X81738095Y-92097676D02*
X81785714Y-92192914D01*
X81785714Y-92192914D02*
X81833333Y-92383390D01*
X81833333Y-92383390D02*
X81833333Y-92526247D01*
X81833333Y-92526247D02*
X81785714Y-92716723D01*
X81785714Y-92716723D02*
X81738095Y-92811961D01*
X81738095Y-92811961D02*
X81642857Y-92907200D01*
X81642857Y-92907200D02*
X81500000Y-92954819D01*
X81500000Y-92954819D02*
X81261905Y-92954819D01*
X82166667Y-91954819D02*
X82833333Y-91954819D01*
X82833333Y-91954819D02*
X82404762Y-92954819D01*
X75859580Y-108166666D02*
X75907200Y-108214285D01*
X75907200Y-108214285D02*
X75954819Y-108357142D01*
X75954819Y-108357142D02*
X75954819Y-108452380D01*
X75954819Y-108452380D02*
X75907200Y-108595237D01*
X75907200Y-108595237D02*
X75811961Y-108690475D01*
X75811961Y-108690475D02*
X75716723Y-108738094D01*
X75716723Y-108738094D02*
X75526247Y-108785713D01*
X75526247Y-108785713D02*
X75383390Y-108785713D01*
X75383390Y-108785713D02*
X75192914Y-108738094D01*
X75192914Y-108738094D02*
X75097676Y-108690475D01*
X75097676Y-108690475D02*
X75002438Y-108595237D01*
X75002438Y-108595237D02*
X74954819Y-108452380D01*
X74954819Y-108452380D02*
X74954819Y-108357142D01*
X74954819Y-108357142D02*
X75002438Y-108214285D01*
X75002438Y-108214285D02*
X75050057Y-108166666D01*
X75288152Y-107309523D02*
X75954819Y-107309523D01*
X74907200Y-107547618D02*
X75621485Y-107785713D01*
X75621485Y-107785713D02*
X75621485Y-107166666D01*
%TO.C,C5*%
D13*
X68840000Y-69211252D02*
X68840000Y-67788748D01*
X70660000Y-69211252D02*
X70660000Y-67788748D01*
%TO.C,C2*%
X89090000Y-107211252D02*
X89090000Y-105788748D01*
X90910000Y-107211252D02*
X90910000Y-105788748D01*
%TO.C,J6*%
X53140000Y-58170000D02*
X53140000Y-60830000D01*
X70980000Y-58170000D02*
X53140000Y-58170000D01*
X70980000Y-58170000D02*
X70980000Y-60830000D01*
X70980000Y-60830000D02*
X53140000Y-60830000D01*
X73580000Y-59500000D02*
X73580000Y-60830000D01*
X73580000Y-60830000D02*
X72250000Y-60830000D01*
%TO.C,J3*%
X54210000Y-99110000D02*
X54210000Y-101770000D01*
X69510000Y-99110000D02*
X54210000Y-99110000D01*
X69510000Y-99110000D02*
X69510000Y-101770000D01*
X69510000Y-101770000D02*
X54210000Y-101770000D01*
X72110000Y-100440000D02*
X72110000Y-101770000D01*
X72110000Y-101770000D02*
X70780000Y-101770000D01*
%TO.C,D12*%
X86765000Y-84015000D02*
X86765000Y-86300000D01*
X88235000Y-84015000D02*
X86765000Y-84015000D01*
X88235000Y-86300000D02*
X88235000Y-84015000D01*
%TO.C,REF\u002A\u002A*%
X36170000Y-83960000D02*
X48830000Y-83960000D01*
X36170000Y-84000000D02*
X48830000Y-84000000D01*
X36171000Y-83880000D02*
X48829000Y-83880000D01*
X36171000Y-83920000D02*
X48829000Y-83920000D01*
X36172000Y-83840000D02*
X48828000Y-83840000D01*
X36173000Y-83800000D02*
X48827000Y-83800000D01*
X36175000Y-83760000D02*
X48825000Y-83760000D01*
X36176000Y-83720000D02*
X48824000Y-83720000D01*
X36178000Y-83680000D02*
X48822000Y-83680000D01*
X36180000Y-83640000D02*
X48820000Y-83640000D01*
X36183000Y-83600000D02*
X48817000Y-83600000D01*
X36185000Y-83560000D02*
X48815000Y-83560000D01*
X36188000Y-83520000D02*
X48812000Y-83520000D01*
X36191000Y-83480000D02*
X48809000Y-83480000D01*
X36195000Y-83440000D02*
X48805000Y-83440000D01*
X36198000Y-83400000D02*
X48802000Y-83400000D01*
X36202000Y-83360000D02*
X48798000Y-83360000D01*
X36206000Y-83320000D02*
X48794000Y-83320000D01*
X36211000Y-83280000D02*
X48789000Y-83280000D01*
X36216000Y-83240000D02*
X48784000Y-83240000D01*
X36220000Y-83200000D02*
X48780000Y-83200000D01*
X36226000Y-83160000D02*
X48774000Y-83160000D01*
X36231000Y-83120000D02*
X48769000Y-83120000D01*
X36237000Y-83080000D02*
X48763000Y-83080000D01*
X36243000Y-83040000D02*
X48757000Y-83040000D01*
X36249000Y-83000000D02*
X48751000Y-83000000D01*
X36255000Y-82960000D02*
X48745000Y-82960000D01*
X36262000Y-82920000D02*
X41060000Y-82920000D01*
X36269000Y-82880000D02*
X41060000Y-82880000D01*
X36277000Y-82840000D02*
X41060000Y-82840000D01*
X36284000Y-82800000D02*
X41060000Y-82800000D01*
X36292000Y-82760000D02*
X41060000Y-82760000D01*
X36300000Y-82720000D02*
X41060000Y-82720000D01*
X36308000Y-82680000D02*
X41060000Y-82680000D01*
X36317000Y-82640000D02*
X41060000Y-82640000D01*
X36326000Y-82600000D02*
X41060000Y-82600000D01*
X36335000Y-82560000D02*
X41060000Y-82560000D01*
X36344000Y-82520000D02*
X41060000Y-82520000D01*
X36354000Y-82480000D02*
X41060000Y-82480000D01*
X36364000Y-82440000D02*
X41060000Y-82440000D01*
X36374000Y-82400000D02*
X41060000Y-82400000D01*
X36385000Y-82360000D02*
X41060000Y-82360000D01*
X36396000Y-82320000D02*
X41060000Y-82320000D01*
X36407000Y-82280000D02*
X41060000Y-82280000D01*
X36418000Y-82240000D02*
X41060000Y-82240000D01*
X36430000Y-82200000D02*
X41060000Y-82200000D01*
X36442000Y-82160000D02*
X41060000Y-82160000D01*
X36454000Y-82120000D02*
X41060000Y-82120000D01*
X36466000Y-82080000D02*
X41060000Y-82080000D01*
X36479000Y-82040000D02*
X41060000Y-82040000D01*
X36492000Y-82000000D02*
X41060000Y-82000000D01*
X36505000Y-81960000D02*
X41060000Y-81960000D01*
X36519000Y-81920000D02*
X41060000Y-81920000D01*
X36533000Y-81880000D02*
X41060000Y-81880000D01*
X36547000Y-81840000D02*
X41060000Y-81840000D01*
X36562000Y-81800000D02*
X41060000Y-81800000D01*
X36577000Y-81760000D02*
X41060000Y-81760000D01*
X36592000Y-81720000D02*
X41060000Y-81720000D01*
X36608000Y-81680000D02*
X41060000Y-81680000D01*
X36623000Y-81640000D02*
X41060000Y-81640000D01*
X36639000Y-81600000D02*
X41060000Y-81600000D01*
X36656000Y-81560000D02*
X41060000Y-81560000D01*
X36673000Y-81520000D02*
X41060000Y-81520000D01*
X36690000Y-81480000D02*
X41060000Y-81480000D01*
X36707000Y-81440000D02*
X41060000Y-81440000D01*
X36725000Y-81400000D02*
X41060000Y-81400000D01*
X36743000Y-81360000D02*
X41060000Y-81360000D01*
X36761000Y-81320000D02*
X41060000Y-81320000D01*
X36780000Y-81280000D02*
X41060000Y-81280000D01*
X36799000Y-81240000D02*
X41060000Y-81240000D01*
X36818000Y-81200000D02*
X41060000Y-81200000D01*
X36838000Y-81160000D02*
X41060000Y-81160000D01*
X36858000Y-81120000D02*
X41060000Y-81120000D01*
X36879000Y-81080000D02*
X41060000Y-81080000D01*
X36899000Y-81040000D02*
X41060000Y-81040000D01*
X36921000Y-81000000D02*
X41060000Y-81000000D01*
X36942000Y-80960000D02*
X41060000Y-80960000D01*
X36964000Y-80920000D02*
X41060000Y-80920000D01*
X36986000Y-80880000D02*
X41060000Y-80880000D01*
X37009000Y-80840000D02*
X41060000Y-80840000D01*
X37032000Y-80800000D02*
X41060000Y-80800000D01*
X37056000Y-80760000D02*
X41060000Y-80760000D01*
X37079000Y-80720000D02*
X41060000Y-80720000D01*
X37104000Y-80680000D02*
X41060000Y-80680000D01*
X37128000Y-80640000D02*
X41060000Y-80640000D01*
X37153000Y-80600000D02*
X41060000Y-80600000D01*
X37179000Y-80560000D02*
X41060000Y-80560000D01*
X37205000Y-80520000D02*
X41060000Y-80520000D01*
X37231000Y-80480000D02*
X41060000Y-80480000D01*
X37258000Y-80440000D02*
X41060000Y-80440000D01*
X37285000Y-80400000D02*
X41060000Y-80400000D01*
X37312000Y-80360000D02*
X41060000Y-80360000D01*
X37341000Y-80320000D02*
X41060000Y-80320000D01*
X37369000Y-80280000D02*
X41060000Y-80280000D01*
X37398000Y-80240000D02*
X41060000Y-80240000D01*
X37428000Y-80200000D02*
X41060000Y-80200000D01*
X37458000Y-80160000D02*
X41060000Y-80160000D01*
X37488000Y-80120000D02*
X41060000Y-80120000D01*
X37519000Y-80080000D02*
X41060000Y-80080000D01*
X37550000Y-80040000D02*
X47450000Y-80040000D01*
X37582000Y-80000000D02*
X47418000Y-80000000D01*
X37615000Y-79960000D02*
X47385000Y-79960000D01*
X37648000Y-79920000D02*
X47352000Y-79920000D01*
X37682000Y-79880000D02*
X47318000Y-79880000D01*
X37716000Y-79840000D02*
X47284000Y-79840000D01*
X37751000Y-79800000D02*
X47249000Y-79800000D01*
X37786000Y-79760000D02*
X47214000Y-79760000D01*
X37822000Y-79720000D02*
X47178000Y-79720000D01*
X37859000Y-79680000D02*
X47141000Y-79680000D01*
X37896000Y-79640000D02*
X47104000Y-79640000D01*
X37934000Y-79600000D02*
X47066000Y-79600000D01*
X37972000Y-79560000D02*
X47028000Y-79560000D01*
X38012000Y-79520000D02*
X46988000Y-79520000D01*
X38052000Y-79480000D02*
X46948000Y-79480000D01*
X38092000Y-79440000D02*
X46908000Y-79440000D01*
X38134000Y-79400000D02*
X46866000Y-79400000D01*
X38176000Y-79360000D02*
X46824000Y-79360000D01*
X38219000Y-79320000D02*
X46781000Y-79320000D01*
X38262000Y-79280000D02*
X46738000Y-79280000D01*
X38300000Y-90192082D02*
X39550000Y-90192082D01*
X38307000Y-79240000D02*
X46693000Y-79240000D01*
X38352000Y-79200000D02*
X46648000Y-79200000D01*
X38399000Y-79160000D02*
X46601000Y-79160000D01*
X38446000Y-79120000D02*
X46554000Y-79120000D01*
X38494000Y-79080000D02*
X46506000Y-79080000D01*
X38543000Y-79040000D02*
X46457000Y-79040000D01*
X38593000Y-79000000D02*
X46407000Y-79000000D01*
X38644000Y-78960000D02*
X46356000Y-78960000D01*
X38697000Y-78920000D02*
X46303000Y-78920000D01*
X38750000Y-78880000D02*
X46250000Y-78880000D01*
X38805000Y-78840000D02*
X46195000Y-78840000D01*
X38861000Y-78800000D02*
X46139000Y-78800000D01*
X38918000Y-78760000D02*
X46082000Y-78760000D01*
X38925000Y-90817082D02*
X38925000Y-89567082D01*
X38977000Y-78720000D02*
X46023000Y-78720000D01*
X39037000Y-78680000D02*
X45963000Y-78680000D01*
X39098000Y-78640000D02*
X45902000Y-78640000D01*
X39161000Y-78600000D02*
X45839000Y-78600000D01*
X39226000Y-78560000D02*
X45774000Y-78560000D01*
X39292000Y-78520000D02*
X45708000Y-78520000D01*
X39361000Y-78480000D02*
X45639000Y-78480000D01*
X39431000Y-78440000D02*
X45569000Y-78440000D01*
X39504000Y-78400000D02*
X45496000Y-78400000D01*
X39579000Y-78360000D02*
X45421000Y-78360000D01*
X39657000Y-78320000D02*
X45343000Y-78320000D01*
X39737000Y-78280000D02*
X45263000Y-78280000D01*
X39820000Y-78240000D02*
X45180000Y-78240000D01*
X39906000Y-78200000D02*
X45094000Y-78200000D01*
X39996000Y-78160000D02*
X45004000Y-78160000D01*
X40090000Y-78120000D02*
X44910000Y-78120000D01*
X40188000Y-78080000D02*
X44812000Y-78080000D01*
X40292000Y-78040000D02*
X44708000Y-78040000D01*
X40401000Y-78000000D02*
X44599000Y-78000000D01*
X40516000Y-77960000D02*
X44484000Y-77960000D01*
X40640000Y-77920000D02*
X44360000Y-77920000D01*
X40773000Y-77880000D02*
X44227000Y-77880000D01*
X40918000Y-77840000D02*
X44082000Y-77840000D01*
X41078000Y-77800000D02*
X43922000Y-77800000D01*
X41260000Y-77760000D02*
X43740000Y-77760000D01*
X41473000Y-77720000D02*
X43527000Y-77720000D01*
X41743000Y-77680000D02*
X43257000Y-77680000D01*
X42183000Y-77640000D02*
X42817000Y-77640000D01*
X43940000Y-80080000D02*
X47481000Y-80080000D01*
X43940000Y-80120000D02*
X47512000Y-80120000D01*
X43940000Y-80160000D02*
X47542000Y-80160000D01*
X43940000Y-80200000D02*
X47572000Y-80200000D01*
X43940000Y-80240000D02*
X47602000Y-80240000D01*
X43940000Y-80280000D02*
X47631000Y-80280000D01*
X43940000Y-80320000D02*
X47659000Y-80320000D01*
X43940000Y-80360000D02*
X47688000Y-80360000D01*
X43940000Y-80400000D02*
X47715000Y-80400000D01*
X43940000Y-80440000D02*
X47742000Y-80440000D01*
X43940000Y-80480000D02*
X47769000Y-80480000D01*
X43940000Y-80520000D02*
X47795000Y-80520000D01*
X43940000Y-80560000D02*
X47821000Y-80560000D01*
X43940000Y-80600000D02*
X47847000Y-80600000D01*
X43940000Y-80640000D02*
X47872000Y-80640000D01*
X43940000Y-80680000D02*
X47896000Y-80680000D01*
X43940000Y-80720000D02*
X47921000Y-80720000D01*
X43940000Y-80760000D02*
X47944000Y-80760000D01*
X43940000Y-80800000D02*
X47968000Y-80800000D01*
X43940000Y-80840000D02*
X47991000Y-80840000D01*
X43940000Y-80880000D02*
X48014000Y-80880000D01*
X43940000Y-80920000D02*
X48036000Y-80920000D01*
X43940000Y-80960000D02*
X48058000Y-80960000D01*
X43940000Y-81000000D02*
X48079000Y-81000000D01*
X43940000Y-81040000D02*
X48101000Y-81040000D01*
X43940000Y-81080000D02*
X48121000Y-81080000D01*
X43940000Y-81120000D02*
X48142000Y-81120000D01*
X43940000Y-81160000D02*
X48162000Y-81160000D01*
X43940000Y-81200000D02*
X48182000Y-81200000D01*
X43940000Y-81240000D02*
X48201000Y-81240000D01*
X43940000Y-81280000D02*
X48220000Y-81280000D01*
X43940000Y-81320000D02*
X48239000Y-81320000D01*
X43940000Y-81360000D02*
X48257000Y-81360000D01*
X43940000Y-81400000D02*
X48275000Y-81400000D01*
X43940000Y-81440000D02*
X48293000Y-81440000D01*
X43940000Y-81480000D02*
X48310000Y-81480000D01*
X43940000Y-81520000D02*
X48327000Y-81520000D01*
X43940000Y-81560000D02*
X48344000Y-81560000D01*
X43940000Y-81600000D02*
X48361000Y-81600000D01*
X43940000Y-81640000D02*
X48377000Y-81640000D01*
X43940000Y-81680000D02*
X48392000Y-81680000D01*
X43940000Y-81720000D02*
X48408000Y-81720000D01*
X43940000Y-81760000D02*
X48423000Y-81760000D01*
X43940000Y-81800000D02*
X48438000Y-81800000D01*
X43940000Y-81840000D02*
X48453000Y-81840000D01*
X43940000Y-81880000D02*
X48467000Y-81880000D01*
X43940000Y-81920000D02*
X48481000Y-81920000D01*
X43940000Y-81960000D02*
X48495000Y-81960000D01*
X43940000Y-82000000D02*
X48508000Y-82000000D01*
X43940000Y-82040000D02*
X48521000Y-82040000D01*
X43940000Y-82080000D02*
X48534000Y-82080000D01*
X43940000Y-82120000D02*
X48546000Y-82120000D01*
X43940000Y-82160000D02*
X48558000Y-82160000D01*
X43940000Y-82200000D02*
X48570000Y-82200000D01*
X43940000Y-82240000D02*
X48582000Y-82240000D01*
X43940000Y-82280000D02*
X48593000Y-82280000D01*
X43940000Y-82320000D02*
X48604000Y-82320000D01*
X43940000Y-82360000D02*
X48615000Y-82360000D01*
X43940000Y-82400000D02*
X48626000Y-82400000D01*
X43940000Y-82440000D02*
X48636000Y-82440000D01*
X43940000Y-82480000D02*
X48646000Y-82480000D01*
X43940000Y-82520000D02*
X48656000Y-82520000D01*
X43940000Y-82560000D02*
X48665000Y-82560000D01*
X43940000Y-82600000D02*
X48674000Y-82600000D01*
X43940000Y-82640000D02*
X48683000Y-82640000D01*
X43940000Y-82680000D02*
X48692000Y-82680000D01*
X43940000Y-82720000D02*
X48700000Y-82720000D01*
X43940000Y-82760000D02*
X48708000Y-82760000D01*
X43940000Y-82800000D02*
X48716000Y-82800000D01*
X43940000Y-82840000D02*
X48723000Y-82840000D01*
X43940000Y-82880000D02*
X48731000Y-82880000D01*
X43940000Y-82920000D02*
X48738000Y-82920000D01*
X48870000Y-84000000D02*
G75*
G02*
X36130000Y-84000000I-6370000J0D01*
G01*
X36130000Y-84000000D02*
G75*
G02*
X48870000Y-84000000I6370000J0D01*
G01*
%TO.C,U2*%
X65650000Y-106415000D02*
X69410000Y-106415000D01*
X65650000Y-113235000D02*
X69410000Y-113235000D01*
X69410000Y-106415000D02*
X69410000Y-107675000D01*
X69410000Y-113235000D02*
X69410000Y-111975000D01*
X64370000Y-106515000D02*
X64130000Y-106185000D01*
X64610000Y-106185000D01*
X64370000Y-106515000D01*
G36*
X64370000Y-106515000D02*
G01*
X64130000Y-106185000D01*
X64610000Y-106185000D01*
X64370000Y-106515000D01*
G37*
%TO.C,J7*%
X44940000Y-122715000D02*
X44350000Y-122715000D01*
X44940000Y-122715000D02*
X44940000Y-117815000D01*
X44940000Y-124935000D02*
X44350000Y-124935000D01*
X44940000Y-127035000D02*
X44940000Y-124935000D01*
X55060000Y-117815000D02*
X44940000Y-117815000D01*
X55060000Y-122715000D02*
X55060000Y-117815000D01*
X55060000Y-127035000D02*
X44940000Y-127035000D01*
X55060000Y-127035000D02*
X55060000Y-124935000D01*
X55650000Y-122715000D02*
X55060000Y-122715000D01*
X55650000Y-124935000D02*
X55060000Y-124935000D01*
X44350000Y-124935000D02*
G75*
G02*
X44350000Y-122715000I0J1110000D01*
G01*
X55650000Y-122715000D02*
G75*
G02*
X55650000Y-124935000I0J-1110000D01*
G01*
%TO.C,J2*%
X71990000Y-66150000D02*
X71990000Y-99230000D01*
X71990000Y-66150000D02*
X74650000Y-66150000D01*
X71990000Y-99230000D02*
X74650000Y-99230000D01*
X73320000Y-63550000D02*
X74650000Y-63550000D01*
X74650000Y-63550000D02*
X74650000Y-64880000D01*
X74650000Y-66150000D02*
X74650000Y-99230000D01*
%TO.C,R8*%
X66727500Y-70987258D02*
X66727500Y-70512742D01*
X67772500Y-70987258D02*
X67772500Y-70512742D01*
%TO.C,J5*%
X90367500Y-86450000D02*
X90367500Y-87050000D01*
X90367500Y-87050000D02*
X90967500Y-86750000D01*
X90857500Y-84140000D02*
X99277500Y-84140000D01*
X90857500Y-85360000D02*
X90857500Y-84140000D01*
X90857500Y-100640000D02*
X93057500Y-100640000D01*
X90857500Y-101860000D02*
X90857500Y-100640000D01*
X90967500Y-86750000D02*
X90367500Y-86450000D01*
X93057500Y-85360000D02*
X90857500Y-85360000D01*
X93057500Y-85360000D02*
X93057500Y-84140000D01*
X93057500Y-87920000D02*
X93057500Y-88080000D01*
X93057500Y-90420000D02*
X93057500Y-90580000D01*
X93057500Y-92920000D02*
X93057500Y-93080000D01*
X93057500Y-95420000D02*
X93057500Y-95580000D01*
X93057500Y-97920000D02*
X93057500Y-98080000D01*
X93057500Y-100640000D02*
X93057500Y-101860000D01*
X94057500Y-85360000D02*
X94057500Y-100640000D01*
X94057500Y-86430000D02*
X97477500Y-86430000D01*
X94057500Y-86750000D02*
X94057500Y-86430000D01*
X94057500Y-87070000D02*
X94057500Y-86750000D01*
X94057500Y-88930000D02*
X97477500Y-88930000D01*
X94057500Y-89250000D02*
X94057500Y-88930000D01*
X94057500Y-89570000D02*
X94057500Y-89250000D01*
X94057500Y-91430000D02*
X97477500Y-91430000D01*
X94057500Y-91750000D02*
X94057500Y-91430000D01*
X94057500Y-92070000D02*
X94057500Y-91750000D01*
X94057500Y-93930000D02*
X97477500Y-93930000D01*
X94057500Y-94250000D02*
X94057500Y-93930000D01*
X94057500Y-94570000D02*
X94057500Y-94250000D01*
X94057500Y-96430000D02*
X97477500Y-96430000D01*
X94057500Y-96750000D02*
X94057500Y-96430000D01*
X94057500Y-97070000D02*
X94057500Y-96750000D01*
X94057500Y-98930000D02*
X97477500Y-98930000D01*
X94057500Y-99250000D02*
X94057500Y-98930000D01*
X94057500Y-99570000D02*
X94057500Y-99250000D01*
X97477500Y-86430000D02*
X97557500Y-86750000D01*
X97477500Y-87070000D02*
X94057500Y-87070000D01*
X97477500Y-88930000D02*
X97557500Y-89250000D01*
X97477500Y-89570000D02*
X94057500Y-89570000D01*
X97477500Y-91430000D02*
X97557500Y-91750000D01*
X97477500Y-92070000D02*
X94057500Y-92070000D01*
X97477500Y-93930000D02*
X97557500Y-94250000D01*
X97477500Y-94570000D02*
X94057500Y-94570000D01*
X97477500Y-96430000D02*
X97557500Y-96750000D01*
X97477500Y-97070000D02*
X94057500Y-97070000D01*
X97477500Y-98930000D02*
X97557500Y-99250000D01*
X97477500Y-99570000D02*
X94057500Y-99570000D01*
X97557500Y-86750000D02*
X97477500Y-87070000D01*
X97557500Y-89250000D02*
X97477500Y-89570000D01*
X97557500Y-91750000D02*
X97477500Y-92070000D01*
X97557500Y-94250000D02*
X97477500Y-94570000D01*
X97557500Y-96750000D02*
X97477500Y-97070000D01*
X97557500Y-99250000D02*
X97477500Y-99570000D01*
X98057500Y-84140000D02*
X98057500Y-85360000D01*
X98057500Y-85360000D02*
X93057500Y-85360000D01*
X98057500Y-100640000D02*
X93057500Y-100640000D01*
X98057500Y-101860000D02*
X98057500Y-100640000D01*
X99277500Y-84140000D02*
X99277500Y-101860000D01*
X99277500Y-101860000D02*
X90857500Y-101860000D01*
%TO.C,D10*%
X40850000Y-97840000D02*
X40850000Y-103650000D01*
X45150000Y-97840000D02*
X40850000Y-97840000D01*
X45150000Y-97840000D02*
X45150000Y-103650000D01*
%TO.C,D1*%
X31170000Y-62705000D02*
X31170000Y-65795000D01*
X31170000Y-62705170D02*
G75*
G02*
X36720000Y-64250000I2560000J-1544830D01*
G01*
X36720000Y-64250000D02*
G75*
G02*
X31170000Y-65794830I-2990000J0D01*
G01*
X36230000Y-64250000D02*
G75*
G02*
X31230000Y-64250000I-2500000J0D01*
G01*
X31230000Y-64250000D02*
G75*
G02*
X36230000Y-64250000I2500000J0D01*
G01*
%TO.C,D11*%
X35850000Y-105160000D02*
X35850000Y-99350000D01*
X35850000Y-105160000D02*
X40150000Y-105160000D01*
X40150000Y-105160000D02*
X40150000Y-99350000D01*
%TO.C,D2*%
X31170000Y-69205000D02*
X31170000Y-72295000D01*
X31170000Y-69205170D02*
G75*
G02*
X36720000Y-70750000I2560000J-1544830D01*
G01*
X36720000Y-70750000D02*
G75*
G02*
X31170000Y-72294830I-2990000J0D01*
G01*
X36230000Y-70750000D02*
G75*
G02*
X31230000Y-70750000I-2500000J0D01*
G01*
X31230000Y-70750000D02*
G75*
G02*
X36230000Y-70750000I2500000J0D01*
G01*
%TO.C,D14*%
X46297500Y-99200000D02*
X46297500Y-101485000D01*
X46297500Y-101485000D02*
X47767500Y-101485000D01*
X47767500Y-101485000D02*
X47767500Y-99200000D01*
%TO.C,D5*%
X75350000Y-87660000D02*
X75350000Y-81850000D01*
X75350000Y-87660000D02*
X79650000Y-87660000D01*
X79650000Y-87660000D02*
X79650000Y-81850000D01*
%TO.C,C1*%
X76590000Y-111788748D02*
X76590000Y-113211252D01*
X78410000Y-111788748D02*
X78410000Y-113211252D01*
%TO.C,C3*%
X59590000Y-113613748D02*
X59590000Y-115036252D01*
X61410000Y-113613748D02*
X61410000Y-115036252D01*
%TO.C,U1*%
X81650000Y-105090000D02*
X85410000Y-105090000D01*
X81650000Y-111910000D02*
X85410000Y-111910000D01*
X85410000Y-105090000D02*
X85410000Y-106350000D01*
X85410000Y-111910000D02*
X85410000Y-110650000D01*
X80370000Y-105190000D02*
X80130000Y-104860000D01*
X80610000Y-104860000D01*
X80370000Y-105190000D01*
G36*
X80370000Y-105190000D02*
G01*
X80130000Y-104860000D01*
X80610000Y-104860000D01*
X80370000Y-105190000D01*
G37*
%TO.C,J8*%
X91040000Y-72940000D02*
X91040000Y-73860000D01*
X91040000Y-73860000D02*
X92640000Y-73860000D01*
X91040000Y-82140000D02*
X91040000Y-83060000D01*
X91040000Y-83060000D02*
X98860000Y-83060000D01*
X92640000Y-72940000D02*
X92640000Y-73860000D01*
X92640000Y-73860000D02*
X92640000Y-74140000D01*
X92640000Y-81860000D02*
X91425000Y-81860000D01*
X92640000Y-81860000D02*
X92640000Y-82140000D01*
X92640000Y-82140000D02*
X91040000Y-82140000D01*
X92640000Y-83060000D02*
X92640000Y-82140000D01*
X94500000Y-75500000D02*
X98860000Y-75500000D01*
X94500000Y-80500000D02*
X94500000Y-75500000D01*
X96600000Y-81300000D02*
X98860000Y-81300000D01*
X96600000Y-81800000D02*
X98860000Y-81800000D01*
X98860000Y-72940000D02*
X91040000Y-72940000D01*
X98860000Y-80500000D02*
X94500000Y-80500000D01*
X98860000Y-83060000D02*
X98860000Y-72940000D01*
X95000000Y-73700000D02*
X96600000Y-73700000D01*
X96600000Y-74700000D01*
X95000000Y-74700000D01*
X95000000Y-73700000D01*
X95000000Y-81300000D02*
X96600000Y-81300000D01*
X96600000Y-82300000D01*
X95000000Y-82300000D01*
X95000000Y-81300000D01*
%TO.C,D15*%
X48297500Y-98515000D02*
X48297500Y-100800000D01*
X49767500Y-98515000D02*
X48297500Y-98515000D01*
X49767500Y-100800000D02*
X49767500Y-98515000D01*
%TO.C,R9*%
X65727500Y-67737258D02*
X65727500Y-67262742D01*
X66772500Y-67737258D02*
X66772500Y-67262742D01*
%TO.C,J4*%
X26222500Y-83640000D02*
X34642500Y-83640000D01*
X26222500Y-101360000D02*
X26222500Y-83640000D01*
X27442500Y-83640000D02*
X27442500Y-84860000D01*
X27442500Y-84860000D02*
X32442500Y-84860000D01*
X27442500Y-100140000D02*
X32442500Y-100140000D01*
X27442500Y-101360000D02*
X27442500Y-100140000D01*
X27942500Y-86250000D02*
X28022500Y-85930000D01*
X27942500Y-88750000D02*
X28022500Y-88430000D01*
X27942500Y-91250000D02*
X28022500Y-90930000D01*
X27942500Y-93750000D02*
X28022500Y-93430000D01*
X27942500Y-96250000D02*
X28022500Y-95930000D01*
X27942500Y-98750000D02*
X28022500Y-98430000D01*
X28022500Y-85930000D02*
X31442500Y-85930000D01*
X28022500Y-86570000D02*
X27942500Y-86250000D01*
X28022500Y-88430000D02*
X31442500Y-88430000D01*
X28022500Y-89070000D02*
X27942500Y-88750000D01*
X28022500Y-90930000D02*
X31442500Y-90930000D01*
X28022500Y-91570000D02*
X27942500Y-91250000D01*
X28022500Y-93430000D02*
X31442500Y-93430000D01*
X28022500Y-94070000D02*
X27942500Y-93750000D01*
X28022500Y-95930000D02*
X31442500Y-95930000D01*
X28022500Y-96570000D02*
X27942500Y-96250000D01*
X28022500Y-98430000D02*
X31442500Y-98430000D01*
X28022500Y-99070000D02*
X27942500Y-98750000D01*
X31442500Y-85930000D02*
X31442500Y-86250000D01*
X31442500Y-86250000D02*
X31442500Y-86570000D01*
X31442500Y-86570000D02*
X28022500Y-86570000D01*
X31442500Y-88430000D02*
X31442500Y-88750000D01*
X31442500Y-88750000D02*
X31442500Y-89070000D01*
X31442500Y-89070000D02*
X28022500Y-89070000D01*
X31442500Y-90930000D02*
X31442500Y-91250000D01*
X31442500Y-91250000D02*
X31442500Y-91570000D01*
X31442500Y-91570000D02*
X28022500Y-91570000D01*
X31442500Y-93430000D02*
X31442500Y-93750000D01*
X31442500Y-93750000D02*
X31442500Y-94070000D01*
X31442500Y-94070000D02*
X28022500Y-94070000D01*
X31442500Y-95930000D02*
X31442500Y-96250000D01*
X31442500Y-96250000D02*
X31442500Y-96570000D01*
X31442500Y-96570000D02*
X28022500Y-96570000D01*
X31442500Y-98430000D02*
X31442500Y-98750000D01*
X31442500Y-98750000D02*
X31442500Y-99070000D01*
X31442500Y-99070000D02*
X28022500Y-99070000D01*
X31442500Y-100140000D02*
X31442500Y-84860000D01*
X32442500Y-84860000D02*
X32442500Y-83640000D01*
X32442500Y-87580000D02*
X32442500Y-87420000D01*
X32442500Y-90080000D02*
X32442500Y-89920000D01*
X32442500Y-92580000D02*
X32442500Y-92420000D01*
X32442500Y-95080000D02*
X32442500Y-94920000D01*
X32442500Y-97580000D02*
X32442500Y-97420000D01*
X32442500Y-100140000D02*
X32442500Y-101360000D01*
X32442500Y-100140000D02*
X34642500Y-100140000D01*
X34532500Y-98750000D02*
X35132500Y-99050000D01*
X34642500Y-83640000D02*
X34642500Y-84860000D01*
X34642500Y-84860000D02*
X32442500Y-84860000D01*
X34642500Y-100140000D02*
X34642500Y-101360000D01*
X34642500Y-101360000D02*
X26222500Y-101360000D01*
X35132500Y-98450000D02*
X34532500Y-98750000D01*
X35132500Y-99050000D02*
X35132500Y-98450000D01*
%TO.C,J9*%
X39170000Y-59960000D02*
X40500000Y-59960000D01*
X39170000Y-61290000D02*
X39170000Y-59960000D01*
X41770000Y-59960000D02*
X49450000Y-59960000D01*
X41770000Y-62620000D02*
X41770000Y-59960000D01*
X41770000Y-62620000D02*
X49450000Y-62620000D01*
X49450000Y-62620000D02*
X49450000Y-59960000D01*
%TO.C,D13*%
X84765000Y-84700000D02*
X84765000Y-86985000D01*
X84765000Y-86985000D02*
X86235000Y-86985000D01*
X86235000Y-86985000D02*
X86235000Y-84700000D01*
%TO.C,D3*%
X31170000Y-75705000D02*
X31170000Y-78795000D01*
X31170000Y-75705170D02*
G75*
G02*
X36720000Y-77250000I2560000J-1544830D01*
G01*
X36720000Y-77250000D02*
G75*
G02*
X31170000Y-78794830I-2990000J0D01*
G01*
X36230000Y-77250000D02*
G75*
G02*
X31230000Y-77250000I-2500000J0D01*
G01*
X31230000Y-77250000D02*
G75*
G02*
X36230000Y-77250000I2500000J0D01*
G01*
%TO.C,REF\u002A\u002A*%
X80870000Y-61880000D02*
X80870000Y-60500000D01*
X82250000Y-61880000D02*
X80870000Y-61880000D01*
X83520000Y-59120000D02*
X86170000Y-59120000D01*
X83520000Y-61880000D02*
X83520000Y-59120000D01*
X83520000Y-61880000D02*
X86170000Y-61880000D01*
X86170000Y-61880000D02*
X86170000Y-59120000D01*
%TO.C,J10*%
X60590000Y-119110000D02*
X60590000Y-121610000D01*
X60590000Y-121610000D02*
X63090000Y-121610000D01*
X60890000Y-119000000D02*
X61390000Y-119000000D01*
X60890000Y-119810000D02*
X61890000Y-119810000D01*
X61390000Y-117790000D02*
X80610000Y-117790000D01*
X61390000Y-119000000D02*
X61390000Y-117790000D01*
X61890000Y-119810000D02*
X61890000Y-121310000D01*
X80110000Y-119810000D02*
X80110000Y-121310000D01*
X80610000Y-117790000D02*
X80610000Y-119000000D01*
X80610000Y-119000000D02*
X81110000Y-119000000D01*
X81110000Y-119810000D02*
X80110000Y-119810000D01*
X60890000Y-117290000D02*
X81110000Y-117290000D01*
X81110000Y-121310000D01*
X60890000Y-121310000D01*
X60890000Y-117290000D01*
%TO.C,J1*%
X51670000Y-66150000D02*
X51670000Y-99230000D01*
X51670000Y-66150000D02*
X54330000Y-66150000D01*
X51670000Y-99230000D02*
X54330000Y-99230000D01*
X53000000Y-63550000D02*
X54330000Y-63550000D01*
X54330000Y-63550000D02*
X54330000Y-64880000D01*
X54330000Y-66150000D02*
X54330000Y-99230000D01*
%TO.C,D7*%
X79850000Y-91660000D02*
X79850000Y-85850000D01*
X79850000Y-91660000D02*
X84150000Y-91660000D01*
X84150000Y-91660000D02*
X84150000Y-85850000D01*
%TO.C,C4*%
X72590000Y-108711252D02*
X72590000Y-107288748D01*
X74410000Y-108711252D02*
X74410000Y-107288748D01*
%TD*%
%LPC*%
D14*
%TO.C,*%
X68500000Y-103500000D03*
%TD*%
D15*
%TO.C,C5*%
X69750000Y-69975000D03*
X69750000Y-67025000D03*
%TD*%
%TO.C,C2*%
X90000000Y-107975000D03*
X90000000Y-105025000D03*
%TD*%
D16*
%TO.C,J6*%
X72250000Y-59500000D03*
D14*
X69710000Y-59500000D03*
X67170000Y-59500000D03*
X64630000Y-59500000D03*
X62090000Y-59500000D03*
X59550000Y-59500000D03*
X57010000Y-59500000D03*
X54470000Y-59500000D03*
%TD*%
D17*
%TO.C,REF\u002A\u002A*%
X28500000Y-58500000D03*
%TD*%
D14*
%TO.C,*%
X50500000Y-105500000D03*
%TD*%
D16*
%TO.C,J3*%
X70780000Y-100440000D03*
D14*
X68240000Y-100440000D03*
X65700000Y-100440000D03*
X63160000Y-100440000D03*
X60620000Y-100440000D03*
X58080000Y-100440000D03*
X55540000Y-100440000D03*
%TD*%
D18*
%TO.C,D12*%
X87500000Y-84712500D03*
X87500000Y-86287500D03*
%TD*%
D19*
%TO.C,REF\u002A\u002A*%
X42500000Y-86500000D03*
D20*
X42500000Y-81500000D03*
%TD*%
D21*
%TO.C,U2*%
X64350000Y-107525000D03*
X64350000Y-109825000D03*
D22*
X70650000Y-109825000D03*
D21*
X64350000Y-112125000D03*
%TD*%
D17*
%TO.C,REF\u002A\u002A*%
X28500000Y-124500000D03*
%TD*%
D23*
%TO.C,J7*%
X55500000Y-123825000D03*
X44500000Y-123825000D03*
D24*
X47500000Y-113825000D03*
D25*
X52500000Y-113825000D03*
%TD*%
D16*
%TO.C,J2*%
X73320000Y-64880000D03*
D14*
X73320000Y-67420000D03*
X73320000Y-69960000D03*
X73320000Y-72500000D03*
X73320000Y-75040000D03*
X73320000Y-77580000D03*
X73320000Y-80120000D03*
X73320000Y-82660000D03*
X73320000Y-85200000D03*
X73320000Y-87740000D03*
X73320000Y-90280000D03*
X73320000Y-92820000D03*
X73320000Y-95360000D03*
X73320000Y-97900000D03*
%TD*%
D26*
%TO.C,R8*%
X67250000Y-71575000D03*
X67250000Y-69925000D03*
%TD*%
D27*
%TO.C,J5*%
X92467500Y-86750000D03*
D28*
X92467500Y-89250000D03*
X92467500Y-91750000D03*
X92467500Y-94250000D03*
X92467500Y-96750000D03*
X92467500Y-99250000D03*
%TD*%
D29*
%TO.C,D10*%
X43000000Y-99350000D03*
X43000000Y-103650000D03*
%TD*%
D30*
%TO.C,D1*%
X32460000Y-64250000D03*
D31*
X35000000Y-64250000D03*
%TD*%
D32*
%TO.C,D11*%
X38000000Y-103650000D03*
X38000000Y-99350000D03*
%TD*%
D14*
%TO.C,*%
X86500000Y-99500000D03*
%TD*%
D17*
%TO.C,REF\u002A\u002A*%
X96500000Y-124500000D03*
%TD*%
D30*
%TO.C,D2*%
X32460000Y-70750000D03*
D31*
X35000000Y-70750000D03*
%TD*%
D33*
%TO.C,D14*%
X47032500Y-100787500D03*
X47032500Y-99212500D03*
%TD*%
D32*
%TO.C,D5*%
X77500000Y-86150000D03*
X77500000Y-81850000D03*
%TD*%
D34*
%TO.C,C1*%
X77500000Y-111025000D03*
X77500000Y-113975000D03*
%TD*%
%TO.C,C3*%
X60500000Y-112850000D03*
X60500000Y-115800000D03*
%TD*%
D21*
%TO.C,U1*%
X80350000Y-106200000D03*
X80350000Y-108500000D03*
D22*
X86650000Y-108500000D03*
D21*
X80350000Y-110800000D03*
%TD*%
D35*
%TO.C,J8*%
X92500000Y-81000000D03*
D36*
X92500000Y-79000000D03*
X92500000Y-77000000D03*
X92500000Y-75000000D03*
%TD*%
D18*
%TO.C,D15*%
X49032500Y-99212500D03*
X49032500Y-100787500D03*
%TD*%
D26*
%TO.C,R9*%
X66250000Y-68325000D03*
X66250000Y-66675000D03*
%TD*%
D14*
%TO.C,*%
X66500000Y-103500000D03*
%TD*%
D37*
%TO.C,J4*%
X33032500Y-98750000D03*
D28*
X33032500Y-96250000D03*
X33032500Y-93750000D03*
X33032500Y-91250000D03*
X33032500Y-88750000D03*
X33032500Y-86250000D03*
%TD*%
D16*
%TO.C,J9*%
X40500000Y-61290000D03*
D14*
X43040000Y-61290000D03*
X45580000Y-61290000D03*
X48120000Y-61290000D03*
%TD*%
%TO.C,*%
X88000000Y-92000000D03*
%TD*%
D33*
%TO.C,D13*%
X85500000Y-86287500D03*
X85500000Y-84712500D03*
%TD*%
D14*
%TO.C,*%
X41508235Y-92474751D03*
%TD*%
D30*
%TO.C,D3*%
X32460000Y-77250000D03*
D31*
X35000000Y-77250000D03*
%TD*%
D14*
%TO.C,*%
X43500000Y-92500000D03*
%TD*%
%TO.C,*%
X39500000Y-92500000D03*
%TD*%
D16*
%TO.C,REF\u002A\u002A*%
X82250000Y-60500000D03*
D14*
X84790000Y-60500000D03*
%TD*%
D38*
%TO.C,J10*%
X63500000Y-119000000D03*
D39*
X66000000Y-119000000D03*
X68500000Y-119000000D03*
X71000000Y-119000000D03*
X73500000Y-119000000D03*
X76000000Y-119000000D03*
X78500000Y-119000000D03*
%TD*%
D17*
%TO.C,REF\u002A\u002A*%
X96500000Y-58500000D03*
%TD*%
D14*
%TO.C,*%
X86500000Y-93500000D03*
%TD*%
%TO.C,*%
X64500000Y-103500000D03*
%TD*%
D16*
%TO.C,J1*%
X53000000Y-64880000D03*
D14*
X53000000Y-67420000D03*
X53000000Y-69960000D03*
X53000000Y-72500000D03*
X53000000Y-75040000D03*
X53000000Y-77580000D03*
X53000000Y-80120000D03*
X53000000Y-82660000D03*
X53000000Y-85200000D03*
X53000000Y-87740000D03*
X53000000Y-90280000D03*
X53000000Y-92820000D03*
X53000000Y-95360000D03*
X53000000Y-97900000D03*
%TD*%
D32*
%TO.C,D7*%
X82000000Y-90150000D03*
X82000000Y-85850000D03*
%TD*%
D15*
%TO.C,C4*%
X73500000Y-109475000D03*
X73500000Y-106525000D03*
%TD*%
D14*
%TO.C,*%
X46500000Y-105500000D03*
%TD*%
%TO.C,*%
X48500000Y-105500000D03*
%TD*%
%LPD*%
M02*
