M48
; DRILL file KiCad 10.0.0 date 2026-04-07T03:57:46
; FORMAT={-:-/ absolute / metric / decimal}
; #@! TF.CreationDate,2026-04-07T03:57:46+10:00
; #@! TF.GenerationSoftware,Kicad,Pcbnew,10.0.0
; #@! TF.FileFunction,Plated,1,2,PTH
FMAT,2
METRIC
; #@! TA.AperFunction,Plated,PTH,ViaDrill
T1C0.300
; #@! TA.AperFunction,Plated,PTH,ComponentDrill
T2C0.750
; #@! TA.AperFunction,Plated,PTH,ComponentDrill
T3C0.900
; #@! TA.AperFunction,Plated,PTH,ComponentDrill
T4C0.950
; #@! TA.AperFunction,Plated,PTH,ComponentDrill
T5C1.000
; #@! TA.AperFunction,Plated,PTH,ComponentDrill
T6C1.200
; #@! TA.AperFunction,Plated,PTH,ComponentDrill
T7C1.900
%
G90
G05
T1
X47.032Y-102.0
X47.25Y-73.75
X49.032Y-102.0
X63.25Y-86.0
X66.5Y-86.5
X68.0Y-82.75
X68.0Y-84.15
X69.75Y-84.5
X70.75Y-85.75
X71.049Y-84.049
X73.346Y-111.0
X74.5Y-110.6
X83.0Y-83.5
X85.5Y-82.675
X87.5Y-82.675
X89.25Y-77.9
T2
X92.5Y-75.0
X92.5Y-77.0
X92.5Y-79.0
X92.5Y-81.0
T3
X32.46Y-64.25
X32.46Y-70.75
X32.46Y-77.25
X35.0Y-64.25
X35.0Y-70.75
X35.0Y-77.25
T4
X33.032Y-86.25
X33.032Y-88.75
X33.032Y-91.25
X33.032Y-93.75
X33.032Y-96.25
X33.032Y-98.75
X63.5Y-119.0
X66.0Y-119.0
X68.5Y-119.0
X71.0Y-119.0
X73.5Y-119.0
X76.0Y-119.0
X78.5Y-119.0
X92.468Y-86.75
X92.468Y-89.25
X92.468Y-91.75
X92.468Y-94.25
X92.468Y-96.75
X92.468Y-99.25
T5
X39.5Y-92.5
X40.5Y-61.29
X41.508Y-92.475
X43.04Y-61.29
X43.5Y-92.5
X44.5Y-123.825
X45.58Y-61.29
X46.5Y-105.5
X48.12Y-61.29
X48.5Y-105.5
X50.5Y-105.5
X53.0Y-64.88
X53.0Y-67.42
X53.0Y-69.96
X53.0Y-72.5
X53.0Y-75.04
X53.0Y-77.58
X53.0Y-80.12
X53.0Y-82.66
X53.0Y-85.2
X53.0Y-87.74
X53.0Y-90.28
X53.0Y-92.82
X53.0Y-95.36
X53.0Y-97.9
X54.47Y-59.5
X55.5Y-123.825
X55.54Y-100.44
X57.01Y-59.5
X58.08Y-100.44
X59.55Y-59.5
X60.62Y-100.44
X62.09Y-59.5
X63.16Y-100.44
X64.5Y-103.5
X64.63Y-59.5
X65.7Y-100.44
X66.5Y-103.5
X67.17Y-59.5
X68.24Y-100.44
X68.5Y-103.5
X69.71Y-59.5
X70.78Y-100.44
X72.25Y-59.5
X73.32Y-64.88
X73.32Y-67.42
X73.32Y-69.96
X73.32Y-72.5
X73.32Y-75.04
X73.32Y-77.58
X73.32Y-80.12
X73.32Y-82.66
X73.32Y-85.2
X73.32Y-87.74
X73.32Y-90.28
X73.32Y-92.82
X73.32Y-95.36
X73.32Y-97.9
X82.25Y-60.5
X84.79Y-60.5
X86.5Y-93.5
X86.5Y-99.5
X88.0Y-92.0
T6
X42.5Y-81.5
X42.5Y-86.5
T7
X47.5Y-113.825
X52.5Y-113.825
M30
